G04 Layer: TopSilkLayer*
G04 EasyEDA v6.3.22, 2020-02-28T15:00:48+01:00*
G04 63a5f4fbcb7f4444b97e2c31749ff225,9eabfb72a9474bef872f988307f0334b,10*
G04 Gerber Generator version 0.2*
G04 Scale: 100 percent, Rotated: No, Reflected: No *
G04 Dimensions in millimeters *
G04 leading zeros omitted , absolute positions ,3 integer and 3 decimal *
%FSLAX33Y33*%
%MOMM*%
G90*
G71D02*

%ADD10C,0.254000*%
%ADD31C,0.203200*%
%ADD32C,0.202999*%
%ADD33C,0.199898*%
%ADD34C,0.609599*%
%ADD35C,0.127000*%
%ADD36C,0.399999*%
%ADD37C,0.299999*%
%ADD38C,0.152400*%

%LPD*%
G54D10*
G01X2616Y11150D02*
G01X3226Y11150D01*
G01X2616Y9931D02*
G01X3226Y9931D01*
G54D31*
G01X33401Y34417D02*
G01X33401Y32512D01*
G01X35941Y32512D01*
G01X35941Y40132D01*
G01X33401Y40132D01*
G54D32*
G01X33401Y40132D02*
G01X33401Y34417D01*
G54D31*
G01X6604Y39116D02*
G01X4699Y39116D01*
G01X4699Y36576D01*
G01X19939Y36576D01*
G01X19939Y39116D01*
G54D32*
G01X19939Y39116D02*
G01X6604Y39116D01*
G54D33*
G01X5315Y9986D02*
G01X5315Y8666D01*
G01X7385Y8666D01*
G01X7385Y9986D01*
G01X5315Y11118D02*
G01X5315Y12438D01*
G01X7385Y12438D01*
G01X7385Y11118D01*
G01X11030Y9859D02*
G01X11030Y8539D01*
G01X13100Y8539D01*
G01X13100Y9859D01*
G01X11030Y10991D02*
G01X11030Y12311D01*
G01X13100Y12311D01*
G01X13100Y10991D01*
G01X24873Y9859D02*
G01X24873Y8539D01*
G01X26943Y8539D01*
G01X26943Y9859D01*
G01X24873Y10991D02*
G01X24873Y12311D01*
G01X26943Y12311D01*
G01X26943Y10991D01*
G01X30169Y9897D02*
G01X30169Y8577D01*
G01X32239Y8577D01*
G01X32239Y9897D01*
G01X30169Y11029D02*
G01X30169Y12349D01*
G01X32239Y12349D01*
G01X32239Y11029D01*
G54D10*
G01X35128Y20367D02*
G01X35128Y23067D01*
G01X31928Y23067D01*
G01X31928Y20367D01*
G01X35128Y20367D01*
G01X27127Y40081D02*
G01X30627Y40081D01*
G01X30630Y40081D02*
G01X30630Y33579D01*
G01X30627Y33579D02*
G01X27127Y33579D01*
G01X27129Y33579D02*
G01X27129Y40081D01*
G01X19050Y7620D02*
G01X19050Y0D01*
G01X19050Y0D01*
G01X19050Y7620D02*
G01X29210Y7620D01*
G01X19050Y0D02*
G01X29210Y0D01*
G01X29210Y7620D02*
G01X34290Y7620D01*
G01X29210Y0D02*
G01X34290Y0D01*
G01X34290Y7620D02*
G01X34290Y0D01*
G01X15557Y5653D02*
G01X15557Y-86D01*
G01X15557Y5663D02*
G01X7557Y5663D01*
G01X7557Y5663D02*
G01X7557Y-76D01*
G01X15557Y-96D02*
G01X7557Y-96D01*
G01X14947Y613D02*
G01X8177Y613D01*
G01X15537Y-96D02*
G01X15537Y23D01*
G01X14947Y613D01*
G01X7587Y-76D02*
G01X7587Y23D01*
G01X8177Y613D01*
G01X10287Y12522D02*
G01X10287Y14300D01*
G01X7747Y14300D01*
G01X7747Y12522D01*
G01X7747Y10617D02*
G01X7747Y8966D01*
G01X8255Y8458D01*
G01X9779Y8458D01*
G01X10287Y8966D01*
G01X10287Y10617D01*
G01X16002Y12395D02*
G01X16002Y14173D01*
G01X13462Y14173D01*
G01X13462Y12395D01*
G01X13462Y10490D02*
G01X13462Y8839D01*
G01X13970Y8331D01*
G01X15494Y8331D01*
G01X16002Y8839D01*
G01X16002Y10490D01*
G01X35141Y12306D02*
G01X35141Y14084D01*
G01X32601Y14084D01*
G01X32601Y12306D01*
G01X32601Y10401D02*
G01X32601Y8750D01*
G01X33109Y8242D01*
G01X34633Y8242D01*
G01X35141Y8750D01*
G01X35141Y10401D01*
G01X152Y34061D02*
G01X7442Y34061D01*
G01X7442Y18059D02*
G01X152Y18059D01*
G01X152Y18059D02*
G01X152Y34061D01*
G54D34*
G01X5740Y21260D02*
G01X863Y21260D01*
G01X863Y21260D02*
G01X863Y22174D01*
G01X863Y22174D02*
G01X4546Y22174D01*
G01X4546Y22174D02*
G01X4546Y23165D01*
G01X4546Y23165D02*
G01X940Y23165D01*
G01X940Y23165D02*
G01X940Y24358D01*
G01X940Y24358D02*
G01X4546Y24358D01*
G01X4546Y24358D02*
G01X4546Y25552D01*
G01X4546Y25552D02*
G01X940Y25552D01*
G01X940Y25552D02*
G01X940Y26670D01*
G01X940Y26670D02*
G01X4445Y26670D01*
G01X4445Y26670D02*
G01X4445Y27762D01*
G01X4445Y27762D02*
G01X940Y27762D01*
G01X940Y27762D02*
G01X940Y31750D01*
G01X5842Y21260D02*
G01X6451Y21260D01*
G01X6451Y21260D02*
G01X6451Y27762D01*
G54D10*
G01X24155Y20371D02*
G01X24155Y18059D01*
G01X24155Y34061D02*
G01X24155Y32359D01*
G01X33784Y25273D02*
G01X33784Y30571D01*
G01X40383Y30571D02*
G01X40383Y25273D01*
G01X35085Y31872D02*
G01X33784Y30571D01*
G01X39083Y31872D02*
G01X40383Y30571D01*
G01X39083Y31872D02*
G01X37815Y31872D01*
G01X36352Y31872D02*
G01X35085Y31872D01*
G01X40383Y25273D02*
G01X37815Y25273D01*
G01X36352Y25273D02*
G01X33784Y25273D01*
G01X26672Y25273D02*
G01X26672Y30571D01*
G01X33271Y30571D02*
G01X33271Y25273D01*
G01X27973Y31872D02*
G01X26672Y30571D01*
G01X31971Y31872D02*
G01X33271Y30571D01*
G01X31971Y31872D02*
G01X30703Y31872D01*
G01X29240Y31872D02*
G01X27973Y31872D01*
G01X33271Y25273D02*
G01X30703Y25273D01*
G01X29240Y25273D02*
G01X26672Y25273D01*
G01X17447Y14303D02*
G01X23447Y14303D01*
G01X23447Y8303D01*
G01X17447Y8303D01*
G01X17447Y14303D01*
G01X28956Y16383D02*
G01X30804Y16383D01*
G01X30804Y18923D01*
G01X28956Y18923D01*
G01X27432Y18923D02*
G01X25574Y18923D01*
G01X25574Y16383D01*
G01X27432Y16383D01*
G01X3175Y17526D02*
G01X1327Y17526D01*
G01X1327Y14986D01*
G01X3175Y14986D01*
G01X4699Y14986D02*
G01X6557Y14986D01*
G01X6557Y17526D01*
G01X4699Y17526D01*
G01X33274Y18923D02*
G01X31426Y18923D01*
G01X31426Y16383D01*
G01X33274Y16383D01*
G01X34798Y16383D02*
G01X36656Y16383D01*
G01X36656Y18923D01*
G01X34798Y18923D01*
G01X29845Y12268D02*
G01X29845Y14046D01*
G01X27305Y14046D01*
G01X27305Y12268D01*
G01X27305Y10363D02*
G01X27305Y8712D01*
G01X27813Y8204D01*
G01X29337Y8204D01*
G01X29845Y8712D01*
G01X29845Y10363D01*
G54D35*
G01X13452Y21290D02*
G01X14191Y21290D01*
G01X14330Y21244D01*
G01X14376Y21196D01*
G01X14422Y21105D01*
G01X14422Y21013D01*
G01X14376Y20919D01*
G01X14330Y20873D01*
G01X14191Y20828D01*
G01X14099Y20828D01*
G01X13452Y21595D02*
G01X14422Y21595D01*
G01X14422Y21595D02*
G01X14422Y22149D01*
G01X13683Y23147D02*
G01X13591Y23101D01*
G01X13500Y23007D01*
G01X13452Y22916D01*
G01X13452Y22730D01*
G01X13500Y22639D01*
G01X13591Y22545D01*
G01X13683Y22499D01*
G01X13822Y22453D01*
G01X14054Y22453D01*
G01X14191Y22499D01*
G01X14285Y22545D01*
G01X14376Y22639D01*
G01X14422Y22730D01*
G01X14422Y22916D01*
G01X14376Y23007D01*
G01X14285Y23101D01*
G01X14191Y23147D01*
G01X13452Y23914D02*
G01X14191Y23914D01*
G01X14330Y23866D01*
G01X14376Y23820D01*
G01X14422Y23728D01*
G01X14422Y23634D01*
G01X14376Y23543D01*
G01X14330Y23497D01*
G01X14191Y23452D01*
G01X14099Y23452D01*
G01X13452Y24219D02*
G01X14422Y24219D01*
G01X14422Y24219D02*
G01X14422Y24772D01*
G01X13683Y25768D02*
G01X13591Y25722D01*
G01X13500Y25631D01*
G01X13452Y25539D01*
G01X13452Y25354D01*
G01X13500Y25260D01*
G01X13591Y25169D01*
G01X13683Y25123D01*
G01X13822Y25077D01*
G01X14054Y25077D01*
G01X14191Y25123D01*
G01X14285Y25169D01*
G01X14376Y25260D01*
G01X14422Y25354D01*
G01X14422Y25539D01*
G01X14376Y25631D01*
G01X14285Y25722D01*
G01X14191Y25768D01*
G01X13452Y26535D02*
G01X14191Y26535D01*
G01X14330Y26489D01*
G01X14376Y26444D01*
G01X14422Y26352D01*
G01X14422Y26258D01*
G01X14376Y26167D01*
G01X14330Y26121D01*
G01X14191Y26073D01*
G01X14099Y26073D01*
G01X13452Y26840D02*
G01X14422Y26840D01*
G01X14422Y26840D02*
G01X14422Y27394D01*
G01X13683Y28392D02*
G01X13591Y28346D01*
G01X13500Y28255D01*
G01X13452Y28161D01*
G01X13452Y27978D01*
G01X13500Y27884D01*
G01X13591Y27792D01*
G01X13683Y27747D01*
G01X13822Y27698D01*
G01X14054Y27698D01*
G01X14191Y27747D01*
G01X14285Y27792D01*
G01X14376Y27884D01*
G01X14422Y27978D01*
G01X14422Y28161D01*
G01X14376Y28255D01*
G01X14285Y28346D01*
G01X14191Y28392D01*
G01X13452Y29159D02*
G01X14191Y29159D01*
G01X14330Y29113D01*
G01X14376Y29068D01*
G01X14422Y28974D01*
G01X14422Y28882D01*
G01X14376Y28791D01*
G01X14330Y28742D01*
G01X14191Y28697D01*
G01X14099Y28697D01*
G01X13452Y29464D02*
G01X14422Y29464D01*
G01X14422Y29464D02*
G01X14422Y30017D01*
G01X13683Y31016D02*
G01X13591Y30970D01*
G01X13500Y30876D01*
G01X13452Y30785D01*
G01X13452Y30599D01*
G01X13500Y30508D01*
G01X13591Y30416D01*
G01X13683Y30368D01*
G01X13822Y30322D01*
G01X14054Y30322D01*
G01X14191Y30368D01*
G01X14285Y30416D01*
G01X14376Y30508D01*
G01X14422Y30599D01*
G01X14422Y30785D01*
G01X14376Y30876D01*
G01X14285Y30970D01*
G01X14191Y31016D01*
G54D38*
G01X635Y12456D02*
G01X894Y11366D01*
G01X1155Y12456D02*
G01X894Y11366D01*
G01X1155Y12456D02*
G01X1415Y11366D01*
G01X1674Y12456D02*
G01X1415Y11366D01*
G01X2433Y12456D02*
G01X2017Y11366D01*
G01X2433Y12456D02*
G01X2847Y11366D01*
G01X2171Y11729D02*
G01X2692Y11729D01*
G01X3190Y12456D02*
G01X3190Y11366D01*
G01X3919Y12456D02*
G01X3190Y11729D01*
G01X3452Y11989D02*
G01X3919Y11366D01*
G01X4262Y12456D02*
G01X4262Y11366D01*
G01X4262Y12456D02*
G01X4938Y12456D01*
G01X4262Y11938D02*
G01X4676Y11938D01*
G01X4262Y11366D02*
G01X4938Y11366D01*
G01X32639Y32395D02*
G01X32639Y31305D01*
G01X33365Y32395D02*
G01X33365Y31305D01*
G01X32639Y31877D02*
G01X33365Y31877D01*
G01X33761Y32136D02*
G01X33761Y32187D01*
G01X33812Y32291D01*
G01X33866Y32344D01*
G01X33970Y32395D01*
G01X34175Y32395D01*
G01X34280Y32344D01*
G01X34333Y32291D01*
G01X34384Y32187D01*
G01X34384Y32082D01*
G01X34333Y31978D01*
G01X34229Y31823D01*
G01X33708Y31305D01*
G01X34437Y31305D01*
G01X4572Y36332D02*
G01X4572Y35242D01*
G01X5298Y36332D02*
G01X5298Y35242D01*
G01X4572Y35814D02*
G01X5298Y35814D01*
G01X5641Y36124D02*
G01X5745Y36177D01*
G01X5903Y36332D01*
G01X5903Y35242D01*
G01X5461Y13853D02*
G01X5461Y12763D01*
G01X5461Y13853D02*
G01X5928Y13853D01*
G01X6083Y13802D01*
G01X6136Y13749D01*
G01X6187Y13645D01*
G01X6187Y13540D01*
G01X6136Y13436D01*
G01X6083Y13386D01*
G01X5928Y13335D01*
G01X5461Y13335D01*
G01X5824Y13335D02*
G01X6187Y12763D01*
G01X6583Y13594D02*
G01X6583Y13645D01*
G01X6634Y13749D01*
G01X6688Y13802D01*
G01X6792Y13853D01*
G01X6997Y13853D01*
G01X7102Y13802D01*
G01X7155Y13749D01*
G01X7206Y13645D01*
G01X7206Y13540D01*
G01X7155Y13436D01*
G01X7051Y13281D01*
G01X6530Y12763D01*
G01X7259Y12763D01*
G01X11176Y13726D02*
G01X11176Y12636D01*
G01X11176Y13726D02*
G01X11643Y13726D01*
G01X11798Y13675D01*
G01X11851Y13622D01*
G01X11902Y13518D01*
G01X11902Y13413D01*
G01X11851Y13309D01*
G01X11798Y13259D01*
G01X11643Y13208D01*
G01X11176Y13208D01*
G01X11539Y13208D02*
G01X11902Y12636D01*
G01X12870Y13726D02*
G01X12349Y13726D01*
G01X12298Y13259D01*
G01X12349Y13309D01*
G01X12507Y13363D01*
G01X12662Y13363D01*
G01X12817Y13309D01*
G01X12921Y13208D01*
G01X12974Y13050D01*
G01X12974Y12946D01*
G01X12921Y12791D01*
G01X12817Y12687D01*
G01X12662Y12636D01*
G01X12507Y12636D01*
G01X12349Y12687D01*
G01X12298Y12738D01*
G01X12245Y12842D01*
G01X25019Y13599D02*
G01X25019Y12509D01*
G01X25019Y13599D02*
G01X25486Y13599D01*
G01X25641Y13548D01*
G01X25694Y13495D01*
G01X25745Y13391D01*
G01X25745Y13286D01*
G01X25694Y13182D01*
G01X25641Y13132D01*
G01X25486Y13081D01*
G01X25019Y13081D01*
G01X25382Y13081D02*
G01X25745Y12509D01*
G01X26713Y13444D02*
G01X26660Y13548D01*
G01X26505Y13599D01*
G01X26401Y13599D01*
G01X26246Y13548D01*
G01X26141Y13391D01*
G01X26088Y13132D01*
G01X26088Y12872D01*
G01X26141Y12664D01*
G01X26246Y12560D01*
G01X26401Y12509D01*
G01X26454Y12509D01*
G01X26609Y12560D01*
G01X26713Y12664D01*
G01X26764Y12819D01*
G01X26764Y12872D01*
G01X26713Y13027D01*
G01X26609Y13132D01*
G01X26454Y13182D01*
G01X26401Y13182D01*
G01X26246Y13132D01*
G01X26141Y13027D01*
G01X26088Y12872D01*
G01X30442Y13510D02*
G01X30442Y12420D01*
G01X30442Y13510D02*
G01X30909Y13510D01*
G01X31064Y13459D01*
G01X31117Y13406D01*
G01X31168Y13302D01*
G01X31168Y13197D01*
G01X31117Y13093D01*
G01X31064Y13043D01*
G01X30909Y12992D01*
G01X30442Y12992D01*
G01X30805Y12992D02*
G01X31168Y12420D01*
G01X32240Y13510D02*
G01X31719Y12420D01*
G01X31511Y13510D02*
G01X32240Y13510D01*
G01X38237Y21844D02*
G01X37457Y21844D01*
G01X37302Y21793D01*
G01X37198Y21689D01*
G01X37147Y21531D01*
G01X37147Y21427D01*
G01X37198Y21272D01*
G01X37302Y21168D01*
G01X37457Y21117D01*
G01X38237Y21117D01*
G01X38237Y20670D02*
G01X38237Y20099D01*
G01X37820Y20409D01*
G01X37820Y20254D01*
G01X37770Y20150D01*
G01X37719Y20099D01*
G01X37561Y20045D01*
G01X37457Y20045D01*
G01X37302Y20099D01*
G01X37198Y20203D01*
G01X37147Y20358D01*
G01X37147Y20513D01*
G01X37198Y20670D01*
G01X37249Y20721D01*
G01X37353Y20774D01*
G01X23614Y36830D02*
G01X24394Y36830D01*
G01X24549Y36881D01*
G01X24653Y36985D01*
G01X24704Y37142D01*
G01X24704Y37246D01*
G01X24653Y37401D01*
G01X24549Y37505D01*
G01X24394Y37556D01*
G01X23614Y37556D01*
G01X23873Y37952D02*
G01X23822Y37952D01*
G01X23718Y38003D01*
G01X23665Y38057D01*
G01X23614Y38161D01*
G01X23614Y38366D01*
G01X23665Y38471D01*
G01X23718Y38524D01*
G01X23822Y38575D01*
G01X23927Y38575D01*
G01X24031Y38524D01*
G01X24186Y38420D01*
G01X24704Y37899D01*
G01X24704Y38628D01*
G01X26670Y8773D02*
G01X26670Y7683D01*
G01X26670Y8773D02*
G01X27137Y8773D01*
G01X27292Y8722D01*
G01X27345Y8669D01*
G01X27396Y8565D01*
G01X27396Y8410D01*
G01X27345Y8306D01*
G01X27292Y8255D01*
G01X27137Y8201D01*
G01X26670Y8201D01*
G01X27739Y8565D02*
G01X27843Y8618D01*
G01X28001Y8773D01*
G01X28001Y7683D01*
G01X16901Y4699D02*
G01X16121Y4699D01*
G01X15966Y4648D01*
G01X15862Y4544D01*
G01X15811Y4386D01*
G01X15811Y4282D01*
G01X15862Y4127D01*
G01X15966Y4023D01*
G01X16121Y3972D01*
G01X16901Y3972D01*
G01X16746Y2900D02*
G01X16850Y3005D01*
G01X16901Y3162D01*
G01X16901Y3368D01*
G01X16850Y3525D01*
G01X16746Y3629D01*
G01X16642Y3629D01*
G01X16538Y3576D01*
G01X16484Y3525D01*
G01X16434Y3421D01*
G01X16329Y3109D01*
G01X16279Y3005D01*
G01X16225Y2954D01*
G01X16121Y2900D01*
G01X15966Y2900D01*
G01X15862Y3005D01*
G01X15811Y3162D01*
G01X15811Y3368D01*
G01X15862Y3525D01*
G01X15966Y3629D01*
G01X16901Y2558D02*
G01X15811Y2558D01*
G01X16901Y2558D02*
G01X16901Y2090D01*
G01X16850Y1935D01*
G01X16797Y1882D01*
G01X16693Y1831D01*
G01X16588Y1831D01*
G01X16484Y1882D01*
G01X16434Y1935D01*
G01X16383Y2090D01*
G01X16383Y2558D02*
G01X16383Y2090D01*
G01X16329Y1935D01*
G01X16279Y1882D01*
G01X16174Y1831D01*
G01X16017Y1831D01*
G01X15913Y1882D01*
G01X15862Y1935D01*
G01X15811Y2090D01*
G01X15811Y2558D01*
G01X16693Y1488D02*
G01X16746Y1384D01*
G01X16901Y1229D01*
G01X15811Y1229D01*
G01X7366Y15631D02*
G01X7366Y14541D01*
G01X7366Y15631D02*
G01X7833Y15631D01*
G01X7988Y15580D01*
G01X8041Y15527D01*
G01X8092Y15423D01*
G01X8092Y15268D01*
G01X8041Y15164D01*
G01X7988Y15113D01*
G01X7833Y15059D01*
G01X7366Y15059D01*
G01X8748Y15631D02*
G01X8643Y15580D01*
G01X8539Y15476D01*
G01X8488Y15372D01*
G01X8435Y15214D01*
G01X8435Y14955D01*
G01X8488Y14800D01*
G01X8539Y14696D01*
G01X8643Y14592D01*
G01X8748Y14541D01*
G01X8956Y14541D01*
G01X9060Y14592D01*
G01X9164Y14696D01*
G01X9215Y14800D01*
G01X9268Y14955D01*
G01X9268Y15214D01*
G01X9215Y15372D01*
G01X9164Y15476D01*
G01X9060Y15580D01*
G01X8956Y15631D01*
G01X8748Y15631D01*
G01X9611Y15631D02*
G01X9870Y14541D01*
G01X10129Y15631D02*
G01X9870Y14541D01*
G01X10129Y15631D02*
G01X10388Y14541D01*
G01X10650Y15631D02*
G01X10388Y14541D01*
G01X13208Y15631D02*
G01X13208Y14541D01*
G01X13208Y15631D02*
G01X13883Y15631D01*
G01X13208Y15113D02*
G01X13624Y15113D01*
G01X13208Y14541D02*
G01X13883Y14541D01*
G01X14226Y15631D02*
G01X14226Y14541D01*
G01X14226Y15631D02*
G01X14694Y15631D01*
G01X14849Y15580D01*
G01X14902Y15527D01*
G01X14953Y15423D01*
G01X14953Y15318D01*
G01X14902Y15214D01*
G01X14849Y15164D01*
G01X14694Y15113D01*
G01X14226Y15113D01*
G01X14590Y15113D02*
G01X14953Y14541D01*
G01X15296Y15631D02*
G01X15296Y14541D01*
G01X15296Y15631D02*
G01X15763Y15631D01*
G01X15920Y15580D01*
G01X15971Y15527D01*
G01X16025Y15423D01*
G01X16025Y15318D01*
G01X15971Y15214D01*
G01X15920Y15164D01*
G01X15763Y15113D01*
G01X15296Y15113D01*
G01X15659Y15113D02*
G01X16025Y14541D01*
G01X31877Y15504D02*
G01X31877Y14414D01*
G01X31877Y14414D02*
G01X32499Y14414D01*
G01X32842Y15504D02*
G01X32842Y14414D01*
G01X33185Y15504D02*
G01X33185Y14414D01*
G01X33185Y15504D02*
G01X33914Y14414D01*
G01X33914Y15504D02*
G01X33914Y14414D01*
G01X34257Y15504D02*
G01X34257Y14414D01*
G01X34983Y15504D02*
G01X34257Y14777D01*
G01X34516Y15037D02*
G01X34983Y14414D01*
G01X35326Y15504D02*
G01X35743Y14986D01*
G01X35743Y14414D01*
G01X36157Y15504D02*
G01X35743Y14986D01*
G01X498Y34671D02*
G01X1277Y34671D01*
G01X1432Y34722D01*
G01X1536Y34826D01*
G01X1587Y34983D01*
G01X1587Y35087D01*
G01X1536Y35242D01*
G01X1432Y35346D01*
G01X1277Y35397D01*
G01X498Y35397D01*
G01X706Y35740D02*
G01X653Y35844D01*
G01X498Y36002D01*
G01X1587Y36002D01*
G01X11384Y22098D02*
G01X12354Y22098D01*
G01X11384Y22098D02*
G01X11384Y22697D01*
G01X11846Y22098D02*
G01X11846Y22466D01*
G01X12354Y22098D02*
G01X12354Y22697D01*
G01X11521Y23650D02*
G01X11430Y23558D01*
G01X11384Y23419D01*
G01X11384Y23233D01*
G01X11430Y23096D01*
G01X11521Y23002D01*
G01X11615Y23002D01*
G01X11707Y23050D01*
G01X11752Y23096D01*
G01X11798Y23187D01*
G01X11892Y23464D01*
G01X11938Y23558D01*
G01X11983Y23604D01*
G01X12077Y23650D01*
G01X12215Y23650D01*
G01X12306Y23558D01*
G01X12354Y23419D01*
G01X12354Y23233D01*
G01X12306Y23096D01*
G01X12215Y23002D01*
G01X11384Y23954D02*
G01X12354Y23954D01*
G01X11384Y23954D02*
G01X11384Y24371D01*
G01X11430Y24508D01*
G01X11475Y24554D01*
G01X11569Y24600D01*
G01X11707Y24600D01*
G01X11798Y24554D01*
G01X11846Y24508D01*
G01X11892Y24371D01*
G01X11892Y23954D01*
G01X11938Y25616D02*
G01X11938Y26449D01*
G01X11569Y27465D02*
G01X11521Y27556D01*
G01X11384Y27696D01*
G01X12354Y27696D01*
G01X11615Y28046D02*
G01X11569Y28046D01*
G01X11475Y28092D01*
G01X11430Y28138D01*
G01X11384Y28232D01*
G01X11384Y28415D01*
G01X11430Y28509D01*
G01X11475Y28554D01*
G01X11569Y28600D01*
G01X11661Y28600D01*
G01X11752Y28554D01*
G01X11892Y28460D01*
G01X12354Y28001D01*
G01X12354Y28646D01*
G01X11384Y28951D02*
G01X12354Y28951D01*
G01X11384Y28951D02*
G01X11384Y29553D01*
G01X11846Y28951D02*
G01X11846Y29322D01*
G01X12354Y28951D02*
G01X12354Y29553D01*
G01X38753Y32898D02*
G01X38699Y33002D01*
G01X38595Y33106D01*
G01X38493Y33157D01*
G01X38285Y33157D01*
G01X38181Y33106D01*
G01X38077Y33002D01*
G01X38024Y32898D01*
G01X37973Y32740D01*
G01X37973Y32481D01*
G01X38024Y32326D01*
G01X38077Y32222D01*
G01X38181Y32118D01*
G01X38285Y32067D01*
G01X38493Y32067D01*
G01X38595Y32118D01*
G01X38699Y32222D01*
G01X38753Y32326D01*
G01X39095Y32949D02*
G01X39200Y33002D01*
G01X39355Y33157D01*
G01X39355Y32067D01*
G01X28212Y33025D02*
G01X28158Y33129D01*
G01X28054Y33233D01*
G01X27952Y33284D01*
G01X27744Y33284D01*
G01X27640Y33233D01*
G01X27536Y33129D01*
G01X27483Y33025D01*
G01X27432Y32867D01*
G01X27432Y32608D01*
G01X27483Y32453D01*
G01X27536Y32349D01*
G01X27640Y32245D01*
G01X27744Y32194D01*
G01X27952Y32194D01*
G01X28054Y32245D01*
G01X28158Y32349D01*
G01X28212Y32453D01*
G01X28605Y33025D02*
G01X28605Y33076D01*
G01X28659Y33180D01*
G01X28709Y33233D01*
G01X28814Y33284D01*
G01X29022Y33284D01*
G01X29126Y33233D01*
G01X29177Y33180D01*
G01X29230Y33076D01*
G01X29230Y32971D01*
G01X29177Y32867D01*
G01X29073Y32712D01*
G01X28554Y32194D01*
G01X29281Y32194D01*
G01X18199Y15720D02*
G01X18199Y14630D01*
G01X18199Y15720D02*
G01X18666Y15720D01*
G01X18821Y15669D01*
G01X18875Y15616D01*
G01X18925Y15512D01*
G01X18925Y15408D01*
G01X18875Y15303D01*
G01X18821Y15253D01*
G01X18666Y15202D01*
G01X18199Y15202D01*
G01X18562Y15202D02*
G01X18925Y14630D01*
G01X19268Y15720D02*
G01X19268Y14630D01*
G01X19268Y15720D02*
G01X19944Y15720D01*
G01X19268Y15202D02*
G01X19685Y15202D01*
G01X19268Y14630D02*
G01X19944Y14630D01*
G01X21016Y15565D02*
G01X20912Y15669D01*
G01X20754Y15720D01*
G01X20548Y15720D01*
G01X20391Y15669D01*
G01X20287Y15565D01*
G01X20287Y15461D01*
G01X20340Y15357D01*
G01X20391Y15303D01*
G01X20495Y15253D01*
G01X20808Y15148D01*
G01X20912Y15098D01*
G01X20962Y15044D01*
G01X21016Y14940D01*
G01X21016Y14785D01*
G01X20912Y14681D01*
G01X20754Y14630D01*
G01X20548Y14630D01*
G01X20391Y14681D01*
G01X20287Y14785D01*
G01X21359Y15720D02*
G01X21359Y14630D01*
G01X21359Y15720D02*
G01X22034Y15720D01*
G01X21359Y15202D02*
G01X21773Y15202D01*
G01X21359Y14630D02*
G01X22034Y14630D01*
G01X22740Y15720D02*
G01X22740Y14630D01*
G01X22377Y15720D02*
G01X23104Y15720D01*
G01X27676Y17018D02*
G01X28765Y17018D01*
G01X27676Y17018D02*
G01X27676Y17485D01*
G01X27726Y17640D01*
G01X27780Y17693D01*
G01X27884Y17744D01*
G01X27988Y17744D01*
G01X28092Y17693D01*
G01X28143Y17640D01*
G01X28194Y17485D01*
G01X28194Y17018D01*
G01X28194Y17381D02*
G01X28765Y17744D01*
G01X27676Y18608D02*
G01X28402Y18087D01*
G01X28402Y18867D01*
G01X27676Y18608D02*
G01X28765Y18608D01*
G01X117Y15621D02*
G01X1206Y15621D01*
G01X117Y15621D02*
G01X117Y16088D01*
G01X167Y16243D01*
G01X221Y16296D01*
G01X325Y16347D01*
G01X429Y16347D01*
G01X533Y16296D01*
G01X584Y16243D01*
G01X635Y16088D01*
G01X635Y15621D01*
G01X635Y15984D02*
G01X1206Y16347D01*
G01X325Y16690D02*
G01X272Y16794D01*
G01X117Y16952D01*
G01X1206Y16952D01*
G01X33518Y16891D02*
G01X34607Y16891D01*
G01X33518Y16891D02*
G01X33518Y17358D01*
G01X33568Y17513D01*
G01X33622Y17566D01*
G01X33726Y17617D01*
G01X33830Y17617D01*
G01X33934Y17566D01*
G01X33985Y17513D01*
G01X34036Y17358D01*
G01X34036Y16891D01*
G01X34036Y17254D02*
G01X34607Y17617D01*
G01X33518Y18064D02*
G01X33518Y18636D01*
G01X33934Y18326D01*
G01X33934Y18481D01*
G01X33985Y18585D01*
G01X34036Y18636D01*
G01X34193Y18689D01*
G01X34297Y18689D01*
G01X34452Y18636D01*
G01X34556Y18532D01*
G01X34607Y18377D01*
G01X34607Y18222D01*
G01X34556Y18064D01*
G01X34506Y18013D01*
G01X34402Y17960D01*
G01X27051Y15377D02*
G01X27310Y14287D01*
G01X27571Y15377D02*
G01X27310Y14287D01*
G01X27571Y15377D02*
G01X27831Y14287D01*
G01X28090Y15377D02*
G01X27831Y14287D01*
G01X28433Y15377D02*
G01X28433Y14287D01*
G01X28775Y15377D02*
G01X28775Y14287D01*
G01X28775Y15377D02*
G01X29451Y15377D01*
G01X28775Y14859D02*
G01X29192Y14859D01*
G01X29794Y15377D02*
G01X29794Y14287D01*
G54D36*
G75*
G01X34504Y20793D02*
G03X34499Y20793I-3J200D01*
G01*
G54D37*
G75*
G01X36929Y20117D02*
G03X36927Y20117I-1J150D01*
G01*
G54D10*
G75*
G01X20026Y0D02*
G02X23328Y0I1651J-1407D01*
G01*
G75*
G01X25106Y0D02*
G02X28408Y0I1651J-1335D01*
G01*
G75*
G01X30480Y0D02*
G02X33782Y0I1651J-1335D01*
G01*
G75*
G01X37884Y25675D02*
G03X37884Y31475I-800J2900D01*
G01*
G75*
G01X36284Y31475D02*
G03X36284Y25675I800J-2900D01*
G01*
G75*
G01X30772Y25675D02*
G03X30772Y31475I-800J2900D01*
G01*
G75*
G01X29172Y31475D02*
G03X29172Y25675I800J-2900D01*
G01*
G54D35*
G75*
G01X21847Y11303D02*
G03X21847Y11303I-1400J0D01*
G01*
G75*
G01X22347Y11303D02*
G03X22347Y11303I-1900J0D01*
G01*

%LPD*%
G36*
G01X39984Y28075D02*
G01X34084Y28075D01*
G01X34284Y27575D01*
G01X34684Y26775D01*
G01X34984Y26375D01*
G01X35384Y26175D01*
G01X35684Y25875D01*
G01X36084Y25775D01*
G01X36284Y25675D01*
G01X36284Y27475D01*
G01X37884Y27475D01*
G01X37884Y25675D01*
G01X38484Y25875D01*
G01X38884Y26075D01*
G01X39184Y26375D01*
G01X39384Y26675D01*
G01X39684Y26975D01*
G01X39884Y27475D01*
G01X39984Y28075D01*
G37*

%LPD*%
G36*
G01X32872Y28075D02*
G01X26972Y28075D01*
G01X27172Y27575D01*
G01X27572Y26775D01*
G01X27872Y26375D01*
G01X28272Y26175D01*
G01X28572Y25875D01*
G01X28972Y25775D01*
G01X29172Y25675D01*
G01X29172Y27475D01*
G01X30772Y27475D01*
G01X30772Y25675D01*
G01X31372Y25875D01*
G01X31772Y26075D01*
G01X32072Y26375D01*
G01X32272Y26675D01*
G01X32572Y26975D01*
G01X32772Y27475D01*
G01X32872Y28075D01*
G37*
M00*
M02*
