;Layer: Drill PTH
;EasyEDA v6.3.22, 2020-02-28T15:00:48+01:00
;63a5f4fbcb7f4444b97e2c31749ff225,9eabfb72a9474bef872f988307f0334b,10
;Gerber Generator version 0.2
M48
METRIC,LZ,000.000
;Holesize 1 = 0.305 METRIC
T01C0.305
;Holesize 2 = 0.701 METRIC
T02C0.701
;Holesize 3 = 0.901 METRIC
T03C0.901
;Holesize 4 = 0.915 METRIC
T04C0.915
;Holesize 5 = 1.000 METRIC
T05C1.000
;Holesize 6 = 1.200 METRIC
T06C1.200
;Holesize 7 = 1.701 METRIC
T07C1.701
%
G05
G90
T01
X+005537Y+016256
X+029972Y+034925
X+026416Y+017780
X+012573Y+017780
X+022606Y+017780
X+010246Y+005458
X+031877Y+039116
X+014732Y+013030
X+013589Y+015621
X+013589Y+020828
X+018542Y+034290
X+002032Y+010541
X+014478Y+019685
T02
X+015176Y+001573G85X+015176Y+002373
X+007937Y+001573G85X+007937Y+002373
T03
X+009146Y+004673
X+013988Y+004673
T04
X+012700Y+031623
X+015240Y+031623
X+021463Y+027559
X+021463Y+025019
X+010541Y+021082
T05
X+023697Y+013553
X+017197Y+013553
X+023697Y+009053
X+017197Y+009053
T06
X+034671Y+038862
X+034671Y+036322
X+034671Y+033782
X+018669Y+037846
X+016129Y+037846
X+013589Y+037846
X+011049Y+037846
X+008509Y+037846
X+005969Y+037846
T07
X+021590Y+003810
X+026588Y+003810
X+031750Y+003810
M30
