G04 Layer: TopSilkLayer*
G04 EasyEDA v6.3.22, 2020-01-22T21:57:18+01:00*
G04 bd40d7d6537d4de99fa6425ab58450c0,9eabfb72a9474bef872f988307f0334b,10*
G04 Gerber Generator version 0.2*
G04 Scale: 100 percent, Rotated: No, Reflected: No *
G04 Dimensions in inches *
G04 leading zeros omitted , absolute positions ,2 integer and 4 decimal *
%FSLAX24Y24*%
%MOIN*%
G90*
G70D02*

%ADD10C,0.010000*%
%ADD29C,0.007870*%
%ADD30C,0.008000*%
%ADD31C,0.007992*%
%ADD32C,0.024000*%
%ADD33C,0.005000*%
%ADD34C,0.015748*%
%ADD35C,0.011811*%
%ADD36C,0.006000*%

%LPD*%
G54D29*
G01X2092Y3931D02*
G01X2092Y3411D01*
G01X2907Y3411D01*
G01X2907Y3931D01*
G01X2092Y4377D02*
G01X2092Y4897D01*
G01X2907Y4897D01*
G01X2907Y4377D01*
G01X4342Y3881D02*
G01X4342Y3361D01*
G01X5157Y3361D01*
G01X5157Y3881D01*
G01X4342Y4327D02*
G01X4342Y4847D01*
G01X5157Y4847D01*
G01X5157Y4327D01*
G01X9792Y3881D02*
G01X9792Y3361D01*
G01X10607Y3361D01*
G01X10607Y3881D01*
G01X9792Y4327D02*
G01X9792Y4847D01*
G01X10607Y4847D01*
G01X10607Y4327D01*
G01X11877Y3896D02*
G01X11877Y3376D01*
G01X12692Y3376D01*
G01X12692Y3896D01*
G01X11877Y4342D02*
G01X11877Y4861D01*
G01X12692Y4861D01*
G01X12692Y4342D01*
G54D10*
G01X13780Y7668D02*
G01X13780Y8731D01*
G01X12520Y8731D01*
G01X12520Y7668D01*
G01X13780Y7668D01*
G54D30*
G01X2600Y15400D02*
G01X1850Y15400D01*
G01X1850Y14400D01*
G01X7850Y14400D01*
G01X7850Y15400D01*
G54D31*
G01X7850Y15400D02*
G01X2600Y15400D01*
G54D10*
G01X10680Y15780D02*
G01X12058Y15780D01*
G01X12059Y15780D02*
G01X12059Y13220D01*
G01X12058Y13220D02*
G01X10680Y13220D01*
G01X10681Y13220D02*
G01X10681Y15780D01*
G01X7500Y3000D02*
G01X7500Y0D01*
G01X7500Y0D01*
G01X7500Y3000D02*
G01X11500Y3000D01*
G01X7500Y0D02*
G01X11500Y0D01*
G01X11500Y3000D02*
G01X13500Y3000D01*
G01X11500Y0D02*
G01X13500Y0D01*
G01X13500Y3000D02*
G01X13500Y0D01*
G01X6124Y2225D02*
G01X6124Y-34D01*
G01X6124Y2229D02*
G01X2975Y2229D01*
G01X2975Y2229D02*
G01X2975Y-30D01*
G01X6124Y-37D02*
G01X2975Y-37D01*
G01X5884Y241D02*
G01X3219Y241D01*
G01X6117Y-37D02*
G01X6117Y9D01*
G01X5884Y241D01*
G01X2987Y-30D02*
G01X2987Y9D01*
G01X3219Y241D01*
G01X4050Y4930D02*
G01X4050Y5630D01*
G01X3050Y5630D01*
G01X3050Y4930D01*
G01X3050Y4180D02*
G01X3050Y3530D01*
G01X3250Y3330D01*
G01X3850Y3330D01*
G01X4050Y3530D01*
G01X4050Y4180D01*
G01X6300Y4880D02*
G01X6300Y5580D01*
G01X5300Y5580D01*
G01X5300Y4880D01*
G01X5300Y4130D02*
G01X5300Y3480D01*
G01X5500Y3280D01*
G01X6100Y3280D01*
G01X6300Y3480D01*
G01X6300Y4130D01*
G01X13835Y4845D02*
G01X13835Y5545D01*
G01X12835Y5545D01*
G01X12835Y4845D01*
G01X12835Y4095D02*
G01X12835Y3445D01*
G01X13035Y3245D01*
G01X13635Y3245D01*
G01X13835Y3445D01*
G01X13835Y4095D01*
G01X60Y13410D02*
G01X2930Y13410D01*
G01X2930Y7110D02*
G01X60Y7110D01*
G01X60Y7110D02*
G01X60Y13410D01*
G54D32*
G01X2260Y8370D02*
G01X340Y8370D01*
G01X340Y8370D02*
G01X340Y8730D01*
G01X340Y8730D02*
G01X1790Y8730D01*
G01X1790Y8730D02*
G01X1790Y9120D01*
G01X1790Y9120D02*
G01X370Y9120D01*
G01X370Y9120D02*
G01X370Y9590D01*
G01X370Y9590D02*
G01X1790Y9590D01*
G01X1790Y9590D02*
G01X1790Y10060D01*
G01X1790Y10060D02*
G01X370Y10060D01*
G01X370Y10060D02*
G01X370Y10500D01*
G01X370Y10500D02*
G01X1750Y10500D01*
G01X1750Y10500D02*
G01X1750Y10930D01*
G01X1750Y10930D02*
G01X370Y10930D01*
G01X370Y10930D02*
G01X370Y12500D01*
G01X2300Y8370D02*
G01X2540Y8370D01*
G01X2540Y8370D02*
G01X2540Y10930D01*
G54D10*
G01X9510Y8020D02*
G01X9510Y7110D01*
G01X9510Y13410D02*
G01X9510Y12740D01*
G01X13301Y9950D02*
G01X13301Y12036D01*
G01X15899Y12036D02*
G01X15899Y9950D01*
G01X13813Y12548D02*
G01X13301Y12036D01*
G01X15387Y12548D02*
G01X15899Y12036D01*
G01X15387Y12548D02*
G01X14888Y12548D01*
G01X14312Y12548D02*
G01X13813Y12548D01*
G01X15899Y9950D02*
G01X14888Y9950D01*
G01X14312Y9950D02*
G01X13301Y9950D01*
G01X10501Y9950D02*
G01X10501Y12036D01*
G01X13099Y12036D02*
G01X13099Y9950D01*
G01X11013Y12548D02*
G01X10501Y12036D01*
G01X12587Y12548D02*
G01X13099Y12036D01*
G01X12587Y12548D02*
G01X12088Y12548D01*
G01X11512Y12548D02*
G01X11013Y12548D01*
G01X13099Y9950D02*
G01X12088Y9950D01*
G01X11512Y9950D02*
G01X10501Y9950D01*
G01X6869Y5631D02*
G01X9231Y5631D01*
G01X9231Y3269D01*
G01X6869Y3269D01*
G01X6869Y5631D01*
G01X11400Y6450D02*
G01X12127Y6450D01*
G01X12127Y7450D01*
G01X11400Y7450D01*
G01X10800Y7450D02*
G01X10068Y7450D01*
G01X10068Y6450D01*
G01X10800Y6450D01*
G01X1250Y6900D02*
G01X522Y6900D01*
G01X522Y5900D01*
G01X1250Y5900D01*
G01X1850Y5900D02*
G01X2581Y5900D01*
G01X2581Y6900D01*
G01X1850Y6900D01*
G01X13100Y7450D02*
G01X12372Y7450D01*
G01X12372Y6450D01*
G01X13100Y6450D01*
G01X13700Y6450D02*
G01X14431Y6450D01*
G01X14431Y7450D01*
G01X13700Y7450D01*
G01X11750Y4830D02*
G01X11750Y5530D01*
G01X10750Y5530D01*
G01X10750Y4830D01*
G01X10750Y4080D02*
G01X10750Y3430D01*
G01X10950Y3230D01*
G01X11550Y3230D01*
G01X11750Y3430D01*
G01X11750Y4080D01*
G54D33*
G01X5296Y8382D02*
G01X5587Y8382D01*
G01X5642Y8364D01*
G01X5660Y8345D01*
G01X5678Y8309D01*
G01X5678Y8273D01*
G01X5660Y8236D01*
G01X5642Y8218D01*
G01X5587Y8200D01*
G01X5551Y8200D01*
G01X5296Y8502D02*
G01X5678Y8502D01*
G01X5678Y8502D02*
G01X5678Y8720D01*
G01X5387Y9113D02*
G01X5351Y9095D01*
G01X5315Y9058D01*
G01X5296Y9022D01*
G01X5296Y8949D01*
G01X5315Y8913D01*
G01X5351Y8876D01*
G01X5387Y8858D01*
G01X5442Y8840D01*
G01X5533Y8840D01*
G01X5587Y8858D01*
G01X5624Y8876D01*
G01X5660Y8913D01*
G01X5678Y8949D01*
G01X5678Y9022D01*
G01X5660Y9058D01*
G01X5624Y9095D01*
G01X5587Y9113D01*
G01X5296Y9415D02*
G01X5587Y9415D01*
G01X5642Y9396D01*
G01X5660Y9378D01*
G01X5678Y9342D01*
G01X5678Y9305D01*
G01X5660Y9269D01*
G01X5642Y9251D01*
G01X5587Y9233D01*
G01X5551Y9233D01*
G01X5296Y9535D02*
G01X5678Y9535D01*
G01X5678Y9535D02*
G01X5678Y9753D01*
G01X5387Y10145D02*
G01X5351Y10127D01*
G01X5315Y10091D01*
G01X5296Y10055D01*
G01X5296Y9982D01*
G01X5315Y9945D01*
G01X5351Y9909D01*
G01X5387Y9891D01*
G01X5442Y9873D01*
G01X5533Y9873D01*
G01X5587Y9891D01*
G01X5624Y9909D01*
G01X5660Y9945D01*
G01X5678Y9982D01*
G01X5678Y10055D01*
G01X5660Y10091D01*
G01X5624Y10127D01*
G01X5587Y10145D01*
G01X5296Y10447D02*
G01X5587Y10447D01*
G01X5642Y10429D01*
G01X5660Y10411D01*
G01X5678Y10375D01*
G01X5678Y10338D01*
G01X5660Y10302D01*
G01X5642Y10284D01*
G01X5587Y10265D01*
G01X5551Y10265D01*
G01X5296Y10567D02*
G01X5678Y10567D01*
G01X5678Y10567D02*
G01X5678Y10785D01*
G01X5387Y11178D02*
G01X5351Y11160D01*
G01X5315Y11124D01*
G01X5296Y11087D01*
G01X5296Y11015D01*
G01X5315Y10978D01*
G01X5351Y10942D01*
G01X5387Y10924D01*
G01X5442Y10905D01*
G01X5533Y10905D01*
G01X5587Y10924D01*
G01X5624Y10942D01*
G01X5660Y10978D01*
G01X5678Y11015D01*
G01X5678Y11087D01*
G01X5660Y11124D01*
G01X5624Y11160D01*
G01X5587Y11178D01*
G01X5296Y11480D02*
G01X5587Y11480D01*
G01X5642Y11462D01*
G01X5660Y11444D01*
G01X5678Y11407D01*
G01X5678Y11371D01*
G01X5660Y11335D01*
G01X5642Y11316D01*
G01X5587Y11298D01*
G01X5551Y11298D01*
G01X5296Y11600D02*
G01X5678Y11600D01*
G01X5678Y11600D02*
G01X5678Y11818D01*
G01X5387Y12211D02*
G01X5351Y12193D01*
G01X5315Y12156D01*
G01X5296Y12120D01*
G01X5296Y12047D01*
G01X5315Y12011D01*
G01X5351Y11975D01*
G01X5387Y11956D01*
G01X5442Y11938D01*
G01X5533Y11938D01*
G01X5587Y11956D01*
G01X5624Y11975D01*
G01X5660Y12011D01*
G01X5678Y12047D01*
G01X5678Y12120D01*
G01X5660Y12156D01*
G01X5624Y12193D01*
G01X5587Y12211D01*
G54D36*
G01X2150Y5454D02*
G01X2150Y5025D01*
G01X2150Y5454D02*
G01X2334Y5454D01*
G01X2395Y5434D01*
G01X2416Y5413D01*
G01X2436Y5372D01*
G01X2436Y5331D01*
G01X2416Y5290D01*
G01X2395Y5270D01*
G01X2334Y5250D01*
G01X2150Y5250D01*
G01X2293Y5250D02*
G01X2436Y5025D01*
G01X2592Y5352D02*
G01X2592Y5372D01*
G01X2612Y5413D01*
G01X2633Y5434D01*
G01X2674Y5454D01*
G01X2755Y5454D01*
G01X2796Y5434D01*
G01X2817Y5413D01*
G01X2837Y5372D01*
G01X2837Y5331D01*
G01X2817Y5290D01*
G01X2776Y5229D01*
G01X2571Y5025D01*
G01X2858Y5025D01*
G01X4400Y5404D02*
G01X4400Y4975D01*
G01X4400Y5404D02*
G01X4584Y5404D01*
G01X4645Y5384D01*
G01X4666Y5363D01*
G01X4686Y5322D01*
G01X4686Y5281D01*
G01X4666Y5240D01*
G01X4645Y5220D01*
G01X4584Y5200D01*
G01X4400Y5200D01*
G01X4543Y5200D02*
G01X4686Y4975D01*
G01X5067Y5404D02*
G01X4862Y5404D01*
G01X4842Y5220D01*
G01X4862Y5240D01*
G01X4924Y5261D01*
G01X4985Y5261D01*
G01X5046Y5240D01*
G01X5087Y5200D01*
G01X5108Y5138D01*
G01X5108Y5097D01*
G01X5087Y5036D01*
G01X5046Y4995D01*
G01X4985Y4975D01*
G01X4924Y4975D01*
G01X4862Y4995D01*
G01X4842Y5015D01*
G01X4821Y5056D01*
G01X9850Y5354D02*
G01X9850Y4925D01*
G01X9850Y5354D02*
G01X10034Y5354D01*
G01X10095Y5334D01*
G01X10116Y5313D01*
G01X10136Y5272D01*
G01X10136Y5231D01*
G01X10116Y5190D01*
G01X10095Y5170D01*
G01X10034Y5150D01*
G01X9850Y5150D01*
G01X9993Y5150D02*
G01X10136Y4925D01*
G01X10517Y5293D02*
G01X10496Y5334D01*
G01X10435Y5354D01*
G01X10394Y5354D01*
G01X10333Y5334D01*
G01X10292Y5272D01*
G01X10271Y5170D01*
G01X10271Y5068D01*
G01X10292Y4986D01*
G01X10333Y4945D01*
G01X10394Y4925D01*
G01X10415Y4925D01*
G01X10476Y4945D01*
G01X10517Y4986D01*
G01X10537Y5047D01*
G01X10537Y5068D01*
G01X10517Y5129D01*
G01X10476Y5170D01*
G01X10415Y5190D01*
G01X10394Y5190D01*
G01X10333Y5170D01*
G01X10292Y5129D01*
G01X10271Y5068D01*
G01X11985Y5319D02*
G01X11985Y4890D01*
G01X11985Y5319D02*
G01X12169Y5319D01*
G01X12230Y5299D01*
G01X12251Y5278D01*
G01X12271Y5237D01*
G01X12271Y5196D01*
G01X12251Y5155D01*
G01X12230Y5135D01*
G01X12169Y5115D01*
G01X11985Y5115D01*
G01X12128Y5115D02*
G01X12271Y4890D01*
G01X12693Y5319D02*
G01X12488Y4890D01*
G01X12406Y5319D02*
G01X12693Y5319D01*
G01X15004Y8250D02*
G01X14697Y8250D01*
G01X14636Y8230D01*
G01X14595Y8189D01*
G01X14575Y8127D01*
G01X14575Y8086D01*
G01X14595Y8025D01*
G01X14636Y7984D01*
G01X14697Y7964D01*
G01X15004Y7964D01*
G01X15004Y7788D02*
G01X15004Y7563D01*
G01X14840Y7685D01*
G01X14840Y7624D01*
G01X14820Y7583D01*
G01X14800Y7563D01*
G01X14738Y7542D01*
G01X14697Y7542D01*
G01X14636Y7563D01*
G01X14595Y7604D01*
G01X14575Y7665D01*
G01X14575Y7726D01*
G01X14595Y7788D01*
G01X14615Y7808D01*
G01X14656Y7829D01*
G01X1800Y14304D02*
G01X1800Y13875D01*
G01X1800Y14304D02*
G01X1984Y14304D01*
G01X2045Y14284D01*
G01X2066Y14263D01*
G01X2086Y14222D01*
G01X2086Y14161D01*
G01X2066Y14120D01*
G01X2045Y14100D01*
G01X1984Y14079D01*
G01X1800Y14079D01*
G01X2221Y14304D02*
G01X2221Y13875D01*
G01X2221Y14304D02*
G01X2405Y14304D01*
G01X2467Y14284D01*
G01X2487Y14263D01*
G01X2508Y14222D01*
G01X2508Y14181D01*
G01X2487Y14140D01*
G01X2467Y14120D01*
G01X2405Y14100D01*
G01X2221Y14100D01*
G01X2365Y14100D02*
G01X2508Y13875D01*
G01X2765Y14304D02*
G01X2725Y14284D01*
G01X2684Y14243D01*
G01X2663Y14202D01*
G01X2643Y14140D01*
G01X2643Y14038D01*
G01X2663Y13977D01*
G01X2684Y13936D01*
G01X2725Y13895D01*
G01X2765Y13875D01*
G01X2847Y13875D01*
G01X2888Y13895D01*
G01X2929Y13936D01*
G01X2950Y13977D01*
G01X2970Y14038D01*
G01X2970Y14140D01*
G01X2950Y14202D01*
G01X2929Y14243D01*
G01X2888Y14284D01*
G01X2847Y14304D01*
G01X2765Y14304D01*
G01X3412Y14202D02*
G01X3391Y14243D01*
G01X3350Y14284D01*
G01X3310Y14304D01*
G01X3228Y14304D01*
G01X3187Y14284D01*
G01X3146Y14243D01*
G01X3125Y14202D01*
G01X3105Y14140D01*
G01X3105Y14038D01*
G01X3125Y13977D01*
G01X3146Y13936D01*
G01X3187Y13895D01*
G01X3228Y13875D01*
G01X3310Y13875D01*
G01X3350Y13895D01*
G01X3391Y13936D01*
G01X3412Y13977D01*
G01X3412Y14038D01*
G01X3310Y14038D02*
G01X3412Y14038D01*
G01X9297Y14500D02*
G01X9604Y14500D01*
G01X9665Y14520D01*
G01X9706Y14561D01*
G01X9726Y14623D01*
G01X9726Y14664D01*
G01X9706Y14725D01*
G01X9665Y14766D01*
G01X9604Y14786D01*
G01X9297Y14786D01*
G01X9399Y14942D02*
G01X9379Y14942D01*
G01X9338Y14962D01*
G01X9317Y14983D01*
G01X9297Y15024D01*
G01X9297Y15105D01*
G01X9317Y15146D01*
G01X9338Y15167D01*
G01X9379Y15187D01*
G01X9420Y15187D01*
G01X9461Y15167D01*
G01X9522Y15126D01*
G01X9726Y14921D01*
G01X9726Y15208D01*
G01X10500Y3454D02*
G01X10500Y3025D01*
G01X10500Y3454D02*
G01X10684Y3454D01*
G01X10745Y3434D01*
G01X10766Y3413D01*
G01X10786Y3372D01*
G01X10786Y3311D01*
G01X10766Y3270D01*
G01X10745Y3250D01*
G01X10684Y3229D01*
G01X10500Y3229D01*
G01X10921Y3372D02*
G01X10962Y3393D01*
G01X11024Y3454D01*
G01X11024Y3025D01*
G01X6654Y1850D02*
G01X6347Y1850D01*
G01X6286Y1830D01*
G01X6245Y1789D01*
G01X6225Y1727D01*
G01X6225Y1686D01*
G01X6245Y1625D01*
G01X6286Y1584D01*
G01X6347Y1564D01*
G01X6654Y1564D01*
G01X6593Y1142D02*
G01X6634Y1183D01*
G01X6654Y1245D01*
G01X6654Y1326D01*
G01X6634Y1388D01*
G01X6593Y1429D01*
G01X6552Y1429D01*
G01X6511Y1408D01*
G01X6490Y1388D01*
G01X6470Y1347D01*
G01X6429Y1224D01*
G01X6409Y1183D01*
G01X6388Y1163D01*
G01X6347Y1142D01*
G01X6286Y1142D01*
G01X6245Y1183D01*
G01X6225Y1245D01*
G01X6225Y1326D01*
G01X6245Y1388D01*
G01X6286Y1429D01*
G01X6654Y1007D02*
G01X6225Y1007D01*
G01X6654Y1007D02*
G01X6654Y823D01*
G01X6634Y762D01*
G01X6613Y741D01*
G01X6572Y721D01*
G01X6531Y721D01*
G01X6490Y741D01*
G01X6470Y762D01*
G01X6450Y823D01*
G01X6450Y1007D02*
G01X6450Y823D01*
G01X6429Y762D01*
G01X6409Y741D01*
G01X6368Y721D01*
G01X6306Y721D01*
G01X6265Y741D01*
G01X6245Y762D01*
G01X6225Y823D01*
G01X6225Y1007D01*
G01X6572Y586D02*
G01X6593Y545D01*
G01X6654Y484D01*
G01X6225Y484D01*
G01X2900Y6154D02*
G01X2900Y5725D01*
G01X2900Y6154D02*
G01X3084Y6154D01*
G01X3145Y6134D01*
G01X3166Y6113D01*
G01X3186Y6072D01*
G01X3186Y6011D01*
G01X3166Y5970D01*
G01X3145Y5950D01*
G01X3084Y5929D01*
G01X2900Y5929D01*
G01X3444Y6154D02*
G01X3403Y6134D01*
G01X3362Y6093D01*
G01X3342Y6052D01*
G01X3321Y5990D01*
G01X3321Y5888D01*
G01X3342Y5827D01*
G01X3362Y5786D01*
G01X3403Y5745D01*
G01X3444Y5725D01*
G01X3526Y5725D01*
G01X3567Y5745D01*
G01X3608Y5786D01*
G01X3628Y5827D01*
G01X3649Y5888D01*
G01X3649Y5990D01*
G01X3628Y6052D01*
G01X3608Y6093D01*
G01X3567Y6134D01*
G01X3526Y6154D01*
G01X3444Y6154D01*
G01X3784Y6154D02*
G01X3886Y5725D01*
G01X3988Y6154D02*
G01X3886Y5725D01*
G01X3988Y6154D02*
G01X4090Y5725D01*
G01X4193Y6154D02*
G01X4090Y5725D01*
G01X5200Y6154D02*
G01X5200Y5725D01*
G01X5200Y6154D02*
G01X5466Y6154D01*
G01X5200Y5950D02*
G01X5364Y5950D01*
G01X5200Y5725D02*
G01X5466Y5725D01*
G01X5601Y6154D02*
G01X5601Y5725D01*
G01X5601Y6154D02*
G01X5785Y6154D01*
G01X5846Y6134D01*
G01X5867Y6113D01*
G01X5887Y6072D01*
G01X5887Y6031D01*
G01X5867Y5990D01*
G01X5846Y5970D01*
G01X5785Y5950D01*
G01X5601Y5950D01*
G01X5744Y5950D02*
G01X5887Y5725D01*
G01X6022Y6154D02*
G01X6022Y5725D01*
G01X6022Y6154D02*
G01X6206Y6154D01*
G01X6268Y6134D01*
G01X6288Y6113D01*
G01X6309Y6072D01*
G01X6309Y6031D01*
G01X6288Y5990D01*
G01X6268Y5970D01*
G01X6206Y5950D01*
G01X6022Y5950D01*
G01X6165Y5950D02*
G01X6309Y5725D01*
G01X12550Y6104D02*
G01X12550Y5675D01*
G01X12550Y5675D02*
G01X12795Y5675D01*
G01X12930Y6104D02*
G01X12930Y5675D01*
G01X13065Y6104D02*
G01X13065Y5675D01*
G01X13065Y6104D02*
G01X13352Y5675D01*
G01X13352Y6104D02*
G01X13352Y5675D01*
G01X13487Y6104D02*
G01X13487Y5675D01*
G01X13773Y6104D02*
G01X13487Y5818D01*
G01X13589Y5920D02*
G01X13773Y5675D01*
G01X13908Y6104D02*
G01X14072Y5900D01*
G01X14072Y5675D01*
G01X14235Y6104D02*
G01X14072Y5900D01*
G01X196Y13650D02*
G01X503Y13650D01*
G01X564Y13670D01*
G01X605Y13711D01*
G01X625Y13773D01*
G01X625Y13814D01*
G01X605Y13875D01*
G01X564Y13916D01*
G01X503Y13936D01*
G01X196Y13936D01*
G01X278Y14071D02*
G01X257Y14112D01*
G01X196Y14174D01*
G01X625Y14174D01*
G01X4482Y8700D02*
G01X4864Y8700D01*
G01X4482Y8700D02*
G01X4482Y8936D01*
G01X4664Y8700D02*
G01X4664Y8845D01*
G01X4864Y8700D02*
G01X4864Y8936D01*
G01X4536Y9311D02*
G01X4500Y9275D01*
G01X4482Y9220D01*
G01X4482Y9147D01*
G01X4500Y9093D01*
G01X4536Y9056D01*
G01X4573Y9056D01*
G01X4609Y9075D01*
G01X4627Y9093D01*
G01X4645Y9129D01*
G01X4682Y9238D01*
G01X4700Y9275D01*
G01X4718Y9293D01*
G01X4755Y9311D01*
G01X4809Y9311D01*
G01X4845Y9275D01*
G01X4864Y9220D01*
G01X4864Y9147D01*
G01X4845Y9093D01*
G01X4809Y9056D01*
G01X4482Y9431D02*
G01X4864Y9431D01*
G01X4482Y9431D02*
G01X4482Y9595D01*
G01X4500Y9649D01*
G01X4518Y9667D01*
G01X4555Y9685D01*
G01X4609Y9685D01*
G01X4645Y9667D01*
G01X4664Y9649D01*
G01X4682Y9595D01*
G01X4682Y9431D01*
G01X4700Y10085D02*
G01X4700Y10413D01*
G01X4555Y10813D02*
G01X4536Y10849D01*
G01X4482Y10904D01*
G01X4864Y10904D01*
G01X4573Y11042D02*
G01X4555Y11042D01*
G01X4518Y11060D01*
G01X4500Y11078D01*
G01X4482Y11115D01*
G01X4482Y11187D01*
G01X4500Y11224D01*
G01X4518Y11242D01*
G01X4555Y11260D01*
G01X4591Y11260D01*
G01X4627Y11242D01*
G01X4682Y11205D01*
G01X4864Y11024D01*
G01X4864Y11278D01*
G01X4482Y11398D02*
G01X4864Y11398D01*
G01X4482Y11398D02*
G01X4482Y11635D01*
G01X4664Y11398D02*
G01X4664Y11544D01*
G01X4864Y11398D02*
G01X4864Y11635D01*
G01X15257Y12952D02*
G01X15236Y12993D01*
G01X15195Y13034D01*
G01X15155Y13054D01*
G01X15073Y13054D01*
G01X15032Y13034D01*
G01X14991Y12993D01*
G01X14970Y12952D01*
G01X14950Y12890D01*
G01X14950Y12788D01*
G01X14970Y12727D01*
G01X14991Y12686D01*
G01X15032Y12645D01*
G01X15073Y12625D01*
G01X15155Y12625D01*
G01X15195Y12645D01*
G01X15236Y12686D01*
G01X15257Y12727D01*
G01X15392Y12972D02*
G01X15433Y12993D01*
G01X15494Y13054D01*
G01X15494Y12625D01*
G01X11107Y13002D02*
G01X11086Y13043D01*
G01X11045Y13084D01*
G01X11005Y13104D01*
G01X10923Y13104D01*
G01X10882Y13084D01*
G01X10841Y13043D01*
G01X10820Y13002D01*
G01X10800Y12940D01*
G01X10800Y12838D01*
G01X10820Y12777D01*
G01X10841Y12736D01*
G01X10882Y12695D01*
G01X10923Y12675D01*
G01X11005Y12675D01*
G01X11045Y12695D01*
G01X11086Y12736D01*
G01X11107Y12777D01*
G01X11262Y13002D02*
G01X11262Y13022D01*
G01X11283Y13063D01*
G01X11303Y13084D01*
G01X11344Y13104D01*
G01X11426Y13104D01*
G01X11467Y13084D01*
G01X11487Y13063D01*
G01X11508Y13022D01*
G01X11508Y12981D01*
G01X11487Y12940D01*
G01X11446Y12879D01*
G01X11242Y12675D01*
G01X11528Y12675D01*
G01X7165Y6189D02*
G01X7165Y5760D01*
G01X7165Y6189D02*
G01X7349Y6189D01*
G01X7410Y6169D01*
G01X7431Y6148D01*
G01X7451Y6107D01*
G01X7451Y6066D01*
G01X7431Y6025D01*
G01X7410Y6005D01*
G01X7349Y5985D01*
G01X7165Y5985D01*
G01X7308Y5985D02*
G01X7451Y5760D01*
G01X7586Y6189D02*
G01X7586Y5760D01*
G01X7586Y6189D02*
G01X7852Y6189D01*
G01X7586Y5985D02*
G01X7750Y5985D01*
G01X7586Y5760D02*
G01X7852Y5760D01*
G01X8274Y6128D02*
G01X8233Y6169D01*
G01X8171Y6189D01*
G01X8090Y6189D01*
G01X8028Y6169D01*
G01X7987Y6128D01*
G01X7987Y6087D01*
G01X8008Y6046D01*
G01X8028Y6025D01*
G01X8069Y6005D01*
G01X8192Y5964D01*
G01X8233Y5944D01*
G01X8253Y5923D01*
G01X8274Y5882D01*
G01X8274Y5821D01*
G01X8233Y5780D01*
G01X8171Y5760D01*
G01X8090Y5760D01*
G01X8028Y5780D01*
G01X7987Y5821D01*
G01X8409Y6189D02*
G01X8409Y5760D01*
G01X8409Y6189D02*
G01X8675Y6189D01*
G01X8409Y5985D02*
G01X8572Y5985D01*
G01X8409Y5760D02*
G01X8675Y5760D01*
G01X8953Y6189D02*
G01X8953Y5760D01*
G01X8810Y6189D02*
G01X9096Y6189D01*
G01X10896Y6700D02*
G01X11325Y6700D01*
G01X10896Y6700D02*
G01X10896Y6884D01*
G01X10916Y6945D01*
G01X10937Y6966D01*
G01X10978Y6986D01*
G01X11019Y6986D01*
G01X11060Y6966D01*
G01X11080Y6945D01*
G01X11100Y6884D01*
G01X11100Y6700D01*
G01X11100Y6843D02*
G01X11325Y6986D01*
G01X10896Y7326D02*
G01X11182Y7121D01*
G01X11182Y7428D01*
G01X10896Y7326D02*
G01X11325Y7326D01*
G01X46Y6150D02*
G01X475Y6150D01*
G01X46Y6150D02*
G01X46Y6334D01*
G01X66Y6395D01*
G01X87Y6416D01*
G01X128Y6436D01*
G01X169Y6436D01*
G01X210Y6416D01*
G01X230Y6395D01*
G01X250Y6334D01*
G01X250Y6150D01*
G01X250Y6293D02*
G01X475Y6436D01*
G01X128Y6571D02*
G01X107Y6612D01*
G01X46Y6674D01*
G01X475Y6674D01*
G01X13196Y6650D02*
G01X13625Y6650D01*
G01X13196Y6650D02*
G01X13196Y6834D01*
G01X13216Y6895D01*
G01X13237Y6916D01*
G01X13278Y6936D01*
G01X13319Y6936D01*
G01X13360Y6916D01*
G01X13380Y6895D01*
G01X13400Y6834D01*
G01X13400Y6650D01*
G01X13400Y6793D02*
G01X13625Y6936D01*
G01X13196Y7112D02*
G01X13196Y7337D01*
G01X13360Y7215D01*
G01X13360Y7276D01*
G01X13380Y7317D01*
G01X13400Y7337D01*
G01X13462Y7358D01*
G01X13503Y7358D01*
G01X13564Y7337D01*
G01X13605Y7296D01*
G01X13625Y7235D01*
G01X13625Y7174D01*
G01X13605Y7112D01*
G01X13585Y7092D01*
G01X13544Y7071D01*
G01X10650Y6054D02*
G01X10752Y5625D01*
G01X10855Y6054D02*
G01X10752Y5625D01*
G01X10855Y6054D02*
G01X10957Y5625D01*
G01X11059Y6054D02*
G01X10957Y5625D01*
G01X11194Y6054D02*
G01X11194Y5625D01*
G01X11329Y6054D02*
G01X11329Y5625D01*
G01X11329Y6054D02*
G01X11595Y6054D01*
G01X11329Y5850D02*
G01X11493Y5850D01*
G01X11730Y6054D02*
G01X11730Y5625D01*
G54D34*
G75*
G01X13534Y7836D02*
G03X13532Y7836I-1J79D01*
G01*
G54D35*
G75*
G01X14489Y7570D02*
G03X14488Y7570I0J59D01*
G01*
G54D10*
G75*
G01X7884Y0D02*
G02X9184Y0I650J-554D01*
G01*
G75*
G01X9884Y0D02*
G02X11184Y0I650J-526D01*
G01*
G75*
G01X12000Y0D02*
G02X13300Y0I650J-526D01*
G01*
G75*
G01X14915Y10108D02*
G03X14915Y12392I-315J1142D01*
G01*
G75*
G01X14285Y12392D02*
G03X14285Y10108I315J-1142D01*
G01*
G75*
G01X12115Y10108D02*
G03X12115Y12392I-315J1142D01*
G01*
G75*
G01X11485Y12392D02*
G03X11485Y10108I315J-1142D01*
G01*
G54D33*
G75*
G01X8601Y4450D02*
G03X8601Y4450I-551J0D01*
G01*
G75*
G01X8798Y4450D02*
G03X8798Y4450I-748J0D01*
G01*

%LPD*%
G36*
G01X15741Y11053D02*
G01X13419Y11053D01*
G01X13497Y10856D01*
G01X13576Y10698D01*
G01X13655Y10541D01*
G01X13773Y10383D01*
G01X13930Y10305D01*
G01X14048Y10187D01*
G01X14206Y10147D01*
G01X14285Y10108D01*
G01X14285Y10817D01*
G01X14915Y10817D01*
G01X14915Y10108D01*
G01X15151Y10187D01*
G01X15308Y10265D01*
G01X15426Y10383D01*
G01X15505Y10502D01*
G01X15623Y10620D01*
G01X15702Y10817D01*
G01X15741Y11053D01*
G37*

%LPD*%
G36*
G01X12941Y11053D02*
G01X10619Y11053D01*
G01X10697Y10856D01*
G01X10776Y10698D01*
G01X10855Y10541D01*
G01X10973Y10383D01*
G01X11130Y10305D01*
G01X11248Y10187D01*
G01X11406Y10147D01*
G01X11485Y10108D01*
G01X11485Y10817D01*
G01X12115Y10817D01*
G01X12115Y10108D01*
G01X12351Y10187D01*
G01X12508Y10265D01*
G01X12626Y10383D01*
G01X12705Y10502D01*
G01X12823Y10620D01*
G01X12902Y10817D01*
G01X12941Y11053D01*
G37*
M00*
M02*
