G04 Layer: BottomLayer*
G04 EasyEDA v6.3.22, 2020-01-22T21:57:18+01:00*
G04 bd40d7d6537d4de99fa6425ab58450c0,9eabfb72a9474bef872f988307f0334b,10*
G04 Gerber Generator version 0.2*
G04 Scale: 100 percent, Rotated: No, Reflected: No *
G04 Dimensions in inches *
G04 leading zeros omitted , absolute positions ,2 integer and 4 decimal *
%FSLAX24Y24*%
%MOIN*%
G90*
G70D02*

%ADD10C,0.010000*%
%ADD11C,0.020000*%
%ADD13C,0.024000*%
%ADD24C,0.070866*%
%ADD25R,0.070866X0.070866*%
%ADD26C,0.118110*%
%ADD27C,0.051181*%
%ADD28C,0.060000*%

%LPD*%
G36*
G01X15004Y15899D02*
G01X986Y15899D01*
G01X959Y15898D01*
G01X905Y15894D01*
G01X878Y15891D01*
G01X852Y15886D01*
G01X825Y15882D01*
G01X773Y15870D01*
G01X747Y15863D01*
G01X721Y15855D01*
G01X696Y15846D01*
G01X646Y15826D01*
G01X621Y15815D01*
G01X597Y15804D01*
G01X573Y15791D01*
G01X550Y15778D01*
G01X504Y15750D01*
G01X482Y15735D01*
G01X460Y15719D01*
G01X418Y15685D01*
G01X398Y15668D01*
G01X378Y15649D01*
G01X340Y15611D01*
G01X322Y15591D01*
G01X288Y15549D01*
G01X272Y15528D01*
G01X257Y15506D01*
G01X242Y15483D01*
G01X228Y15461D01*
G01X214Y15437D01*
G01X202Y15414D01*
G01X189Y15390D01*
G01X178Y15365D01*
G01X158Y15315D01*
G01X140Y15265D01*
G01X126Y15213D01*
G01X120Y15186D01*
G01X115Y15160D01*
G01X111Y15134D01*
G01X107Y15107D01*
G01X104Y15080D01*
G01X102Y15053D01*
G01X101Y15026D01*
G01X101Y960D01*
G01X105Y906D01*
G01X109Y880D01*
G01X112Y853D01*
G01X117Y827D01*
G01X129Y775D01*
G01X136Y749D01*
G01X144Y723D01*
G01X162Y673D01*
G01X172Y648D01*
G01X183Y623D01*
G01X207Y575D01*
G01X220Y552D01*
G01X248Y506D01*
G01X263Y484D01*
G01X279Y462D01*
G01X295Y441D01*
G01X312Y420D01*
G01X348Y380D01*
G01X386Y342D01*
G01X406Y324D01*
G01X426Y307D01*
G01X447Y290D01*
G01X491Y258D01*
G01X513Y244D01*
G01X536Y229D01*
G01X582Y203D01*
G01X606Y191D01*
G01X631Y180D01*
G01X655Y169D01*
G01X680Y159D01*
G01X705Y150D01*
G01X757Y134D01*
G01X783Y127D01*
G01X809Y121D01*
G01X861Y111D01*
G01X888Y107D01*
G01X915Y105D01*
G01X941Y102D01*
G01X968Y101D01*
G01X15041Y101D01*
G01X15068Y103D01*
G01X15122Y109D01*
G01X15149Y113D01*
G01X15175Y118D01*
G01X15202Y124D01*
G01X15228Y130D01*
G01X15254Y137D01*
G01X15280Y145D01*
G01X15306Y154D01*
G01X15356Y174D01*
G01X15381Y185D01*
G01X15406Y197D01*
G01X15430Y210D01*
G01X15453Y223D01*
G01X15476Y237D01*
G01X15499Y252D01*
G01X15522Y268D01*
G01X15543Y284D01*
G01X15565Y300D01*
G01X15586Y318D01*
G01X15626Y354D01*
G01X15645Y374D01*
G01X15664Y393D01*
G01X15682Y414D01*
G01X15716Y456D01*
G01X15732Y478D01*
G01X15747Y500D01*
G01X15762Y523D01*
G01X15776Y546D01*
G01X15802Y594D01*
G01X15814Y618D01*
G01X15825Y643D01*
G01X15845Y693D01*
G01X15854Y719D01*
G01X15862Y745D01*
G01X15869Y771D01*
G01X15876Y798D01*
G01X15881Y824D01*
G01X15886Y851D01*
G01X15894Y905D01*
G01X15898Y959D01*
G01X15899Y986D01*
G01X15899Y15014D01*
G01X15898Y15041D01*
G01X15894Y15095D01*
G01X15886Y15149D01*
G01X15881Y15176D01*
G01X15869Y15230D01*
G01X15853Y15282D01*
G01X15844Y15308D01*
G01X15834Y15333D01*
G01X15824Y15359D01*
G01X15813Y15383D01*
G01X15801Y15408D01*
G01X15788Y15432D01*
G01X15774Y15456D01*
G01X15760Y15479D01*
G01X15745Y15502D01*
G01X15730Y15524D01*
G01X15696Y15568D01*
G01X15679Y15589D01*
G01X15661Y15609D01*
G01X15642Y15629D01*
G01X15602Y15667D01*
G01X15582Y15685D01*
G01X15561Y15702D01*
G01X15539Y15719D01*
G01X15517Y15735D01*
G01X15471Y15765D01*
G01X15448Y15779D01*
G01X15400Y15805D01*
G01X15375Y15817D01*
G01X15350Y15828D01*
G01X15325Y15838D01*
G01X15273Y15856D01*
G01X15247Y15864D01*
G01X15221Y15871D01*
G01X15167Y15883D01*
G01X15140Y15888D01*
G01X15113Y15891D01*
G01X15086Y15895D01*
G01X15059Y15897D01*
G01X15032Y15898D01*
G01X15004Y15899D01*
G37*

%LPC*%
G36*
G01X3142Y1310D02*
G01X3108Y1310D01*
G01X3091Y1309D01*
G01X3074Y1307D01*
G01X3057Y1304D01*
G01X3040Y1300D01*
G01X3024Y1296D01*
G01X3008Y1291D01*
G01X2992Y1285D01*
G01X2976Y1278D01*
G01X2961Y1271D01*
G01X2946Y1263D01*
G01X2932Y1254D01*
G01X2904Y1234D01*
G01X2878Y1212D01*
G01X2866Y1200D01*
G01X2844Y1174D01*
G01X2834Y1161D01*
G01X2824Y1146D01*
G01X2816Y1132D01*
G01X2807Y1117D01*
G01X2800Y1102D01*
G01X2793Y1086D01*
G01X2787Y1070D01*
G01X2782Y1054D01*
G01X2778Y1038D01*
G01X2774Y1021D01*
G01X2771Y1004D01*
G01X2769Y987D01*
G01X2768Y970D01*
G01X2768Y583D01*
G01X2769Y566D01*
G01X2771Y549D01*
G01X2774Y532D01*
G01X2778Y515D01*
G01X2782Y499D01*
G01X2787Y483D01*
G01X2793Y467D01*
G01X2800Y451D01*
G01X2807Y436D01*
G01X2816Y421D01*
G01X2824Y407D01*
G01X2834Y392D01*
G01X2844Y379D01*
G01X2866Y353D01*
G01X2878Y341D01*
G01X2904Y319D01*
G01X2932Y299D01*
G01X2946Y290D01*
G01X2961Y282D01*
G01X2976Y275D01*
G01X2992Y268D01*
G01X3008Y262D01*
G01X3024Y257D01*
G01X3040Y253D01*
G01X3057Y249D01*
G01X3074Y246D01*
G01X3091Y244D01*
G01X3108Y243D01*
G01X3142Y243D01*
G01X3159Y244D01*
G01X3175Y246D01*
G01X3192Y249D01*
G01X3209Y253D01*
G01X3225Y257D01*
G01X3241Y262D01*
G01X3257Y268D01*
G01X3273Y275D01*
G01X3288Y282D01*
G01X3303Y290D01*
G01X3318Y299D01*
G01X3332Y309D01*
G01X3345Y319D01*
G01X3371Y341D01*
G01X3383Y353D01*
G01X3405Y379D01*
G01X3415Y392D01*
G01X3425Y407D01*
G01X3434Y421D01*
G01X3442Y436D01*
G01X3449Y451D01*
G01X3456Y467D01*
G01X3462Y483D01*
G01X3467Y499D01*
G01X3471Y515D01*
G01X3475Y532D01*
G01X3478Y549D01*
G01X3480Y566D01*
G01X3482Y600D01*
G01X3482Y953D01*
G01X3480Y987D01*
G01X3478Y1004D01*
G01X3475Y1021D01*
G01X3471Y1038D01*
G01X3467Y1054D01*
G01X3462Y1070D01*
G01X3456Y1086D01*
G01X3449Y1102D01*
G01X3442Y1117D01*
G01X3434Y1132D01*
G01X3425Y1146D01*
G01X3415Y1161D01*
G01X3405Y1174D01*
G01X3383Y1200D01*
G01X3371Y1212D01*
G01X3345Y1234D01*
G01X3332Y1244D01*
G01X3318Y1254D01*
G01X3303Y1263D01*
G01X3288Y1271D01*
G01X3273Y1278D01*
G01X3257Y1285D01*
G01X3241Y1291D01*
G01X3225Y1296D01*
G01X3209Y1300D01*
G01X3192Y1304D01*
G01X3175Y1307D01*
G01X3159Y1309D01*
G01X3142Y1310D01*
G37*
G36*
G01X5992Y1310D02*
G01X5958Y1310D01*
G01X5941Y1309D01*
G01X5924Y1307D01*
G01X5907Y1304D01*
G01X5890Y1300D01*
G01X5874Y1296D01*
G01X5858Y1291D01*
G01X5842Y1285D01*
G01X5826Y1278D01*
G01X5811Y1271D01*
G01X5796Y1263D01*
G01X5782Y1254D01*
G01X5754Y1234D01*
G01X5728Y1212D01*
G01X5716Y1200D01*
G01X5694Y1174D01*
G01X5684Y1161D01*
G01X5674Y1146D01*
G01X5666Y1132D01*
G01X5657Y1117D01*
G01X5650Y1102D01*
G01X5643Y1086D01*
G01X5637Y1070D01*
G01X5632Y1054D01*
G01X5628Y1038D01*
G01X5624Y1021D01*
G01X5621Y1004D01*
G01X5619Y987D01*
G01X5618Y970D01*
G01X5618Y583D01*
G01X5619Y566D01*
G01X5621Y549D01*
G01X5624Y532D01*
G01X5628Y515D01*
G01X5632Y499D01*
G01X5637Y483D01*
G01X5643Y467D01*
G01X5650Y451D01*
G01X5657Y436D01*
G01X5666Y421D01*
G01X5674Y407D01*
G01X5684Y392D01*
G01X5694Y379D01*
G01X5716Y353D01*
G01X5728Y341D01*
G01X5754Y319D01*
G01X5782Y299D01*
G01X5796Y290D01*
G01X5811Y282D01*
G01X5826Y275D01*
G01X5842Y268D01*
G01X5858Y262D01*
G01X5874Y257D01*
G01X5890Y253D01*
G01X5907Y249D01*
G01X5924Y246D01*
G01X5941Y244D01*
G01X5958Y243D01*
G01X5992Y243D01*
G01X6009Y244D01*
G01X6025Y246D01*
G01X6042Y249D01*
G01X6059Y253D01*
G01X6075Y257D01*
G01X6091Y262D01*
G01X6107Y268D01*
G01X6123Y275D01*
G01X6138Y282D01*
G01X6153Y290D01*
G01X6168Y299D01*
G01X6182Y309D01*
G01X6195Y319D01*
G01X6221Y341D01*
G01X6233Y353D01*
G01X6255Y379D01*
G01X6265Y392D01*
G01X6275Y407D01*
G01X6284Y421D01*
G01X6292Y436D01*
G01X6299Y451D01*
G01X6306Y467D01*
G01X6312Y483D01*
G01X6317Y499D01*
G01X6321Y515D01*
G01X6325Y532D01*
G01X6328Y549D01*
G01X6330Y566D01*
G01X6332Y600D01*
G01X6332Y953D01*
G01X6330Y987D01*
G01X6328Y1004D01*
G01X6325Y1021D01*
G01X6321Y1038D01*
G01X6317Y1054D01*
G01X6312Y1070D01*
G01X6306Y1086D01*
G01X6299Y1102D01*
G01X6292Y1117D01*
G01X6284Y1132D01*
G01X6275Y1146D01*
G01X6265Y1161D01*
G01X6255Y1174D01*
G01X6233Y1200D01*
G01X6221Y1212D01*
G01X6195Y1234D01*
G01X6182Y1244D01*
G01X6168Y1254D01*
G01X6153Y1263D01*
G01X6138Y1271D01*
G01X6123Y1278D01*
G01X6107Y1285D01*
G01X6091Y1291D01*
G01X6075Y1296D01*
G01X6059Y1300D01*
G01X6042Y1304D01*
G01X6025Y1307D01*
G01X6009Y1309D01*
G01X5992Y1310D01*
G37*
G36*
G01X1040Y1499D02*
G01X1000Y1501D01*
G01X979Y1500D01*
G01X959Y1499D01*
G01X939Y1497D01*
G01X919Y1494D01*
G01X899Y1490D01*
G01X880Y1486D01*
G01X860Y1481D01*
G01X841Y1475D01*
G01X803Y1461D01*
G01X767Y1443D01*
G01X749Y1433D01*
G01X732Y1423D01*
G01X715Y1412D01*
G01X683Y1388D01*
G01X667Y1375D01*
G01X653Y1361D01*
G01X638Y1347D01*
G01X625Y1332D01*
G01X612Y1316D01*
G01X599Y1301D01*
G01X587Y1284D01*
G01X576Y1267D01*
G01X566Y1250D01*
G01X556Y1232D01*
G01X547Y1214D01*
G01X539Y1196D01*
G01X531Y1177D01*
G01X524Y1158D01*
G01X518Y1139D01*
G01X513Y1119D01*
G01X509Y1100D01*
G01X505Y1080D01*
G01X502Y1060D01*
G01X500Y1040D01*
G01X499Y1020D01*
G01X499Y979D01*
G01X500Y959D01*
G01X502Y939D01*
G01X505Y919D01*
G01X509Y899D01*
G01X513Y880D01*
G01X518Y860D01*
G01X524Y841D01*
G01X531Y822D01*
G01X539Y803D01*
G01X547Y785D01*
G01X556Y767D01*
G01X566Y749D01*
G01X576Y732D01*
G01X587Y715D01*
G01X599Y699D01*
G01X625Y667D01*
G01X638Y653D01*
G01X653Y638D01*
G01X667Y625D01*
G01X699Y599D01*
G01X715Y587D01*
G01X732Y576D01*
G01X749Y566D01*
G01X767Y556D01*
G01X785Y547D01*
G01X803Y539D01*
G01X822Y531D01*
G01X841Y524D01*
G01X860Y518D01*
G01X880Y513D01*
G01X899Y509D01*
G01X919Y505D01*
G01X939Y502D01*
G01X959Y500D01*
G01X979Y499D01*
G01X1020Y499D01*
G01X1040Y500D01*
G01X1060Y502D01*
G01X1080Y505D01*
G01X1100Y509D01*
G01X1119Y513D01*
G01X1139Y518D01*
G01X1158Y524D01*
G01X1177Y531D01*
G01X1196Y539D01*
G01X1214Y547D01*
G01X1232Y556D01*
G01X1250Y566D01*
G01X1267Y576D01*
G01X1284Y587D01*
G01X1301Y599D01*
G01X1316Y612D01*
G01X1332Y625D01*
G01X1347Y638D01*
G01X1361Y653D01*
G01X1375Y667D01*
G01X1388Y683D01*
G01X1412Y715D01*
G01X1423Y732D01*
G01X1433Y749D01*
G01X1443Y767D01*
G01X1461Y803D01*
G01X1475Y841D01*
G01X1481Y860D01*
G01X1486Y880D01*
G01X1490Y899D01*
G01X1494Y919D01*
G01X1497Y939D01*
G01X1499Y959D01*
G01X1500Y979D01*
G01X1501Y1000D01*
G01X1499Y1040D01*
G01X1497Y1060D01*
G01X1494Y1080D01*
G01X1490Y1100D01*
G01X1486Y1119D01*
G01X1481Y1139D01*
G01X1475Y1158D01*
G01X1461Y1196D01*
G01X1443Y1232D01*
G01X1433Y1250D01*
G01X1423Y1267D01*
G01X1412Y1284D01*
G01X1400Y1301D01*
G01X1388Y1316D01*
G01X1375Y1332D01*
G01X1361Y1347D01*
G01X1347Y1361D01*
G01X1332Y1375D01*
G01X1316Y1388D01*
G01X1301Y1400D01*
G01X1284Y1412D01*
G01X1267Y1423D01*
G01X1250Y1433D01*
G01X1232Y1443D01*
G01X1196Y1461D01*
G01X1158Y1475D01*
G01X1139Y1481D01*
G01X1119Y1486D01*
G01X1100Y1490D01*
G01X1080Y1494D01*
G01X1060Y1497D01*
G01X1040Y1499D01*
G37*
G36*
G01X15040Y1499D02*
G01X15000Y1501D01*
G01X14979Y1500D01*
G01X14959Y1499D01*
G01X14939Y1497D01*
G01X14919Y1494D01*
G01X14899Y1490D01*
G01X14880Y1486D01*
G01X14860Y1481D01*
G01X14841Y1475D01*
G01X14803Y1461D01*
G01X14767Y1443D01*
G01X14749Y1433D01*
G01X14732Y1423D01*
G01X14715Y1412D01*
G01X14683Y1388D01*
G01X14667Y1375D01*
G01X14653Y1361D01*
G01X14638Y1347D01*
G01X14625Y1332D01*
G01X14612Y1316D01*
G01X14599Y1301D01*
G01X14587Y1284D01*
G01X14576Y1267D01*
G01X14566Y1250D01*
G01X14556Y1232D01*
G01X14547Y1214D01*
G01X14539Y1196D01*
G01X14531Y1177D01*
G01X14524Y1158D01*
G01X14518Y1139D01*
G01X14513Y1119D01*
G01X14509Y1100D01*
G01X14505Y1080D01*
G01X14502Y1060D01*
G01X14500Y1040D01*
G01X14499Y1020D01*
G01X14499Y979D01*
G01X14500Y959D01*
G01X14502Y939D01*
G01X14505Y919D01*
G01X14509Y899D01*
G01X14513Y880D01*
G01X14518Y860D01*
G01X14524Y841D01*
G01X14531Y822D01*
G01X14539Y803D01*
G01X14547Y785D01*
G01X14556Y767D01*
G01X14566Y749D01*
G01X14576Y732D01*
G01X14587Y715D01*
G01X14599Y699D01*
G01X14625Y667D01*
G01X14638Y653D01*
G01X14653Y638D01*
G01X14667Y625D01*
G01X14699Y599D01*
G01X14715Y587D01*
G01X14732Y576D01*
G01X14749Y566D01*
G01X14767Y556D01*
G01X14785Y547D01*
G01X14803Y539D01*
G01X14822Y531D01*
G01X14841Y524D01*
G01X14860Y518D01*
G01X14880Y513D01*
G01X14899Y509D01*
G01X14919Y505D01*
G01X14939Y502D01*
G01X14959Y500D01*
G01X14979Y499D01*
G01X15020Y499D01*
G01X15040Y500D01*
G01X15060Y502D01*
G01X15080Y505D01*
G01X15100Y509D01*
G01X15119Y513D01*
G01X15139Y518D01*
G01X15158Y524D01*
G01X15177Y531D01*
G01X15196Y539D01*
G01X15214Y547D01*
G01X15232Y556D01*
G01X15250Y566D01*
G01X15267Y576D01*
G01X15284Y587D01*
G01X15301Y599D01*
G01X15316Y612D01*
G01X15332Y625D01*
G01X15347Y638D01*
G01X15361Y653D01*
G01X15375Y667D01*
G01X15388Y683D01*
G01X15412Y715D01*
G01X15423Y732D01*
G01X15433Y749D01*
G01X15443Y767D01*
G01X15461Y803D01*
G01X15475Y841D01*
G01X15481Y860D01*
G01X15486Y880D01*
G01X15490Y899D01*
G01X15494Y919D01*
G01X15497Y939D01*
G01X15499Y959D01*
G01X15500Y979D01*
G01X15501Y1000D01*
G01X15499Y1040D01*
G01X15497Y1060D01*
G01X15494Y1080D01*
G01X15490Y1100D01*
G01X15486Y1119D01*
G01X15481Y1139D01*
G01X15475Y1158D01*
G01X15461Y1196D01*
G01X15443Y1232D01*
G01X15433Y1250D01*
G01X15423Y1267D01*
G01X15412Y1284D01*
G01X15400Y1301D01*
G01X15388Y1316D01*
G01X15375Y1332D01*
G01X15361Y1347D01*
G01X15347Y1361D01*
G01X15332Y1375D01*
G01X15316Y1388D01*
G01X15301Y1400D01*
G01X15284Y1412D01*
G01X15267Y1423D01*
G01X15250Y1433D01*
G01X15232Y1443D01*
G01X15196Y1461D01*
G01X15158Y1475D01*
G01X15139Y1481D01*
G01X15119Y1486D01*
G01X15100Y1490D01*
G01X15080Y1494D01*
G01X15060Y1497D01*
G01X15040Y1499D01*
G37*
G36*
G01X10491Y2191D02*
G01X10444Y2191D01*
G01X10420Y2190D01*
G01X10397Y2188D01*
G01X10373Y2185D01*
G01X10327Y2177D01*
G01X10304Y2171D01*
G01X10281Y2166D01*
G01X10258Y2159D01*
G01X10214Y2143D01*
G01X10192Y2134D01*
G01X10171Y2124D01*
G01X10149Y2114D01*
G01X10129Y2102D01*
G01X10108Y2090D01*
G01X10088Y2078D01*
G01X10069Y2065D01*
G01X10050Y2051D01*
G01X10031Y2036D01*
G01X10013Y2021D01*
G01X9979Y1989D01*
G01X9962Y1972D01*
G01X9946Y1954D01*
G01X9931Y1936D01*
G01X9889Y1879D01*
G01X9865Y1839D01*
G01X9843Y1797D01*
G01X9833Y1775D01*
G01X9824Y1753D01*
G01X9808Y1709D01*
G01X9796Y1663D01*
G01X9786Y1617D01*
G01X9782Y1594D01*
G01X9780Y1570D01*
G01X9778Y1547D01*
G01X9776Y1523D01*
G01X9776Y1476D01*
G01X9778Y1452D01*
G01X9780Y1429D01*
G01X9782Y1405D01*
G01X9786Y1382D01*
G01X9796Y1336D01*
G01X9808Y1290D01*
G01X9824Y1246D01*
G01X9833Y1224D01*
G01X9843Y1203D01*
G01X9854Y1181D01*
G01X9865Y1161D01*
G01X9877Y1140D01*
G01X9889Y1120D01*
G01X9931Y1063D01*
G01X9946Y1045D01*
G01X9962Y1028D01*
G01X9996Y994D01*
G01X10013Y978D01*
G01X10031Y963D01*
G01X10088Y921D01*
G01X10108Y909D01*
G01X10129Y897D01*
G01X10149Y886D01*
G01X10171Y875D01*
G01X10192Y865D01*
G01X10214Y856D01*
G01X10258Y840D01*
G01X10304Y828D01*
G01X10350Y818D01*
G01X10373Y814D01*
G01X10397Y812D01*
G01X10420Y810D01*
G01X10444Y808D01*
G01X10491Y808D01*
G01X10515Y810D01*
G01X10538Y812D01*
G01X10562Y814D01*
G01X10585Y818D01*
G01X10631Y828D01*
G01X10677Y840D01*
G01X10721Y856D01*
G01X10743Y865D01*
G01X10765Y875D01*
G01X10807Y897D01*
G01X10847Y921D01*
G01X10904Y963D01*
G01X10922Y978D01*
G01X10940Y994D01*
G01X10957Y1011D01*
G01X10989Y1045D01*
G01X11004Y1063D01*
G01X11019Y1082D01*
G01X11033Y1101D01*
G01X11046Y1120D01*
G01X11058Y1140D01*
G01X11070Y1161D01*
G01X11082Y1181D01*
G01X11092Y1203D01*
G01X11102Y1224D01*
G01X11111Y1246D01*
G01X11127Y1290D01*
G01X11134Y1313D01*
G01X11139Y1336D01*
G01X11145Y1359D01*
G01X11153Y1405D01*
G01X11156Y1429D01*
G01X11158Y1452D01*
G01X11159Y1476D01*
G01X11159Y1523D01*
G01X11158Y1547D01*
G01X11156Y1570D01*
G01X11153Y1594D01*
G01X11145Y1640D01*
G01X11139Y1663D01*
G01X11134Y1686D01*
G01X11127Y1709D01*
G01X11111Y1753D01*
G01X11102Y1775D01*
G01X11092Y1797D01*
G01X11082Y1818D01*
G01X11070Y1839D01*
G01X11046Y1879D01*
G01X11033Y1898D01*
G01X11019Y1917D01*
G01X11004Y1936D01*
G01X10989Y1954D01*
G01X10973Y1972D01*
G01X10957Y1989D01*
G01X10940Y2005D01*
G01X10922Y2021D01*
G01X10904Y2036D01*
G01X10885Y2051D01*
G01X10866Y2065D01*
G01X10847Y2078D01*
G01X10807Y2102D01*
G01X10786Y2114D01*
G01X10765Y2124D01*
G01X10743Y2134D01*
G01X10721Y2143D01*
G01X10677Y2159D01*
G01X10654Y2166D01*
G01X10631Y2171D01*
G01X10608Y2177D01*
G01X10562Y2185D01*
G01X10538Y2188D01*
G01X10515Y2190D01*
G01X10491Y2191D01*
G37*
G36*
G01X12523Y2191D02*
G01X12476Y2191D01*
G01X12452Y2190D01*
G01X12429Y2188D01*
G01X12405Y2185D01*
G01X12359Y2177D01*
G01X12336Y2171D01*
G01X12313Y2166D01*
G01X12290Y2159D01*
G01X12246Y2143D01*
G01X12224Y2134D01*
G01X12203Y2124D01*
G01X12181Y2114D01*
G01X12161Y2102D01*
G01X12140Y2090D01*
G01X12120Y2078D01*
G01X12101Y2065D01*
G01X12082Y2051D01*
G01X12063Y2036D01*
G01X12045Y2021D01*
G01X12011Y1989D01*
G01X11994Y1972D01*
G01X11978Y1954D01*
G01X11963Y1936D01*
G01X11921Y1879D01*
G01X11897Y1839D01*
G01X11875Y1797D01*
G01X11865Y1775D01*
G01X11856Y1753D01*
G01X11840Y1709D01*
G01X11828Y1663D01*
G01X11818Y1617D01*
G01X11814Y1594D01*
G01X11812Y1570D01*
G01X11810Y1547D01*
G01X11808Y1523D01*
G01X11808Y1476D01*
G01X11810Y1452D01*
G01X11812Y1429D01*
G01X11814Y1405D01*
G01X11818Y1382D01*
G01X11828Y1336D01*
G01X11840Y1290D01*
G01X11856Y1246D01*
G01X11865Y1224D01*
G01X11875Y1203D01*
G01X11886Y1181D01*
G01X11897Y1161D01*
G01X11909Y1140D01*
G01X11921Y1120D01*
G01X11963Y1063D01*
G01X11978Y1045D01*
G01X11994Y1028D01*
G01X12028Y994D01*
G01X12045Y978D01*
G01X12063Y963D01*
G01X12120Y921D01*
G01X12140Y909D01*
G01X12161Y897D01*
G01X12181Y886D01*
G01X12203Y875D01*
G01X12224Y865D01*
G01X12246Y856D01*
G01X12290Y840D01*
G01X12336Y828D01*
G01X12382Y818D01*
G01X12405Y814D01*
G01X12429Y812D01*
G01X12452Y810D01*
G01X12476Y808D01*
G01X12523Y808D01*
G01X12547Y810D01*
G01X12570Y812D01*
G01X12594Y814D01*
G01X12617Y818D01*
G01X12663Y828D01*
G01X12709Y840D01*
G01X12753Y856D01*
G01X12775Y865D01*
G01X12797Y875D01*
G01X12839Y897D01*
G01X12879Y921D01*
G01X12936Y963D01*
G01X12954Y978D01*
G01X12972Y994D01*
G01X12989Y1011D01*
G01X13021Y1045D01*
G01X13036Y1063D01*
G01X13051Y1082D01*
G01X13065Y1101D01*
G01X13078Y1120D01*
G01X13090Y1140D01*
G01X13102Y1161D01*
G01X13114Y1181D01*
G01X13124Y1203D01*
G01X13134Y1224D01*
G01X13143Y1246D01*
G01X13159Y1290D01*
G01X13166Y1313D01*
G01X13171Y1336D01*
G01X13177Y1359D01*
G01X13185Y1405D01*
G01X13188Y1429D01*
G01X13190Y1452D01*
G01X13191Y1476D01*
G01X13191Y1523D01*
G01X13190Y1547D01*
G01X13188Y1570D01*
G01X13185Y1594D01*
G01X13177Y1640D01*
G01X13171Y1663D01*
G01X13166Y1686D01*
G01X13159Y1709D01*
G01X13143Y1753D01*
G01X13134Y1775D01*
G01X13124Y1797D01*
G01X13114Y1818D01*
G01X13102Y1839D01*
G01X13078Y1879D01*
G01X13065Y1898D01*
G01X13051Y1917D01*
G01X13036Y1936D01*
G01X13021Y1954D01*
G01X13005Y1972D01*
G01X12989Y1989D01*
G01X12972Y2005D01*
G01X12954Y2021D01*
G01X12936Y2036D01*
G01X12917Y2051D01*
G01X12898Y2065D01*
G01X12879Y2078D01*
G01X12839Y2102D01*
G01X12818Y2114D01*
G01X12797Y2124D01*
G01X12775Y2134D01*
G01X12753Y2143D01*
G01X12709Y2159D01*
G01X12686Y2166D01*
G01X12663Y2171D01*
G01X12640Y2177D01*
G01X12594Y2185D01*
G01X12570Y2188D01*
G01X12547Y2190D01*
G01X12523Y2191D01*
G37*
G36*
G01X8523Y2191D02*
G01X8476Y2191D01*
G01X8452Y2190D01*
G01X8429Y2188D01*
G01X8405Y2185D01*
G01X8359Y2177D01*
G01X8336Y2171D01*
G01X8313Y2166D01*
G01X8290Y2159D01*
G01X8246Y2143D01*
G01X8224Y2134D01*
G01X8203Y2124D01*
G01X8181Y2114D01*
G01X8161Y2102D01*
G01X8140Y2090D01*
G01X8120Y2078D01*
G01X8101Y2065D01*
G01X8082Y2051D01*
G01X8063Y2036D01*
G01X8045Y2021D01*
G01X8011Y1989D01*
G01X7994Y1972D01*
G01X7978Y1954D01*
G01X7963Y1936D01*
G01X7921Y1879D01*
G01X7897Y1839D01*
G01X7875Y1797D01*
G01X7865Y1775D01*
G01X7856Y1753D01*
G01X7840Y1709D01*
G01X7828Y1663D01*
G01X7818Y1617D01*
G01X7814Y1594D01*
G01X7812Y1570D01*
G01X7810Y1547D01*
G01X7808Y1523D01*
G01X7808Y1476D01*
G01X7810Y1452D01*
G01X7812Y1429D01*
G01X7814Y1405D01*
G01X7818Y1382D01*
G01X7828Y1336D01*
G01X7840Y1290D01*
G01X7856Y1246D01*
G01X7865Y1224D01*
G01X7875Y1203D01*
G01X7886Y1181D01*
G01X7897Y1161D01*
G01X7909Y1140D01*
G01X7921Y1120D01*
G01X7963Y1063D01*
G01X7978Y1045D01*
G01X7994Y1028D01*
G01X8028Y994D01*
G01X8045Y978D01*
G01X8063Y963D01*
G01X8120Y921D01*
G01X8140Y909D01*
G01X8161Y897D01*
G01X8181Y886D01*
G01X8203Y875D01*
G01X8224Y865D01*
G01X8246Y856D01*
G01X8290Y840D01*
G01X8336Y828D01*
G01X8382Y818D01*
G01X8405Y814D01*
G01X8429Y812D01*
G01X8452Y810D01*
G01X8476Y808D01*
G01X8523Y808D01*
G01X8547Y810D01*
G01X8570Y812D01*
G01X8594Y814D01*
G01X8617Y818D01*
G01X8663Y828D01*
G01X8709Y840D01*
G01X8753Y856D01*
G01X8775Y865D01*
G01X8797Y875D01*
G01X8839Y897D01*
G01X8879Y921D01*
G01X8936Y963D01*
G01X8954Y978D01*
G01X8972Y994D01*
G01X8989Y1011D01*
G01X9021Y1045D01*
G01X9036Y1063D01*
G01X9051Y1082D01*
G01X9065Y1101D01*
G01X9078Y1120D01*
G01X9090Y1140D01*
G01X9102Y1161D01*
G01X9114Y1181D01*
G01X9124Y1203D01*
G01X9134Y1224D01*
G01X9143Y1246D01*
G01X9159Y1290D01*
G01X9166Y1313D01*
G01X9171Y1336D01*
G01X9177Y1359D01*
G01X9185Y1405D01*
G01X9188Y1429D01*
G01X9190Y1452D01*
G01X9191Y1476D01*
G01X9191Y1523D01*
G01X9190Y1547D01*
G01X9188Y1570D01*
G01X9185Y1594D01*
G01X9177Y1640D01*
G01X9171Y1663D01*
G01X9166Y1686D01*
G01X9159Y1709D01*
G01X9143Y1753D01*
G01X9134Y1775D01*
G01X9124Y1797D01*
G01X9114Y1818D01*
G01X9102Y1839D01*
G01X9078Y1879D01*
G01X9065Y1898D01*
G01X9051Y1917D01*
G01X9036Y1936D01*
G01X9021Y1954D01*
G01X9005Y1972D01*
G01X8989Y1989D01*
G01X8972Y2005D01*
G01X8954Y2021D01*
G01X8936Y2036D01*
G01X8917Y2051D01*
G01X8898Y2065D01*
G01X8879Y2078D01*
G01X8839Y2102D01*
G01X8818Y2114D01*
G01X8797Y2124D01*
G01X8775Y2134D01*
G01X8753Y2143D01*
G01X8709Y2159D01*
G01X8686Y2166D01*
G01X8663Y2171D01*
G01X8640Y2177D01*
G01X8594Y2185D01*
G01X8570Y2188D01*
G01X8547Y2190D01*
G01X8523Y2191D01*
G37*
G36*
G01X5524Y2196D02*
G01X5490Y2196D01*
G01X5473Y2195D01*
G01X5456Y2193D01*
G01X5439Y2190D01*
G01X5422Y2186D01*
G01X5406Y2182D01*
G01X5390Y2177D01*
G01X5374Y2171D01*
G01X5358Y2164D01*
G01X5343Y2157D01*
G01X5328Y2149D01*
G01X5314Y2140D01*
G01X5286Y2120D01*
G01X5260Y2098D01*
G01X5248Y2086D01*
G01X5226Y2060D01*
G01X5216Y2047D01*
G01X5206Y2032D01*
G01X5198Y2018D01*
G01X5189Y2003D01*
G01X5182Y1988D01*
G01X5175Y1972D01*
G01X5169Y1956D01*
G01X5164Y1940D01*
G01X5160Y1924D01*
G01X5156Y1907D01*
G01X5153Y1890D01*
G01X5151Y1873D01*
G01X5150Y1856D01*
G01X5150Y1823D01*
G01X5151Y1806D01*
G01X5153Y1789D01*
G01X5156Y1772D01*
G01X5160Y1755D01*
G01X5164Y1739D01*
G01X5169Y1723D01*
G01X5175Y1707D01*
G01X5182Y1691D01*
G01X5189Y1676D01*
G01X5198Y1661D01*
G01X5206Y1647D01*
G01X5216Y1632D01*
G01X5226Y1619D01*
G01X5248Y1593D01*
G01X5260Y1581D01*
G01X5286Y1559D01*
G01X5314Y1539D01*
G01X5328Y1530D01*
G01X5343Y1522D01*
G01X5358Y1515D01*
G01X5374Y1508D01*
G01X5390Y1502D01*
G01X5406Y1497D01*
G01X5422Y1493D01*
G01X5439Y1489D01*
G01X5456Y1486D01*
G01X5473Y1484D01*
G01X5490Y1483D01*
G01X5524Y1483D01*
G01X5541Y1484D01*
G01X5557Y1486D01*
G01X5574Y1489D01*
G01X5591Y1493D01*
G01X5607Y1497D01*
G01X5623Y1502D01*
G01X5639Y1508D01*
G01X5655Y1515D01*
G01X5670Y1522D01*
G01X5685Y1530D01*
G01X5700Y1539D01*
G01X5714Y1549D01*
G01X5727Y1559D01*
G01X5753Y1581D01*
G01X5765Y1593D01*
G01X5787Y1619D01*
G01X5797Y1632D01*
G01X5807Y1647D01*
G01X5816Y1661D01*
G01X5824Y1676D01*
G01X5831Y1691D01*
G01X5838Y1707D01*
G01X5844Y1723D01*
G01X5849Y1739D01*
G01X5853Y1755D01*
G01X5857Y1772D01*
G01X5860Y1789D01*
G01X5862Y1806D01*
G01X5863Y1823D01*
G01X5864Y1839D01*
G01X5862Y1873D01*
G01X5860Y1890D01*
G01X5857Y1907D01*
G01X5853Y1924D01*
G01X5849Y1940D01*
G01X5844Y1956D01*
G01X5838Y1972D01*
G01X5831Y1988D01*
G01X5824Y2003D01*
G01X5816Y2018D01*
G01X5807Y2032D01*
G01X5797Y2047D01*
G01X5787Y2060D01*
G01X5765Y2086D01*
G01X5753Y2098D01*
G01X5727Y2120D01*
G01X5714Y2130D01*
G01X5700Y2140D01*
G01X5685Y2149D01*
G01X5670Y2157D01*
G01X5655Y2164D01*
G01X5639Y2171D01*
G01X5623Y2177D01*
G01X5607Y2182D01*
G01X5591Y2186D01*
G01X5574Y2190D01*
G01X5557Y2193D01*
G01X5541Y2195D01*
G01X5524Y2196D01*
G37*
G36*
G01X12576Y15619D02*
G01X12550Y15621D01*
G01X12536Y15620D01*
G01X12523Y15619D01*
G01X12510Y15617D01*
G01X12484Y15611D01*
G01X12471Y15606D01*
G01X12459Y15601D01*
G01X12435Y15589D01*
G01X12424Y15581D01*
G01X12413Y15574D01*
G01X12393Y15556D01*
G01X12384Y15546D01*
G01X12376Y15536D01*
G01X12360Y15514D01*
G01X12348Y15490D01*
G01X12343Y15478D01*
G01X12335Y15452D01*
G01X12332Y15439D01*
G01X12330Y15426D01*
G01X12329Y15413D01*
G01X12329Y15385D01*
G01X12331Y15371D01*
G01X12333Y15356D01*
G01X12336Y15342D01*
G01X12340Y15328D01*
G01X12346Y15315D01*
G01X12348Y15307D01*
G01X12349Y15299D01*
G01X12349Y5349D01*
G01X12347Y5337D01*
G01X12344Y5331D01*
G01X12341Y5326D01*
G01X12337Y5321D01*
G01X11728Y4712D01*
G01X11723Y4708D01*
G01X11718Y4705D01*
G01X11706Y4701D01*
G01X4850Y4701D01*
G01X4836Y4700D01*
G01X4823Y4699D01*
G01X4810Y4697D01*
G01X4798Y4694D01*
G01X4785Y4690D01*
G01X4761Y4680D01*
G01X4749Y4674D01*
G01X4738Y4667D01*
G01X4727Y4659D01*
G01X4717Y4651D01*
G01X4707Y4642D01*
G01X3907Y3842D01*
G01X3898Y3832D01*
G01X3890Y3822D01*
G01X3882Y3811D01*
G01X3876Y3800D01*
G01X3869Y3788D01*
G01X3864Y3777D01*
G01X3859Y3764D01*
G01X3855Y3752D01*
G01X3852Y3739D01*
G01X3850Y3726D01*
G01X3849Y3713D01*
G01X3849Y2281D01*
G01X3848Y2273D01*
G01X3846Y2267D01*
G01X3843Y2260D01*
G01X3836Y2247D01*
G01X3829Y2232D01*
G01X3824Y2218D01*
G01X3816Y2188D01*
G01X3815Y2182D01*
G01X3812Y2176D01*
G01X3809Y2171D01*
G01X3805Y2166D01*
G01X3800Y2162D01*
G01X3795Y2159D01*
G01X3789Y2157D01*
G01X3777Y2155D01*
G01X3765Y2157D01*
G01X3759Y2159D01*
G01X3743Y2167D01*
G01X3726Y2174D01*
G01X3708Y2180D01*
G01X3691Y2185D01*
G01X3673Y2189D01*
G01X3637Y2195D01*
G01X3619Y2196D01*
G01X3584Y2196D01*
G01X3567Y2195D01*
G01X3550Y2193D01*
G01X3533Y2190D01*
G01X3516Y2186D01*
G01X3500Y2182D01*
G01X3484Y2177D01*
G01X3468Y2171D01*
G01X3452Y2164D01*
G01X3437Y2157D01*
G01X3422Y2149D01*
G01X3408Y2140D01*
G01X3380Y2120D01*
G01X3354Y2098D01*
G01X3342Y2086D01*
G01X3320Y2060D01*
G01X3310Y2047D01*
G01X3300Y2032D01*
G01X3292Y2018D01*
G01X3283Y2003D01*
G01X3276Y1988D01*
G01X3269Y1972D01*
G01X3263Y1956D01*
G01X3258Y1940D01*
G01X3254Y1924D01*
G01X3250Y1907D01*
G01X3247Y1890D01*
G01X3245Y1873D01*
G01X3244Y1856D01*
G01X3244Y1823D01*
G01X3245Y1806D01*
G01X3247Y1789D01*
G01X3250Y1772D01*
G01X3254Y1755D01*
G01X3258Y1739D01*
G01X3263Y1723D01*
G01X3269Y1707D01*
G01X3276Y1691D01*
G01X3283Y1676D01*
G01X3292Y1661D01*
G01X3300Y1647D01*
G01X3310Y1632D01*
G01X3320Y1619D01*
G01X3342Y1593D01*
G01X3354Y1581D01*
G01X3380Y1559D01*
G01X3408Y1539D01*
G01X3422Y1530D01*
G01X3437Y1522D01*
G01X3452Y1515D01*
G01X3468Y1508D01*
G01X3484Y1502D01*
G01X3500Y1497D01*
G01X3516Y1493D01*
G01X3533Y1489D01*
G01X3550Y1486D01*
G01X3567Y1484D01*
G01X3584Y1483D01*
G01X3618Y1483D01*
G01X3635Y1484D01*
G01X3651Y1486D01*
G01X3668Y1489D01*
G01X3685Y1493D01*
G01X3701Y1497D01*
G01X3717Y1502D01*
G01X3733Y1508D01*
G01X3749Y1515D01*
G01X3764Y1522D01*
G01X3779Y1530D01*
G01X3794Y1539D01*
G01X3808Y1549D01*
G01X3821Y1559D01*
G01X3847Y1581D01*
G01X3859Y1593D01*
G01X3881Y1619D01*
G01X3891Y1632D01*
G01X3901Y1647D01*
G01X3910Y1661D01*
G01X3918Y1676D01*
G01X3925Y1691D01*
G01X3932Y1707D01*
G01X3938Y1723D01*
G01X3943Y1739D01*
G01X3947Y1755D01*
G01X3951Y1772D01*
G01X3954Y1789D01*
G01X3956Y1806D01*
G01X3958Y1840D01*
G01X3957Y1862D01*
G01X3955Y1885D01*
G01X3954Y1890D01*
G01X3956Y1902D01*
G01X3958Y1907D01*
G01X3964Y1917D01*
G01X3968Y1921D01*
G01X3978Y1927D01*
G01X3983Y1929D01*
G01X3989Y1930D01*
G01X4000Y1930D01*
G01X4017Y1928D01*
G01X4034Y1927D01*
G01X4060Y1929D01*
G01X4074Y1931D01*
G01X4087Y1934D01*
G01X4099Y1937D01*
G01X4112Y1942D01*
G01X4124Y1947D01*
G01X4148Y1959D01*
G01X4159Y1967D01*
G01X4170Y1974D01*
G01X4190Y1992D01*
G01X4208Y2012D01*
G01X4216Y2023D01*
G01X4223Y2034D01*
G01X4235Y2058D01*
G01X4240Y2070D01*
G01X4245Y2083D01*
G01X4251Y2109D01*
G01X4253Y2122D01*
G01X4255Y2148D01*
G01X4254Y2168D01*
G01X4251Y2187D01*
G01X4251Y3606D01*
G01X4255Y3618D01*
G01X4258Y3623D01*
G01X4262Y3628D01*
G01X4921Y4287D01*
G01X4926Y4291D01*
G01X4931Y4294D01*
G01X4937Y4297D01*
G01X4949Y4299D01*
G01X11813Y4299D01*
G01X11826Y4300D01*
G01X11839Y4302D01*
G01X11852Y4305D01*
G01X11864Y4309D01*
G01X11877Y4314D01*
G01X11888Y4319D01*
G01X11900Y4326D01*
G01X11911Y4332D01*
G01X11922Y4340D01*
G01X11932Y4348D01*
G01X11942Y4357D01*
G01X12692Y5107D01*
G01X12701Y5117D01*
G01X12709Y5127D01*
G01X12717Y5138D01*
G01X12724Y5149D01*
G01X12730Y5161D01*
G01X12740Y5185D01*
G01X12744Y5198D01*
G01X12747Y5210D01*
G01X12749Y5223D01*
G01X12750Y5236D01*
G01X12751Y5250D01*
G01X12751Y15307D01*
G01X12754Y15315D01*
G01X12759Y15328D01*
G01X12763Y15342D01*
G01X12766Y15356D01*
G01X12769Y15371D01*
G01X12770Y15385D01*
G01X12771Y15400D01*
G01X12769Y15426D01*
G01X12767Y15439D01*
G01X12761Y15465D01*
G01X12756Y15478D01*
G01X12751Y15490D01*
G01X12739Y15514D01*
G01X12731Y15525D01*
G01X12724Y15536D01*
G01X12706Y15556D01*
G01X12686Y15574D01*
G01X12675Y15581D01*
G01X12664Y15589D01*
G01X12640Y15601D01*
G01X12628Y15606D01*
G01X12615Y15611D01*
G01X12589Y15617D01*
G01X12576Y15619D01*
G37*
G36*
G01X9154Y3389D02*
G01X8968Y3389D01*
G01X8977Y3372D01*
G01X8987Y3355D01*
G01X8997Y3339D01*
G01X9008Y3324D01*
G01X9032Y3294D01*
G01X9059Y3267D01*
G01X9089Y3243D01*
G01X9104Y3232D01*
G01X9121Y3221D01*
G01X9137Y3212D01*
G01X9154Y3203D01*
G01X9154Y3389D01*
G37*
G36*
G01X9690Y3389D02*
G01X9504Y3389D01*
G01X9504Y3203D01*
G01X9538Y3221D01*
G01X9554Y3232D01*
G01X9569Y3243D01*
G01X9599Y3267D01*
G01X9613Y3280D01*
G01X9626Y3294D01*
G01X9650Y3324D01*
G01X9661Y3339D01*
G01X9672Y3355D01*
G01X9690Y3389D01*
G37*
G36*
G01X7131Y3389D02*
G01X6945Y3389D01*
G01X6945Y3203D01*
G01X6979Y3221D01*
G01X6995Y3232D01*
G01X7010Y3243D01*
G01X7040Y3267D01*
G01X7054Y3280D01*
G01X7067Y3294D01*
G01X7091Y3324D01*
G01X7102Y3339D01*
G01X7113Y3355D01*
G01X7131Y3389D01*
G37*
G36*
G01X6595Y3389D02*
G01X6409Y3389D01*
G01X6418Y3372D01*
G01X6428Y3355D01*
G01X6438Y3339D01*
G01X6449Y3324D01*
G01X6473Y3294D01*
G01X6500Y3267D01*
G01X6530Y3243D01*
G01X6545Y3232D01*
G01X6562Y3221D01*
G01X6578Y3212D01*
G01X6595Y3203D01*
G01X6595Y3389D01*
G37*
G36*
G01X9154Y3739D02*
G01X9154Y3925D01*
G01X9137Y3916D01*
G01X9121Y3906D01*
G01X9104Y3896D01*
G01X9089Y3885D01*
G01X9059Y3861D01*
G01X9046Y3847D01*
G01X9032Y3833D01*
G01X9020Y3819D01*
G01X9008Y3804D01*
G01X8997Y3788D01*
G01X8977Y3756D01*
G01X8968Y3739D01*
G01X9154Y3739D01*
G37*
G36*
G01X9521Y3916D02*
G01X9504Y3925D01*
G01X9504Y3739D01*
G01X9690Y3739D01*
G01X9681Y3756D01*
G01X9672Y3772D01*
G01X9650Y3804D01*
G01X9638Y3819D01*
G01X9626Y3833D01*
G01X9613Y3847D01*
G01X9599Y3861D01*
G01X9569Y3885D01*
G01X9554Y3896D01*
G01X9538Y3906D01*
G01X9521Y3916D01*
G37*
G36*
G01X6962Y3916D02*
G01X6945Y3925D01*
G01X6945Y3739D01*
G01X7131Y3739D01*
G01X7122Y3756D01*
G01X7113Y3772D01*
G01X7091Y3804D01*
G01X7079Y3819D01*
G01X7067Y3833D01*
G01X7054Y3847D01*
G01X7040Y3861D01*
G01X7010Y3885D01*
G01X6995Y3896D01*
G01X6979Y3906D01*
G01X6962Y3916D01*
G37*
G36*
G01X6595Y3739D02*
G01X6595Y3925D01*
G01X6578Y3916D01*
G01X6562Y3906D01*
G01X6545Y3896D01*
G01X6530Y3885D01*
G01X6500Y3861D01*
G01X6487Y3847D01*
G01X6473Y3833D01*
G01X6461Y3819D01*
G01X6449Y3804D01*
G01X6438Y3788D01*
G01X6418Y3756D01*
G01X6409Y3739D01*
G01X6595Y3739D01*
G37*
G36*
G01X5376Y6369D02*
G01X5350Y6371D01*
G01X5336Y6370D01*
G01X5323Y6369D01*
G01X5310Y6367D01*
G01X5284Y6361D01*
G01X5271Y6356D01*
G01X5259Y6351D01*
G01X5235Y6339D01*
G01X5224Y6331D01*
G01X5213Y6324D01*
G01X5193Y6306D01*
G01X5184Y6296D01*
G01X5176Y6286D01*
G01X5160Y6264D01*
G01X5148Y6240D01*
G01X5143Y6228D01*
G01X5135Y6202D01*
G01X5132Y6189D01*
G01X5130Y6176D01*
G01X5129Y6163D01*
G01X5129Y6136D01*
G01X5130Y6122D01*
G01X5132Y6108D01*
G01X5135Y6095D01*
G01X5139Y6082D01*
G01X5149Y6056D01*
G01X5170Y6020D01*
G01X5179Y6009D01*
G01X5188Y5999D01*
G01X5192Y5994D01*
G01X5195Y5989D01*
G01X5197Y5984D01*
G01X5199Y5972D01*
G01X5199Y5568D01*
G01X5200Y5556D01*
G01X5203Y5544D01*
G01X5206Y5533D01*
G01X5210Y5522D01*
G01X5215Y5511D01*
G01X5227Y5491D01*
G01X5243Y5473D01*
G01X5567Y5149D01*
G01X5571Y5144D01*
G01X5574Y5139D01*
G01X5577Y5133D01*
G01X5578Y5128D01*
G01X5579Y5122D01*
G01X5580Y5108D01*
G01X5581Y5095D01*
G01X5584Y5081D01*
G01X5587Y5068D01*
G01X5591Y5055D01*
G01X5596Y5043D01*
G01X5602Y5030D01*
G01X5609Y5018D01*
G01X5616Y5007D01*
G01X5632Y4985D01*
G01X5641Y4975D01*
G01X5661Y4957D01*
G01X5672Y4949D01*
G01X5684Y4942D01*
G01X5695Y4935D01*
G01X5707Y4929D01*
G01X5720Y4923D01*
G01X5746Y4915D01*
G01X5759Y4912D01*
G01X5773Y4910D01*
G01X5786Y4909D01*
G01X5813Y4909D01*
G01X5826Y4910D01*
G01X5839Y4912D01*
G01X5852Y4915D01*
G01X5878Y4923D01*
G01X5890Y4928D01*
G01X5914Y4940D01*
G01X5936Y4956D01*
G01X5946Y4964D01*
G01X5956Y4973D01*
G01X5974Y4993D01*
G01X5981Y5004D01*
G01X5989Y5015D01*
G01X6001Y5039D01*
G01X6006Y5051D01*
G01X6011Y5064D01*
G01X6017Y5090D01*
G01X6019Y5103D01*
G01X6020Y5116D01*
G01X6021Y5130D01*
G01X6020Y5143D01*
G01X6019Y5157D01*
G01X6017Y5170D01*
G01X6014Y5183D01*
G01X6006Y5209D01*
G01X6000Y5222D01*
G01X5988Y5246D01*
G01X5972Y5268D01*
G01X5954Y5288D01*
G01X5944Y5297D01*
G01X5933Y5306D01*
G01X5922Y5313D01*
G01X5911Y5321D01*
G01X5899Y5327D01*
G01X5886Y5333D01*
G01X5874Y5338D01*
G01X5861Y5342D01*
G01X5848Y5345D01*
G01X5834Y5348D01*
G01X5821Y5350D01*
G01X5807Y5350D01*
G01X5802Y5351D01*
G01X5790Y5355D01*
G01X5785Y5358D01*
G01X5781Y5362D01*
G01X5512Y5630D01*
G01X5508Y5635D01*
G01X5505Y5641D01*
G01X5503Y5646D01*
G01X5501Y5652D01*
G01X5501Y5978D01*
G01X5502Y5984D01*
G01X5511Y5999D01*
G01X5520Y6009D01*
G01X5529Y6020D01*
G01X5537Y6032D01*
G01X5544Y6044D01*
G01X5550Y6056D01*
G01X5560Y6082D01*
G01X5564Y6095D01*
G01X5567Y6108D01*
G01X5569Y6122D01*
G01X5571Y6150D01*
G01X5569Y6176D01*
G01X5567Y6189D01*
G01X5561Y6215D01*
G01X5556Y6228D01*
G01X5551Y6240D01*
G01X5539Y6264D01*
G01X5531Y6275D01*
G01X5524Y6286D01*
G01X5506Y6306D01*
G01X5486Y6324D01*
G01X5475Y6331D01*
G01X5464Y6339D01*
G01X5440Y6351D01*
G01X5428Y6356D01*
G01X5415Y6361D01*
G01X5389Y6367D01*
G01X5376Y6369D01*
G37*
G36*
G01X9347Y5736D02*
G01X9311Y5736D01*
G01X9293Y5735D01*
G01X9275Y5733D01*
G01X9258Y5730D01*
G01X9222Y5722D01*
G01X9205Y5717D01*
G01X9188Y5711D01*
G01X9172Y5704D01*
G01X9155Y5697D01*
G01X9139Y5689D01*
G01X9123Y5680D01*
G01X9093Y5660D01*
G01X9079Y5649D01*
G01X9065Y5637D01*
G01X9039Y5613D01*
G01X9027Y5599D01*
G01X9005Y5571D01*
G01X8994Y5556D01*
G01X8985Y5541D01*
G01X8976Y5525D01*
G01X8960Y5493D01*
G01X8948Y5459D01*
G01X8938Y5425D01*
G01X8932Y5389D01*
G01X8930Y5371D01*
G01X8928Y5335D01*
G01X8930Y5299D01*
G01X8932Y5282D01*
G01X8938Y5246D01*
G01X8948Y5212D01*
G01X8960Y5178D01*
G01X8968Y5161D01*
G01X8976Y5145D01*
G01X8994Y5115D01*
G01X9016Y5085D01*
G01X9027Y5072D01*
G01X9039Y5058D01*
G01X9052Y5046D01*
G01X9065Y5033D01*
G01X9093Y5011D01*
G01X9123Y4991D01*
G01X9139Y4982D01*
G01X9155Y4974D01*
G01X9172Y4967D01*
G01X9188Y4960D01*
G01X9205Y4954D01*
G01X9222Y4949D01*
G01X9240Y4944D01*
G01X9258Y4941D01*
G01X9275Y4938D01*
G01X9293Y4936D01*
G01X9329Y4934D01*
G01X9365Y4936D01*
G01X9383Y4938D01*
G01X9401Y4941D01*
G01X9418Y4944D01*
G01X9436Y4949D01*
G01X9453Y4954D01*
G01X9470Y4960D01*
G01X9487Y4967D01*
G01X9503Y4974D01*
G01X9519Y4982D01*
G01X9535Y4991D01*
G01X9565Y5011D01*
G01X9593Y5033D01*
G01X9606Y5046D01*
G01X9619Y5058D01*
G01X9631Y5072D01*
G01X9643Y5085D01*
G01X9654Y5100D01*
G01X9664Y5115D01*
G01X9682Y5145D01*
G01X9690Y5161D01*
G01X9698Y5178D01*
G01X9705Y5195D01*
G01X9711Y5212D01*
G01X9716Y5229D01*
G01X9720Y5246D01*
G01X9724Y5264D01*
G01X9727Y5282D01*
G01X9729Y5299D01*
G01X9730Y5317D01*
G01X9730Y5353D01*
G01X9729Y5371D01*
G01X9727Y5389D01*
G01X9724Y5407D01*
G01X9720Y5425D01*
G01X9716Y5442D01*
G01X9711Y5459D01*
G01X9705Y5476D01*
G01X9698Y5493D01*
G01X9682Y5525D01*
G01X9673Y5541D01*
G01X9664Y5556D01*
G01X9654Y5571D01*
G01X9643Y5585D01*
G01X9619Y5613D01*
G01X9593Y5637D01*
G01X9579Y5649D01*
G01X9565Y5660D01*
G01X9535Y5680D01*
G01X9519Y5689D01*
G01X9503Y5697D01*
G01X9487Y5704D01*
G01X9470Y5711D01*
G01X9453Y5717D01*
G01X9436Y5722D01*
G01X9418Y5726D01*
G01X9401Y5730D01*
G01X9383Y5733D01*
G01X9365Y5735D01*
G01X9347Y5736D01*
G37*
G36*
G01X6788Y5736D02*
G01X6752Y5736D01*
G01X6734Y5735D01*
G01X6716Y5733D01*
G01X6698Y5730D01*
G01X6681Y5726D01*
G01X6663Y5722D01*
G01X6646Y5717D01*
G01X6629Y5711D01*
G01X6612Y5704D01*
G01X6596Y5697D01*
G01X6580Y5689D01*
G01X6564Y5680D01*
G01X6534Y5660D01*
G01X6520Y5649D01*
G01X6506Y5637D01*
G01X6480Y5613D01*
G01X6468Y5599D01*
G01X6446Y5571D01*
G01X6435Y5556D01*
G01X6426Y5541D01*
G01X6417Y5525D01*
G01X6401Y5493D01*
G01X6389Y5459D01*
G01X6379Y5425D01*
G01X6373Y5389D01*
G01X6369Y5353D01*
G01X6369Y5317D01*
G01X6371Y5299D01*
G01X6373Y5282D01*
G01X6379Y5246D01*
G01X6389Y5212D01*
G01X6401Y5178D01*
G01X6409Y5161D01*
G01X6417Y5145D01*
G01X6435Y5115D01*
G01X6457Y5085D01*
G01X6468Y5072D01*
G01X6480Y5058D01*
G01X6493Y5046D01*
G01X6506Y5033D01*
G01X6534Y5011D01*
G01X6564Y4991D01*
G01X6580Y4982D01*
G01X6596Y4974D01*
G01X6612Y4967D01*
G01X6629Y4960D01*
G01X6646Y4954D01*
G01X6663Y4949D01*
G01X6681Y4944D01*
G01X6698Y4941D01*
G01X6716Y4938D01*
G01X6734Y4936D01*
G01X6770Y4934D01*
G01X6806Y4936D01*
G01X6824Y4938D01*
G01X6842Y4941D01*
G01X6859Y4944D01*
G01X6877Y4949D01*
G01X6894Y4954D01*
G01X6911Y4960D01*
G01X6928Y4967D01*
G01X6944Y4974D01*
G01X6960Y4982D01*
G01X6976Y4991D01*
G01X7006Y5011D01*
G01X7034Y5033D01*
G01X7047Y5046D01*
G01X7060Y5058D01*
G01X7072Y5072D01*
G01X7084Y5085D01*
G01X7094Y5100D01*
G01X7105Y5115D01*
G01X7123Y5145D01*
G01X7131Y5161D01*
G01X7139Y5178D01*
G01X7146Y5195D01*
G01X7151Y5212D01*
G01X7157Y5229D01*
G01X7161Y5246D01*
G01X7165Y5264D01*
G01X7167Y5282D01*
G01X7169Y5299D01*
G01X7171Y5317D01*
G01X7171Y5353D01*
G01X7165Y5407D01*
G01X7161Y5425D01*
G01X7157Y5442D01*
G01X7151Y5459D01*
G01X7146Y5476D01*
G01X7139Y5493D01*
G01X7123Y5525D01*
G01X7114Y5541D01*
G01X7105Y5556D01*
G01X7094Y5571D01*
G01X7084Y5585D01*
G01X7060Y5613D01*
G01X7034Y5637D01*
G01X7020Y5649D01*
G01X7006Y5660D01*
G01X6976Y5680D01*
G01X6960Y5689D01*
G01X6944Y5697D01*
G01X6928Y5704D01*
G01X6911Y5711D01*
G01X6894Y5717D01*
G01X6877Y5722D01*
G01X6859Y5726D01*
G01X6842Y5730D01*
G01X6824Y5733D01*
G01X6806Y5735D01*
G01X6788Y5736D01*
G37*
G36*
G01X11826Y13969D02*
G01X11800Y13971D01*
G01X11772Y13969D01*
G01X11759Y13967D01*
G01X11745Y13964D01*
G01X11732Y13960D01*
G01X11719Y13955D01*
G01X11707Y13950D01*
G01X11694Y13944D01*
G01X11682Y13937D01*
G01X11660Y13921D01*
G01X11650Y13912D01*
G01X11640Y13902D01*
G01X11622Y13882D01*
G01X11614Y13870D01*
G01X11607Y13859D01*
G01X11601Y13846D01*
G01X11595Y13834D01*
G01X11592Y13827D01*
G01X11587Y13821D01*
G01X10707Y12942D01*
G01X10698Y12932D01*
G01X10690Y12922D01*
G01X10682Y12911D01*
G01X10676Y12900D01*
G01X10669Y12888D01*
G01X10664Y12877D01*
G01X10659Y12864D01*
G01X10655Y12852D01*
G01X10652Y12839D01*
G01X10650Y12826D01*
G01X10649Y12813D01*
G01X10649Y7549D01*
G01X10647Y7537D01*
G01X10644Y7531D01*
G01X10641Y7526D01*
G01X10637Y7521D01*
G01X10328Y7213D01*
G01X10322Y7208D01*
G01X10315Y7204D01*
G01X10307Y7201D01*
G01X8992Y7201D01*
G01X8984Y7204D01*
G01X8971Y7209D01*
G01X8957Y7213D01*
G01X8929Y7219D01*
G01X8914Y7220D01*
G01X8900Y7221D01*
G01X8885Y7220D01*
G01X8871Y7219D01*
G01X8856Y7216D01*
G01X8842Y7213D01*
G01X8828Y7209D01*
G01X8815Y7204D01*
G01X8807Y7201D01*
G01X5042Y7201D01*
G01X5034Y7204D01*
G01X5021Y7209D01*
G01X5007Y7213D01*
G01X4979Y7219D01*
G01X4964Y7220D01*
G01X4950Y7221D01*
G01X4935Y7220D01*
G01X4921Y7219D01*
G01X4906Y7216D01*
G01X4892Y7213D01*
G01X4878Y7209D01*
G01X4865Y7204D01*
G01X4857Y7201D01*
G01X2780Y7201D01*
G01X2766Y7200D01*
G01X2753Y7199D01*
G01X2740Y7197D01*
G01X2728Y7194D01*
G01X2715Y7190D01*
G01X2691Y7180D01*
G01X2679Y7174D01*
G01X2668Y7167D01*
G01X2657Y7159D01*
G01X2647Y7151D01*
G01X2637Y7142D01*
G01X2108Y6613D01*
G01X2102Y6608D01*
G01X2095Y6604D01*
G01X2071Y6592D01*
G01X2059Y6585D01*
G01X2048Y6577D01*
G01X2037Y6568D01*
G01X2027Y6559D01*
G01X2017Y6549D01*
G01X2008Y6539D01*
G01X1992Y6517D01*
G01X1985Y6505D01*
G01X1979Y6493D01*
G01X1969Y6467D01*
G01X1965Y6454D01*
G01X1962Y6441D01*
G01X1960Y6427D01*
G01X1959Y6413D01*
G01X1959Y6386D01*
G01X1960Y6373D01*
G01X1962Y6360D01*
G01X1965Y6347D01*
G01X1973Y6321D01*
G01X1978Y6309D01*
G01X1990Y6285D01*
G01X2006Y6263D01*
G01X2014Y6253D01*
G01X2023Y6243D01*
G01X2033Y6234D01*
G01X2043Y6226D01*
G01X2065Y6210D01*
G01X2089Y6198D01*
G01X2101Y6193D01*
G01X2127Y6185D01*
G01X2140Y6182D01*
G01X2153Y6180D01*
G01X2166Y6179D01*
G01X2193Y6179D01*
G01X2207Y6180D01*
G01X2220Y6182D01*
G01X2234Y6185D01*
G01X2247Y6189D01*
G01X2260Y6194D01*
G01X2272Y6199D01*
G01X2285Y6205D01*
G01X2297Y6212D01*
G01X2319Y6228D01*
G01X2329Y6237D01*
G01X2339Y6247D01*
G01X2348Y6257D01*
G01X2357Y6268D01*
G01X2365Y6279D01*
G01X2372Y6291D01*
G01X2384Y6315D01*
G01X2387Y6322D01*
G01X2392Y6328D01*
G01X2851Y6787D01*
G01X2856Y6791D01*
G01X2861Y6794D01*
G01X2867Y6797D01*
G01X2879Y6799D01*
G01X4849Y6799D01*
G01X4857Y6798D01*
G01X4865Y6796D01*
G01X4878Y6790D01*
G01X4892Y6786D01*
G01X4906Y6783D01*
G01X4921Y6781D01*
G01X4935Y6779D01*
G01X4964Y6779D01*
G01X4979Y6781D01*
G01X4993Y6783D01*
G01X5007Y6786D01*
G01X5021Y6790D01*
G01X5034Y6796D01*
G01X5042Y6798D01*
G01X5050Y6799D01*
G01X8799Y6799D01*
G01X8807Y6798D01*
G01X8815Y6796D01*
G01X8828Y6790D01*
G01X8842Y6786D01*
G01X8856Y6783D01*
G01X8871Y6781D01*
G01X8885Y6779D01*
G01X8914Y6779D01*
G01X8929Y6781D01*
G01X8943Y6783D01*
G01X8957Y6786D01*
G01X8971Y6790D01*
G01X8984Y6796D01*
G01X8992Y6798D01*
G01X9000Y6799D01*
G01X10299Y6799D01*
G01X10307Y6798D01*
G01X10315Y6796D01*
G01X10328Y6790D01*
G01X10342Y6786D01*
G01X10356Y6783D01*
G01X10371Y6781D01*
G01X10385Y6779D01*
G01X10413Y6779D01*
G01X10427Y6780D01*
G01X10441Y6782D01*
G01X10454Y6785D01*
G01X10467Y6789D01*
G01X10493Y6799D01*
G01X10505Y6805D01*
G01X10517Y6812D01*
G01X10539Y6828D01*
G01X10549Y6837D01*
G01X10559Y6847D01*
G01X10568Y6857D01*
G01X10577Y6868D01*
G01X10585Y6879D01*
G01X10592Y6891D01*
G01X10604Y6915D01*
G01X10608Y6922D01*
G01X10613Y6928D01*
G01X10992Y7307D01*
G01X11001Y7317D01*
G01X11009Y7327D01*
G01X11017Y7338D01*
G01X11024Y7349D01*
G01X11030Y7361D01*
G01X11040Y7385D01*
G01X11044Y7398D01*
G01X11047Y7410D01*
G01X11049Y7423D01*
G01X11050Y7436D01*
G01X11051Y7450D01*
G01X11051Y12706D01*
G01X11055Y12718D01*
G01X11058Y12723D01*
G01X11062Y12728D01*
G01X11871Y13537D01*
G01X11877Y13542D01*
G01X11884Y13545D01*
G01X11896Y13551D01*
G01X11909Y13557D01*
G01X11920Y13564D01*
G01X11932Y13572D01*
G01X11952Y13590D01*
G01X11962Y13600D01*
G01X11971Y13610D01*
G01X11987Y13632D01*
G01X11994Y13644D01*
G01X12000Y13657D01*
G01X12005Y13669D01*
G01X12010Y13682D01*
G01X12014Y13695D01*
G01X12017Y13709D01*
G01X12019Y13722D01*
G01X12021Y13750D01*
G01X12019Y13776D01*
G01X12017Y13789D01*
G01X12011Y13815D01*
G01X12006Y13828D01*
G01X12001Y13840D01*
G01X11989Y13864D01*
G01X11981Y13875D01*
G01X11974Y13886D01*
G01X11956Y13906D01*
G01X11936Y13924D01*
G01X11925Y13931D01*
G01X11914Y13939D01*
G01X11890Y13951D01*
G01X11878Y13956D01*
G01X11865Y13961D01*
G01X11839Y13967D01*
G01X11826Y13969D01*
G37*
G36*
G01X7326Y13719D02*
G01X7300Y13721D01*
G01X7286Y13720D01*
G01X7273Y13719D01*
G01X7260Y13717D01*
G01X7234Y13711D01*
G01X7221Y13706D01*
G01X7209Y13701D01*
G01X7185Y13689D01*
G01X7174Y13681D01*
G01X7163Y13674D01*
G01X7143Y13656D01*
G01X7134Y13646D01*
G01X7126Y13636D01*
G01X7110Y13614D01*
G01X7098Y13590D01*
G01X7093Y13578D01*
G01X7085Y13552D01*
G01X7082Y13539D01*
G01X7080Y13526D01*
G01X7079Y13513D01*
G01X7079Y13486D01*
G01X7080Y13472D01*
G01X7082Y13458D01*
G01X7085Y13445D01*
G01X7089Y13432D01*
G01X7099Y13406D01*
G01X7120Y13370D01*
G01X7129Y13359D01*
G01X7138Y13349D01*
G01X7142Y13344D01*
G01X7145Y13339D01*
G01X7147Y13334D01*
G01X7149Y13322D01*
G01X7149Y9929D01*
G01X7148Y9922D01*
G01X7147Y9916D01*
G01X7144Y9911D01*
G01X7141Y9905D01*
G01X7137Y9900D01*
G01X5369Y8132D01*
G01X5364Y8128D01*
G01X5359Y8125D01*
G01X5353Y8123D01*
G01X5348Y8121D01*
G01X5342Y8120D01*
G01X5328Y8120D01*
G01X5315Y8118D01*
G01X5301Y8115D01*
G01X5288Y8112D01*
G01X5275Y8108D01*
G01X5263Y8103D01*
G01X5250Y8097D01*
G01X5238Y8091D01*
G01X5227Y8083D01*
G01X5216Y8076D01*
G01X5205Y8067D01*
G01X5195Y8058D01*
G01X5177Y8038D01*
G01X5169Y8027D01*
G01X5162Y8016D01*
G01X5155Y8004D01*
G01X5149Y7992D01*
G01X5143Y7979D01*
G01X5135Y7953D01*
G01X5132Y7940D01*
G01X5130Y7927D01*
G01X5129Y7913D01*
G01X5129Y7886D01*
G01X5130Y7873D01*
G01X5132Y7860D01*
G01X5135Y7847D01*
G01X5143Y7821D01*
G01X5148Y7809D01*
G01X5160Y7785D01*
G01X5176Y7763D01*
G01X5184Y7753D01*
G01X5193Y7743D01*
G01X5203Y7734D01*
G01X5213Y7726D01*
G01X5235Y7710D01*
G01X5259Y7698D01*
G01X5271Y7693D01*
G01X5297Y7685D01*
G01X5310Y7682D01*
G01X5323Y7680D01*
G01X5336Y7679D01*
G01X5363Y7679D01*
G01X5377Y7680D01*
G01X5390Y7682D01*
G01X5403Y7685D01*
G01X5429Y7693D01*
G01X5442Y7699D01*
G01X5454Y7705D01*
G01X5466Y7712D01*
G01X5477Y7719D01*
G01X5488Y7727D01*
G01X5508Y7745D01*
G01X5517Y7755D01*
G01X5526Y7766D01*
G01X5533Y7777D01*
G01X5541Y7788D01*
G01X5547Y7800D01*
G01X5553Y7813D01*
G01X5558Y7825D01*
G01X5562Y7838D01*
G01X5565Y7851D01*
G01X5568Y7865D01*
G01X5570Y7878D01*
G01X5570Y7892D01*
G01X5571Y7898D01*
G01X5573Y7903D01*
G01X5575Y7909D01*
G01X5578Y7914D01*
G01X5582Y7919D01*
G01X7406Y9743D01*
G01X7422Y9761D01*
G01X7434Y9781D01*
G01X7439Y9792D01*
G01X7443Y9803D01*
G01X7446Y9814D01*
G01X7449Y9826D01*
G01X7451Y9850D01*
G01X7451Y13328D01*
G01X7452Y13334D01*
G01X7461Y13349D01*
G01X7470Y13359D01*
G01X7479Y13370D01*
G01X7487Y13382D01*
G01X7494Y13394D01*
G01X7500Y13406D01*
G01X7510Y13432D01*
G01X7514Y13445D01*
G01X7517Y13458D01*
G01X7519Y13472D01*
G01X7521Y13500D01*
G01X7519Y13526D01*
G01X7517Y13539D01*
G01X7511Y13565D01*
G01X7506Y13578D01*
G01X7501Y13590D01*
G01X7489Y13614D01*
G01X7481Y13625D01*
G01X7474Y13636D01*
G01X7456Y13656D01*
G01X7436Y13674D01*
G01X7425Y13681D01*
G01X7414Y13689D01*
G01X7390Y13701D01*
G01X7378Y13706D01*
G01X7365Y13711D01*
G01X7339Y13717D01*
G01X7326Y13719D01*
G37*
G36*
G01X4369Y15355D02*
G01X4330Y15355D01*
G01X4292Y15351D01*
G01X4254Y15345D01*
G01X4216Y15335D01*
G01X4198Y15329D01*
G01X4162Y15315D01*
G01X4128Y15297D01*
G01X4111Y15287D01*
G01X4095Y15277D01*
G01X4079Y15266D01*
G01X4064Y15254D01*
G01X4049Y15241D01*
G01X4021Y15215D01*
G01X4008Y15200D01*
G01X3995Y15186D01*
G01X3984Y15170D01*
G01X3972Y15155D01*
G01X3962Y15138D01*
G01X3952Y15122D01*
G01X3943Y15105D01*
G01X3927Y15069D01*
G01X3920Y15051D01*
G01X3914Y15033D01*
G01X3909Y15014D01*
G01X3904Y14996D01*
G01X3901Y14977D01*
G01X3898Y14957D01*
G01X3896Y14938D01*
G01X3894Y14900D01*
G01X3895Y14880D01*
G01X3896Y14861D01*
G01X3898Y14842D01*
G01X3904Y14804D01*
G01X3914Y14766D01*
G01X3920Y14748D01*
G01X3927Y14730D01*
G01X3935Y14712D01*
G01X3943Y14695D01*
G01X3952Y14678D01*
G01X3962Y14661D01*
G01X3972Y14645D01*
G01X3984Y14629D01*
G01X3995Y14614D01*
G01X4008Y14599D01*
G01X4021Y14585D01*
G01X4035Y14571D01*
G01X4049Y14558D01*
G01X4064Y14545D01*
G01X4079Y14534D01*
G01X4095Y14522D01*
G01X4111Y14512D01*
G01X4128Y14502D01*
G01X4145Y14493D01*
G01X4162Y14485D01*
G01X4180Y14477D01*
G01X4198Y14470D01*
G01X4216Y14464D01*
G01X4254Y14454D01*
G01X4292Y14448D01*
G01X4311Y14446D01*
G01X4330Y14445D01*
G01X4350Y14444D01*
G01X4388Y14446D01*
G01X4407Y14448D01*
G01X4427Y14451D01*
G01X4446Y14454D01*
G01X4464Y14459D01*
G01X4483Y14464D01*
G01X4501Y14470D01*
G01X4519Y14477D01*
G01X4555Y14493D01*
G01X4572Y14502D01*
G01X4588Y14512D01*
G01X4605Y14522D01*
G01X4620Y14534D01*
G01X4636Y14545D01*
G01X4650Y14558D01*
G01X4665Y14571D01*
G01X4691Y14599D01*
G01X4704Y14614D01*
G01X4716Y14629D01*
G01X4727Y14645D01*
G01X4737Y14661D01*
G01X4747Y14678D01*
G01X4765Y14712D01*
G01X4779Y14748D01*
G01X4785Y14766D01*
G01X4795Y14804D01*
G01X4801Y14842D01*
G01X4805Y14880D01*
G01X4805Y14919D01*
G01X4801Y14957D01*
G01X4798Y14977D01*
G01X4795Y14996D01*
G01X4790Y15014D01*
G01X4785Y15033D01*
G01X4779Y15051D01*
G01X4765Y15087D01*
G01X4756Y15105D01*
G01X4747Y15122D01*
G01X4737Y15138D01*
G01X4727Y15155D01*
G01X4716Y15170D01*
G01X4704Y15186D01*
G01X4691Y15200D01*
G01X4678Y15215D01*
G01X4665Y15228D01*
G01X4650Y15241D01*
G01X4636Y15254D01*
G01X4620Y15266D01*
G01X4605Y15277D01*
G01X4588Y15287D01*
G01X4572Y15297D01*
G01X4555Y15306D01*
G01X4537Y15315D01*
G01X4501Y15329D01*
G01X4483Y15335D01*
G01X4464Y15340D01*
G01X4446Y15345D01*
G01X4427Y15348D01*
G01X4407Y15351D01*
G01X4369Y15355D01*
G37*
G36*
G01X5369Y15355D02*
G01X5330Y15355D01*
G01X5292Y15351D01*
G01X5254Y15345D01*
G01X5216Y15335D01*
G01X5198Y15329D01*
G01X5162Y15315D01*
G01X5128Y15297D01*
G01X5111Y15287D01*
G01X5095Y15277D01*
G01X5079Y15266D01*
G01X5064Y15254D01*
G01X5049Y15241D01*
G01X5021Y15215D01*
G01X5008Y15200D01*
G01X4995Y15186D01*
G01X4984Y15170D01*
G01X4972Y15155D01*
G01X4962Y15138D01*
G01X4952Y15122D01*
G01X4943Y15105D01*
G01X4927Y15069D01*
G01X4920Y15051D01*
G01X4914Y15033D01*
G01X4909Y15014D01*
G01X4904Y14996D01*
G01X4901Y14977D01*
G01X4898Y14957D01*
G01X4896Y14938D01*
G01X4894Y14900D01*
G01X4895Y14880D01*
G01X4896Y14861D01*
G01X4898Y14842D01*
G01X4904Y14804D01*
G01X4914Y14766D01*
G01X4920Y14748D01*
G01X4927Y14730D01*
G01X4935Y14712D01*
G01X4943Y14695D01*
G01X4952Y14678D01*
G01X4962Y14661D01*
G01X4972Y14645D01*
G01X4984Y14629D01*
G01X4995Y14614D01*
G01X5008Y14599D01*
G01X5021Y14585D01*
G01X5035Y14571D01*
G01X5049Y14558D01*
G01X5064Y14545D01*
G01X5079Y14534D01*
G01X5095Y14522D01*
G01X5111Y14512D01*
G01X5128Y14502D01*
G01X5145Y14493D01*
G01X5162Y14485D01*
G01X5180Y14477D01*
G01X5198Y14470D01*
G01X5216Y14464D01*
G01X5254Y14454D01*
G01X5292Y14448D01*
G01X5311Y14446D01*
G01X5330Y14445D01*
G01X5350Y14444D01*
G01X5388Y14446D01*
G01X5407Y14448D01*
G01X5427Y14451D01*
G01X5446Y14454D01*
G01X5464Y14459D01*
G01X5483Y14464D01*
G01X5501Y14470D01*
G01X5519Y14477D01*
G01X5555Y14493D01*
G01X5572Y14502D01*
G01X5588Y14512D01*
G01X5605Y14522D01*
G01X5620Y14534D01*
G01X5636Y14545D01*
G01X5650Y14558D01*
G01X5665Y14571D01*
G01X5691Y14599D01*
G01X5704Y14614D01*
G01X5716Y14629D01*
G01X5727Y14645D01*
G01X5737Y14661D01*
G01X5747Y14678D01*
G01X5765Y14712D01*
G01X5779Y14748D01*
G01X5785Y14766D01*
G01X5795Y14804D01*
G01X5801Y14842D01*
G01X5805Y14880D01*
G01X5805Y14919D01*
G01X5801Y14957D01*
G01X5798Y14977D01*
G01X5795Y14996D01*
G01X5790Y15014D01*
G01X5785Y15033D01*
G01X5779Y15051D01*
G01X5765Y15087D01*
G01X5756Y15105D01*
G01X5747Y15122D01*
G01X5737Y15138D01*
G01X5727Y15155D01*
G01X5716Y15170D01*
G01X5704Y15186D01*
G01X5691Y15200D01*
G01X5678Y15215D01*
G01X5665Y15228D01*
G01X5650Y15241D01*
G01X5636Y15254D01*
G01X5620Y15266D01*
G01X5605Y15277D01*
G01X5588Y15287D01*
G01X5572Y15297D01*
G01X5555Y15306D01*
G01X5537Y15315D01*
G01X5501Y15329D01*
G01X5483Y15335D01*
G01X5464Y15340D01*
G01X5446Y15345D01*
G01X5427Y15348D01*
G01X5407Y15351D01*
G01X5369Y15355D01*
G37*
G36*
G01X6369Y15355D02*
G01X6330Y15355D01*
G01X6292Y15351D01*
G01X6254Y15345D01*
G01X6216Y15335D01*
G01X6198Y15329D01*
G01X6162Y15315D01*
G01X6128Y15297D01*
G01X6111Y15287D01*
G01X6095Y15277D01*
G01X6079Y15266D01*
G01X6064Y15254D01*
G01X6049Y15241D01*
G01X6021Y15215D01*
G01X6008Y15200D01*
G01X5995Y15186D01*
G01X5984Y15170D01*
G01X5972Y15155D01*
G01X5962Y15138D01*
G01X5952Y15122D01*
G01X5943Y15105D01*
G01X5927Y15069D01*
G01X5920Y15051D01*
G01X5914Y15033D01*
G01X5909Y15014D01*
G01X5904Y14996D01*
G01X5901Y14977D01*
G01X5898Y14957D01*
G01X5896Y14938D01*
G01X5894Y14900D01*
G01X5895Y14880D01*
G01X5896Y14861D01*
G01X5898Y14842D01*
G01X5904Y14804D01*
G01X5914Y14766D01*
G01X5920Y14748D01*
G01X5927Y14730D01*
G01X5935Y14712D01*
G01X5943Y14695D01*
G01X5952Y14678D01*
G01X5962Y14661D01*
G01X5972Y14645D01*
G01X5984Y14629D01*
G01X5995Y14614D01*
G01X6008Y14599D01*
G01X6021Y14585D01*
G01X6035Y14571D01*
G01X6049Y14558D01*
G01X6064Y14545D01*
G01X6079Y14534D01*
G01X6095Y14522D01*
G01X6111Y14512D01*
G01X6128Y14502D01*
G01X6145Y14493D01*
G01X6162Y14485D01*
G01X6180Y14477D01*
G01X6198Y14470D01*
G01X6216Y14464D01*
G01X6254Y14454D01*
G01X6292Y14448D01*
G01X6311Y14446D01*
G01X6330Y14445D01*
G01X6350Y14444D01*
G01X6388Y14446D01*
G01X6407Y14448D01*
G01X6427Y14451D01*
G01X6446Y14454D01*
G01X6464Y14459D01*
G01X6483Y14464D01*
G01X6501Y14470D01*
G01X6519Y14477D01*
G01X6555Y14493D01*
G01X6572Y14502D01*
G01X6588Y14512D01*
G01X6605Y14522D01*
G01X6620Y14534D01*
G01X6636Y14545D01*
G01X6650Y14558D01*
G01X6665Y14571D01*
G01X6691Y14599D01*
G01X6704Y14614D01*
G01X6716Y14629D01*
G01X6727Y14645D01*
G01X6737Y14661D01*
G01X6747Y14678D01*
G01X6765Y14712D01*
G01X6779Y14748D01*
G01X6785Y14766D01*
G01X6795Y14804D01*
G01X6801Y14842D01*
G01X6805Y14880D01*
G01X6805Y14919D01*
G01X6801Y14957D01*
G01X6798Y14977D01*
G01X6795Y14996D01*
G01X6790Y15014D01*
G01X6785Y15033D01*
G01X6779Y15051D01*
G01X6765Y15087D01*
G01X6756Y15105D01*
G01X6747Y15122D01*
G01X6737Y15138D01*
G01X6727Y15155D01*
G01X6716Y15170D01*
G01X6704Y15186D01*
G01X6691Y15200D01*
G01X6678Y15215D01*
G01X6665Y15228D01*
G01X6650Y15241D01*
G01X6636Y15254D01*
G01X6620Y15266D01*
G01X6605Y15277D01*
G01X6588Y15287D01*
G01X6572Y15297D01*
G01X6555Y15306D01*
G01X6537Y15315D01*
G01X6501Y15329D01*
G01X6483Y15335D01*
G01X6464Y15340D01*
G01X6446Y15345D01*
G01X6427Y15348D01*
G01X6407Y15351D01*
G01X6369Y15355D01*
G37*
G36*
G01X2704Y15355D02*
G01X1995Y15355D01*
G01X1977Y15353D01*
G01X1968Y15351D01*
G01X1959Y15348D01*
G01X1950Y15344D01*
G01X1942Y15340D01*
G01X1934Y15335D01*
G01X1927Y15329D01*
G01X1915Y15315D01*
G01X1909Y15307D01*
G01X1905Y15299D01*
G01X1901Y15290D01*
G01X1898Y15282D01*
G01X1896Y15272D01*
G01X1894Y15254D01*
G01X1894Y14545D01*
G01X1896Y14527D01*
G01X1898Y14518D01*
G01X1901Y14509D01*
G01X1905Y14500D01*
G01X1909Y14492D01*
G01X1915Y14484D01*
G01X1921Y14477D01*
G01X1927Y14471D01*
G01X1934Y14465D01*
G01X1942Y14459D01*
G01X1950Y14455D01*
G01X1959Y14451D01*
G01X1968Y14448D01*
G01X1977Y14446D01*
G01X1995Y14444D01*
G01X2704Y14444D01*
G01X2722Y14446D01*
G01X2732Y14448D01*
G01X2740Y14451D01*
G01X2749Y14455D01*
G01X2757Y14459D01*
G01X2765Y14465D01*
G01X2779Y14477D01*
G01X2785Y14484D01*
G01X2790Y14492D01*
G01X2794Y14500D01*
G01X2798Y14509D01*
G01X2801Y14518D01*
G01X2803Y14527D01*
G01X2805Y14545D01*
G01X2805Y15254D01*
G01X2803Y15272D01*
G01X2801Y15282D01*
G01X2798Y15290D01*
G01X2794Y15299D01*
G01X2790Y15307D01*
G01X2785Y15315D01*
G01X2779Y15322D01*
G01X2772Y15329D01*
G01X2765Y15335D01*
G01X2757Y15340D01*
G01X2749Y15344D01*
G01X2740Y15348D01*
G01X2732Y15351D01*
G01X2722Y15353D01*
G01X2704Y15355D01*
G37*
G36*
G01X3369Y15355D02*
G01X3330Y15355D01*
G01X3292Y15351D01*
G01X3254Y15345D01*
G01X3216Y15335D01*
G01X3198Y15329D01*
G01X3162Y15315D01*
G01X3128Y15297D01*
G01X3111Y15287D01*
G01X3095Y15277D01*
G01X3079Y15266D01*
G01X3064Y15254D01*
G01X3049Y15241D01*
G01X3021Y15215D01*
G01X3008Y15200D01*
G01X2995Y15186D01*
G01X2984Y15170D01*
G01X2972Y15155D01*
G01X2962Y15138D01*
G01X2952Y15122D01*
G01X2943Y15105D01*
G01X2927Y15069D01*
G01X2920Y15051D01*
G01X2914Y15033D01*
G01X2909Y15014D01*
G01X2904Y14996D01*
G01X2901Y14977D01*
G01X2898Y14957D01*
G01X2896Y14938D01*
G01X2894Y14900D01*
G01X2895Y14880D01*
G01X2896Y14861D01*
G01X2898Y14842D01*
G01X2904Y14804D01*
G01X2914Y14766D01*
G01X2920Y14748D01*
G01X2927Y14730D01*
G01X2935Y14712D01*
G01X2943Y14695D01*
G01X2952Y14678D01*
G01X2962Y14661D01*
G01X2972Y14645D01*
G01X2984Y14629D01*
G01X2995Y14614D01*
G01X3008Y14599D01*
G01X3021Y14585D01*
G01X3035Y14571D01*
G01X3049Y14558D01*
G01X3064Y14545D01*
G01X3079Y14534D01*
G01X3095Y14522D01*
G01X3111Y14512D01*
G01X3128Y14502D01*
G01X3145Y14493D01*
G01X3162Y14485D01*
G01X3180Y14477D01*
G01X3198Y14470D01*
G01X3216Y14464D01*
G01X3254Y14454D01*
G01X3292Y14448D01*
G01X3311Y14446D01*
G01X3330Y14445D01*
G01X3350Y14444D01*
G01X3388Y14446D01*
G01X3407Y14448D01*
G01X3427Y14451D01*
G01X3446Y14454D01*
G01X3464Y14459D01*
G01X3483Y14464D01*
G01X3501Y14470D01*
G01X3519Y14477D01*
G01X3555Y14493D01*
G01X3572Y14502D01*
G01X3588Y14512D01*
G01X3605Y14522D01*
G01X3620Y14534D01*
G01X3636Y14545D01*
G01X3650Y14558D01*
G01X3665Y14571D01*
G01X3691Y14599D01*
G01X3704Y14614D01*
G01X3716Y14629D01*
G01X3727Y14645D01*
G01X3737Y14661D01*
G01X3747Y14678D01*
G01X3765Y14712D01*
G01X3779Y14748D01*
G01X3785Y14766D01*
G01X3795Y14804D01*
G01X3801Y14842D01*
G01X3805Y14880D01*
G01X3805Y14919D01*
G01X3801Y14957D01*
G01X3798Y14977D01*
G01X3795Y14996D01*
G01X3790Y15014D01*
G01X3785Y15033D01*
G01X3779Y15051D01*
G01X3765Y15087D01*
G01X3756Y15105D01*
G01X3747Y15122D01*
G01X3737Y15138D01*
G01X3727Y15155D01*
G01X3716Y15170D01*
G01X3704Y15186D01*
G01X3691Y15200D01*
G01X3678Y15215D01*
G01X3665Y15228D01*
G01X3650Y15241D01*
G01X3636Y15254D01*
G01X3620Y15266D01*
G01X3605Y15277D01*
G01X3588Y15287D01*
G01X3572Y15297D01*
G01X3555Y15306D01*
G01X3537Y15315D01*
G01X3501Y15329D01*
G01X3483Y15335D01*
G01X3464Y15340D01*
G01X3446Y15345D01*
G01X3427Y15348D01*
G01X3407Y15351D01*
G01X3369Y15355D01*
G37*
G36*
G01X7147Y14697D02*
G01X6942Y14697D01*
G01X6951Y14680D01*
G01X6971Y14646D01*
G01X6995Y14614D01*
G01X7007Y14599D01*
G01X7049Y14557D01*
G01X7064Y14545D01*
G01X7096Y14521D01*
G01X7130Y14501D01*
G01X7147Y14492D01*
G01X7147Y14697D01*
G37*
G36*
G01X7758Y14697D02*
G01X7552Y14697D01*
G01X7552Y14492D01*
G01X7569Y14501D01*
G01X7603Y14521D01*
G01X7635Y14545D01*
G01X7650Y14557D01*
G01X7665Y14571D01*
G01X7678Y14585D01*
G01X7692Y14599D01*
G01X7705Y14614D01*
G01X7717Y14630D01*
G01X7728Y14646D01*
G01X7739Y14663D01*
G01X7748Y14680D01*
G01X7758Y14697D01*
G37*
G36*
G01X1040Y15499D02*
G01X1000Y15501D01*
G01X979Y15500D01*
G01X959Y15499D01*
G01X939Y15497D01*
G01X919Y15494D01*
G01X899Y15490D01*
G01X880Y15486D01*
G01X860Y15481D01*
G01X841Y15475D01*
G01X803Y15461D01*
G01X767Y15443D01*
G01X749Y15433D01*
G01X732Y15423D01*
G01X715Y15412D01*
G01X683Y15388D01*
G01X667Y15375D01*
G01X653Y15361D01*
G01X638Y15347D01*
G01X625Y15332D01*
G01X612Y15316D01*
G01X599Y15301D01*
G01X587Y15284D01*
G01X576Y15267D01*
G01X566Y15250D01*
G01X556Y15232D01*
G01X547Y15214D01*
G01X539Y15196D01*
G01X531Y15177D01*
G01X524Y15158D01*
G01X518Y15139D01*
G01X513Y15119D01*
G01X509Y15100D01*
G01X505Y15080D01*
G01X502Y15060D01*
G01X500Y15040D01*
G01X499Y15020D01*
G01X499Y14979D01*
G01X500Y14959D01*
G01X502Y14939D01*
G01X505Y14919D01*
G01X509Y14899D01*
G01X513Y14880D01*
G01X518Y14860D01*
G01X524Y14841D01*
G01X531Y14822D01*
G01X539Y14803D01*
G01X547Y14785D01*
G01X556Y14767D01*
G01X566Y14749D01*
G01X576Y14732D01*
G01X587Y14715D01*
G01X599Y14699D01*
G01X625Y14667D01*
G01X638Y14653D01*
G01X653Y14638D01*
G01X667Y14625D01*
G01X699Y14599D01*
G01X715Y14587D01*
G01X732Y14576D01*
G01X749Y14566D01*
G01X767Y14556D01*
G01X785Y14547D01*
G01X803Y14539D01*
G01X822Y14531D01*
G01X841Y14524D01*
G01X860Y14518D01*
G01X880Y14513D01*
G01X899Y14509D01*
G01X919Y14505D01*
G01X939Y14502D01*
G01X959Y14500D01*
G01X979Y14499D01*
G01X1020Y14499D01*
G01X1040Y14500D01*
G01X1060Y14502D01*
G01X1080Y14505D01*
G01X1100Y14509D01*
G01X1119Y14513D01*
G01X1139Y14518D01*
G01X1158Y14524D01*
G01X1177Y14531D01*
G01X1196Y14539D01*
G01X1214Y14547D01*
G01X1232Y14556D01*
G01X1250Y14566D01*
G01X1267Y14576D01*
G01X1284Y14587D01*
G01X1301Y14599D01*
G01X1316Y14612D01*
G01X1332Y14625D01*
G01X1347Y14638D01*
G01X1361Y14653D01*
G01X1375Y14667D01*
G01X1388Y14683D01*
G01X1412Y14715D01*
G01X1423Y14732D01*
G01X1433Y14749D01*
G01X1443Y14767D01*
G01X1461Y14803D01*
G01X1475Y14841D01*
G01X1481Y14860D01*
G01X1486Y14880D01*
G01X1490Y14899D01*
G01X1494Y14919D01*
G01X1497Y14939D01*
G01X1499Y14959D01*
G01X1500Y14979D01*
G01X1501Y15000D01*
G01X1499Y15040D01*
G01X1497Y15060D01*
G01X1494Y15080D01*
G01X1490Y15100D01*
G01X1486Y15119D01*
G01X1481Y15139D01*
G01X1475Y15158D01*
G01X1461Y15196D01*
G01X1443Y15232D01*
G01X1433Y15250D01*
G01X1423Y15267D01*
G01X1412Y15284D01*
G01X1400Y15301D01*
G01X1388Y15316D01*
G01X1375Y15332D01*
G01X1361Y15347D01*
G01X1347Y15361D01*
G01X1332Y15375D01*
G01X1316Y15388D01*
G01X1301Y15400D01*
G01X1284Y15412D01*
G01X1267Y15423D01*
G01X1250Y15433D01*
G01X1232Y15443D01*
G01X1196Y15461D01*
G01X1158Y15475D01*
G01X1139Y15481D01*
G01X1119Y15486D01*
G01X1100Y15490D01*
G01X1080Y15494D01*
G01X1060Y15497D01*
G01X1040Y15499D01*
G37*
G36*
G01X15040Y15499D02*
G01X15000Y15501D01*
G01X14979Y15500D01*
G01X14959Y15499D01*
G01X14939Y15497D01*
G01X14919Y15494D01*
G01X14899Y15490D01*
G01X14880Y15486D01*
G01X14860Y15481D01*
G01X14841Y15475D01*
G01X14803Y15461D01*
G01X14767Y15443D01*
G01X14749Y15433D01*
G01X14732Y15423D01*
G01X14715Y15412D01*
G01X14683Y15388D01*
G01X14667Y15375D01*
G01X14653Y15361D01*
G01X14638Y15347D01*
G01X14625Y15332D01*
G01X14612Y15316D01*
G01X14599Y15301D01*
G01X14587Y15284D01*
G01X14576Y15267D01*
G01X14566Y15250D01*
G01X14556Y15232D01*
G01X14547Y15214D01*
G01X14539Y15196D01*
G01X14531Y15177D01*
G01X14524Y15158D01*
G01X14518Y15139D01*
G01X14513Y15119D01*
G01X14509Y15100D01*
G01X14505Y15080D01*
G01X14502Y15060D01*
G01X14500Y15040D01*
G01X14499Y15020D01*
G01X14499Y14979D01*
G01X14500Y14959D01*
G01X14502Y14939D01*
G01X14505Y14919D01*
G01X14509Y14899D01*
G01X14513Y14880D01*
G01X14518Y14860D01*
G01X14524Y14841D01*
G01X14531Y14822D01*
G01X14539Y14803D01*
G01X14547Y14785D01*
G01X14556Y14767D01*
G01X14566Y14749D01*
G01X14576Y14732D01*
G01X14587Y14715D01*
G01X14599Y14699D01*
G01X14625Y14667D01*
G01X14638Y14653D01*
G01X14653Y14638D01*
G01X14667Y14625D01*
G01X14699Y14599D01*
G01X14715Y14587D01*
G01X14732Y14576D01*
G01X14749Y14566D01*
G01X14767Y14556D01*
G01X14785Y14547D01*
G01X14803Y14539D01*
G01X14822Y14531D01*
G01X14841Y14524D01*
G01X14860Y14518D01*
G01X14880Y14513D01*
G01X14899Y14509D01*
G01X14919Y14505D01*
G01X14939Y14502D01*
G01X14959Y14500D01*
G01X14979Y14499D01*
G01X15020Y14499D01*
G01X15040Y14500D01*
G01X15060Y14502D01*
G01X15080Y14505D01*
G01X15100Y14509D01*
G01X15119Y14513D01*
G01X15139Y14518D01*
G01X15158Y14524D01*
G01X15177Y14531D01*
G01X15196Y14539D01*
G01X15214Y14547D01*
G01X15232Y14556D01*
G01X15250Y14566D01*
G01X15267Y14576D01*
G01X15284Y14587D01*
G01X15301Y14599D01*
G01X15316Y14612D01*
G01X15332Y14625D01*
G01X15347Y14638D01*
G01X15361Y14653D01*
G01X15375Y14667D01*
G01X15388Y14683D01*
G01X15412Y14715D01*
G01X15423Y14732D01*
G01X15433Y14749D01*
G01X15443Y14767D01*
G01X15461Y14803D01*
G01X15475Y14841D01*
G01X15481Y14860D01*
G01X15486Y14880D01*
G01X15490Y14899D01*
G01X15494Y14919D01*
G01X15497Y14939D01*
G01X15499Y14959D01*
G01X15500Y14979D01*
G01X15501Y15000D01*
G01X15499Y15040D01*
G01X15497Y15060D01*
G01X15494Y15080D01*
G01X15490Y15100D01*
G01X15486Y15119D01*
G01X15481Y15139D01*
G01X15475Y15158D01*
G01X15461Y15196D01*
G01X15443Y15232D01*
G01X15433Y15250D01*
G01X15423Y15267D01*
G01X15412Y15284D01*
G01X15400Y15301D01*
G01X15388Y15316D01*
G01X15375Y15332D01*
G01X15361Y15347D01*
G01X15347Y15361D01*
G01X15332Y15375D01*
G01X15316Y15388D01*
G01X15301Y15400D01*
G01X15284Y15412D01*
G01X15267Y15423D01*
G01X15250Y15433D01*
G01X15232Y15443D01*
G01X15196Y15461D01*
G01X15158Y15475D01*
G01X15139Y15481D01*
G01X15119Y15486D01*
G01X15100Y15490D01*
G01X15080Y15494D01*
G01X15060Y15497D01*
G01X15040Y15499D01*
G37*
G36*
G01X7147Y15102D02*
G01X7147Y15308D01*
G01X7130Y15298D01*
G01X7113Y15289D01*
G01X7096Y15278D01*
G01X7080Y15267D01*
G01X7064Y15255D01*
G01X7049Y15242D01*
G01X7035Y15228D01*
G01X7021Y15215D01*
G01X7007Y15200D01*
G01X6995Y15185D01*
G01X6971Y15153D01*
G01X6951Y15119D01*
G01X6942Y15102D01*
G01X7147Y15102D01*
G37*
G36*
G01X7569Y15298D02*
G01X7552Y15308D01*
G01X7552Y15102D01*
G01X7758Y15102D01*
G01X7748Y15119D01*
G01X7739Y15136D01*
G01X7728Y15153D01*
G01X7717Y15169D01*
G01X7705Y15185D01*
G01X7692Y15200D01*
G01X7678Y15215D01*
G01X7665Y15228D01*
G01X7650Y15242D01*
G01X7635Y15255D01*
G01X7619Y15267D01*
G01X7603Y15278D01*
G01X7586Y15289D01*
G01X7569Y15298D01*
G37*

%LPD*%
G54D11*
G01X2180Y6400D02*
G01X2780Y7000D01*
G01X4950Y7000D01*
G01X10400Y7000D02*
G01X10400Y7000D01*
G01X10850Y7450D01*
G01X10850Y12800D01*
G01X11800Y13750D01*
G01X4950Y7000D02*
G01X8900Y7000D01*
G01X8900Y7000D02*
G01X10400Y7000D01*
G01X4034Y2149D02*
G01X4050Y2165D01*
G01X4050Y3700D01*
G01X4850Y4500D01*
G01X11800Y4500D01*
G01X12550Y5250D01*
G01X12550Y15400D01*
G54D10*
G01X5800Y5130D02*
G01X5350Y5580D01*
G01X5350Y6150D01*
G01X5350Y7900D02*
G01X7300Y9850D01*
G01X7300Y12400D01*
G01X7300Y12400D02*
G01X7300Y13500D01*
G54D24*
G01X7350Y14900D03*
G01X6350Y14900D03*
G01X5350Y14900D03*
G01X4350Y14900D03*
G01X3350Y14900D03*
G54D25*
G01X2350Y14900D03*
G54D26*
G01X8500Y1500D03*
G01X10468Y1500D03*
G01X12500Y1500D03*
G54D27*
G01X3601Y1840D03*
G01X5507Y1840D03*
G54D28*
G01X9329Y5335D03*
G01X6770Y5335D03*
G01X9329Y3564D03*
G01X6770Y3564D03*
G54D13*
G01X2180Y6400D03*
G01X11800Y13750D03*
G01X10400Y7000D03*
G01X4950Y7000D03*
G01X8900Y7000D03*
G01X4034Y2148D03*
G01X12550Y15400D03*
G01X5800Y5130D03*
G01X5350Y6150D03*
G01X5350Y7900D03*
G01X7300Y13500D03*
G54D27*
G01X5975Y954D02*
G01X5975Y599D01*
G01X3125Y954D02*
G01X3125Y599D01*
M00*
M02*
