G04 Layer: TopPasteMaskLayer*
G04 EasyEDA v6.3.22, 2020-01-22T21:57:18+01:00*
G04 bd40d7d6537d4de99fa6425ab58450c0,9eabfb72a9474bef872f988307f0334b,10*
G04 Gerber Generator version 0.2*
G04 Scale: 100 percent, Rotated: No, Reflected: No *
G04 Dimensions in inches *
G04 leading zeros omitted , absolute positions ,2 integer and 4 decimal *
%FSLAX24Y24*%
%MOIN*%
G90*
G70D02*

%ADD12C,0.023622*%
%ADD14R,0.057870X0.045670*%
%ADD15R,0.074800X0.037400*%
%ADD16R,0.074800X0.128000*%
%ADD17R,0.017717X0.078740*%
%ADD18R,0.062992X0.047240*%
%ADD19R,0.070900X0.063000*%
%ADD20R,0.047200X0.118100*%
%ADD21R,0.118100X0.047200*%
%ADD22R,0.039370X0.118110*%
%ADD23R,0.063000X0.078740*%

%LPD*%
G54D12*
G01X14606Y7950D02*
G01X14055Y7950D01*
G01X14606Y8450D02*
G01X14055Y8450D01*
G01X12244Y8450D02*
G01X11693Y8450D01*
G01X12244Y7950D02*
G01X11693Y7950D01*
G54D14*
G01X2500Y4550D03*
G01X2500Y3750D03*
G01X4750Y4500D03*
G01X4750Y3700D03*
G01X10200Y4500D03*
G01X10200Y3700D03*
G01X12285Y4515D03*
G01X12285Y3715D03*
G54D15*
G01X12551Y13594D03*
G01X12551Y14500D03*
G01X12551Y15406D03*
G54D16*
G01X10149Y14500D03*
G54D17*
G01X5057Y2148D03*
G01X4801Y2148D03*
G01X4546Y2148D03*
G01X4290Y2148D03*
G01X4034Y2148D03*
G54D18*
G01X5178Y451D03*
G01X3887Y457D03*
G54D19*
G01X3550Y5180D03*
G01X3550Y3930D03*
G01X5800Y5130D03*
G01X5800Y3880D03*
G01X13335Y5095D03*
G01X13335Y3845D03*
G54D20*
G01X3370Y7030D03*
G01X4150Y7030D03*
G01X4940Y7030D03*
G01X5730Y7030D03*
G01X6520Y7030D03*
G01X7300Y7030D03*
G01X8090Y7030D03*
G01X8880Y7030D03*
G01X3370Y13490D03*
G01X4150Y13490D03*
G01X4940Y13490D03*
G01X5730Y13490D03*
G01X6520Y13490D03*
G01X7300Y13490D03*
G01X8090Y13490D03*
G01X8880Y13490D03*
G54D21*
G01X9710Y11560D03*
G01X9710Y10770D03*
G01X9710Y9990D03*
G01X9710Y9200D03*
G01X9710Y8410D03*
G01X9710Y12350D03*
G54D22*
G01X14600Y12352D03*
G01X14600Y10147D03*
G01X11800Y12352D03*
G01X11800Y10147D03*
G54D23*
G01X11730Y6950D03*
G01X10470Y6950D03*
G01X920Y6400D03*
G01X2180Y6400D03*
G01X12770Y6950D03*
G01X14030Y6950D03*
G54D19*
G01X11250Y5080D03*
G01X11250Y3830D03*
M00*
M02*
