G04 Layer: BottomLayer*
G04 EasyEDA v6.3.22, 2020-02-28T15:00:48+01:00*
G04 63a5f4fbcb7f4444b97e2c31749ff225,9eabfb72a9474bef872f988307f0334b,10*
G04 Gerber Generator version 0.2*
G04 Scale: 100 percent, Rotated: No, Reflected: No *
G04 Dimensions in millimeters *
G04 leading zeros omitted , absolute positions ,3 integer and 3 decimal *
%FSLAX33Y33*%
%MOMM*%
G90*
G71D02*

%ADD10C,0.254000*%
%ADD11C,0.508000*%
%ADD13C,0.609600*%
%ADD25C,1.524000*%
%ADD26C,1.799996*%
%ADD27R,1.799996X1.574800*%
%ADD28R,1.799996X1.799996*%
%ADD29C,2.999994*%
%ADD30C,1.299997*%

%LPD*%
G36*
G01X38112Y40383D02*
G01X2504Y40383D01*
G01X2436Y40381D01*
G01X2368Y40377D01*
G01X2300Y40371D01*
G01X2232Y40363D01*
G01X2164Y40352D01*
G01X2097Y40340D01*
G01X2031Y40326D01*
G01X1964Y40310D01*
G01X1898Y40292D01*
G01X1833Y40271D01*
G01X1769Y40249D01*
G01X1705Y40225D01*
G01X1641Y40199D01*
G01X1579Y40171D01*
G01X1518Y40142D01*
G01X1457Y40110D01*
G01X1397Y40077D01*
G01X1338Y40042D01*
G01X1281Y40005D01*
G01X1225Y39967D01*
G01X1169Y39927D01*
G01X1115Y39885D01*
G01X1062Y39841D01*
G01X1011Y39796D01*
G01X961Y39750D01*
G01X913Y39702D01*
G01X865Y39653D01*
G01X820Y39602D01*
G01X775Y39550D01*
G01X733Y39496D01*
G01X692Y39442D01*
G01X653Y39386D01*
G01X615Y39329D01*
G01X579Y39271D01*
G01X545Y39212D01*
G01X513Y39151D01*
G01X482Y39090D01*
G01X453Y39028D01*
G01X426Y38965D01*
G01X402Y38902D01*
G01X379Y38838D01*
G01X357Y38773D01*
G01X338Y38707D01*
G01X321Y38641D01*
G01X306Y38574D01*
G01X293Y38507D01*
G01X282Y38440D01*
G01X273Y38373D01*
G01X265Y38304D01*
G01X260Y38236D01*
G01X257Y38168D01*
G01X256Y38100D01*
G01X256Y2507D01*
G01X258Y2439D01*
G01X262Y2371D01*
G01X268Y2303D01*
G01X277Y2235D01*
G01X286Y2168D01*
G01X298Y2101D01*
G01X313Y2034D01*
G01X329Y1968D01*
G01X347Y1902D01*
G01X367Y1837D01*
G01X389Y1773D01*
G01X413Y1709D01*
G01X438Y1646D01*
G01X466Y1584D01*
G01X495Y1522D01*
G01X527Y1462D01*
G01X560Y1402D01*
G01X595Y1343D01*
G01X631Y1286D01*
G01X669Y1230D01*
G01X709Y1174D01*
G01X751Y1120D01*
G01X794Y1068D01*
G01X838Y1016D01*
G01X885Y966D01*
G01X932Y918D01*
G01X981Y870D01*
G01X1032Y825D01*
G01X1084Y781D01*
G01X1137Y738D01*
G01X1191Y697D01*
G01X1247Y657D01*
G01X1303Y620D01*
G01X1361Y583D01*
G01X1420Y549D01*
G01X1480Y517D01*
G01X1541Y486D01*
G01X1602Y457D01*
G01X1665Y430D01*
G01X1728Y405D01*
G01X1792Y382D01*
G01X1857Y360D01*
G01X1923Y341D01*
G01X1989Y324D01*
G01X2055Y308D01*
G01X2122Y295D01*
G01X2189Y283D01*
G01X2256Y274D01*
G01X2324Y266D01*
G01X2391Y261D01*
G01X2459Y257D01*
G01X2528Y256D01*
G01X38135Y256D01*
G01X38204Y258D01*
G01X38273Y262D01*
G01X38342Y269D01*
G01X38410Y277D01*
G01X38478Y288D01*
G01X38546Y300D01*
G01X38613Y315D01*
G01X38680Y331D01*
G01X38747Y350D01*
G01X38812Y370D01*
G01X38878Y392D01*
G01X38943Y417D01*
G01X39006Y444D01*
G01X39069Y472D01*
G01X39131Y502D01*
G01X39192Y534D01*
G01X39252Y568D01*
G01X39311Y604D01*
G01X39369Y641D01*
G01X39426Y680D01*
G01X39481Y721D01*
G01X39535Y764D01*
G01X39588Y808D01*
G01X39640Y854D01*
G01X39690Y901D01*
G01X39739Y950D01*
G01X39786Y1000D01*
G01X39832Y1051D01*
G01X39876Y1105D01*
G01X39918Y1159D01*
G01X39960Y1214D01*
G01X39999Y1271D01*
G01X40036Y1329D01*
G01X40072Y1388D01*
G01X40106Y1448D01*
G01X40138Y1509D01*
G01X40168Y1571D01*
G01X40196Y1634D01*
G01X40223Y1697D01*
G01X40247Y1762D01*
G01X40269Y1828D01*
G01X40290Y1893D01*
G01X40309Y1960D01*
G01X40325Y2027D01*
G01X40340Y2094D01*
G01X40352Y2162D01*
G01X40362Y2230D01*
G01X40371Y2298D01*
G01X40377Y2367D01*
G01X40381Y2436D01*
G01X40383Y2505D01*
G01X40383Y38135D01*
G01X40381Y38204D01*
G01X40377Y38274D01*
G01X40371Y38343D01*
G01X40362Y38412D01*
G01X40352Y38480D01*
G01X40339Y38549D01*
G01X40324Y38616D01*
G01X40308Y38684D01*
G01X40289Y38751D01*
G01X40268Y38817D01*
G01X40245Y38883D01*
G01X40220Y38947D01*
G01X40194Y39012D01*
G01X40165Y39075D01*
G01X40134Y39137D01*
G01X40102Y39198D01*
G01X40068Y39259D01*
G01X40032Y39318D01*
G01X39994Y39376D01*
G01X39954Y39433D01*
G01X39913Y39489D01*
G01X39870Y39543D01*
G01X39825Y39596D01*
G01X39779Y39648D01*
G01X39731Y39698D01*
G01X39682Y39747D01*
G01X39631Y39794D01*
G01X39579Y39840D01*
G01X39525Y39884D01*
G01X39470Y39927D01*
G01X39414Y39968D01*
G01X39357Y40007D01*
G01X39298Y40044D01*
G01X39238Y40079D01*
G01X39178Y40113D01*
G01X39116Y40145D01*
G01X39053Y40175D01*
G01X38990Y40203D01*
G01X38925Y40229D01*
G01X38860Y40253D01*
G01X38795Y40275D01*
G01X38728Y40295D01*
G01X38661Y40314D01*
G01X38594Y40329D01*
G01X38525Y40344D01*
G01X38457Y40355D01*
G01X38389Y40365D01*
G01X38320Y40373D01*
G01X38251Y40379D01*
G01X38181Y40382D01*
G01X38112Y40383D01*
G37*

%LPC*%
G36*
G01X15219Y3328D02*
G01X15176Y3329D01*
G01X15133Y3328D01*
G01X15090Y3325D01*
G01X15047Y3320D01*
G01X15005Y3313D01*
G01X14962Y3304D01*
G01X14921Y3293D01*
G01X14880Y3279D01*
G01X14839Y3264D01*
G01X14800Y3247D01*
G01X14761Y3229D01*
G01X14723Y3208D01*
G01X14686Y3185D01*
G01X14650Y3161D01*
G01X14616Y3135D01*
G01X14582Y3108D01*
G01X14551Y3079D01*
G01X14520Y3048D01*
G01X14491Y3016D01*
G01X14464Y2983D01*
G01X14438Y2949D01*
G01X14414Y2913D01*
G01X14391Y2876D01*
G01X14371Y2838D01*
G01X14352Y2799D01*
G01X14334Y2760D01*
G01X14320Y2719D01*
G01X14307Y2678D01*
G01X14295Y2636D01*
G01X14286Y2594D01*
G01X14279Y2551D01*
G01X14274Y2509D01*
G01X14270Y2466D01*
G01X14269Y2422D01*
G01X14269Y1524D01*
G01X14270Y1481D01*
G01X14274Y1437D01*
G01X14279Y1395D01*
G01X14286Y1352D01*
G01X14295Y1310D01*
G01X14307Y1268D01*
G01X14320Y1227D01*
G01X14334Y1186D01*
G01X14352Y1147D01*
G01X14371Y1108D01*
G01X14391Y1070D01*
G01X14414Y1034D01*
G01X14438Y998D01*
G01X14464Y963D01*
G01X14491Y930D01*
G01X14520Y898D01*
G01X14551Y867D01*
G01X14582Y838D01*
G01X14616Y811D01*
G01X14650Y785D01*
G01X14686Y761D01*
G01X14723Y738D01*
G01X14761Y718D01*
G01X14800Y699D01*
G01X14839Y682D01*
G01X14880Y667D01*
G01X14921Y654D01*
G01X14962Y642D01*
G01X15005Y633D01*
G01X15047Y626D01*
G01X15090Y621D01*
G01X15133Y618D01*
G01X15176Y617D01*
G01X15219Y618D01*
G01X15263Y621D01*
G01X15305Y626D01*
G01X15348Y633D01*
G01X15390Y642D01*
G01X15432Y654D01*
G01X15473Y667D01*
G01X15513Y682D01*
G01X15553Y699D01*
G01X15592Y718D01*
G01X15629Y738D01*
G01X15666Y761D01*
G01X15702Y785D01*
G01X15737Y811D01*
G01X15770Y838D01*
G01X15802Y867D01*
G01X15833Y898D01*
G01X15862Y930D01*
G01X15889Y963D01*
G01X15915Y998D01*
G01X15939Y1034D01*
G01X15961Y1070D01*
G01X15982Y1108D01*
G01X16001Y1147D01*
G01X16018Y1186D01*
G01X16033Y1227D01*
G01X16046Y1268D01*
G01X16057Y1310D01*
G01X16066Y1352D01*
G01X16073Y1395D01*
G01X16078Y1437D01*
G01X16082Y1481D01*
G01X16083Y1524D01*
G01X16083Y2422D01*
G01X16082Y2466D01*
G01X16078Y2509D01*
G01X16073Y2551D01*
G01X16066Y2594D01*
G01X16057Y2636D01*
G01X16046Y2678D01*
G01X16033Y2719D01*
G01X16018Y2760D01*
G01X16001Y2799D01*
G01X15982Y2838D01*
G01X15961Y2876D01*
G01X15939Y2913D01*
G01X15915Y2949D01*
G01X15889Y2983D01*
G01X15862Y3016D01*
G01X15833Y3048D01*
G01X15802Y3079D01*
G01X15770Y3108D01*
G01X15737Y3135D01*
G01X15702Y3161D01*
G01X15666Y3185D01*
G01X15629Y3208D01*
G01X15592Y3229D01*
G01X15553Y3247D01*
G01X15513Y3264D01*
G01X15473Y3279D01*
G01X15432Y3293D01*
G01X15390Y3304D01*
G01X15348Y3313D01*
G01X15305Y3320D01*
G01X15263Y3325D01*
G01X15219Y3328D01*
G37*
G36*
G01X7980Y3328D02*
G01X7937Y3329D01*
G01X7894Y3328D01*
G01X7851Y3325D01*
G01X7808Y3320D01*
G01X7766Y3313D01*
G01X7723Y3304D01*
G01X7682Y3293D01*
G01X7641Y3279D01*
G01X7600Y3264D01*
G01X7561Y3247D01*
G01X7522Y3229D01*
G01X7484Y3208D01*
G01X7447Y3185D01*
G01X7411Y3161D01*
G01X7377Y3135D01*
G01X7343Y3108D01*
G01X7312Y3079D01*
G01X7281Y3048D01*
G01X7252Y3016D01*
G01X7225Y2983D01*
G01X7199Y2949D01*
G01X7175Y2913D01*
G01X7152Y2876D01*
G01X7132Y2838D01*
G01X7113Y2799D01*
G01X7095Y2760D01*
G01X7081Y2719D01*
G01X7068Y2678D01*
G01X7056Y2636D01*
G01X7047Y2594D01*
G01X7040Y2551D01*
G01X7035Y2509D01*
G01X7031Y2466D01*
G01X7030Y2422D01*
G01X7030Y1524D01*
G01X7031Y1481D01*
G01X7035Y1437D01*
G01X7040Y1395D01*
G01X7047Y1352D01*
G01X7056Y1310D01*
G01X7068Y1268D01*
G01X7081Y1227D01*
G01X7095Y1186D01*
G01X7113Y1147D01*
G01X7132Y1108D01*
G01X7152Y1070D01*
G01X7175Y1034D01*
G01X7199Y998D01*
G01X7225Y963D01*
G01X7252Y930D01*
G01X7281Y898D01*
G01X7312Y867D01*
G01X7343Y838D01*
G01X7377Y811D01*
G01X7411Y785D01*
G01X7447Y761D01*
G01X7484Y738D01*
G01X7522Y718D01*
G01X7561Y699D01*
G01X7600Y682D01*
G01X7641Y667D01*
G01X7682Y654D01*
G01X7723Y642D01*
G01X7766Y633D01*
G01X7808Y626D01*
G01X7851Y621D01*
G01X7894Y618D01*
G01X7937Y617D01*
G01X7980Y618D01*
G01X8024Y621D01*
G01X8066Y626D01*
G01X8109Y633D01*
G01X8151Y642D01*
G01X8193Y654D01*
G01X8234Y667D01*
G01X8274Y682D01*
G01X8314Y699D01*
G01X8353Y718D01*
G01X8390Y738D01*
G01X8427Y761D01*
G01X8463Y785D01*
G01X8498Y811D01*
G01X8531Y838D01*
G01X8563Y867D01*
G01X8594Y898D01*
G01X8623Y930D01*
G01X8650Y963D01*
G01X8676Y998D01*
G01X8700Y1034D01*
G01X8722Y1070D01*
G01X8743Y1108D01*
G01X8762Y1147D01*
G01X8779Y1186D01*
G01X8794Y1227D01*
G01X8807Y1268D01*
G01X8818Y1310D01*
G01X8827Y1352D01*
G01X8834Y1395D01*
G01X8839Y1437D01*
G01X8843Y1481D01*
G01X8844Y1524D01*
G01X8844Y2422D01*
G01X8843Y2466D01*
G01X8839Y2509D01*
G01X8834Y2551D01*
G01X8827Y2594D01*
G01X8818Y2636D01*
G01X8807Y2678D01*
G01X8794Y2719D01*
G01X8779Y2760D01*
G01X8762Y2799D01*
G01X8743Y2838D01*
G01X8722Y2876D01*
G01X8700Y2913D01*
G01X8676Y2949D01*
G01X8650Y2983D01*
G01X8623Y3016D01*
G01X8594Y3048D01*
G01X8563Y3079D01*
G01X8531Y3108D01*
G01X8498Y3135D01*
G01X8463Y3161D01*
G01X8427Y3185D01*
G01X8390Y3208D01*
G01X8353Y3229D01*
G01X8314Y3247D01*
G01X8274Y3264D01*
G01X8234Y3279D01*
G01X8193Y3293D01*
G01X8151Y3304D01*
G01X8109Y3313D01*
G01X8066Y3320D01*
G01X8024Y3325D01*
G01X7980Y3328D01*
G37*
G36*
G01X2591Y3811D02*
G01X2540Y3812D01*
G01X2488Y3811D01*
G01X2437Y3808D01*
G01X2386Y3803D01*
G01X2336Y3796D01*
G01X2285Y3786D01*
G01X2235Y3775D01*
G01X2186Y3762D01*
G01X2137Y3747D01*
G01X2041Y3711D01*
G01X1994Y3689D01*
G01X1948Y3666D01*
G01X1904Y3642D01*
G01X1860Y3615D01*
G01X1817Y3587D01*
G01X1775Y3557D01*
G01X1735Y3525D01*
G01X1696Y3492D01*
G01X1658Y3458D01*
G01X1622Y3421D01*
G01X1587Y3384D01*
G01X1554Y3344D01*
G01X1522Y3304D01*
G01X1492Y3263D01*
G01X1464Y3220D01*
G01X1438Y3176D01*
G01X1413Y3131D01*
G01X1390Y3085D01*
G01X1369Y3039D01*
G01X1350Y2991D01*
G01X1333Y2943D01*
G01X1318Y2894D01*
G01X1304Y2844D01*
G01X1293Y2794D01*
G01X1283Y2744D01*
G01X1276Y2693D01*
G01X1271Y2642D01*
G01X1268Y2591D01*
G01X1267Y2540D01*
G01X1268Y2488D01*
G01X1271Y2437D01*
G01X1276Y2386D01*
G01X1283Y2336D01*
G01X1293Y2285D01*
G01X1304Y2235D01*
G01X1318Y2186D01*
G01X1333Y2137D01*
G01X1350Y2089D01*
G01X1369Y2041D01*
G01X1390Y1994D01*
G01X1413Y1948D01*
G01X1438Y1903D01*
G01X1464Y1860D01*
G01X1492Y1817D01*
G01X1522Y1775D01*
G01X1554Y1735D01*
G01X1587Y1696D01*
G01X1622Y1658D01*
G01X1658Y1622D01*
G01X1696Y1587D01*
G01X1735Y1554D01*
G01X1775Y1522D01*
G01X1817Y1492D01*
G01X1860Y1464D01*
G01X1904Y1438D01*
G01X1948Y1413D01*
G01X1994Y1390D01*
G01X2041Y1369D01*
G01X2089Y1350D01*
G01X2137Y1333D01*
G01X2186Y1318D01*
G01X2235Y1304D01*
G01X2285Y1293D01*
G01X2336Y1283D01*
G01X2386Y1276D01*
G01X2437Y1271D01*
G01X2488Y1268D01*
G01X2540Y1267D01*
G01X2591Y1268D01*
G01X2642Y1271D01*
G01X2693Y1276D01*
G01X2744Y1283D01*
G01X2794Y1293D01*
G01X2844Y1304D01*
G01X2894Y1318D01*
G01X2943Y1333D01*
G01X2991Y1350D01*
G01X3039Y1369D01*
G01X3085Y1390D01*
G01X3131Y1413D01*
G01X3176Y1438D01*
G01X3220Y1464D01*
G01X3263Y1492D01*
G01X3304Y1522D01*
G01X3344Y1554D01*
G01X3384Y1587D01*
G01X3421Y1622D01*
G01X3458Y1658D01*
G01X3492Y1696D01*
G01X3525Y1735D01*
G01X3557Y1775D01*
G01X3587Y1817D01*
G01X3615Y1860D01*
G01X3642Y1903D01*
G01X3666Y1948D01*
G01X3689Y1994D01*
G01X3711Y2041D01*
G01X3747Y2137D01*
G01X3762Y2186D01*
G01X3775Y2235D01*
G01X3786Y2285D01*
G01X3796Y2336D01*
G01X3803Y2386D01*
G01X3808Y2437D01*
G01X3811Y2488D01*
G01X3812Y2540D01*
G01X3811Y2591D01*
G01X3808Y2642D01*
G01X3803Y2693D01*
G01X3796Y2744D01*
G01X3786Y2794D01*
G01X3775Y2844D01*
G01X3762Y2894D01*
G01X3747Y2943D01*
G01X3711Y3039D01*
G01X3689Y3085D01*
G01X3666Y3131D01*
G01X3642Y3176D01*
G01X3615Y3220D01*
G01X3587Y3263D01*
G01X3557Y3304D01*
G01X3525Y3344D01*
G01X3492Y3384D01*
G01X3458Y3421D01*
G01X3421Y3458D01*
G01X3384Y3492D01*
G01X3344Y3525D01*
G01X3304Y3557D01*
G01X3263Y3587D01*
G01X3220Y3615D01*
G01X3176Y3642D01*
G01X3131Y3666D01*
G01X3085Y3689D01*
G01X3039Y3711D01*
G01X2943Y3747D01*
G01X2894Y3762D01*
G01X2844Y3775D01*
G01X2794Y3786D01*
G01X2744Y3796D01*
G01X2693Y3803D01*
G01X2642Y3808D01*
G01X2591Y3811D01*
G37*
G36*
G01X38151Y3811D02*
G01X38100Y3812D01*
G01X38048Y3811D01*
G01X37997Y3808D01*
G01X37946Y3803D01*
G01X37896Y3796D01*
G01X37845Y3786D01*
G01X37795Y3775D01*
G01X37746Y3762D01*
G01X37697Y3747D01*
G01X37601Y3711D01*
G01X37554Y3689D01*
G01X37508Y3666D01*
G01X37464Y3642D01*
G01X37420Y3615D01*
G01X37377Y3587D01*
G01X37335Y3557D01*
G01X37295Y3525D01*
G01X37256Y3492D01*
G01X37218Y3458D01*
G01X37182Y3421D01*
G01X37147Y3384D01*
G01X37114Y3344D01*
G01X37082Y3304D01*
G01X37052Y3263D01*
G01X37024Y3220D01*
G01X36998Y3176D01*
G01X36973Y3131D01*
G01X36950Y3085D01*
G01X36929Y3039D01*
G01X36910Y2991D01*
G01X36893Y2943D01*
G01X36878Y2894D01*
G01X36864Y2844D01*
G01X36853Y2794D01*
G01X36843Y2744D01*
G01X36836Y2693D01*
G01X36831Y2642D01*
G01X36828Y2591D01*
G01X36827Y2540D01*
G01X36828Y2488D01*
G01X36831Y2437D01*
G01X36836Y2386D01*
G01X36843Y2336D01*
G01X36853Y2285D01*
G01X36864Y2235D01*
G01X36878Y2186D01*
G01X36893Y2137D01*
G01X36910Y2089D01*
G01X36929Y2041D01*
G01X36950Y1994D01*
G01X36973Y1948D01*
G01X36998Y1903D01*
G01X37024Y1860D01*
G01X37052Y1817D01*
G01X37082Y1775D01*
G01X37114Y1735D01*
G01X37147Y1696D01*
G01X37182Y1658D01*
G01X37218Y1622D01*
G01X37256Y1587D01*
G01X37295Y1554D01*
G01X37335Y1522D01*
G01X37377Y1492D01*
G01X37420Y1464D01*
G01X37464Y1438D01*
G01X37508Y1413D01*
G01X37554Y1390D01*
G01X37601Y1369D01*
G01X37649Y1350D01*
G01X37697Y1333D01*
G01X37746Y1318D01*
G01X37795Y1304D01*
G01X37845Y1293D01*
G01X37896Y1283D01*
G01X37946Y1276D01*
G01X37997Y1271D01*
G01X38048Y1268D01*
G01X38100Y1267D01*
G01X38151Y1268D01*
G01X38202Y1271D01*
G01X38253Y1276D01*
G01X38304Y1283D01*
G01X38354Y1293D01*
G01X38404Y1304D01*
G01X38454Y1318D01*
G01X38503Y1333D01*
G01X38551Y1350D01*
G01X38599Y1369D01*
G01X38645Y1390D01*
G01X38691Y1413D01*
G01X38736Y1438D01*
G01X38780Y1464D01*
G01X38823Y1492D01*
G01X38864Y1522D01*
G01X38904Y1554D01*
G01X38944Y1587D01*
G01X38981Y1622D01*
G01X39018Y1658D01*
G01X39052Y1696D01*
G01X39085Y1735D01*
G01X39117Y1775D01*
G01X39147Y1817D01*
G01X39175Y1860D01*
G01X39202Y1903D01*
G01X39226Y1948D01*
G01X39249Y1994D01*
G01X39271Y2041D01*
G01X39307Y2137D01*
G01X39322Y2186D01*
G01X39335Y2235D01*
G01X39346Y2285D01*
G01X39356Y2336D01*
G01X39363Y2386D01*
G01X39368Y2437D01*
G01X39371Y2488D01*
G01X39372Y2540D01*
G01X39371Y2591D01*
G01X39368Y2642D01*
G01X39363Y2693D01*
G01X39356Y2744D01*
G01X39346Y2794D01*
G01X39335Y2844D01*
G01X39322Y2894D01*
G01X39307Y2943D01*
G01X39271Y3039D01*
G01X39249Y3085D01*
G01X39226Y3131D01*
G01X39202Y3176D01*
G01X39175Y3220D01*
G01X39147Y3263D01*
G01X39117Y3304D01*
G01X39085Y3344D01*
G01X39052Y3384D01*
G01X39018Y3421D01*
G01X38981Y3458D01*
G01X38944Y3492D01*
G01X38904Y3525D01*
G01X38864Y3557D01*
G01X38823Y3587D01*
G01X38780Y3615D01*
G01X38736Y3642D01*
G01X38691Y3666D01*
G01X38645Y3689D01*
G01X38599Y3711D01*
G01X38503Y3747D01*
G01X38454Y3762D01*
G01X38404Y3775D01*
G01X38354Y3786D01*
G01X38304Y3796D01*
G01X38253Y3803D01*
G01X38202Y3808D01*
G01X38151Y3811D01*
G37*
G36*
G01X26648Y5565D02*
G01X26588Y5566D01*
G01X26529Y5565D01*
G01X26469Y5562D01*
G01X26409Y5557D01*
G01X26349Y5550D01*
G01X26290Y5541D01*
G01X26231Y5529D01*
G01X26172Y5516D01*
G01X26115Y5501D01*
G01X26057Y5484D01*
G01X26000Y5465D01*
G01X25944Y5444D01*
G01X25888Y5421D01*
G01X25834Y5396D01*
G01X25780Y5369D01*
G01X25727Y5341D01*
G01X25676Y5310D01*
G01X25625Y5278D01*
G01X25576Y5245D01*
G01X25527Y5209D01*
G01X25480Y5172D01*
G01X25434Y5134D01*
G01X25346Y5052D01*
G01X25305Y5009D01*
G01X25265Y4964D01*
G01X25226Y4918D01*
G01X25189Y4871D01*
G01X25153Y4823D01*
G01X25120Y4773D01*
G01X25088Y4723D01*
G01X25057Y4671D01*
G01X25029Y4618D01*
G01X25002Y4564D01*
G01X24978Y4510D01*
G01X24954Y4454D01*
G01X24933Y4398D01*
G01X24914Y4341D01*
G01X24897Y4284D01*
G01X24882Y4226D01*
G01X24869Y4167D01*
G01X24858Y4108D01*
G01X24848Y4049D01*
G01X24841Y3990D01*
G01X24836Y3930D01*
G01X24833Y3870D01*
G01X24832Y3810D01*
G01X24833Y3750D01*
G01X24836Y3690D01*
G01X24841Y3630D01*
G01X24848Y3570D01*
G01X24858Y3511D01*
G01X24869Y3452D01*
G01X24882Y3394D01*
G01X24897Y3336D01*
G01X24914Y3278D01*
G01X24933Y3221D01*
G01X24954Y3166D01*
G01X24978Y3110D01*
G01X25002Y3055D01*
G01X25029Y3002D01*
G01X25057Y2949D01*
G01X25088Y2897D01*
G01X25120Y2847D01*
G01X25153Y2797D01*
G01X25189Y2749D01*
G01X25226Y2701D01*
G01X25265Y2656D01*
G01X25305Y2611D01*
G01X25346Y2568D01*
G01X25390Y2526D01*
G01X25434Y2486D01*
G01X25480Y2447D01*
G01X25527Y2410D01*
G01X25576Y2375D01*
G01X25625Y2341D01*
G01X25676Y2309D01*
G01X25727Y2279D01*
G01X25780Y2250D01*
G01X25834Y2223D01*
G01X25888Y2199D01*
G01X25944Y2176D01*
G01X26000Y2155D01*
G01X26057Y2135D01*
G01X26115Y2118D01*
G01X26172Y2103D01*
G01X26231Y2090D01*
G01X26290Y2079D01*
G01X26349Y2069D01*
G01X26409Y2062D01*
G01X26469Y2057D01*
G01X26529Y2054D01*
G01X26588Y2053D01*
G01X26648Y2054D01*
G01X26708Y2057D01*
G01X26768Y2062D01*
G01X26828Y2069D01*
G01X26887Y2079D01*
G01X26946Y2090D01*
G01X27005Y2103D01*
G01X27062Y2118D01*
G01X27120Y2135D01*
G01X27177Y2155D01*
G01X27233Y2176D01*
G01X27288Y2199D01*
G01X27343Y2223D01*
G01X27397Y2250D01*
G01X27450Y2279D01*
G01X27501Y2309D01*
G01X27552Y2341D01*
G01X27601Y2375D01*
G01X27650Y2410D01*
G01X27697Y2447D01*
G01X27743Y2486D01*
G01X27787Y2526D01*
G01X27831Y2568D01*
G01X27872Y2611D01*
G01X27912Y2656D01*
G01X27951Y2701D01*
G01X27988Y2749D01*
G01X28024Y2797D01*
G01X28057Y2847D01*
G01X28089Y2897D01*
G01X28120Y2949D01*
G01X28148Y3002D01*
G01X28175Y3055D01*
G01X28199Y3110D01*
G01X28223Y3166D01*
G01X28244Y3221D01*
G01X28263Y3278D01*
G01X28280Y3336D01*
G01X28295Y3394D01*
G01X28308Y3452D01*
G01X28319Y3511D01*
G01X28329Y3570D01*
G01X28336Y3630D01*
G01X28341Y3690D01*
G01X28344Y3750D01*
G01X28345Y3810D01*
G01X28344Y3870D01*
G01X28341Y3930D01*
G01X28336Y3990D01*
G01X28329Y4049D01*
G01X28319Y4108D01*
G01X28308Y4167D01*
G01X28295Y4226D01*
G01X28280Y4284D01*
G01X28263Y4341D01*
G01X28244Y4398D01*
G01X28223Y4454D01*
G01X28199Y4510D01*
G01X28175Y4564D01*
G01X28148Y4618D01*
G01X28120Y4671D01*
G01X28089Y4723D01*
G01X28057Y4773D01*
G01X28024Y4823D01*
G01X27988Y4871D01*
G01X27951Y4918D01*
G01X27912Y4964D01*
G01X27872Y5009D01*
G01X27831Y5052D01*
G01X27743Y5134D01*
G01X27697Y5172D01*
G01X27650Y5209D01*
G01X27601Y5245D01*
G01X27552Y5278D01*
G01X27501Y5310D01*
G01X27450Y5341D01*
G01X27397Y5369D01*
G01X27343Y5396D01*
G01X27288Y5421D01*
G01X27233Y5444D01*
G01X27177Y5465D01*
G01X27120Y5484D01*
G01X27062Y5501D01*
G01X27005Y5516D01*
G01X26946Y5529D01*
G01X26887Y5541D01*
G01X26828Y5550D01*
G01X26768Y5557D01*
G01X26708Y5562D01*
G01X26648Y5565D01*
G37*
G36*
G01X21650Y5565D02*
G01X21590Y5566D01*
G01X21530Y5565D01*
G01X21470Y5562D01*
G01X21410Y5557D01*
G01X21350Y5550D01*
G01X21291Y5541D01*
G01X21232Y5529D01*
G01X21174Y5516D01*
G01X21116Y5501D01*
G01X21058Y5484D01*
G01X21001Y5465D01*
G01X20946Y5444D01*
G01X20890Y5421D01*
G01X20835Y5396D01*
G01X20782Y5369D01*
G01X20729Y5341D01*
G01X20677Y5310D01*
G01X20627Y5278D01*
G01X20577Y5245D01*
G01X20529Y5209D01*
G01X20481Y5172D01*
G01X20436Y5134D01*
G01X20391Y5093D01*
G01X20348Y5052D01*
G01X20306Y5009D01*
G01X20266Y4964D01*
G01X20227Y4918D01*
G01X20190Y4871D01*
G01X20155Y4823D01*
G01X20121Y4773D01*
G01X20089Y4723D01*
G01X20059Y4671D01*
G01X20030Y4618D01*
G01X20003Y4564D01*
G01X19979Y4510D01*
G01X19956Y4454D01*
G01X19935Y4398D01*
G01X19915Y4341D01*
G01X19898Y4284D01*
G01X19883Y4226D01*
G01X19870Y4167D01*
G01X19859Y4108D01*
G01X19849Y4049D01*
G01X19842Y3990D01*
G01X19837Y3930D01*
G01X19834Y3870D01*
G01X19833Y3810D01*
G01X19834Y3750D01*
G01X19837Y3690D01*
G01X19842Y3630D01*
G01X19849Y3570D01*
G01X19859Y3511D01*
G01X19870Y3452D01*
G01X19883Y3394D01*
G01X19898Y3336D01*
G01X19915Y3278D01*
G01X19935Y3221D01*
G01X19956Y3166D01*
G01X19979Y3110D01*
G01X20003Y3055D01*
G01X20030Y3002D01*
G01X20059Y2949D01*
G01X20089Y2897D01*
G01X20121Y2847D01*
G01X20155Y2797D01*
G01X20190Y2749D01*
G01X20227Y2701D01*
G01X20266Y2656D01*
G01X20306Y2611D01*
G01X20348Y2568D01*
G01X20391Y2526D01*
G01X20436Y2486D01*
G01X20481Y2447D01*
G01X20529Y2410D01*
G01X20577Y2375D01*
G01X20627Y2341D01*
G01X20677Y2309D01*
G01X20729Y2279D01*
G01X20782Y2250D01*
G01X20835Y2223D01*
G01X20890Y2199D01*
G01X20946Y2176D01*
G01X21001Y2155D01*
G01X21058Y2135D01*
G01X21116Y2118D01*
G01X21174Y2103D01*
G01X21232Y2090D01*
G01X21291Y2079D01*
G01X21350Y2069D01*
G01X21410Y2062D01*
G01X21470Y2057D01*
G01X21530Y2054D01*
G01X21590Y2053D01*
G01X21650Y2054D01*
G01X21710Y2057D01*
G01X21770Y2062D01*
G01X21829Y2069D01*
G01X21888Y2079D01*
G01X21947Y2090D01*
G01X22006Y2103D01*
G01X22064Y2118D01*
G01X22121Y2135D01*
G01X22178Y2155D01*
G01X22234Y2176D01*
G01X22290Y2199D01*
G01X22344Y2223D01*
G01X22398Y2250D01*
G01X22451Y2279D01*
G01X22503Y2309D01*
G01X22553Y2341D01*
G01X22603Y2375D01*
G01X22651Y2410D01*
G01X22698Y2447D01*
G01X22744Y2486D01*
G01X22789Y2526D01*
G01X22832Y2568D01*
G01X22873Y2611D01*
G01X22914Y2656D01*
G01X22952Y2701D01*
G01X22989Y2749D01*
G01X23025Y2797D01*
G01X23058Y2847D01*
G01X23090Y2897D01*
G01X23121Y2949D01*
G01X23149Y3002D01*
G01X23176Y3055D01*
G01X23201Y3110D01*
G01X23224Y3166D01*
G01X23245Y3221D01*
G01X23264Y3278D01*
G01X23281Y3336D01*
G01X23296Y3394D01*
G01X23309Y3452D01*
G01X23321Y3511D01*
G01X23330Y3570D01*
G01X23337Y3630D01*
G01X23342Y3690D01*
G01X23345Y3750D01*
G01X23346Y3810D01*
G01X23345Y3870D01*
G01X23342Y3930D01*
G01X23337Y3990D01*
G01X23330Y4049D01*
G01X23321Y4108D01*
G01X23309Y4167D01*
G01X23296Y4226D01*
G01X23281Y4284D01*
G01X23264Y4341D01*
G01X23245Y4398D01*
G01X23224Y4454D01*
G01X23201Y4510D01*
G01X23176Y4564D01*
G01X23149Y4618D01*
G01X23121Y4671D01*
G01X23090Y4723D01*
G01X23058Y4773D01*
G01X23025Y4823D01*
G01X22989Y4871D01*
G01X22952Y4918D01*
G01X22914Y4964D01*
G01X22873Y5009D01*
G01X22832Y5052D01*
G01X22789Y5093D01*
G01X22744Y5134D01*
G01X22698Y5172D01*
G01X22651Y5209D01*
G01X22603Y5245D01*
G01X22553Y5278D01*
G01X22503Y5310D01*
G01X22451Y5341D01*
G01X22398Y5369D01*
G01X22344Y5396D01*
G01X22290Y5421D01*
G01X22234Y5444D01*
G01X22178Y5465D01*
G01X22121Y5484D01*
G01X22064Y5501D01*
G01X22006Y5516D01*
G01X21947Y5529D01*
G01X21888Y5541D01*
G01X21829Y5550D01*
G01X21770Y5557D01*
G01X21710Y5562D01*
G01X21650Y5565D01*
G37*
G36*
G01X31810Y5565D02*
G01X31750Y5566D01*
G01X31690Y5565D01*
G01X31630Y5562D01*
G01X31570Y5557D01*
G01X31510Y5550D01*
G01X31451Y5541D01*
G01X31392Y5529D01*
G01X31334Y5516D01*
G01X31276Y5501D01*
G01X31218Y5484D01*
G01X31161Y5465D01*
G01X31106Y5444D01*
G01X31050Y5421D01*
G01X30995Y5396D01*
G01X30942Y5369D01*
G01X30889Y5341D01*
G01X30837Y5310D01*
G01X30787Y5278D01*
G01X30737Y5245D01*
G01X30689Y5209D01*
G01X30641Y5172D01*
G01X30596Y5134D01*
G01X30551Y5093D01*
G01X30508Y5052D01*
G01X30466Y5009D01*
G01X30426Y4964D01*
G01X30387Y4918D01*
G01X30350Y4871D01*
G01X30315Y4823D01*
G01X30281Y4773D01*
G01X30249Y4723D01*
G01X30219Y4671D01*
G01X30190Y4618D01*
G01X30163Y4564D01*
G01X30139Y4510D01*
G01X30116Y4454D01*
G01X30095Y4398D01*
G01X30075Y4341D01*
G01X30058Y4284D01*
G01X30043Y4226D01*
G01X30030Y4167D01*
G01X30019Y4108D01*
G01X30009Y4049D01*
G01X30002Y3990D01*
G01X29997Y3930D01*
G01X29994Y3870D01*
G01X29993Y3810D01*
G01X29994Y3750D01*
G01X29997Y3690D01*
G01X30002Y3630D01*
G01X30009Y3570D01*
G01X30019Y3511D01*
G01X30030Y3452D01*
G01X30043Y3394D01*
G01X30058Y3336D01*
G01X30075Y3278D01*
G01X30095Y3221D01*
G01X30116Y3166D01*
G01X30139Y3110D01*
G01X30163Y3055D01*
G01X30190Y3002D01*
G01X30219Y2949D01*
G01X30249Y2897D01*
G01X30281Y2847D01*
G01X30315Y2797D01*
G01X30350Y2749D01*
G01X30387Y2701D01*
G01X30426Y2656D01*
G01X30466Y2611D01*
G01X30508Y2568D01*
G01X30551Y2526D01*
G01X30596Y2486D01*
G01X30641Y2447D01*
G01X30689Y2410D01*
G01X30737Y2375D01*
G01X30787Y2341D01*
G01X30837Y2309D01*
G01X30889Y2279D01*
G01X30942Y2250D01*
G01X30995Y2223D01*
G01X31050Y2199D01*
G01X31106Y2176D01*
G01X31161Y2155D01*
G01X31218Y2135D01*
G01X31276Y2118D01*
G01X31334Y2103D01*
G01X31392Y2090D01*
G01X31451Y2079D01*
G01X31510Y2069D01*
G01X31570Y2062D01*
G01X31630Y2057D01*
G01X31690Y2054D01*
G01X31750Y2053D01*
G01X31810Y2054D01*
G01X31870Y2057D01*
G01X31930Y2062D01*
G01X31989Y2069D01*
G01X32048Y2079D01*
G01X32107Y2090D01*
G01X32166Y2103D01*
G01X32224Y2118D01*
G01X32281Y2135D01*
G01X32338Y2155D01*
G01X32394Y2176D01*
G01X32450Y2199D01*
G01X32504Y2223D01*
G01X32558Y2250D01*
G01X32611Y2279D01*
G01X32663Y2309D01*
G01X32713Y2341D01*
G01X32763Y2375D01*
G01X32811Y2410D01*
G01X32858Y2447D01*
G01X32904Y2486D01*
G01X32949Y2526D01*
G01X32992Y2568D01*
G01X33033Y2611D01*
G01X33074Y2656D01*
G01X33112Y2701D01*
G01X33149Y2749D01*
G01X33185Y2797D01*
G01X33218Y2847D01*
G01X33250Y2897D01*
G01X33281Y2949D01*
G01X33309Y3002D01*
G01X33336Y3055D01*
G01X33361Y3110D01*
G01X33384Y3166D01*
G01X33405Y3221D01*
G01X33424Y3278D01*
G01X33441Y3336D01*
G01X33456Y3394D01*
G01X33469Y3452D01*
G01X33481Y3511D01*
G01X33490Y3570D01*
G01X33497Y3630D01*
G01X33502Y3690D01*
G01X33505Y3750D01*
G01X33506Y3810D01*
G01X33505Y3870D01*
G01X33502Y3930D01*
G01X33497Y3990D01*
G01X33490Y4049D01*
G01X33481Y4108D01*
G01X33469Y4167D01*
G01X33456Y4226D01*
G01X33441Y4284D01*
G01X33424Y4341D01*
G01X33405Y4398D01*
G01X33384Y4454D01*
G01X33361Y4510D01*
G01X33336Y4564D01*
G01X33309Y4618D01*
G01X33281Y4671D01*
G01X33250Y4723D01*
G01X33218Y4773D01*
G01X33185Y4823D01*
G01X33149Y4871D01*
G01X33112Y4918D01*
G01X33074Y4964D01*
G01X33033Y5009D01*
G01X32992Y5052D01*
G01X32949Y5093D01*
G01X32904Y5134D01*
G01X32858Y5172D01*
G01X32811Y5209D01*
G01X32763Y5245D01*
G01X32713Y5278D01*
G01X32663Y5310D01*
G01X32611Y5341D01*
G01X32558Y5369D01*
G01X32504Y5396D01*
G01X32450Y5421D01*
G01X32394Y5444D01*
G01X32338Y5465D01*
G01X32281Y5484D01*
G01X32224Y5501D01*
G01X32166Y5516D01*
G01X32107Y5529D01*
G01X32048Y5541D01*
G01X31989Y5550D01*
G01X31930Y5557D01*
G01X31870Y5562D01*
G01X31810Y5565D01*
G37*
G36*
G01X14031Y5579D02*
G01X13988Y5580D01*
G01X13944Y5579D01*
G01X13901Y5576D01*
G01X13859Y5570D01*
G01X13816Y5563D01*
G01X13774Y5554D01*
G01X13732Y5543D01*
G01X13691Y5530D01*
G01X13651Y5515D01*
G01X13611Y5498D01*
G01X13572Y5479D01*
G01X13534Y5458D01*
G01X13497Y5436D01*
G01X13427Y5386D01*
G01X13394Y5358D01*
G01X13362Y5329D01*
G01X13331Y5299D01*
G01X13302Y5267D01*
G01X13275Y5234D01*
G01X13249Y5199D01*
G01X13225Y5163D01*
G01X13203Y5126D01*
G01X13182Y5088D01*
G01X13163Y5050D01*
G01X13146Y5010D01*
G01X13131Y4970D01*
G01X13118Y4928D01*
G01X13107Y4887D01*
G01X13098Y4845D01*
G01X13090Y4802D01*
G01X13085Y4759D01*
G01X13082Y4716D01*
G01X13081Y4673D01*
G01X13082Y4630D01*
G01X13085Y4587D01*
G01X13090Y4544D01*
G01X13098Y4502D01*
G01X13107Y4459D01*
G01X13118Y4418D01*
G01X13131Y4377D01*
G01X13146Y4336D01*
G01X13163Y4296D01*
G01X13182Y4258D01*
G01X13203Y4220D01*
G01X13225Y4183D01*
G01X13249Y4147D01*
G01X13275Y4113D01*
G01X13302Y4080D01*
G01X13331Y4047D01*
G01X13362Y4017D01*
G01X13394Y3988D01*
G01X13427Y3961D01*
G01X13462Y3935D01*
G01X13497Y3910D01*
G01X13534Y3888D01*
G01X13572Y3867D01*
G01X13611Y3848D01*
G01X13691Y3816D01*
G01X13732Y3803D01*
G01X13774Y3792D01*
G01X13816Y3783D01*
G01X13859Y3776D01*
G01X13901Y3771D01*
G01X13944Y3768D01*
G01X13988Y3767D01*
G01X14031Y3768D01*
G01X14074Y3771D01*
G01X14117Y3776D01*
G01X14159Y3783D01*
G01X14201Y3792D01*
G01X14243Y3803D01*
G01X14284Y3816D01*
G01X14364Y3848D01*
G01X14403Y3867D01*
G01X14441Y3888D01*
G01X14478Y3910D01*
G01X14513Y3935D01*
G01X14548Y3961D01*
G01X14581Y3988D01*
G01X14613Y4017D01*
G01X14644Y4047D01*
G01X14673Y4080D01*
G01X14700Y4113D01*
G01X14726Y4147D01*
G01X14750Y4183D01*
G01X14772Y4220D01*
G01X14793Y4258D01*
G01X14812Y4296D01*
G01X14829Y4336D01*
G01X14844Y4377D01*
G01X14857Y4418D01*
G01X14868Y4459D01*
G01X14878Y4502D01*
G01X14885Y4544D01*
G01X14890Y4587D01*
G01X14893Y4630D01*
G01X14894Y4673D01*
G01X14893Y4716D01*
G01X14890Y4759D01*
G01X14885Y4802D01*
G01X14878Y4845D01*
G01X14868Y4887D01*
G01X14857Y4928D01*
G01X14844Y4970D01*
G01X14829Y5010D01*
G01X14812Y5050D01*
G01X14793Y5088D01*
G01X14772Y5126D01*
G01X14750Y5163D01*
G01X14726Y5199D01*
G01X14700Y5234D01*
G01X14673Y5267D01*
G01X14644Y5299D01*
G01X14613Y5329D01*
G01X14581Y5358D01*
G01X14548Y5386D01*
G01X14478Y5436D01*
G01X14441Y5458D01*
G01X14403Y5479D01*
G01X14364Y5498D01*
G01X14324Y5515D01*
G01X14284Y5530D01*
G01X14243Y5543D01*
G01X14201Y5554D01*
G01X14159Y5563D01*
G01X14117Y5570D01*
G01X14074Y5576D01*
G01X14031Y5579D01*
G37*
G36*
G01X31911Y39676D02*
G01X31877Y39677D01*
G01X31843Y39676D01*
G01X31809Y39673D01*
G01X31776Y39668D01*
G01X31743Y39661D01*
G01X31710Y39652D01*
G01X31678Y39641D01*
G01X31646Y39628D01*
G01X31616Y39613D01*
G01X31586Y39596D01*
G01X31558Y39578D01*
G01X31531Y39558D01*
G01X31504Y39536D01*
G01X31480Y39513D01*
G01X31457Y39488D01*
G01X31435Y39462D01*
G01X31415Y39435D01*
G01X31396Y39406D01*
G01X31380Y39377D01*
G01X31365Y39346D01*
G01X31352Y39315D01*
G01X31341Y39283D01*
G01X31332Y39250D01*
G01X31325Y39217D01*
G01X31319Y39183D01*
G01X31316Y39150D01*
G01X31315Y39116D01*
G01X31316Y39079D01*
G01X31320Y39042D01*
G01X31326Y39006D01*
G01X31335Y38970D01*
G01X31345Y38935D01*
G01X31359Y38900D01*
G01X31364Y38881D01*
G01X31366Y38861D01*
G01X31366Y13588D01*
G01X31365Y13572D01*
G01X31361Y13557D01*
G01X31355Y13542D01*
G01X31347Y13529D01*
G01X31336Y13517D01*
G01X29790Y11970D01*
G01X29778Y11960D01*
G01X29764Y11951D01*
G01X29750Y11945D01*
G01X29734Y11941D01*
G01X29718Y11940D01*
G01X12319Y11940D01*
G01X12285Y11939D01*
G01X12252Y11936D01*
G01X12219Y11931D01*
G01X12187Y11923D01*
G01X12155Y11913D01*
G01X12123Y11901D01*
G01X12093Y11887D01*
G01X12064Y11872D01*
G01X12035Y11854D01*
G01X12008Y11835D01*
G01X11982Y11814D01*
G01X11958Y11791D01*
G01X9926Y9759D01*
G01X9903Y9735D01*
G01X9882Y9709D01*
G01X9862Y9681D01*
G01X9845Y9653D01*
G01X9829Y9623D01*
G01X9815Y9593D01*
G01X9803Y9562D01*
G01X9793Y9530D01*
G01X9786Y9497D01*
G01X9781Y9464D01*
G01X9777Y9431D01*
G01X9776Y9398D01*
G01X9776Y5793D01*
G01X9775Y5775D01*
G01X9770Y5758D01*
G01X9762Y5742D01*
G01X9744Y5707D01*
G01X9727Y5671D01*
G01X9714Y5634D01*
G01X9703Y5596D01*
G01X9694Y5558D01*
G01X9690Y5543D01*
G01X9684Y5529D01*
G01X9676Y5515D01*
G01X9665Y5503D01*
G01X9653Y5493D01*
G01X9640Y5486D01*
G01X9625Y5480D01*
G01X9610Y5476D01*
G01X9594Y5474D01*
G01X9579Y5476D01*
G01X9563Y5480D01*
G01X9549Y5485D01*
G01X9507Y5505D01*
G01X9464Y5522D01*
G01X9420Y5537D01*
G01X9375Y5550D01*
G01X9331Y5561D01*
G01X9285Y5569D01*
G01X9239Y5575D01*
G01X9193Y5579D01*
G01X9146Y5580D01*
G01X9103Y5579D01*
G01X9060Y5576D01*
G01X9017Y5570D01*
G01X8975Y5563D01*
G01X8932Y5554D01*
G01X8891Y5543D01*
G01X8850Y5530D01*
G01X8809Y5515D01*
G01X8770Y5498D01*
G01X8731Y5479D01*
G01X8693Y5458D01*
G01X8656Y5436D01*
G01X8586Y5386D01*
G01X8552Y5358D01*
G01X8521Y5329D01*
G01X8490Y5299D01*
G01X8461Y5267D01*
G01X8434Y5234D01*
G01X8408Y5199D01*
G01X8384Y5163D01*
G01X8361Y5126D01*
G01X8341Y5088D01*
G01X8322Y5050D01*
G01X8305Y5010D01*
G01X8290Y4970D01*
G01X8277Y4928D01*
G01X8265Y4887D01*
G01X8256Y4845D01*
G01X8249Y4802D01*
G01X8244Y4759D01*
G01X8241Y4716D01*
G01X8240Y4673D01*
G01X8241Y4630D01*
G01X8244Y4587D01*
G01X8249Y4544D01*
G01X8256Y4502D01*
G01X8265Y4459D01*
G01X8277Y4418D01*
G01X8290Y4377D01*
G01X8305Y4336D01*
G01X8322Y4296D01*
G01X8341Y4258D01*
G01X8361Y4220D01*
G01X8384Y4183D01*
G01X8408Y4147D01*
G01X8434Y4113D01*
G01X8461Y4080D01*
G01X8490Y4047D01*
G01X8521Y4017D01*
G01X8552Y3988D01*
G01X8586Y3961D01*
G01X8621Y3935D01*
G01X8656Y3910D01*
G01X8693Y3888D01*
G01X8731Y3867D01*
G01X8770Y3848D01*
G01X8809Y3832D01*
G01X8850Y3816D01*
G01X8891Y3803D01*
G01X8932Y3792D01*
G01X8975Y3783D01*
G01X9017Y3776D01*
G01X9060Y3771D01*
G01X9103Y3768D01*
G01X9146Y3767D01*
G01X9189Y3768D01*
G01X9233Y3771D01*
G01X9275Y3776D01*
G01X9318Y3783D01*
G01X9360Y3792D01*
G01X9402Y3803D01*
G01X9443Y3816D01*
G01X9523Y3848D01*
G01X9562Y3867D01*
G01X9599Y3888D01*
G01X9637Y3910D01*
G01X9672Y3935D01*
G01X9707Y3961D01*
G01X9740Y3988D01*
G01X9772Y4017D01*
G01X9803Y4047D01*
G01X9832Y4080D01*
G01X9859Y4113D01*
G01X9885Y4147D01*
G01X9909Y4183D01*
G01X9931Y4220D01*
G01X9952Y4258D01*
G01X9971Y4296D01*
G01X9988Y4336D01*
G01X10003Y4377D01*
G01X10016Y4418D01*
G01X10027Y4459D01*
G01X10036Y4502D01*
G01X10043Y4544D01*
G01X10049Y4587D01*
G01X10052Y4630D01*
G01X10053Y4673D01*
G01X10051Y4731D01*
G01X10045Y4789D01*
G01X10044Y4802D01*
G01X10045Y4817D01*
G01X10049Y4831D01*
G01X10054Y4845D01*
G01X10061Y4857D01*
G01X10069Y4869D01*
G01X10079Y4879D01*
G01X10091Y4888D01*
G01X10104Y4895D01*
G01X10118Y4900D01*
G01X10132Y4903D01*
G01X10146Y4904D01*
G01X10161Y4903D01*
G01X10204Y4898D01*
G01X10247Y4896D01*
G01X10280Y4897D01*
G01X10314Y4900D01*
G01X10348Y4906D01*
G01X10381Y4913D01*
G01X10413Y4922D01*
G01X10445Y4933D01*
G01X10477Y4946D01*
G01X10507Y4961D01*
G01X10537Y4977D01*
G01X10565Y4996D01*
G01X10593Y5016D01*
G01X10618Y5038D01*
G01X10643Y5061D01*
G01X10667Y5085D01*
G01X10688Y5112D01*
G01X10708Y5139D01*
G01X10727Y5167D01*
G01X10743Y5197D01*
G01X10758Y5227D01*
G01X10771Y5259D01*
G01X10782Y5291D01*
G01X10791Y5324D01*
G01X10798Y5357D01*
G01X10803Y5390D01*
G01X10806Y5424D01*
G01X10808Y5458D01*
G01X10805Y5507D01*
G01X10799Y5557D01*
G01X10797Y5575D01*
G01X10797Y9144D01*
G01X10798Y9160D01*
G01X10802Y9176D01*
G01X10808Y9190D01*
G01X10817Y9204D01*
G01X10827Y9216D01*
G01X12501Y10889D01*
G01X12513Y10900D01*
G01X12526Y10908D01*
G01X12541Y10914D01*
G01X12556Y10918D01*
G01X12572Y10919D01*
G01X29972Y10919D01*
G01X30005Y10920D01*
G01X30038Y10924D01*
G01X30071Y10929D01*
G01X30104Y10936D01*
G01X30136Y10946D01*
G01X30167Y10958D01*
G01X30197Y10972D01*
G01X30227Y10988D01*
G01X30255Y11005D01*
G01X30283Y11025D01*
G01X30309Y11046D01*
G01X30333Y11069D01*
G01X32238Y12974D01*
G01X32261Y12998D01*
G01X32282Y13024D01*
G01X32301Y13051D01*
G01X32319Y13080D01*
G01X32334Y13109D01*
G01X32348Y13139D01*
G01X32360Y13171D01*
G01X32370Y13203D01*
G01X32378Y13235D01*
G01X32383Y13268D01*
G01X32386Y13301D01*
G01X32387Y13335D01*
G01X32387Y38861D01*
G01X32389Y38881D01*
G01X32395Y38900D01*
G01X32408Y38935D01*
G01X32419Y38970D01*
G01X32427Y39006D01*
G01X32433Y39042D01*
G01X32437Y39079D01*
G01X32438Y39116D01*
G01X32437Y39150D01*
G01X32434Y39183D01*
G01X32429Y39217D01*
G01X32422Y39250D01*
G01X32413Y39283D01*
G01X32402Y39315D01*
G01X32389Y39346D01*
G01X32374Y39377D01*
G01X32357Y39406D01*
G01X32339Y39435D01*
G01X32319Y39462D01*
G01X32297Y39488D01*
G01X32274Y39513D01*
G01X32249Y39536D01*
G01X32223Y39558D01*
G01X32196Y39578D01*
G01X32167Y39596D01*
G01X32138Y39613D01*
G01X32107Y39628D01*
G01X32076Y39641D01*
G01X32044Y39652D01*
G01X32011Y39661D01*
G01X31978Y39668D01*
G01X31944Y39673D01*
G01X31911Y39676D01*
G37*
G36*
G01X23252Y8608D02*
G01X22781Y8608D01*
G01X22802Y8565D01*
G01X22827Y8523D01*
G01X22853Y8482D01*
G01X22881Y8443D01*
G01X22911Y8405D01*
G01X22943Y8368D01*
G01X22977Y8332D01*
G01X23012Y8299D01*
G01X23048Y8267D01*
G01X23087Y8237D01*
G01X23126Y8209D01*
G01X23167Y8183D01*
G01X23209Y8159D01*
G01X23252Y8136D01*
G01X23252Y8608D01*
G37*
G36*
G01X24613Y8608D02*
G01X24141Y8608D01*
G01X24141Y8136D01*
G01X24185Y8159D01*
G01X24226Y8183D01*
G01X24267Y8209D01*
G01X24307Y8237D01*
G01X24345Y8267D01*
G01X24382Y8299D01*
G01X24417Y8332D01*
G01X24450Y8368D01*
G01X24482Y8405D01*
G01X24512Y8443D01*
G01X24540Y8482D01*
G01X24567Y8523D01*
G01X24591Y8565D01*
G01X24613Y8608D01*
G37*
G36*
G01X18113Y8608D02*
G01X17641Y8608D01*
G01X17641Y8136D01*
G01X17684Y8159D01*
G01X17726Y8183D01*
G01X17768Y8209D01*
G01X17807Y8237D01*
G01X17845Y8267D01*
G01X17882Y8299D01*
G01X17917Y8332D01*
G01X17950Y8368D01*
G01X17982Y8405D01*
G01X18012Y8443D01*
G01X18040Y8482D01*
G01X18067Y8523D01*
G01X18091Y8565D01*
G01X18113Y8608D01*
G37*
G36*
G01X16752Y8608D02*
G01X16280Y8608D01*
G01X16302Y8565D01*
G01X16327Y8523D01*
G01X16353Y8482D01*
G01X16381Y8443D01*
G01X16411Y8405D01*
G01X16443Y8368D01*
G01X16477Y8332D01*
G01X16512Y8299D01*
G01X16548Y8267D01*
G01X16586Y8237D01*
G01X16626Y8209D01*
G01X16667Y8183D01*
G01X16709Y8159D01*
G01X16752Y8136D01*
G01X16752Y8608D01*
G37*
G36*
G01X23252Y9497D02*
G01X23252Y9969D01*
G01X23209Y9947D01*
G01X23167Y9923D01*
G01X23126Y9897D01*
G01X23087Y9868D01*
G01X23048Y9838D01*
G01X23012Y9807D01*
G01X22977Y9773D01*
G01X22943Y9738D01*
G01X22911Y9701D01*
G01X22881Y9663D01*
G01X22853Y9623D01*
G01X22827Y9583D01*
G01X22802Y9541D01*
G01X22781Y9497D01*
G01X23252Y9497D01*
G37*
G36*
G01X24185Y9947D02*
G01X24141Y9969D01*
G01X24141Y9497D01*
G01X24613Y9497D01*
G01X24591Y9541D01*
G01X24567Y9583D01*
G01X24540Y9623D01*
G01X24512Y9663D01*
G01X24482Y9701D01*
G01X24450Y9738D01*
G01X24417Y9773D01*
G01X24382Y9807D01*
G01X24345Y9838D01*
G01X24307Y9868D01*
G01X24267Y9897D01*
G01X24226Y9923D01*
G01X24185Y9947D01*
G37*
G36*
G01X16752Y9497D02*
G01X16752Y9969D01*
G01X16709Y9947D01*
G01X16667Y9923D01*
G01X16626Y9897D01*
G01X16586Y9868D01*
G01X16548Y9838D01*
G01X16512Y9807D01*
G01X16477Y9773D01*
G01X16443Y9738D01*
G01X16411Y9701D01*
G01X16381Y9663D01*
G01X16353Y9623D01*
G01X16327Y9583D01*
G01X16302Y9541D01*
G01X16280Y9497D01*
G01X16752Y9497D01*
G37*
G36*
G01X17684Y9947D02*
G01X17641Y9969D01*
G01X17641Y9497D01*
G01X18113Y9497D01*
G01X18091Y9541D01*
G01X18067Y9583D01*
G01X18040Y9623D01*
G01X18012Y9663D01*
G01X17982Y9701D01*
G01X17950Y9738D01*
G01X17917Y9773D01*
G01X17882Y9807D01*
G01X17845Y9838D01*
G01X17807Y9868D01*
G01X17768Y9897D01*
G01X17726Y9923D01*
G01X17684Y9947D01*
G37*
G36*
G01X10586Y22099D02*
G01X10541Y22100D01*
G01X10495Y22099D01*
G01X10449Y22096D01*
G01X10404Y22091D01*
G01X10359Y22084D01*
G01X10314Y22075D01*
G01X10270Y22064D01*
G01X10226Y22051D01*
G01X10140Y22019D01*
G01X10058Y21979D01*
G01X10019Y21956D01*
G01X9979Y21932D01*
G01X9942Y21906D01*
G01X9906Y21878D01*
G01X9871Y21849D01*
G01X9837Y21818D01*
G01X9805Y21786D01*
G01X9774Y21752D01*
G01X9744Y21717D01*
G01X9717Y21681D01*
G01X9691Y21643D01*
G01X9666Y21604D01*
G01X9644Y21564D01*
G01X9623Y21524D01*
G01X9604Y21482D01*
G01X9587Y21440D01*
G01X9572Y21397D01*
G01X9559Y21353D01*
G01X9548Y21308D01*
G01X9538Y21264D01*
G01X9531Y21218D01*
G01X9526Y21173D01*
G01X9523Y21127D01*
G01X9522Y21082D01*
G01X9523Y21036D01*
G01X9526Y20990D01*
G01X9531Y20944D01*
G01X9539Y20898D01*
G01X9548Y20853D01*
G01X9560Y20808D01*
G01X9573Y20764D01*
G01X9588Y20721D01*
G01X9606Y20678D01*
G01X9625Y20636D01*
G01X9646Y20595D01*
G01X9669Y20555D01*
G01X9694Y20516D01*
G01X9720Y20478D01*
G01X9748Y20442D01*
G01X9778Y20407D01*
G01X9810Y20373D01*
G01X9842Y20341D01*
G01X9877Y20310D01*
G01X9912Y20280D01*
G01X9949Y20253D01*
G01X9962Y20242D01*
G01X9972Y20230D01*
G01X9980Y20217D01*
G01X9987Y20201D01*
G01X9991Y20186D01*
G01X9992Y20170D01*
G01X9991Y20156D01*
G01X9988Y20141D01*
G01X9976Y20115D01*
G01X9967Y20103D01*
G01X9957Y20093D01*
G01X9945Y20085D01*
G01X9932Y20077D01*
G01X9919Y20072D01*
G01X9905Y20069D01*
G01X9890Y20068D01*
G01X4191Y20068D01*
G01X4161Y20067D01*
G01X4131Y20064D01*
G01X4101Y20058D01*
G01X4072Y20049D01*
G01X4044Y20039D01*
G01X4017Y20027D01*
G01X3991Y20012D01*
G01X3965Y19995D01*
G01X3942Y19976D01*
G01X3919Y19956D01*
G01X1760Y17797D01*
G01X1740Y17775D01*
G01X1721Y17751D01*
G01X1705Y17726D01*
G01X1690Y17700D01*
G01X1677Y17673D01*
G01X1667Y17644D01*
G01X1659Y17615D01*
G01X1653Y17586D01*
G01X1649Y17556D01*
G01X1648Y17526D01*
G01X1648Y10992D01*
G01X1647Y10977D01*
G01X1644Y10962D01*
G01X1638Y10948D01*
G01X1630Y10935D01*
G01X1621Y10923D01*
G01X1598Y10897D01*
G01X1577Y10869D01*
G01X1557Y10840D01*
G01X1539Y10810D01*
G01X1523Y10778D01*
G01X1510Y10746D01*
G01X1497Y10713D01*
G01X1488Y10679D01*
G01X1480Y10645D01*
G01X1475Y10611D01*
G01X1471Y10576D01*
G01X1470Y10541D01*
G01X1471Y10507D01*
G01X1474Y10473D01*
G01X1480Y10440D01*
G01X1487Y10407D01*
G01X1496Y10374D01*
G01X1507Y10342D01*
G01X1520Y10310D01*
G01X1535Y10280D01*
G01X1551Y10250D01*
G01X1570Y10222D01*
G01X1590Y10195D01*
G01X1612Y10168D01*
G01X1635Y10144D01*
G01X1659Y10121D01*
G01X1686Y10099D01*
G01X1713Y10079D01*
G01X1741Y10060D01*
G01X1771Y10044D01*
G01X1801Y10029D01*
G01X1833Y10016D01*
G01X1865Y10005D01*
G01X1898Y9996D01*
G01X1931Y9989D01*
G01X1964Y9983D01*
G01X1998Y9980D01*
G01X2032Y9979D01*
G01X2066Y9980D01*
G01X2099Y9983D01*
G01X2133Y9989D01*
G01X2166Y9996D01*
G01X2199Y10005D01*
G01X2231Y10016D01*
G01X2262Y10029D01*
G01X2293Y10044D01*
G01X2322Y10060D01*
G01X2351Y10079D01*
G01X2378Y10099D01*
G01X2404Y10121D01*
G01X2429Y10144D01*
G01X2452Y10168D01*
G01X2474Y10195D01*
G01X2494Y10222D01*
G01X2512Y10250D01*
G01X2529Y10280D01*
G01X2544Y10310D01*
G01X2557Y10342D01*
G01X2568Y10374D01*
G01X2577Y10407D01*
G01X2584Y10440D01*
G01X2589Y10473D01*
G01X2592Y10507D01*
G01X2593Y10541D01*
G01X2592Y10576D01*
G01X2589Y10611D01*
G01X2583Y10645D01*
G01X2576Y10679D01*
G01X2566Y10713D01*
G01X2554Y10746D01*
G01X2540Y10778D01*
G01X2525Y10810D01*
G01X2507Y10840D01*
G01X2487Y10869D01*
G01X2466Y10897D01*
G01X2443Y10923D01*
G01X2433Y10935D01*
G01X2425Y10948D01*
G01X2420Y10962D01*
G01X2416Y10977D01*
G01X2415Y10992D01*
G01X2415Y17325D01*
G01X2416Y17341D01*
G01X2420Y17356D01*
G01X2426Y17371D01*
G01X2435Y17385D01*
G01X2445Y17397D01*
G01X4320Y19271D01*
G01X4332Y19282D01*
G01X4346Y19290D01*
G01X4360Y19296D01*
G01X4376Y19300D01*
G01X4392Y19301D01*
G01X14026Y19301D01*
G01X14041Y19300D01*
G01X14056Y19297D01*
G01X14070Y19291D01*
G01X14084Y19283D01*
G01X14095Y19274D01*
G01X14122Y19251D01*
G01X14150Y19230D01*
G01X14179Y19210D01*
G01X14209Y19192D01*
G01X14240Y19176D01*
G01X14272Y19163D01*
G01X14305Y19150D01*
G01X14339Y19141D01*
G01X14373Y19133D01*
G01X14408Y19128D01*
G01X14443Y19124D01*
G01X14478Y19123D01*
G01X14512Y19124D01*
G01X14545Y19127D01*
G01X14579Y19133D01*
G01X14612Y19140D01*
G01X14645Y19149D01*
G01X14677Y19160D01*
G01X14708Y19173D01*
G01X14739Y19188D01*
G01X14768Y19204D01*
G01X14797Y19223D01*
G01X14824Y19243D01*
G01X14850Y19265D01*
G01X14875Y19288D01*
G01X14898Y19312D01*
G01X14920Y19339D01*
G01X14940Y19366D01*
G01X14958Y19394D01*
G01X14975Y19424D01*
G01X14990Y19454D01*
G01X15003Y19486D01*
G01X15014Y19518D01*
G01X15023Y19551D01*
G01X15030Y19584D01*
G01X15035Y19617D01*
G01X15038Y19651D01*
G01X15039Y19685D01*
G01X15038Y19719D01*
G01X15035Y19752D01*
G01X15030Y19786D01*
G01X15023Y19819D01*
G01X15014Y19852D01*
G01X15003Y19884D01*
G01X14990Y19915D01*
G01X14975Y19946D01*
G01X14958Y19975D01*
G01X14940Y20004D01*
G01X14920Y20031D01*
G01X14898Y20057D01*
G01X14875Y20082D01*
G01X14850Y20105D01*
G01X14824Y20127D01*
G01X14797Y20147D01*
G01X14768Y20165D01*
G01X14739Y20182D01*
G01X14708Y20197D01*
G01X14677Y20210D01*
G01X14645Y20221D01*
G01X14612Y20230D01*
G01X14579Y20237D01*
G01X14545Y20242D01*
G01X14512Y20245D01*
G01X14478Y20246D01*
G01X14443Y20245D01*
G01X14408Y20242D01*
G01X14373Y20236D01*
G01X14339Y20229D01*
G01X14305Y20219D01*
G01X14272Y20207D01*
G01X14240Y20193D01*
G01X14209Y20178D01*
G01X14179Y20160D01*
G01X14150Y20140D01*
G01X14122Y20119D01*
G01X14095Y20096D01*
G01X14084Y20086D01*
G01X14070Y20078D01*
G01X14056Y20073D01*
G01X14041Y20069D01*
G01X14026Y20068D01*
G01X13671Y20068D01*
G01X13655Y20069D01*
G01X13640Y20073D01*
G01X13625Y20079D01*
G01X13611Y20088D01*
G01X13599Y20098D01*
G01X13589Y20110D01*
G01X13579Y20098D01*
G01X13566Y20088D01*
G01X13553Y20079D01*
G01X13538Y20073D01*
G01X13523Y20069D01*
G01X13507Y20068D01*
G01X11192Y20068D01*
G01X11177Y20069D01*
G01X11163Y20072D01*
G01X11149Y20077D01*
G01X11136Y20085D01*
G01X11125Y20093D01*
G01X11114Y20103D01*
G01X11106Y20115D01*
G01X11099Y20128D01*
G01X11094Y20141D01*
G01X11091Y20156D01*
G01X11090Y20170D01*
G01X11091Y20186D01*
G01X11095Y20201D01*
G01X11101Y20217D01*
G01X11110Y20230D01*
G01X11120Y20242D01*
G01X11132Y20253D01*
G01X11169Y20280D01*
G01X11205Y20310D01*
G01X11239Y20341D01*
G01X11272Y20373D01*
G01X11303Y20407D01*
G01X11333Y20442D01*
G01X11361Y20478D01*
G01X11388Y20516D01*
G01X11412Y20555D01*
G01X11435Y20595D01*
G01X11457Y20636D01*
G01X11476Y20678D01*
G01X11493Y20721D01*
G01X11508Y20764D01*
G01X11522Y20808D01*
G01X11533Y20853D01*
G01X11543Y20898D01*
G01X11550Y20944D01*
G01X11555Y20990D01*
G01X11558Y21036D01*
G01X11559Y21082D01*
G01X11558Y21127D01*
G01X11555Y21173D01*
G01X11550Y21218D01*
G01X11543Y21264D01*
G01X11534Y21308D01*
G01X11523Y21353D01*
G01X11510Y21397D01*
G01X11494Y21440D01*
G01X11478Y21482D01*
G01X11458Y21524D01*
G01X11438Y21564D01*
G01X11415Y21604D01*
G01X11391Y21643D01*
G01X11365Y21681D01*
G01X11337Y21717D01*
G01X11308Y21752D01*
G01X11277Y21786D01*
G01X11245Y21818D01*
G01X11211Y21849D01*
G01X11176Y21878D01*
G01X11140Y21906D01*
G01X11102Y21932D01*
G01X11063Y21956D01*
G01X11023Y21979D01*
G01X10983Y21999D01*
G01X10941Y22019D01*
G01X10899Y22035D01*
G01X10856Y22051D01*
G01X10812Y22064D01*
G01X10767Y22075D01*
G01X10723Y22084D01*
G01X10677Y22091D01*
G01X10632Y22096D01*
G01X10586Y22099D01*
G37*
G36*
G01X13623Y16181D02*
G01X13589Y16182D01*
G01X13555Y16181D01*
G01X13521Y16178D01*
G01X13488Y16173D01*
G01X13455Y16166D01*
G01X13422Y16157D01*
G01X13390Y16146D01*
G01X13358Y16133D01*
G01X13328Y16118D01*
G01X13298Y16101D01*
G01X13270Y16083D01*
G01X13243Y16063D01*
G01X13216Y16041D01*
G01X13192Y16018D01*
G01X13169Y15993D01*
G01X13147Y15967D01*
G01X13127Y15940D01*
G01X13108Y15911D01*
G01X13092Y15882D01*
G01X13077Y15851D01*
G01X13064Y15820D01*
G01X13053Y15788D01*
G01X13044Y15755D01*
G01X13037Y15722D01*
G01X13031Y15688D01*
G01X13028Y15655D01*
G01X13027Y15621D01*
G01X13028Y15586D01*
G01X13032Y15551D01*
G01X13037Y15516D01*
G01X13045Y15482D01*
G01X13054Y15448D01*
G01X13067Y15415D01*
G01X13080Y15383D01*
G01X13096Y15352D01*
G01X13114Y15322D01*
G01X13134Y15293D01*
G01X13155Y15265D01*
G01X13178Y15238D01*
G01X13187Y15227D01*
G01X13195Y15213D01*
G01X13201Y15199D01*
G01X13204Y15184D01*
G01X13205Y15169D01*
G01X13205Y14173D01*
G01X13206Y14143D01*
G01X13210Y14113D01*
G01X13216Y14084D01*
G01X13224Y14055D01*
G01X13234Y14026D01*
G01X13247Y13999D01*
G01X13262Y13973D01*
G01X13278Y13947D01*
G01X13297Y13924D01*
G01X13317Y13902D01*
G01X14141Y13078D01*
G01X14151Y13067D01*
G01X14159Y13054D01*
G01X14165Y13040D01*
G01X14169Y13025D01*
G01X14171Y13010D01*
G01X14173Y12976D01*
G01X14178Y12942D01*
G01X14184Y12908D01*
G01X14192Y12874D01*
G01X14203Y12841D01*
G01X14216Y12809D01*
G01X14230Y12778D01*
G01X14247Y12748D01*
G01X14265Y12719D01*
G01X14285Y12691D01*
G01X14307Y12664D01*
G01X14330Y12638D01*
G01X14354Y12614D01*
G01X14381Y12592D01*
G01X14408Y12571D01*
G01X14437Y12552D01*
G01X14467Y12535D01*
G01X14498Y12520D01*
G01X14530Y12506D01*
G01X14562Y12495D01*
G01X14595Y12485D01*
G01X14629Y12478D01*
G01X14663Y12473D01*
G01X14697Y12470D01*
G01X14732Y12469D01*
G01X14766Y12470D01*
G01X14799Y12473D01*
G01X14833Y12478D01*
G01X14866Y12485D01*
G01X14899Y12494D01*
G01X14931Y12505D01*
G01X14962Y12518D01*
G01X14993Y12533D01*
G01X15022Y12549D01*
G01X15051Y12568D01*
G01X15078Y12588D01*
G01X15104Y12610D01*
G01X15129Y12633D01*
G01X15152Y12658D01*
G01X15174Y12684D01*
G01X15194Y12711D01*
G01X15212Y12739D01*
G01X15229Y12769D01*
G01X15244Y12799D01*
G01X15257Y12831D01*
G01X15268Y12863D01*
G01X15277Y12896D01*
G01X15284Y12929D01*
G01X15289Y12962D01*
G01X15292Y12996D01*
G01X15293Y13030D01*
G01X15292Y13064D01*
G01X15289Y13099D01*
G01X15283Y13133D01*
G01X15276Y13167D01*
G01X15267Y13200D01*
G01X15256Y13232D01*
G01X15242Y13264D01*
G01X15227Y13295D01*
G01X15209Y13325D01*
G01X15190Y13354D01*
G01X15170Y13381D01*
G01X15147Y13407D01*
G01X15123Y13432D01*
G01X15098Y13455D01*
G01X15071Y13477D01*
G01X15043Y13497D01*
G01X15014Y13515D01*
G01X14984Y13531D01*
G01X14952Y13546D01*
G01X14920Y13559D01*
G01X14888Y13569D01*
G01X14854Y13578D01*
G01X14820Y13584D01*
G01X14786Y13589D01*
G01X14752Y13591D01*
G01X14737Y13593D01*
G01X14722Y13596D01*
G01X14708Y13602D01*
G01X14695Y13611D01*
G01X14683Y13621D01*
G01X14002Y14302D01*
G01X13992Y14314D01*
G01X13983Y14328D01*
G01X13977Y14343D01*
G01X13973Y14358D01*
G01X13972Y14374D01*
G01X13972Y15169D01*
G01X13973Y15184D01*
G01X13977Y15199D01*
G01X13982Y15213D01*
G01X13990Y15227D01*
G01X14000Y15238D01*
G01X14023Y15265D01*
G01X14044Y15293D01*
G01X14064Y15322D01*
G01X14082Y15352D01*
G01X14097Y15383D01*
G01X14111Y15415D01*
G01X14123Y15448D01*
G01X14133Y15482D01*
G01X14140Y15516D01*
G01X14146Y15551D01*
G01X14149Y15586D01*
G01X14150Y15621D01*
G01X14149Y15655D01*
G01X14146Y15688D01*
G01X14141Y15722D01*
G01X14134Y15755D01*
G01X14125Y15788D01*
G01X14114Y15820D01*
G01X14101Y15851D01*
G01X14086Y15882D01*
G01X14069Y15911D01*
G01X14051Y15940D01*
G01X14031Y15967D01*
G01X14009Y15993D01*
G01X13986Y16018D01*
G01X13961Y16041D01*
G01X13935Y16063D01*
G01X13908Y16083D01*
G01X13879Y16101D01*
G01X13850Y16118D01*
G01X13819Y16133D01*
G01X13788Y16146D01*
G01X13756Y16157D01*
G01X13723Y16166D01*
G01X13690Y16173D01*
G01X13656Y16178D01*
G01X13623Y16181D01*
G37*
G36*
G01X23743Y14570D02*
G01X23697Y14571D01*
G01X23651Y14570D01*
G01X23605Y14567D01*
G01X23560Y14562D01*
G01X23515Y14555D01*
G01X23470Y14546D01*
G01X23426Y14535D01*
G01X23382Y14521D01*
G01X23339Y14506D01*
G01X23297Y14489D01*
G01X23255Y14471D01*
G01X23214Y14450D01*
G01X23174Y14427D01*
G01X23136Y14403D01*
G01X23098Y14377D01*
G01X23062Y14349D01*
G01X23026Y14320D01*
G01X22993Y14289D01*
G01X22960Y14257D01*
G01X22930Y14223D01*
G01X22900Y14188D01*
G01X22873Y14152D01*
G01X22847Y14114D01*
G01X22822Y14075D01*
G01X22800Y14035D01*
G01X22779Y13995D01*
G01X22760Y13953D01*
G01X22743Y13911D01*
G01X22728Y13868D01*
G01X22715Y13824D01*
G01X22704Y13779D01*
G01X22695Y13735D01*
G01X22688Y13689D01*
G01X22682Y13644D01*
G01X22679Y13598D01*
G01X22678Y13553D01*
G01X22679Y13507D01*
G01X22682Y13461D01*
G01X22688Y13416D01*
G01X22695Y13371D01*
G01X22704Y13326D01*
G01X22715Y13282D01*
G01X22728Y13238D01*
G01X22743Y13195D01*
G01X22760Y13152D01*
G01X22779Y13111D01*
G01X22800Y13070D01*
G01X22822Y13030D01*
G01X22847Y12992D01*
G01X22873Y12954D01*
G01X22900Y12918D01*
G01X22930Y12883D01*
G01X22960Y12849D01*
G01X22993Y12817D01*
G01X23026Y12786D01*
G01X23062Y12757D01*
G01X23098Y12729D01*
G01X23136Y12703D01*
G01X23174Y12678D01*
G01X23214Y12656D01*
G01X23255Y12635D01*
G01X23297Y12616D01*
G01X23339Y12599D01*
G01X23382Y12584D01*
G01X23426Y12571D01*
G01X23470Y12560D01*
G01X23515Y12550D01*
G01X23560Y12543D01*
G01X23605Y12538D01*
G01X23651Y12535D01*
G01X23697Y12534D01*
G01X23743Y12535D01*
G01X23788Y12538D01*
G01X23834Y12543D01*
G01X23879Y12550D01*
G01X23924Y12560D01*
G01X23968Y12571D01*
G01X24011Y12584D01*
G01X24055Y12599D01*
G01X24097Y12616D01*
G01X24139Y12635D01*
G01X24180Y12656D01*
G01X24219Y12678D01*
G01X24258Y12703D01*
G01X24295Y12729D01*
G01X24332Y12757D01*
G01X24367Y12786D01*
G01X24401Y12817D01*
G01X24433Y12849D01*
G01X24464Y12883D01*
G01X24493Y12918D01*
G01X24521Y12954D01*
G01X24547Y12992D01*
G01X24571Y13030D01*
G01X24594Y13070D01*
G01X24614Y13111D01*
G01X24633Y13152D01*
G01X24650Y13195D01*
G01X24666Y13238D01*
G01X24690Y13326D01*
G01X24699Y13371D01*
G01X24706Y13416D01*
G01X24711Y13461D01*
G01X24714Y13507D01*
G01X24715Y13553D01*
G01X24714Y13598D01*
G01X24711Y13644D01*
G01X24706Y13689D01*
G01X24699Y13735D01*
G01X24690Y13779D01*
G01X24678Y13824D01*
G01X24666Y13868D01*
G01X24650Y13911D01*
G01X24633Y13953D01*
G01X24614Y13995D01*
G01X24594Y14035D01*
G01X24571Y14075D01*
G01X24547Y14114D01*
G01X24521Y14152D01*
G01X24493Y14188D01*
G01X24464Y14223D01*
G01X24433Y14257D01*
G01X24401Y14289D01*
G01X24367Y14320D01*
G01X24332Y14349D01*
G01X24295Y14377D01*
G01X24258Y14403D01*
G01X24219Y14427D01*
G01X24180Y14450D01*
G01X24139Y14471D01*
G01X24097Y14489D01*
G01X24055Y14506D01*
G01X24011Y14521D01*
G01X23968Y14535D01*
G01X23924Y14546D01*
G01X23879Y14555D01*
G01X23834Y14562D01*
G01X23788Y14567D01*
G01X23743Y14570D01*
G37*
G36*
G01X17242Y14570D02*
G01X17197Y14571D01*
G01X17151Y14570D01*
G01X17106Y14567D01*
G01X17060Y14562D01*
G01X17015Y14555D01*
G01X16970Y14546D01*
G01X16926Y14535D01*
G01X16882Y14521D01*
G01X16839Y14506D01*
G01X16796Y14489D01*
G01X16755Y14471D01*
G01X16714Y14450D01*
G01X16674Y14427D01*
G01X16636Y14403D01*
G01X16598Y14377D01*
G01X16562Y14349D01*
G01X16527Y14320D01*
G01X16493Y14289D01*
G01X16460Y14257D01*
G01X16429Y14223D01*
G01X16401Y14188D01*
G01X16373Y14152D01*
G01X16347Y14114D01*
G01X16322Y14075D01*
G01X16300Y14035D01*
G01X16279Y13995D01*
G01X16260Y13953D01*
G01X16243Y13911D01*
G01X16228Y13868D01*
G01X16215Y13824D01*
G01X16204Y13779D01*
G01X16195Y13735D01*
G01X16187Y13689D01*
G01X16182Y13644D01*
G01X16179Y13598D01*
G01X16178Y13553D01*
G01X16179Y13507D01*
G01X16182Y13461D01*
G01X16187Y13416D01*
G01X16195Y13371D01*
G01X16204Y13326D01*
G01X16215Y13282D01*
G01X16228Y13238D01*
G01X16243Y13195D01*
G01X16260Y13152D01*
G01X16279Y13111D01*
G01X16300Y13070D01*
G01X16322Y13030D01*
G01X16347Y12992D01*
G01X16373Y12954D01*
G01X16401Y12918D01*
G01X16429Y12883D01*
G01X16460Y12849D01*
G01X16493Y12817D01*
G01X16527Y12786D01*
G01X16562Y12757D01*
G01X16598Y12729D01*
G01X16636Y12703D01*
G01X16674Y12678D01*
G01X16714Y12656D01*
G01X16755Y12635D01*
G01X16796Y12616D01*
G01X16839Y12599D01*
G01X16882Y12584D01*
G01X16926Y12571D01*
G01X16970Y12560D01*
G01X17015Y12550D01*
G01X17060Y12543D01*
G01X17106Y12538D01*
G01X17151Y12535D01*
G01X17197Y12534D01*
G01X17242Y12535D01*
G01X17288Y12538D01*
G01X17333Y12543D01*
G01X17378Y12550D01*
G01X17424Y12560D01*
G01X17468Y12571D01*
G01X17512Y12584D01*
G01X17555Y12599D01*
G01X17597Y12616D01*
G01X17639Y12635D01*
G01X17679Y12656D01*
G01X17719Y12678D01*
G01X17758Y12703D01*
G01X17796Y12729D01*
G01X17832Y12757D01*
G01X17867Y12786D01*
G01X17901Y12817D01*
G01X17933Y12849D01*
G01X17964Y12883D01*
G01X17993Y12918D01*
G01X18021Y12954D01*
G01X18047Y12992D01*
G01X18071Y13030D01*
G01X18094Y13070D01*
G01X18115Y13111D01*
G01X18133Y13152D01*
G01X18151Y13195D01*
G01X18165Y13238D01*
G01X18179Y13282D01*
G01X18190Y13326D01*
G01X18199Y13371D01*
G01X18206Y13416D01*
G01X18211Y13461D01*
G01X18214Y13507D01*
G01X18215Y13553D01*
G01X18214Y13598D01*
G01X18211Y13644D01*
G01X18206Y13689D01*
G01X18199Y13735D01*
G01X18190Y13779D01*
G01X18179Y13824D01*
G01X18165Y13868D01*
G01X18151Y13911D01*
G01X18115Y13995D01*
G01X18094Y14035D01*
G01X18071Y14075D01*
G01X18047Y14114D01*
G01X18021Y14152D01*
G01X17993Y14188D01*
G01X17964Y14223D01*
G01X17933Y14257D01*
G01X17901Y14289D01*
G01X17867Y14320D01*
G01X17832Y14349D01*
G01X17796Y14377D01*
G01X17758Y14403D01*
G01X17719Y14427D01*
G01X17679Y14450D01*
G01X17639Y14471D01*
G01X17597Y14489D01*
G01X17555Y14506D01*
G01X17512Y14521D01*
G01X17468Y14535D01*
G01X17424Y14546D01*
G01X17378Y14555D01*
G01X17333Y14562D01*
G01X17288Y14567D01*
G01X17242Y14570D01*
G37*
G36*
G01X30006Y35485D02*
G01X29972Y35486D01*
G01X29937Y35485D01*
G01X29902Y35482D01*
G01X29868Y35476D01*
G01X29834Y35469D01*
G01X29801Y35459D01*
G01X29768Y35447D01*
G01X29736Y35434D01*
G01X29705Y35419D01*
G01X29674Y35401D01*
G01X29645Y35381D01*
G01X29618Y35360D01*
G01X29591Y35337D01*
G01X29566Y35313D01*
G01X29543Y35287D01*
G01X29521Y35260D01*
G01X29501Y35231D01*
G01X29484Y35202D01*
G01X29467Y35171D01*
G01X29453Y35139D01*
G01X29443Y35121D01*
G01X29431Y35106D01*
G01X27198Y32873D01*
G01X27175Y32849D01*
G01X27154Y32823D01*
G01X27134Y32795D01*
G01X27117Y32767D01*
G01X27101Y32737D01*
G01X27087Y32707D01*
G01X27075Y32676D01*
G01X27065Y32644D01*
G01X27058Y32611D01*
G01X27053Y32578D01*
G01X27049Y32545D01*
G01X27048Y32512D01*
G01X27048Y19176D01*
G01X27047Y19160D01*
G01X27043Y19145D01*
G01X27037Y19130D01*
G01X27029Y19117D01*
G01X27018Y19105D01*
G01X26235Y18321D01*
G01X26219Y18308D01*
G01X26201Y18298D01*
G01X26200Y18298D01*
G01X26181Y18292D01*
G01X26161Y18290D01*
G01X22860Y18290D01*
G01X22840Y18292D01*
G01X22821Y18298D01*
G01X22787Y18311D01*
G01X22752Y18322D01*
G01X22715Y18330D01*
G01X22679Y18336D01*
G01X22643Y18340D01*
G01X22606Y18341D01*
G01X22569Y18340D01*
G01X22532Y18336D01*
G01X22496Y18330D01*
G01X22460Y18322D01*
G01X22425Y18311D01*
G01X22390Y18298D01*
G01X22371Y18292D01*
G01X22351Y18290D01*
G01X12827Y18290D01*
G01X12807Y18292D01*
G01X12788Y18298D01*
G01X12754Y18311D01*
G01X12719Y18322D01*
G01X12682Y18330D01*
G01X12646Y18336D01*
G01X12610Y18340D01*
G01X12573Y18341D01*
G01X12536Y18340D01*
G01X12499Y18336D01*
G01X12463Y18330D01*
G01X12427Y18322D01*
G01X12392Y18311D01*
G01X12357Y18298D01*
G01X12338Y18292D01*
G01X12318Y18290D01*
G01X7061Y18290D01*
G01X7027Y18289D01*
G01X6994Y18286D01*
G01X6961Y18281D01*
G01X6929Y18273D01*
G01X6897Y18263D01*
G01X6865Y18251D01*
G01X6835Y18237D01*
G01X6806Y18222D01*
G01X6777Y18204D01*
G01X6750Y18185D01*
G01X6724Y18164D01*
G01X6700Y18141D01*
G01X5356Y16797D01*
G01X5340Y16784D01*
G01X5323Y16775D01*
G01X5291Y16761D01*
G01X5260Y16744D01*
G01X5231Y16726D01*
G01X5202Y16706D01*
G01X5175Y16685D01*
G01X5149Y16661D01*
G01X5124Y16636D01*
G01X5102Y16610D01*
G01X5080Y16582D01*
G01X5061Y16553D01*
G01X5043Y16523D01*
G01X5027Y16492D01*
G01X5014Y16460D01*
G01X5002Y16427D01*
G01X4992Y16394D01*
G01X4985Y16360D01*
G01X4980Y16325D01*
G01X4977Y16291D01*
G01X4976Y16256D01*
G01X4977Y16222D01*
G01X4980Y16188D01*
G01X4985Y16155D01*
G01X4992Y16122D01*
G01X5001Y16089D01*
G01X5012Y16057D01*
G01X5025Y16025D01*
G01X5040Y15995D01*
G01X5056Y15965D01*
G01X5075Y15937D01*
G01X5095Y15910D01*
G01X5116Y15883D01*
G01X5140Y15859D01*
G01X5165Y15836D01*
G01X5190Y15814D01*
G01X5218Y15794D01*
G01X5246Y15775D01*
G01X5276Y15759D01*
G01X5306Y15744D01*
G01X5338Y15731D01*
G01X5370Y15720D01*
G01X5402Y15711D01*
G01X5435Y15704D01*
G01X5469Y15698D01*
G01X5503Y15695D01*
G01X5537Y15694D01*
G01X5571Y15695D01*
G01X5606Y15698D01*
G01X5641Y15704D01*
G01X5675Y15712D01*
G01X5708Y15721D01*
G01X5741Y15733D01*
G01X5773Y15747D01*
G01X5804Y15762D01*
G01X5834Y15780D01*
G01X5863Y15799D01*
G01X5891Y15820D01*
G01X5917Y15843D01*
G01X5942Y15867D01*
G01X5965Y15893D01*
G01X5987Y15920D01*
G01X6007Y15949D01*
G01X6025Y15979D01*
G01X6041Y16009D01*
G01X6056Y16041D01*
G01X6065Y16059D01*
G01X6077Y16074D01*
G01X7243Y17239D01*
G01X7255Y17250D01*
G01X7268Y17258D01*
G01X7283Y17264D01*
G01X7299Y17268D01*
G01X7314Y17269D01*
G01X12318Y17269D01*
G01X12338Y17267D01*
G01X12357Y17262D01*
G01X12392Y17248D01*
G01X12427Y17238D01*
G01X12463Y17229D01*
G01X12499Y17223D01*
G01X12536Y17219D01*
G01X12573Y17218D01*
G01X12610Y17219D01*
G01X12646Y17223D01*
G01X12682Y17229D01*
G01X12719Y17238D01*
G01X12754Y17248D01*
G01X12788Y17262D01*
G01X12807Y17267D01*
G01X12827Y17269D01*
G01X22351Y17269D01*
G01X22371Y17267D01*
G01X22390Y17262D01*
G01X22425Y17248D01*
G01X22460Y17238D01*
G01X22496Y17229D01*
G01X22532Y17223D01*
G01X22569Y17219D01*
G01X22606Y17218D01*
G01X22643Y17219D01*
G01X22679Y17223D01*
G01X22715Y17229D01*
G01X22752Y17238D01*
G01X22787Y17248D01*
G01X22821Y17262D01*
G01X22840Y17267D01*
G01X22860Y17269D01*
G01X26161Y17269D01*
G01X26181Y17267D01*
G01X26200Y17262D01*
G01X26235Y17248D01*
G01X26270Y17238D01*
G01X26306Y17229D01*
G01X26342Y17223D01*
G01X26379Y17219D01*
G01X26416Y17218D01*
G01X26451Y17219D01*
G01X26485Y17223D01*
G01X26520Y17228D01*
G01X26554Y17236D01*
G01X26587Y17245D01*
G01X26620Y17257D01*
G01X26652Y17271D01*
G01X26683Y17286D01*
G01X26713Y17304D01*
G01X26742Y17323D01*
G01X26770Y17344D01*
G01X26796Y17367D01*
G01X26821Y17392D01*
G01X26845Y17418D01*
G01X26866Y17444D01*
G01X26886Y17473D01*
G01X26904Y17503D01*
G01X26920Y17534D01*
G01X26934Y17565D01*
G01X26944Y17583D01*
G01X26957Y17599D01*
G01X27920Y18562D01*
G01X27943Y18586D01*
G01X27964Y18612D01*
G01X27983Y18639D01*
G01X28001Y18668D01*
G01X28016Y18697D01*
G01X28030Y18727D01*
G01X28042Y18759D01*
G01X28052Y18791D01*
G01X28060Y18823D01*
G01X28065Y18856D01*
G01X28068Y18889D01*
G01X28069Y18923D01*
G01X28069Y32258D01*
G01X28070Y32274D01*
G01X28074Y32290D01*
G01X28080Y32304D01*
G01X28089Y32318D01*
G01X28099Y32330D01*
G01X30153Y34384D01*
G01X30168Y34396D01*
G01X30186Y34406D01*
G01X30218Y34420D01*
G01X30249Y34437D01*
G01X30278Y34454D01*
G01X30307Y34474D01*
G01X30334Y34496D01*
G01X30360Y34519D01*
G01X30384Y34544D01*
G01X30407Y34571D01*
G01X30428Y34598D01*
G01X30448Y34627D01*
G01X30466Y34658D01*
G01X30481Y34689D01*
G01X30494Y34721D01*
G01X30506Y34754D01*
G01X30516Y34787D01*
G01X30523Y34821D01*
G01X30529Y34855D01*
G01X30532Y34890D01*
G01X30533Y34925D01*
G01X30532Y34959D01*
G01X30529Y34992D01*
G01X30524Y35026D01*
G01X30517Y35059D01*
G01X30508Y35092D01*
G01X30497Y35124D01*
G01X30484Y35155D01*
G01X30469Y35186D01*
G01X30452Y35215D01*
G01X30434Y35244D01*
G01X30414Y35271D01*
G01X30392Y35297D01*
G01X30369Y35322D01*
G01X30344Y35345D01*
G01X30318Y35367D01*
G01X30291Y35387D01*
G01X30262Y35405D01*
G01X30233Y35422D01*
G01X30202Y35437D01*
G01X30171Y35450D01*
G01X30139Y35461D01*
G01X30106Y35470D01*
G01X30073Y35477D01*
G01X30039Y35482D01*
G01X30006Y35485D01*
G37*
G36*
G01X18576Y34850D02*
G01X18542Y34851D01*
G01X18508Y34850D01*
G01X18474Y34847D01*
G01X18441Y34842D01*
G01X18408Y34835D01*
G01X18375Y34826D01*
G01X18343Y34815D01*
G01X18311Y34802D01*
G01X18281Y34787D01*
G01X18251Y34770D01*
G01X18223Y34752D01*
G01X18196Y34732D01*
G01X18169Y34710D01*
G01X18145Y34687D01*
G01X18122Y34662D01*
G01X18100Y34636D01*
G01X18080Y34609D01*
G01X18061Y34580D01*
G01X18045Y34551D01*
G01X18030Y34520D01*
G01X18017Y34489D01*
G01X18006Y34457D01*
G01X17997Y34424D01*
G01X17990Y34391D01*
G01X17984Y34357D01*
G01X17981Y34324D01*
G01X17980Y34290D01*
G01X17981Y34255D01*
G01X17985Y34220D01*
G01X17990Y34185D01*
G01X17998Y34151D01*
G01X18007Y34117D01*
G01X18020Y34084D01*
G01X18033Y34052D01*
G01X18049Y34021D01*
G01X18067Y33991D01*
G01X18087Y33962D01*
G01X18108Y33934D01*
G01X18131Y33907D01*
G01X18140Y33896D01*
G01X18148Y33882D01*
G01X18154Y33868D01*
G01X18157Y33853D01*
G01X18158Y33838D01*
G01X18158Y25982D01*
G01X18157Y25966D01*
G01X18153Y25950D01*
G01X18147Y25936D01*
G01X18139Y25922D01*
G01X18128Y25910D01*
G01X13637Y21419D01*
G01X13625Y21408D01*
G01X13613Y21400D01*
G01X13598Y21394D01*
G01X13584Y21391D01*
G01X13569Y21389D01*
G01X13534Y21387D01*
G01X13500Y21382D01*
G01X13466Y21375D01*
G01X13433Y21367D01*
G01X13400Y21357D01*
G01X13368Y21344D01*
G01X13337Y21329D01*
G01X13306Y21313D01*
G01X13277Y21295D01*
G01X13249Y21275D01*
G01X13222Y21253D01*
G01X13197Y21230D01*
G01X13173Y21205D01*
G01X13151Y21179D01*
G01X13130Y21151D01*
G01X13111Y21122D01*
G01X13094Y21092D01*
G01X13079Y21062D01*
G01X13065Y21030D01*
G01X13054Y20997D01*
G01X13044Y20964D01*
G01X13037Y20930D01*
G01X13031Y20896D01*
G01X13028Y20862D01*
G01X13027Y20828D01*
G01X13028Y20794D01*
G01X13031Y20760D01*
G01X13037Y20727D01*
G01X13044Y20694D01*
G01X13053Y20661D01*
G01X13064Y20629D01*
G01X13077Y20598D01*
G01X13091Y20567D01*
G01X13108Y20538D01*
G01X13126Y20509D01*
G01X13146Y20482D01*
G01X13168Y20456D01*
G01X13191Y20432D01*
G01X13216Y20408D01*
G01X13242Y20386D01*
G01X13269Y20366D01*
G01X13297Y20348D01*
G01X13327Y20331D01*
G01X13357Y20316D01*
G01X13389Y20303D01*
G01X13420Y20292D01*
G01X13453Y20283D01*
G01X13486Y20276D01*
G01X13519Y20270D01*
G01X13535Y20267D01*
G01X13551Y20261D01*
G01X13565Y20253D01*
G01X13578Y20243D01*
G01X13589Y20230D01*
G01X13599Y20243D01*
G01X13612Y20253D01*
G01X13626Y20261D01*
G01X13642Y20267D01*
G01X13658Y20270D01*
G01X13692Y20276D01*
G01X13726Y20283D01*
G01X13759Y20293D01*
G01X13791Y20305D01*
G01X13823Y20318D01*
G01X13854Y20333D01*
G01X13884Y20350D01*
G01X13912Y20369D01*
G01X13940Y20390D01*
G01X13966Y20412D01*
G01X13991Y20436D01*
G01X14014Y20461D01*
G01X14036Y20488D01*
G01X14056Y20516D01*
G01X14074Y20546D01*
G01X14091Y20576D01*
G01X14105Y20607D01*
G01X14118Y20639D01*
G01X14128Y20672D01*
G01X14136Y20705D01*
G01X14143Y20739D01*
G01X14148Y20773D01*
G01X14150Y20808D01*
G01X14152Y20823D01*
G01X14155Y20837D01*
G01X14161Y20852D01*
G01X14169Y20864D01*
G01X14180Y20876D01*
G01X18813Y25509D01*
G01X18833Y25532D01*
G01X18852Y25555D01*
G01X18869Y25581D01*
G01X18884Y25607D01*
G01X18896Y25634D01*
G01X18906Y25662D01*
G01X18915Y25691D01*
G01X18921Y25721D01*
G01X18924Y25751D01*
G01X18925Y25781D01*
G01X18925Y33838D01*
G01X18926Y33853D01*
G01X18930Y33868D01*
G01X18935Y33882D01*
G01X18943Y33896D01*
G01X18953Y33907D01*
G01X18976Y33934D01*
G01X18997Y33962D01*
G01X19017Y33991D01*
G01X19035Y34021D01*
G01X19050Y34052D01*
G01X19064Y34084D01*
G01X19076Y34117D01*
G01X19086Y34151D01*
G01X19093Y34185D01*
G01X19099Y34220D01*
G01X19102Y34255D01*
G01X19103Y34290D01*
G01X19102Y34324D01*
G01X19099Y34357D01*
G01X19094Y34391D01*
G01X19087Y34424D01*
G01X19078Y34457D01*
G01X19067Y34489D01*
G01X19054Y34520D01*
G01X19039Y34551D01*
G01X19022Y34580D01*
G01X19004Y34609D01*
G01X18984Y34636D01*
G01X18962Y34662D01*
G01X18939Y34687D01*
G01X18914Y34710D01*
G01X18888Y34732D01*
G01X18861Y34752D01*
G01X18832Y34770D01*
G01X18803Y34787D01*
G01X18772Y34802D01*
G01X18741Y34815D01*
G01X18709Y34826D01*
G01X18676Y34835D01*
G01X18643Y34842D01*
G01X18609Y34847D01*
G01X18576Y34850D01*
G37*
G36*
G01X21508Y26036D02*
G01X21463Y26037D01*
G01X21417Y26036D01*
G01X21371Y26033D01*
G01X21326Y26028D01*
G01X21281Y26021D01*
G01X21236Y26012D01*
G01X21192Y26001D01*
G01X21148Y25988D01*
G01X21062Y25956D01*
G01X20980Y25916D01*
G01X20941Y25893D01*
G01X20901Y25869D01*
G01X20864Y25843D01*
G01X20828Y25815D01*
G01X20793Y25786D01*
G01X20759Y25755D01*
G01X20727Y25723D01*
G01X20696Y25689D01*
G01X20666Y25654D01*
G01X20639Y25618D01*
G01X20613Y25580D01*
G01X20588Y25541D01*
G01X20566Y25501D01*
G01X20545Y25461D01*
G01X20526Y25419D01*
G01X20509Y25377D01*
G01X20494Y25334D01*
G01X20481Y25290D01*
G01X20470Y25245D01*
G01X20460Y25201D01*
G01X20453Y25155D01*
G01X20448Y25110D01*
G01X20445Y25064D01*
G01X20444Y25019D01*
G01X20445Y24973D01*
G01X20448Y24927D01*
G01X20453Y24882D01*
G01X20460Y24837D01*
G01X20470Y24792D01*
G01X20481Y24748D01*
G01X20494Y24704D01*
G01X20509Y24661D01*
G01X20526Y24618D01*
G01X20545Y24577D01*
G01X20566Y24536D01*
G01X20588Y24497D01*
G01X20613Y24457D01*
G01X20639Y24420D01*
G01X20666Y24384D01*
G01X20696Y24349D01*
G01X20727Y24315D01*
G01X20759Y24283D01*
G01X20793Y24252D01*
G01X20828Y24222D01*
G01X20864Y24195D01*
G01X20901Y24169D01*
G01X20941Y24144D01*
G01X20980Y24122D01*
G01X21021Y24101D01*
G01X21062Y24082D01*
G01X21105Y24065D01*
G01X21148Y24050D01*
G01X21192Y24037D01*
G01X21236Y24026D01*
G01X21281Y24016D01*
G01X21326Y24009D01*
G01X21371Y24004D01*
G01X21417Y24001D01*
G01X21463Y24000D01*
G01X21508Y24001D01*
G01X21554Y24004D01*
G01X21599Y24009D01*
G01X21645Y24016D01*
G01X21689Y24026D01*
G01X21734Y24037D01*
G01X21778Y24050D01*
G01X21821Y24065D01*
G01X21863Y24082D01*
G01X21905Y24101D01*
G01X21945Y24122D01*
G01X21985Y24144D01*
G01X22024Y24169D01*
G01X22062Y24195D01*
G01X22098Y24222D01*
G01X22133Y24252D01*
G01X22167Y24283D01*
G01X22199Y24315D01*
G01X22230Y24349D01*
G01X22259Y24384D01*
G01X22287Y24420D01*
G01X22313Y24457D01*
G01X22337Y24497D01*
G01X22360Y24536D01*
G01X22400Y24618D01*
G01X22432Y24704D01*
G01X22445Y24748D01*
G01X22456Y24792D01*
G01X22465Y24837D01*
G01X22472Y24882D01*
G01X22477Y24927D01*
G01X22480Y24973D01*
G01X22481Y25019D01*
G01X22480Y25064D01*
G01X22477Y25110D01*
G01X22472Y25155D01*
G01X22465Y25201D01*
G01X22456Y25245D01*
G01X22445Y25290D01*
G01X22432Y25334D01*
G01X22416Y25377D01*
G01X22400Y25419D01*
G01X22380Y25461D01*
G01X22360Y25501D01*
G01X22337Y25541D01*
G01X22313Y25580D01*
G01X22287Y25618D01*
G01X22259Y25654D01*
G01X22230Y25689D01*
G01X22199Y25723D01*
G01X22167Y25755D01*
G01X22133Y25786D01*
G01X22098Y25815D01*
G01X22062Y25843D01*
G01X22024Y25869D01*
G01X21985Y25893D01*
G01X21945Y25916D01*
G01X21905Y25936D01*
G01X21863Y25956D01*
G01X21821Y25972D01*
G01X21778Y25988D01*
G01X21734Y26001D01*
G01X21689Y26012D01*
G01X21645Y26021D01*
G01X21599Y26028D01*
G01X21554Y26033D01*
G01X21508Y26036D01*
G37*
G36*
G01X21508Y28576D02*
G01X21463Y28577D01*
G01X21417Y28576D01*
G01X21371Y28573D01*
G01X21326Y28568D01*
G01X21281Y28561D01*
G01X21236Y28552D01*
G01X21192Y28541D01*
G01X21148Y28528D01*
G01X21062Y28496D01*
G01X20980Y28456D01*
G01X20941Y28433D01*
G01X20901Y28409D01*
G01X20864Y28383D01*
G01X20828Y28355D01*
G01X20793Y28326D01*
G01X20759Y28295D01*
G01X20727Y28263D01*
G01X20696Y28229D01*
G01X20666Y28194D01*
G01X20639Y28158D01*
G01X20613Y28120D01*
G01X20588Y28081D01*
G01X20566Y28041D01*
G01X20545Y28001D01*
G01X20526Y27959D01*
G01X20509Y27917D01*
G01X20494Y27874D01*
G01X20481Y27830D01*
G01X20470Y27785D01*
G01X20460Y27741D01*
G01X20453Y27695D01*
G01X20448Y27650D01*
G01X20445Y27604D01*
G01X20444Y27559D01*
G01X20445Y27513D01*
G01X20448Y27467D01*
G01X20453Y27422D01*
G01X20460Y27377D01*
G01X20470Y27332D01*
G01X20481Y27288D01*
G01X20494Y27244D01*
G01X20509Y27201D01*
G01X20526Y27158D01*
G01X20545Y27117D01*
G01X20566Y27076D01*
G01X20588Y27037D01*
G01X20613Y26997D01*
G01X20639Y26960D01*
G01X20666Y26924D01*
G01X20696Y26889D01*
G01X20727Y26855D01*
G01X20759Y26823D01*
G01X20793Y26792D01*
G01X20828Y26762D01*
G01X20864Y26735D01*
G01X20901Y26709D01*
G01X20941Y26684D01*
G01X20980Y26662D01*
G01X21021Y26641D01*
G01X21062Y26622D01*
G01X21105Y26605D01*
G01X21148Y26590D01*
G01X21192Y26577D01*
G01X21236Y26566D01*
G01X21281Y26556D01*
G01X21326Y26549D01*
G01X21371Y26544D01*
G01X21417Y26541D01*
G01X21463Y26540D01*
G01X21508Y26541D01*
G01X21554Y26544D01*
G01X21599Y26549D01*
G01X21645Y26556D01*
G01X21689Y26566D01*
G01X21734Y26577D01*
G01X21778Y26590D01*
G01X21821Y26605D01*
G01X21863Y26622D01*
G01X21905Y26641D01*
G01X21945Y26662D01*
G01X21985Y26684D01*
G01X22024Y26709D01*
G01X22062Y26735D01*
G01X22098Y26762D01*
G01X22133Y26792D01*
G01X22167Y26823D01*
G01X22199Y26855D01*
G01X22230Y26889D01*
G01X22259Y26924D01*
G01X22287Y26960D01*
G01X22313Y26997D01*
G01X22337Y27037D01*
G01X22360Y27076D01*
G01X22400Y27158D01*
G01X22432Y27244D01*
G01X22445Y27288D01*
G01X22456Y27332D01*
G01X22465Y27377D01*
G01X22472Y27422D01*
G01X22477Y27467D01*
G01X22480Y27513D01*
G01X22481Y27559D01*
G01X22480Y27604D01*
G01X22477Y27650D01*
G01X22472Y27695D01*
G01X22465Y27741D01*
G01X22456Y27785D01*
G01X22445Y27830D01*
G01X22432Y27874D01*
G01X22416Y27917D01*
G01X22400Y27959D01*
G01X22380Y28001D01*
G01X22360Y28041D01*
G01X22337Y28081D01*
G01X22313Y28120D01*
G01X22287Y28158D01*
G01X22259Y28194D01*
G01X22230Y28229D01*
G01X22199Y28263D01*
G01X22167Y28295D01*
G01X22133Y28326D01*
G01X22098Y28355D01*
G01X22062Y28383D01*
G01X22024Y28409D01*
G01X21985Y28433D01*
G01X21945Y28456D01*
G01X21905Y28476D01*
G01X21863Y28496D01*
G01X21821Y28512D01*
G01X21778Y28528D01*
G01X21734Y28541D01*
G01X21689Y28552D01*
G01X21645Y28561D01*
G01X21599Y28568D01*
G01X21554Y28573D01*
G01X21508Y28576D01*
G37*
G36*
G01X12745Y32640D02*
G01X12700Y32641D01*
G01X12654Y32640D01*
G01X12608Y32637D01*
G01X12563Y32632D01*
G01X12518Y32625D01*
G01X12473Y32616D01*
G01X12429Y32605D01*
G01X12385Y32592D01*
G01X12299Y32560D01*
G01X12217Y32520D01*
G01X12178Y32497D01*
G01X12138Y32473D01*
G01X12101Y32447D01*
G01X12065Y32419D01*
G01X12030Y32390D01*
G01X11996Y32359D01*
G01X11964Y32327D01*
G01X11933Y32293D01*
G01X11903Y32258D01*
G01X11876Y32222D01*
G01X11850Y32184D01*
G01X11825Y32145D01*
G01X11803Y32105D01*
G01X11782Y32065D01*
G01X11763Y32023D01*
G01X11746Y31981D01*
G01X11731Y31938D01*
G01X11718Y31894D01*
G01X11707Y31849D01*
G01X11697Y31805D01*
G01X11690Y31759D01*
G01X11685Y31714D01*
G01X11682Y31668D01*
G01X11681Y31623D01*
G01X11682Y31577D01*
G01X11685Y31531D01*
G01X11690Y31486D01*
G01X11697Y31441D01*
G01X11707Y31396D01*
G01X11718Y31352D01*
G01X11731Y31308D01*
G01X11746Y31265D01*
G01X11763Y31222D01*
G01X11782Y31181D01*
G01X11803Y31140D01*
G01X11825Y31101D01*
G01X11850Y31061D01*
G01X11876Y31024D01*
G01X11903Y30988D01*
G01X11933Y30953D01*
G01X11964Y30919D01*
G01X11996Y30887D01*
G01X12030Y30856D01*
G01X12065Y30826D01*
G01X12101Y30799D01*
G01X12138Y30773D01*
G01X12178Y30748D01*
G01X12217Y30726D01*
G01X12258Y30705D01*
G01X12299Y30686D01*
G01X12342Y30669D01*
G01X12385Y30654D01*
G01X12429Y30641D01*
G01X12473Y30630D01*
G01X12518Y30620D01*
G01X12563Y30613D01*
G01X12608Y30608D01*
G01X12654Y30605D01*
G01X12700Y30604D01*
G01X12745Y30605D01*
G01X12791Y30608D01*
G01X12836Y30613D01*
G01X12882Y30620D01*
G01X12926Y30630D01*
G01X12971Y30641D01*
G01X13015Y30654D01*
G01X13058Y30669D01*
G01X13100Y30686D01*
G01X13142Y30705D01*
G01X13182Y30726D01*
G01X13222Y30748D01*
G01X13261Y30773D01*
G01X13299Y30799D01*
G01X13335Y30826D01*
G01X13370Y30856D01*
G01X13404Y30887D01*
G01X13436Y30919D01*
G01X13467Y30953D01*
G01X13496Y30988D01*
G01X13524Y31024D01*
G01X13550Y31061D01*
G01X13574Y31101D01*
G01X13597Y31140D01*
G01X13637Y31222D01*
G01X13669Y31308D01*
G01X13682Y31352D01*
G01X13693Y31396D01*
G01X13702Y31441D01*
G01X13709Y31486D01*
G01X13714Y31531D01*
G01X13717Y31577D01*
G01X13718Y31623D01*
G01X13717Y31668D01*
G01X13714Y31714D01*
G01X13709Y31759D01*
G01X13702Y31805D01*
G01X13693Y31849D01*
G01X13682Y31894D01*
G01X13669Y31938D01*
G01X13653Y31981D01*
G01X13637Y32023D01*
G01X13617Y32065D01*
G01X13597Y32105D01*
G01X13574Y32145D01*
G01X13550Y32184D01*
G01X13524Y32222D01*
G01X13496Y32258D01*
G01X13467Y32293D01*
G01X13436Y32327D01*
G01X13404Y32359D01*
G01X13370Y32390D01*
G01X13335Y32419D01*
G01X13299Y32447D01*
G01X13261Y32473D01*
G01X13222Y32497D01*
G01X13182Y32520D01*
G01X13142Y32540D01*
G01X13100Y32560D01*
G01X13058Y32576D01*
G01X13015Y32592D01*
G01X12971Y32605D01*
G01X12926Y32616D01*
G01X12882Y32625D01*
G01X12836Y32632D01*
G01X12791Y32637D01*
G01X12745Y32640D01*
G37*
G36*
G01X15285Y32640D02*
G01X15240Y32641D01*
G01X15194Y32640D01*
G01X15148Y32637D01*
G01X15103Y32632D01*
G01X15058Y32625D01*
G01X15013Y32616D01*
G01X14969Y32605D01*
G01X14925Y32592D01*
G01X14839Y32560D01*
G01X14757Y32520D01*
G01X14718Y32497D01*
G01X14678Y32473D01*
G01X14641Y32447D01*
G01X14605Y32419D01*
G01X14570Y32390D01*
G01X14536Y32359D01*
G01X14504Y32327D01*
G01X14473Y32293D01*
G01X14443Y32258D01*
G01X14416Y32222D01*
G01X14390Y32184D01*
G01X14365Y32145D01*
G01X14343Y32105D01*
G01X14322Y32065D01*
G01X14303Y32023D01*
G01X14286Y31981D01*
G01X14271Y31938D01*
G01X14258Y31894D01*
G01X14247Y31849D01*
G01X14237Y31805D01*
G01X14230Y31759D01*
G01X14225Y31714D01*
G01X14222Y31668D01*
G01X14221Y31623D01*
G01X14222Y31577D01*
G01X14225Y31531D01*
G01X14230Y31486D01*
G01X14237Y31441D01*
G01X14247Y31396D01*
G01X14258Y31352D01*
G01X14271Y31308D01*
G01X14286Y31265D01*
G01X14303Y31222D01*
G01X14322Y31181D01*
G01X14343Y31140D01*
G01X14365Y31101D01*
G01X14390Y31061D01*
G01X14416Y31024D01*
G01X14443Y30988D01*
G01X14473Y30953D01*
G01X14504Y30919D01*
G01X14536Y30887D01*
G01X14570Y30856D01*
G01X14605Y30826D01*
G01X14641Y30799D01*
G01X14678Y30773D01*
G01X14718Y30748D01*
G01X14757Y30726D01*
G01X14798Y30705D01*
G01X14839Y30686D01*
G01X14882Y30669D01*
G01X14925Y30654D01*
G01X14969Y30641D01*
G01X15013Y30630D01*
G01X15058Y30620D01*
G01X15103Y30613D01*
G01X15148Y30608D01*
G01X15194Y30605D01*
G01X15240Y30604D01*
G01X15285Y30605D01*
G01X15331Y30608D01*
G01X15376Y30613D01*
G01X15422Y30620D01*
G01X15466Y30630D01*
G01X15511Y30641D01*
G01X15555Y30654D01*
G01X15598Y30669D01*
G01X15640Y30686D01*
G01X15682Y30705D01*
G01X15722Y30726D01*
G01X15762Y30748D01*
G01X15801Y30773D01*
G01X15839Y30799D01*
G01X15875Y30826D01*
G01X15910Y30856D01*
G01X15944Y30887D01*
G01X15976Y30919D01*
G01X16007Y30953D01*
G01X16036Y30988D01*
G01X16064Y31024D01*
G01X16090Y31061D01*
G01X16114Y31101D01*
G01X16137Y31140D01*
G01X16177Y31222D01*
G01X16209Y31308D01*
G01X16222Y31352D01*
G01X16233Y31396D01*
G01X16242Y31441D01*
G01X16249Y31486D01*
G01X16254Y31531D01*
G01X16257Y31577D01*
G01X16258Y31623D01*
G01X16257Y31668D01*
G01X16254Y31714D01*
G01X16249Y31759D01*
G01X16242Y31805D01*
G01X16233Y31849D01*
G01X16222Y31894D01*
G01X16209Y31938D01*
G01X16193Y31981D01*
G01X16177Y32023D01*
G01X16157Y32065D01*
G01X16137Y32105D01*
G01X16114Y32145D01*
G01X16090Y32184D01*
G01X16064Y32222D01*
G01X16036Y32258D01*
G01X16007Y32293D01*
G01X15976Y32327D01*
G01X15944Y32359D01*
G01X15910Y32390D01*
G01X15875Y32419D01*
G01X15839Y32447D01*
G01X15801Y32473D01*
G01X15762Y32497D01*
G01X15722Y32520D01*
G01X15682Y32540D01*
G01X15640Y32560D01*
G01X15598Y32576D01*
G01X15555Y32592D01*
G01X15511Y32605D01*
G01X15466Y32616D01*
G01X15422Y32625D01*
G01X15376Y32632D01*
G01X15331Y32637D01*
G01X15285Y32640D01*
G37*
G36*
G01X35571Y34826D02*
G01X33771Y34826D01*
G01X33747Y34825D01*
G01X33724Y34821D01*
G01X33700Y34816D01*
G01X33678Y34808D01*
G01X33656Y34799D01*
G01X33636Y34787D01*
G01X33616Y34774D01*
G01X33598Y34759D01*
G01X33581Y34742D01*
G01X33566Y34724D01*
G01X33553Y34704D01*
G01X33541Y34683D01*
G01X33531Y34662D01*
G01X33524Y34639D01*
G01X33519Y34616D01*
G01X33516Y34593D01*
G01X33514Y34569D01*
G01X33514Y32994D01*
G01X33516Y32970D01*
G01X33519Y32947D01*
G01X33524Y32924D01*
G01X33531Y32902D01*
G01X33541Y32880D01*
G01X33553Y32859D01*
G01X33566Y32840D01*
G01X33581Y32822D01*
G01X33598Y32805D01*
G01X33616Y32790D01*
G01X33636Y32776D01*
G01X33656Y32765D01*
G01X33678Y32755D01*
G01X33700Y32747D01*
G01X33724Y32742D01*
G01X33747Y32739D01*
G01X33771Y32738D01*
G01X35571Y32738D01*
G01X35594Y32739D01*
G01X35618Y32742D01*
G01X35641Y32747D01*
G01X35663Y32755D01*
G01X35685Y32765D01*
G01X35706Y32776D01*
G01X35725Y32790D01*
G01X35744Y32805D01*
G01X35760Y32822D01*
G01X35776Y32840D01*
G01X35789Y32859D01*
G01X35801Y32880D01*
G01X35810Y32902D01*
G01X35817Y32924D01*
G01X35823Y32947D01*
G01X35826Y32970D01*
G01X35827Y32994D01*
G01X35827Y34569D01*
G01X35826Y34593D01*
G01X35823Y34616D01*
G01X35817Y34639D01*
G01X35810Y34662D01*
G01X35801Y34683D01*
G01X35789Y34704D01*
G01X35776Y34724D01*
G01X35760Y34742D01*
G01X35744Y34759D01*
G01X35725Y34774D01*
G01X35706Y34787D01*
G01X35685Y34799D01*
G01X35663Y34808D01*
G01X35641Y34816D01*
G01X35618Y34821D01*
G01X35594Y34825D01*
G01X35571Y34826D01*
G37*
G36*
G01X35707Y35808D02*
G01X35184Y35808D01*
G01X35184Y35285D01*
G01X35229Y35309D01*
G01X35272Y35334D01*
G01X35314Y35361D01*
G01X35356Y35390D01*
G01X35395Y35420D01*
G01X35434Y35453D01*
G01X35471Y35487D01*
G01X35506Y35522D01*
G01X35540Y35559D01*
G01X35572Y35597D01*
G01X35603Y35637D01*
G01X35632Y35678D01*
G01X35659Y35720D01*
G01X35684Y35764D01*
G01X35707Y35808D01*
G37*
G36*
G01X34157Y35808D02*
G01X33634Y35808D01*
G01X33658Y35764D01*
G01X33683Y35720D01*
G01X33710Y35678D01*
G01X33739Y35637D01*
G01X33769Y35597D01*
G01X33802Y35559D01*
G01X33836Y35522D01*
G01X33871Y35487D01*
G01X33908Y35453D01*
G01X33946Y35420D01*
G01X33986Y35390D01*
G01X34027Y35361D01*
G01X34069Y35334D01*
G01X34113Y35309D01*
G01X34157Y35285D01*
G01X34157Y35808D01*
G37*
G36*
G01X11098Y39001D02*
G01X11049Y39002D01*
G01X10999Y39001D01*
G01X10951Y38998D01*
G01X10902Y38993D01*
G01X10853Y38986D01*
G01X10805Y38977D01*
G01X10757Y38965D01*
G01X10710Y38952D01*
G01X10664Y38936D01*
G01X10617Y38919D01*
G01X10572Y38900D01*
G01X10528Y38879D01*
G01X10485Y38856D01*
G01X10442Y38831D01*
G01X10401Y38804D01*
G01X10361Y38775D01*
G01X10322Y38745D01*
G01X10285Y38714D01*
G01X10249Y38681D01*
G01X10214Y38646D01*
G01X10181Y38610D01*
G01X10149Y38572D01*
G01X10119Y38534D01*
G01X10091Y38493D01*
G01X10064Y38452D01*
G01X10039Y38410D01*
G01X10016Y38366D01*
G01X9995Y38322D01*
G01X9976Y38277D01*
G01X9958Y38231D01*
G01X9943Y38185D01*
G01X9930Y38137D01*
G01X9918Y38090D01*
G01X9909Y38041D01*
G01X9902Y37993D01*
G01X9897Y37944D01*
G01X9893Y37895D01*
G01X9892Y37846D01*
G01X9893Y37796D01*
G01X9897Y37748D01*
G01X9902Y37699D01*
G01X9909Y37650D01*
G01X9918Y37602D01*
G01X9930Y37554D01*
G01X9943Y37507D01*
G01X9958Y37461D01*
G01X9976Y37414D01*
G01X9995Y37369D01*
G01X10016Y37325D01*
G01X10039Y37282D01*
G01X10064Y37239D01*
G01X10091Y37198D01*
G01X10119Y37158D01*
G01X10149Y37119D01*
G01X10181Y37082D01*
G01X10214Y37046D01*
G01X10249Y37011D01*
G01X10285Y36978D01*
G01X10322Y36946D01*
G01X10361Y36916D01*
G01X10401Y36888D01*
G01X10442Y36861D01*
G01X10485Y36836D01*
G01X10528Y36813D01*
G01X10572Y36792D01*
G01X10617Y36773D01*
G01X10664Y36755D01*
G01X10710Y36740D01*
G01X10757Y36727D01*
G01X10805Y36715D01*
G01X10853Y36706D01*
G01X10902Y36699D01*
G01X10951Y36694D01*
G01X10999Y36690D01*
G01X11049Y36689D01*
G01X11098Y36690D01*
G01X11147Y36694D01*
G01X11196Y36699D01*
G01X11244Y36706D01*
G01X11293Y36715D01*
G01X11340Y36727D01*
G01X11388Y36740D01*
G01X11434Y36755D01*
G01X11480Y36773D01*
G01X11525Y36792D01*
G01X11569Y36813D01*
G01X11613Y36836D01*
G01X11655Y36861D01*
G01X11696Y36888D01*
G01X11737Y36916D01*
G01X11775Y36946D01*
G01X11813Y36978D01*
G01X11849Y37011D01*
G01X11884Y37046D01*
G01X11917Y37082D01*
G01X11948Y37119D01*
G01X11978Y37158D01*
G01X12007Y37198D01*
G01X12034Y37239D01*
G01X12059Y37282D01*
G01X12082Y37325D01*
G01X12103Y37369D01*
G01X12122Y37414D01*
G01X12139Y37461D01*
G01X12155Y37507D01*
G01X12168Y37554D01*
G01X12180Y37602D01*
G01X12189Y37650D01*
G01X12196Y37699D01*
G01X12201Y37748D01*
G01X12204Y37796D01*
G01X12205Y37846D01*
G01X12204Y37895D01*
G01X12201Y37944D01*
G01X12196Y37993D01*
G01X12189Y38041D01*
G01X12180Y38090D01*
G01X12168Y38137D01*
G01X12155Y38185D01*
G01X12139Y38231D01*
G01X12122Y38277D01*
G01X12103Y38322D01*
G01X12082Y38366D01*
G01X12059Y38410D01*
G01X12034Y38452D01*
G01X12007Y38493D01*
G01X11978Y38534D01*
G01X11948Y38572D01*
G01X11917Y38610D01*
G01X11884Y38646D01*
G01X11849Y38681D01*
G01X11813Y38714D01*
G01X11775Y38745D01*
G01X11737Y38775D01*
G01X11696Y38804D01*
G01X11655Y38831D01*
G01X11613Y38856D01*
G01X11569Y38879D01*
G01X11525Y38900D01*
G01X11480Y38919D01*
G01X11434Y38936D01*
G01X11388Y38952D01*
G01X11340Y38965D01*
G01X11293Y38977D01*
G01X11244Y38986D01*
G01X11196Y38993D01*
G01X11147Y38998D01*
G01X11098Y39001D01*
G37*
G36*
G01X6869Y39002D02*
G01X5069Y39002D01*
G01X5045Y39001D01*
G01X5022Y38998D01*
G01X4998Y38992D01*
G01X4976Y38985D01*
G01X4954Y38976D01*
G01X4934Y38964D01*
G01X4914Y38951D01*
G01X4896Y38935D01*
G01X4879Y38919D01*
G01X4864Y38900D01*
G01X4851Y38881D01*
G01X4839Y38860D01*
G01X4829Y38838D01*
G01X4822Y38816D01*
G01X4817Y38793D01*
G01X4814Y38769D01*
G01X4812Y38746D01*
G01X4812Y36946D01*
G01X4814Y36922D01*
G01X4817Y36899D01*
G01X4822Y36875D01*
G01X4829Y36853D01*
G01X4839Y36831D01*
G01X4851Y36811D01*
G01X4864Y36791D01*
G01X4879Y36773D01*
G01X4896Y36756D01*
G01X4914Y36741D01*
G01X4934Y36728D01*
G01X4954Y36716D01*
G01X4976Y36706D01*
G01X4998Y36699D01*
G01X5022Y36694D01*
G01X5045Y36691D01*
G01X5069Y36689D01*
G01X6869Y36689D01*
G01X6892Y36691D01*
G01X6916Y36694D01*
G01X6939Y36699D01*
G01X6961Y36706D01*
G01X6983Y36716D01*
G01X7004Y36728D01*
G01X7023Y36741D01*
G01X7042Y36756D01*
G01X7058Y36773D01*
G01X7074Y36791D01*
G01X7087Y36811D01*
G01X7099Y36831D01*
G01X7108Y36853D01*
G01X7115Y36875D01*
G01X7121Y36899D01*
G01X7124Y36922D01*
G01X7125Y36946D01*
G01X7125Y38746D01*
G01X7124Y38769D01*
G01X7121Y38793D01*
G01X7115Y38816D01*
G01X7108Y38838D01*
G01X7099Y38860D01*
G01X7087Y38881D01*
G01X7074Y38900D01*
G01X7058Y38919D01*
G01X7042Y38935D01*
G01X7023Y38951D01*
G01X7004Y38964D01*
G01X6983Y38976D01*
G01X6961Y38985D01*
G01X6939Y38992D01*
G01X6916Y38998D01*
G01X6892Y39001D01*
G01X6869Y39002D01*
G37*
G36*
G01X13638Y39001D02*
G01X13589Y39002D01*
G01X13539Y39001D01*
G01X13491Y38998D01*
G01X13442Y38993D01*
G01X13393Y38986D01*
G01X13345Y38977D01*
G01X13297Y38965D01*
G01X13250Y38952D01*
G01X13204Y38936D01*
G01X13157Y38919D01*
G01X13112Y38900D01*
G01X13068Y38879D01*
G01X13025Y38856D01*
G01X12982Y38831D01*
G01X12941Y38804D01*
G01X12901Y38775D01*
G01X12862Y38745D01*
G01X12825Y38714D01*
G01X12789Y38681D01*
G01X12754Y38646D01*
G01X12721Y38610D01*
G01X12689Y38572D01*
G01X12659Y38534D01*
G01X12631Y38493D01*
G01X12604Y38452D01*
G01X12579Y38410D01*
G01X12556Y38366D01*
G01X12535Y38322D01*
G01X12516Y38277D01*
G01X12498Y38231D01*
G01X12483Y38185D01*
G01X12470Y38137D01*
G01X12458Y38090D01*
G01X12449Y38041D01*
G01X12442Y37993D01*
G01X12437Y37944D01*
G01X12433Y37895D01*
G01X12432Y37846D01*
G01X12433Y37796D01*
G01X12437Y37748D01*
G01X12442Y37699D01*
G01X12449Y37650D01*
G01X12458Y37602D01*
G01X12470Y37554D01*
G01X12483Y37507D01*
G01X12498Y37461D01*
G01X12516Y37414D01*
G01X12535Y37369D01*
G01X12556Y37325D01*
G01X12579Y37282D01*
G01X12604Y37239D01*
G01X12631Y37198D01*
G01X12659Y37158D01*
G01X12689Y37119D01*
G01X12721Y37082D01*
G01X12754Y37046D01*
G01X12789Y37011D01*
G01X12825Y36978D01*
G01X12862Y36946D01*
G01X12901Y36916D01*
G01X12941Y36888D01*
G01X12982Y36861D01*
G01X13025Y36836D01*
G01X13068Y36813D01*
G01X13112Y36792D01*
G01X13157Y36773D01*
G01X13204Y36755D01*
G01X13250Y36740D01*
G01X13297Y36727D01*
G01X13345Y36715D01*
G01X13393Y36706D01*
G01X13442Y36699D01*
G01X13491Y36694D01*
G01X13539Y36690D01*
G01X13589Y36689D01*
G01X13638Y36690D01*
G01X13687Y36694D01*
G01X13736Y36699D01*
G01X13784Y36706D01*
G01X13833Y36715D01*
G01X13880Y36727D01*
G01X13928Y36740D01*
G01X13974Y36755D01*
G01X14020Y36773D01*
G01X14065Y36792D01*
G01X14109Y36813D01*
G01X14153Y36836D01*
G01X14195Y36861D01*
G01X14236Y36888D01*
G01X14277Y36916D01*
G01X14315Y36946D01*
G01X14353Y36978D01*
G01X14389Y37011D01*
G01X14424Y37046D01*
G01X14457Y37082D01*
G01X14488Y37119D01*
G01X14518Y37158D01*
G01X14547Y37198D01*
G01X14574Y37239D01*
G01X14599Y37282D01*
G01X14622Y37325D01*
G01X14643Y37369D01*
G01X14662Y37414D01*
G01X14679Y37461D01*
G01X14695Y37507D01*
G01X14708Y37554D01*
G01X14720Y37602D01*
G01X14729Y37650D01*
G01X14736Y37699D01*
G01X14741Y37748D01*
G01X14744Y37796D01*
G01X14745Y37846D01*
G01X14744Y37895D01*
G01X14741Y37944D01*
G01X14736Y37993D01*
G01X14729Y38041D01*
G01X14720Y38090D01*
G01X14708Y38137D01*
G01X14695Y38185D01*
G01X14679Y38231D01*
G01X14662Y38277D01*
G01X14643Y38322D01*
G01X14622Y38366D01*
G01X14599Y38410D01*
G01X14574Y38452D01*
G01X14547Y38493D01*
G01X14518Y38534D01*
G01X14488Y38572D01*
G01X14457Y38610D01*
G01X14424Y38646D01*
G01X14389Y38681D01*
G01X14353Y38714D01*
G01X14315Y38745D01*
G01X14277Y38775D01*
G01X14236Y38804D01*
G01X14195Y38831D01*
G01X14153Y38856D01*
G01X14109Y38879D01*
G01X14065Y38900D01*
G01X14020Y38919D01*
G01X13974Y38936D01*
G01X13928Y38952D01*
G01X13880Y38965D01*
G01X13833Y38977D01*
G01X13784Y38986D01*
G01X13736Y38993D01*
G01X13687Y38998D01*
G01X13638Y39001D01*
G37*
G36*
G01X8558Y39001D02*
G01X8509Y39002D01*
G01X8459Y39001D01*
G01X8411Y38998D01*
G01X8362Y38993D01*
G01X8313Y38986D01*
G01X8265Y38977D01*
G01X8217Y38965D01*
G01X8170Y38952D01*
G01X8124Y38936D01*
G01X8077Y38919D01*
G01X8032Y38900D01*
G01X7988Y38879D01*
G01X7945Y38856D01*
G01X7902Y38831D01*
G01X7861Y38804D01*
G01X7821Y38775D01*
G01X7782Y38745D01*
G01X7745Y38714D01*
G01X7709Y38681D01*
G01X7674Y38646D01*
G01X7641Y38610D01*
G01X7609Y38572D01*
G01X7579Y38534D01*
G01X7551Y38493D01*
G01X7524Y38452D01*
G01X7499Y38410D01*
G01X7476Y38366D01*
G01X7455Y38322D01*
G01X7436Y38277D01*
G01X7418Y38231D01*
G01X7403Y38185D01*
G01X7390Y38137D01*
G01X7378Y38090D01*
G01X7369Y38041D01*
G01X7362Y37993D01*
G01X7357Y37944D01*
G01X7353Y37895D01*
G01X7352Y37846D01*
G01X7353Y37796D01*
G01X7357Y37748D01*
G01X7362Y37699D01*
G01X7369Y37650D01*
G01X7378Y37602D01*
G01X7390Y37554D01*
G01X7403Y37507D01*
G01X7418Y37461D01*
G01X7436Y37414D01*
G01X7455Y37369D01*
G01X7476Y37325D01*
G01X7499Y37282D01*
G01X7524Y37239D01*
G01X7551Y37198D01*
G01X7579Y37158D01*
G01X7609Y37119D01*
G01X7641Y37082D01*
G01X7674Y37046D01*
G01X7709Y37011D01*
G01X7745Y36978D01*
G01X7782Y36946D01*
G01X7821Y36916D01*
G01X7861Y36888D01*
G01X7902Y36861D01*
G01X7945Y36836D01*
G01X7988Y36813D01*
G01X8032Y36792D01*
G01X8077Y36773D01*
G01X8124Y36755D01*
G01X8170Y36740D01*
G01X8217Y36727D01*
G01X8265Y36715D01*
G01X8313Y36706D01*
G01X8362Y36699D01*
G01X8411Y36694D01*
G01X8459Y36690D01*
G01X8509Y36689D01*
G01X8558Y36690D01*
G01X8607Y36694D01*
G01X8656Y36699D01*
G01X8704Y36706D01*
G01X8753Y36715D01*
G01X8800Y36727D01*
G01X8848Y36740D01*
G01X8894Y36755D01*
G01X8940Y36773D01*
G01X8985Y36792D01*
G01X9029Y36813D01*
G01X9073Y36836D01*
G01X9115Y36861D01*
G01X9156Y36888D01*
G01X9197Y36916D01*
G01X9235Y36946D01*
G01X9273Y36978D01*
G01X9309Y37011D01*
G01X9344Y37046D01*
G01X9377Y37082D01*
G01X9408Y37119D01*
G01X9438Y37158D01*
G01X9467Y37198D01*
G01X9494Y37239D01*
G01X9519Y37282D01*
G01X9542Y37325D01*
G01X9563Y37369D01*
G01X9582Y37414D01*
G01X9599Y37461D01*
G01X9615Y37507D01*
G01X9628Y37554D01*
G01X9640Y37602D01*
G01X9649Y37650D01*
G01X9656Y37699D01*
G01X9661Y37748D01*
G01X9664Y37796D01*
G01X9665Y37846D01*
G01X9664Y37895D01*
G01X9661Y37944D01*
G01X9656Y37993D01*
G01X9649Y38041D01*
G01X9640Y38090D01*
G01X9628Y38137D01*
G01X9615Y38185D01*
G01X9599Y38231D01*
G01X9582Y38277D01*
G01X9563Y38322D01*
G01X9542Y38366D01*
G01X9519Y38410D01*
G01X9494Y38452D01*
G01X9467Y38493D01*
G01X9438Y38534D01*
G01X9408Y38572D01*
G01X9377Y38610D01*
G01X9344Y38646D01*
G01X9309Y38681D01*
G01X9273Y38714D01*
G01X9235Y38745D01*
G01X9197Y38775D01*
G01X9156Y38804D01*
G01X9115Y38831D01*
G01X9073Y38856D01*
G01X9029Y38879D01*
G01X8985Y38900D01*
G01X8940Y38919D01*
G01X8894Y38936D01*
G01X8848Y38952D01*
G01X8800Y38965D01*
G01X8753Y38977D01*
G01X8704Y38986D01*
G01X8656Y38993D01*
G01X8607Y38998D01*
G01X8558Y39001D01*
G37*
G36*
G01X16178Y39001D02*
G01X16129Y39002D01*
G01X16079Y39001D01*
G01X16031Y38998D01*
G01X15982Y38993D01*
G01X15933Y38986D01*
G01X15885Y38977D01*
G01X15837Y38965D01*
G01X15790Y38952D01*
G01X15744Y38936D01*
G01X15697Y38919D01*
G01X15652Y38900D01*
G01X15608Y38879D01*
G01X15565Y38856D01*
G01X15522Y38831D01*
G01X15481Y38804D01*
G01X15441Y38775D01*
G01X15402Y38745D01*
G01X15365Y38714D01*
G01X15329Y38681D01*
G01X15294Y38646D01*
G01X15261Y38610D01*
G01X15229Y38572D01*
G01X15199Y38534D01*
G01X15171Y38493D01*
G01X15144Y38452D01*
G01X15119Y38410D01*
G01X15096Y38366D01*
G01X15075Y38322D01*
G01X15056Y38277D01*
G01X15038Y38231D01*
G01X15023Y38185D01*
G01X15010Y38137D01*
G01X14998Y38090D01*
G01X14989Y38041D01*
G01X14982Y37993D01*
G01X14977Y37944D01*
G01X14973Y37895D01*
G01X14972Y37846D01*
G01X14973Y37796D01*
G01X14977Y37748D01*
G01X14982Y37699D01*
G01X14989Y37650D01*
G01X14998Y37602D01*
G01X15010Y37554D01*
G01X15023Y37507D01*
G01X15038Y37461D01*
G01X15056Y37414D01*
G01X15075Y37369D01*
G01X15096Y37325D01*
G01X15119Y37282D01*
G01X15144Y37239D01*
G01X15171Y37198D01*
G01X15199Y37158D01*
G01X15229Y37119D01*
G01X15261Y37082D01*
G01X15294Y37046D01*
G01X15329Y37011D01*
G01X15365Y36978D01*
G01X15402Y36946D01*
G01X15441Y36916D01*
G01X15481Y36888D01*
G01X15522Y36861D01*
G01X15565Y36836D01*
G01X15608Y36813D01*
G01X15652Y36792D01*
G01X15697Y36773D01*
G01X15744Y36755D01*
G01X15790Y36740D01*
G01X15837Y36727D01*
G01X15885Y36715D01*
G01X15933Y36706D01*
G01X15982Y36699D01*
G01X16031Y36694D01*
G01X16079Y36690D01*
G01X16129Y36689D01*
G01X16178Y36690D01*
G01X16227Y36694D01*
G01X16276Y36699D01*
G01X16324Y36706D01*
G01X16373Y36715D01*
G01X16420Y36727D01*
G01X16468Y36740D01*
G01X16514Y36755D01*
G01X16560Y36773D01*
G01X16605Y36792D01*
G01X16649Y36813D01*
G01X16693Y36836D01*
G01X16735Y36861D01*
G01X16776Y36888D01*
G01X16817Y36916D01*
G01X16855Y36946D01*
G01X16893Y36978D01*
G01X16929Y37011D01*
G01X16964Y37046D01*
G01X16997Y37082D01*
G01X17028Y37119D01*
G01X17058Y37158D01*
G01X17087Y37198D01*
G01X17114Y37239D01*
G01X17139Y37282D01*
G01X17162Y37325D01*
G01X17183Y37369D01*
G01X17202Y37414D01*
G01X17219Y37461D01*
G01X17235Y37507D01*
G01X17248Y37554D01*
G01X17260Y37602D01*
G01X17269Y37650D01*
G01X17276Y37699D01*
G01X17281Y37748D01*
G01X17284Y37796D01*
G01X17285Y37846D01*
G01X17284Y37895D01*
G01X17281Y37944D01*
G01X17276Y37993D01*
G01X17269Y38041D01*
G01X17260Y38090D01*
G01X17248Y38137D01*
G01X17235Y38185D01*
G01X17219Y38231D01*
G01X17202Y38277D01*
G01X17183Y38322D01*
G01X17162Y38366D01*
G01X17139Y38410D01*
G01X17114Y38452D01*
G01X17087Y38493D01*
G01X17058Y38534D01*
G01X17028Y38572D01*
G01X16997Y38610D01*
G01X16964Y38646D01*
G01X16929Y38681D01*
G01X16893Y38714D01*
G01X16855Y38745D01*
G01X16817Y38775D01*
G01X16776Y38804D01*
G01X16735Y38831D01*
G01X16693Y38856D01*
G01X16649Y38879D01*
G01X16605Y38900D01*
G01X16560Y38919D01*
G01X16514Y38936D01*
G01X16468Y38952D01*
G01X16420Y38965D01*
G01X16373Y38977D01*
G01X16324Y38986D01*
G01X16276Y38993D01*
G01X16227Y38998D01*
G01X16178Y39001D01*
G37*
G36*
G01X18155Y37332D02*
G01X17632Y37332D01*
G01X17656Y37288D01*
G01X17681Y37244D01*
G01X17708Y37202D01*
G01X17737Y37161D01*
G01X17767Y37121D01*
G01X17800Y37083D01*
G01X17834Y37046D01*
G01X17869Y37011D01*
G01X17906Y36977D01*
G01X17944Y36944D01*
G01X17984Y36914D01*
G01X18025Y36885D01*
G01X18067Y36858D01*
G01X18111Y36833D01*
G01X18155Y36809D01*
G01X18155Y37332D01*
G37*
G36*
G01X19705Y37332D02*
G01X19182Y37332D01*
G01X19182Y36809D01*
G01X19227Y36833D01*
G01X19270Y36858D01*
G01X19312Y36885D01*
G01X19354Y36914D01*
G01X19393Y36944D01*
G01X19432Y36977D01*
G01X19469Y37011D01*
G01X19504Y37046D01*
G01X19538Y37083D01*
G01X19570Y37121D01*
G01X19601Y37161D01*
G01X19630Y37202D01*
G01X19657Y37244D01*
G01X19682Y37288D01*
G01X19705Y37332D01*
G37*
G36*
G01X38151Y39371D02*
G01X38100Y39372D01*
G01X38048Y39371D01*
G01X37997Y39368D01*
G01X37946Y39363D01*
G01X37896Y39356D01*
G01X37845Y39346D01*
G01X37795Y39335D01*
G01X37746Y39322D01*
G01X37697Y39307D01*
G01X37601Y39271D01*
G01X37554Y39249D01*
G01X37508Y39226D01*
G01X37464Y39202D01*
G01X37420Y39175D01*
G01X37377Y39147D01*
G01X37335Y39117D01*
G01X37295Y39085D01*
G01X37256Y39052D01*
G01X37218Y39018D01*
G01X37182Y38981D01*
G01X37147Y38944D01*
G01X37114Y38904D01*
G01X37082Y38864D01*
G01X37052Y38823D01*
G01X37024Y38780D01*
G01X36998Y38736D01*
G01X36973Y38691D01*
G01X36950Y38645D01*
G01X36929Y38599D01*
G01X36910Y38551D01*
G01X36893Y38503D01*
G01X36878Y38454D01*
G01X36864Y38404D01*
G01X36853Y38354D01*
G01X36843Y38304D01*
G01X36836Y38253D01*
G01X36831Y38202D01*
G01X36828Y38151D01*
G01X36827Y38100D01*
G01X36828Y38048D01*
G01X36831Y37997D01*
G01X36836Y37946D01*
G01X36843Y37896D01*
G01X36853Y37845D01*
G01X36864Y37795D01*
G01X36878Y37746D01*
G01X36893Y37697D01*
G01X36910Y37649D01*
G01X36929Y37601D01*
G01X36950Y37554D01*
G01X36973Y37508D01*
G01X36998Y37463D01*
G01X37024Y37420D01*
G01X37052Y37377D01*
G01X37082Y37335D01*
G01X37114Y37295D01*
G01X37147Y37256D01*
G01X37182Y37218D01*
G01X37218Y37182D01*
G01X37256Y37147D01*
G01X37295Y37114D01*
G01X37335Y37082D01*
G01X37377Y37052D01*
G01X37420Y37024D01*
G01X37464Y36998D01*
G01X37508Y36973D01*
G01X37554Y36950D01*
G01X37601Y36929D01*
G01X37649Y36910D01*
G01X37697Y36893D01*
G01X37746Y36878D01*
G01X37795Y36864D01*
G01X37845Y36853D01*
G01X37896Y36843D01*
G01X37946Y36836D01*
G01X37997Y36831D01*
G01X38048Y36828D01*
G01X38100Y36827D01*
G01X38151Y36828D01*
G01X38202Y36831D01*
G01X38253Y36836D01*
G01X38304Y36843D01*
G01X38354Y36853D01*
G01X38404Y36864D01*
G01X38454Y36878D01*
G01X38503Y36893D01*
G01X38551Y36910D01*
G01X38599Y36929D01*
G01X38645Y36950D01*
G01X38691Y36973D01*
G01X38736Y36998D01*
G01X38780Y37024D01*
G01X38823Y37052D01*
G01X38864Y37082D01*
G01X38904Y37114D01*
G01X38944Y37147D01*
G01X38981Y37182D01*
G01X39018Y37218D01*
G01X39052Y37256D01*
G01X39085Y37295D01*
G01X39117Y37335D01*
G01X39147Y37377D01*
G01X39175Y37420D01*
G01X39202Y37463D01*
G01X39226Y37508D01*
G01X39249Y37554D01*
G01X39271Y37601D01*
G01X39307Y37697D01*
G01X39322Y37746D01*
G01X39335Y37795D01*
G01X39346Y37845D01*
G01X39356Y37896D01*
G01X39363Y37946D01*
G01X39368Y37997D01*
G01X39371Y38048D01*
G01X39372Y38100D01*
G01X39371Y38151D01*
G01X39368Y38202D01*
G01X39363Y38253D01*
G01X39356Y38304D01*
G01X39346Y38354D01*
G01X39335Y38404D01*
G01X39322Y38454D01*
G01X39307Y38503D01*
G01X39271Y38599D01*
G01X39249Y38645D01*
G01X39226Y38691D01*
G01X39202Y38736D01*
G01X39175Y38780D01*
G01X39147Y38823D01*
G01X39117Y38864D01*
G01X39085Y38904D01*
G01X39052Y38944D01*
G01X39018Y38981D01*
G01X38981Y39018D01*
G01X38944Y39052D01*
G01X38904Y39085D01*
G01X38864Y39117D01*
G01X38823Y39147D01*
G01X38780Y39175D01*
G01X38736Y39202D01*
G01X38691Y39226D01*
G01X38645Y39249D01*
G01X38599Y39271D01*
G01X38503Y39307D01*
G01X38454Y39322D01*
G01X38404Y39335D01*
G01X38354Y39346D01*
G01X38304Y39356D01*
G01X38253Y39363D01*
G01X38202Y39368D01*
G01X38151Y39371D01*
G37*
G36*
G01X2591Y39371D02*
G01X2540Y39372D01*
G01X2488Y39371D01*
G01X2437Y39368D01*
G01X2386Y39363D01*
G01X2336Y39356D01*
G01X2285Y39346D01*
G01X2235Y39335D01*
G01X2186Y39322D01*
G01X2137Y39307D01*
G01X2041Y39271D01*
G01X1994Y39249D01*
G01X1948Y39226D01*
G01X1904Y39202D01*
G01X1860Y39175D01*
G01X1817Y39147D01*
G01X1775Y39117D01*
G01X1735Y39085D01*
G01X1696Y39052D01*
G01X1658Y39018D01*
G01X1622Y38981D01*
G01X1587Y38944D01*
G01X1554Y38904D01*
G01X1522Y38864D01*
G01X1492Y38823D01*
G01X1464Y38780D01*
G01X1438Y38736D01*
G01X1413Y38691D01*
G01X1390Y38645D01*
G01X1369Y38599D01*
G01X1350Y38551D01*
G01X1333Y38503D01*
G01X1318Y38454D01*
G01X1304Y38404D01*
G01X1293Y38354D01*
G01X1283Y38304D01*
G01X1276Y38253D01*
G01X1271Y38202D01*
G01X1268Y38151D01*
G01X1267Y38100D01*
G01X1268Y38048D01*
G01X1271Y37997D01*
G01X1276Y37946D01*
G01X1283Y37896D01*
G01X1293Y37845D01*
G01X1304Y37795D01*
G01X1318Y37746D01*
G01X1333Y37697D01*
G01X1350Y37649D01*
G01X1369Y37601D01*
G01X1390Y37554D01*
G01X1413Y37508D01*
G01X1438Y37463D01*
G01X1464Y37420D01*
G01X1492Y37377D01*
G01X1522Y37335D01*
G01X1554Y37295D01*
G01X1587Y37256D01*
G01X1622Y37218D01*
G01X1658Y37182D01*
G01X1696Y37147D01*
G01X1735Y37114D01*
G01X1775Y37082D01*
G01X1817Y37052D01*
G01X1860Y37024D01*
G01X1904Y36998D01*
G01X1948Y36973D01*
G01X1994Y36950D01*
G01X2041Y36929D01*
G01X2089Y36910D01*
G01X2137Y36893D01*
G01X2186Y36878D01*
G01X2235Y36864D01*
G01X2285Y36853D01*
G01X2336Y36843D01*
G01X2386Y36836D01*
G01X2437Y36831D01*
G01X2488Y36828D01*
G01X2540Y36827D01*
G01X2591Y36828D01*
G01X2642Y36831D01*
G01X2693Y36836D01*
G01X2744Y36843D01*
G01X2794Y36853D01*
G01X2844Y36864D01*
G01X2894Y36878D01*
G01X2943Y36893D01*
G01X2991Y36910D01*
G01X3039Y36929D01*
G01X3085Y36950D01*
G01X3131Y36973D01*
G01X3176Y36998D01*
G01X3220Y37024D01*
G01X3263Y37052D01*
G01X3304Y37082D01*
G01X3344Y37114D01*
G01X3384Y37147D01*
G01X3421Y37182D01*
G01X3458Y37218D01*
G01X3492Y37256D01*
G01X3525Y37295D01*
G01X3557Y37335D01*
G01X3587Y37377D01*
G01X3615Y37420D01*
G01X3642Y37463D01*
G01X3666Y37508D01*
G01X3689Y37554D01*
G01X3711Y37601D01*
G01X3747Y37697D01*
G01X3762Y37746D01*
G01X3775Y37795D01*
G01X3786Y37845D01*
G01X3796Y37896D01*
G01X3803Y37946D01*
G01X3808Y37997D01*
G01X3811Y38048D01*
G01X3812Y38100D01*
G01X3811Y38151D01*
G01X3808Y38202D01*
G01X3803Y38253D01*
G01X3796Y38304D01*
G01X3786Y38354D01*
G01X3775Y38404D01*
G01X3762Y38454D01*
G01X3747Y38503D01*
G01X3711Y38599D01*
G01X3689Y38645D01*
G01X3666Y38691D01*
G01X3642Y38736D01*
G01X3615Y38780D01*
G01X3587Y38823D01*
G01X3557Y38864D01*
G01X3525Y38904D01*
G01X3492Y38944D01*
G01X3458Y38981D01*
G01X3421Y39018D01*
G01X3384Y39052D01*
G01X3344Y39085D01*
G01X3304Y39117D01*
G01X3263Y39147D01*
G01X3220Y39175D01*
G01X3176Y39202D01*
G01X3131Y39226D01*
G01X3085Y39249D01*
G01X3039Y39271D01*
G01X2943Y39307D01*
G01X2894Y39322D01*
G01X2844Y39335D01*
G01X2794Y39346D01*
G01X2744Y39356D01*
G01X2693Y39363D01*
G01X2642Y39368D01*
G01X2591Y39371D01*
G37*
G36*
G01X35229Y37335D02*
G01X35184Y37358D01*
G01X35184Y36835D01*
G01X35707Y36835D01*
G01X35684Y36880D01*
G01X35659Y36923D01*
G01X35632Y36965D01*
G01X35603Y37007D01*
G01X35572Y37046D01*
G01X35540Y37085D01*
G01X35506Y37122D01*
G01X35471Y37157D01*
G01X35434Y37191D01*
G01X35395Y37223D01*
G01X35356Y37254D01*
G01X35314Y37283D01*
G01X35272Y37310D01*
G01X35229Y37335D01*
G37*
G36*
G01X34157Y36835D02*
G01X34157Y37358D01*
G01X34113Y37335D01*
G01X34069Y37310D01*
G01X34027Y37283D01*
G01X33986Y37254D01*
G01X33946Y37223D01*
G01X33908Y37191D01*
G01X33871Y37157D01*
G01X33836Y37122D01*
G01X33802Y37085D01*
G01X33769Y37046D01*
G01X33739Y37007D01*
G01X33710Y36965D01*
G01X33683Y36923D01*
G01X33658Y36880D01*
G01X33634Y36835D01*
G01X34157Y36835D01*
G37*
G36*
G01X34720Y40017D02*
G01X34671Y40018D01*
G01X34621Y40017D01*
G01X34573Y40014D01*
G01X34524Y40009D01*
G01X34475Y40002D01*
G01X34427Y39993D01*
G01X34379Y39981D01*
G01X34332Y39968D01*
G01X34286Y39952D01*
G01X34239Y39935D01*
G01X34194Y39916D01*
G01X34150Y39895D01*
G01X34107Y39872D01*
G01X34064Y39847D01*
G01X34023Y39820D01*
G01X33983Y39791D01*
G01X33944Y39761D01*
G01X33907Y39730D01*
G01X33871Y39697D01*
G01X33836Y39662D01*
G01X33803Y39626D01*
G01X33771Y39588D01*
G01X33741Y39550D01*
G01X33713Y39509D01*
G01X33686Y39468D01*
G01X33661Y39426D01*
G01X33638Y39382D01*
G01X33617Y39338D01*
G01X33598Y39293D01*
G01X33580Y39247D01*
G01X33565Y39201D01*
G01X33552Y39153D01*
G01X33540Y39106D01*
G01X33531Y39057D01*
G01X33524Y39009D01*
G01X33519Y38960D01*
G01X33515Y38911D01*
G01X33514Y38862D01*
G01X33515Y38812D01*
G01X33519Y38764D01*
G01X33524Y38715D01*
G01X33531Y38666D01*
G01X33540Y38618D01*
G01X33552Y38570D01*
G01X33565Y38523D01*
G01X33580Y38477D01*
G01X33598Y38430D01*
G01X33617Y38385D01*
G01X33638Y38341D01*
G01X33661Y38298D01*
G01X33686Y38255D01*
G01X33713Y38214D01*
G01X33741Y38174D01*
G01X33771Y38135D01*
G01X33803Y38098D01*
G01X33836Y38062D01*
G01X33871Y38027D01*
G01X33907Y37994D01*
G01X33944Y37962D01*
G01X33983Y37932D01*
G01X34023Y37904D01*
G01X34064Y37877D01*
G01X34107Y37852D01*
G01X34150Y37829D01*
G01X34194Y37808D01*
G01X34239Y37789D01*
G01X34286Y37771D01*
G01X34332Y37756D01*
G01X34379Y37743D01*
G01X34427Y37731D01*
G01X34475Y37722D01*
G01X34524Y37715D01*
G01X34573Y37710D01*
G01X34621Y37706D01*
G01X34671Y37705D01*
G01X34720Y37706D01*
G01X34769Y37710D01*
G01X34818Y37715D01*
G01X34866Y37722D01*
G01X34915Y37731D01*
G01X34962Y37743D01*
G01X35010Y37756D01*
G01X35056Y37771D01*
G01X35102Y37789D01*
G01X35147Y37808D01*
G01X35191Y37829D01*
G01X35235Y37852D01*
G01X35277Y37877D01*
G01X35318Y37904D01*
G01X35359Y37932D01*
G01X35397Y37962D01*
G01X35435Y37994D01*
G01X35471Y38027D01*
G01X35506Y38062D01*
G01X35539Y38098D01*
G01X35570Y38135D01*
G01X35600Y38174D01*
G01X35629Y38214D01*
G01X35656Y38255D01*
G01X35681Y38298D01*
G01X35704Y38341D01*
G01X35725Y38385D01*
G01X35744Y38430D01*
G01X35761Y38477D01*
G01X35777Y38523D01*
G01X35790Y38570D01*
G01X35802Y38618D01*
G01X35811Y38666D01*
G01X35818Y38715D01*
G01X35823Y38764D01*
G01X35826Y38812D01*
G01X35827Y38862D01*
G01X35826Y38911D01*
G01X35823Y38960D01*
G01X35818Y39009D01*
G01X35811Y39057D01*
G01X35802Y39106D01*
G01X35790Y39153D01*
G01X35777Y39201D01*
G01X35761Y39247D01*
G01X35744Y39293D01*
G01X35725Y39338D01*
G01X35704Y39382D01*
G01X35681Y39426D01*
G01X35656Y39468D01*
G01X35629Y39509D01*
G01X35600Y39550D01*
G01X35570Y39588D01*
G01X35539Y39626D01*
G01X35506Y39662D01*
G01X35471Y39697D01*
G01X35435Y39730D01*
G01X35397Y39761D01*
G01X35359Y39791D01*
G01X35318Y39820D01*
G01X35277Y39847D01*
G01X35235Y39872D01*
G01X35191Y39895D01*
G01X35147Y39916D01*
G01X35102Y39935D01*
G01X35056Y39952D01*
G01X35010Y39968D01*
G01X34962Y39981D01*
G01X34915Y39993D01*
G01X34866Y40002D01*
G01X34818Y40009D01*
G01X34769Y40014D01*
G01X34720Y40017D01*
G37*
G36*
G01X18155Y38359D02*
G01X18155Y38882D01*
G01X18111Y38859D01*
G01X18067Y38834D01*
G01X18025Y38807D01*
G01X17984Y38778D01*
G01X17944Y38747D01*
G01X17906Y38715D01*
G01X17869Y38681D01*
G01X17834Y38646D01*
G01X17800Y38609D01*
G01X17767Y38570D01*
G01X17737Y38531D01*
G01X17708Y38489D01*
G01X17681Y38447D01*
G01X17656Y38404D01*
G01X17632Y38359D01*
G01X18155Y38359D01*
G37*
G36*
G01X19227Y38859D02*
G01X19182Y38882D01*
G01X19182Y38359D01*
G01X19705Y38359D01*
G01X19682Y38404D01*
G01X19657Y38447D01*
G01X19630Y38489D01*
G01X19601Y38531D01*
G01X19570Y38570D01*
G01X19538Y38609D01*
G01X19504Y38646D01*
G01X19469Y38681D01*
G01X19432Y38715D01*
G01X19393Y38747D01*
G01X19354Y38778D01*
G01X19312Y38807D01*
G01X19270Y38834D01*
G01X19227Y38859D01*
G37*

%LPD*%
G54D10*
G01X18542Y31496D02*
G01X18542Y34290D01*
G01X13589Y20828D02*
G01X18542Y25781D01*
G01X18542Y31496D01*
G01X14732Y13030D02*
G01X13589Y14173D01*
G01X13589Y15621D01*
G54D11*
G01X10246Y5458D02*
G01X10287Y5499D01*
G01X10287Y9398D01*
G01X12319Y11430D01*
G01X29972Y11430D01*
G01X31877Y13335D01*
G01X31877Y39116D01*
G01X22606Y17780D02*
G01X26416Y17780D01*
G01X12573Y17780D02*
G01X22606Y17780D01*
G01X26416Y17780D02*
G01X26416Y17780D01*
G01X27559Y18923D01*
G01X27559Y32512D01*
G01X29972Y34925D01*
G01X5537Y16256D02*
G01X7061Y17780D01*
G01X12573Y17780D01*
G54D10*
G01X2032Y10541D02*
G01X2032Y17526D01*
G01X4191Y19685D01*
G01X14478Y19685D01*
G54D25*
G01X12700Y31623D03*
G01X15240Y31623D03*
G01X21463Y27559D03*
G01X21463Y25019D03*
G01X10541Y21082D03*
G54D26*
G01X34671Y38862D03*
G01X34671Y36322D03*
G54D27*
G01X34671Y33782D03*
G54D26*
G01X18669Y37846D03*
G01X16129Y37846D03*
G01X13589Y37846D03*
G01X11049Y37846D03*
G01X8509Y37846D03*
G54D28*
G01X5969Y37846D03*
G54D29*
G01X21590Y3810D03*
G01X26588Y3810D03*
G01X31750Y3810D03*
G54D30*
G01X9146Y4673D03*
G01X13988Y4673D03*
G54D25*
G01X23697Y13553D03*
G01X17197Y13553D03*
G01X23697Y9053D03*
G01X17197Y9053D03*
G54D13*
G01X5537Y16256D03*
G01X29972Y34925D03*
G01X26416Y17780D03*
G01X12573Y17780D03*
G01X22606Y17780D03*
G01X10246Y5458D03*
G01X31877Y39116D03*
G01X14732Y13030D03*
G01X13589Y15621D03*
G01X13589Y20828D03*
G01X18542Y34290D03*
G01X2032Y10541D03*
G01X14478Y19685D03*
G54D30*
G01X15176Y2423D02*
G01X15176Y1523D01*
G01X7937Y2423D02*
G01X7937Y1523D01*
M00*
M02*
