G04 Layer: TopSolderMaskLayer*
G04 EasyEDA v6.3.22, 2020-02-28T15:00:48+01:00*
G04 63a5f4fbcb7f4444b97e2c31749ff225,9eabfb72a9474bef872f988307f0334b,10*
G04 Gerber Generator version 0.2*
G04 Scale: 100 percent, Rotated: No, Reflected: No *
G04 Dimensions in millimeters *
G04 leading zeros omitted , absolute positions ,3 integer and 3 decimal *
%FSLAX33Y33*%
%MOMM*%
G90*
G71D02*

%ADD39C,0.803199*%
%ADD40C,1.503197*%
%ADD41C,1.727200*%
%ADD43C,2.003196*%
%ADD47R,2.103120X1.153160*%
%ADD48R,2.103120X3.454400*%
%ADD49C,3.203194*%
%ADD53R,1.402080X3.202940*%

%LPD*%
G54D39*
G01X37228Y21082D02*
G01X35828Y21082D01*
G01X37228Y22352D02*
G01X35828Y22352D01*
G01X31228Y22352D02*
G01X29828Y22352D01*
G01X31228Y21082D02*
G01X29828Y21082D01*
G54D40*
G01X15176Y2423D02*
G01X15176Y1523D01*
G01X7937Y2423D02*
G01X7937Y1523D01*
G54D41*
G01X12700Y31623D03*
G01X15240Y31623D03*
G01X21463Y27559D03*
G01X21463Y25019D03*
G01X10541Y21082D03*
G36*
G01X1531Y9840D02*
G01X1531Y11242D01*
G01X2535Y11242D01*
G01X2535Y9840D01*
G01X1531Y9840D01*
G37*
G36*
G01X3309Y9840D02*
G01X3309Y11242D01*
G01X4313Y11242D01*
G01X4313Y9840D01*
G01X3309Y9840D01*
G37*
G54D43*
G01X34671Y38862D03*
G01X34671Y36322D03*
G36*
G01X33670Y32893D02*
G01X33670Y34671D01*
G01X35672Y34671D01*
G01X35672Y32893D01*
G01X33670Y32893D01*
G37*
G01X18669Y37846D03*
G01X16129Y37846D03*
G01X13589Y37846D03*
G01X11049Y37846D03*
G01X8509Y37846D03*
G36*
G01X4968Y36845D02*
G01X4968Y38847D01*
G01X6970Y38847D01*
G01X6970Y36845D01*
G01X4968Y36845D01*
G37*
G36*
G01X5514Y10876D02*
G01X5514Y12237D01*
G01X7185Y12237D01*
G01X7185Y10876D01*
G01X5514Y10876D01*
G37*
G36*
G01X5514Y8844D02*
G01X5514Y10205D01*
G01X7185Y10205D01*
G01X7185Y8844D01*
G01X5514Y8844D01*
G37*
G36*
G01X11229Y10749D02*
G01X11229Y12110D01*
G01X12900Y12110D01*
G01X12900Y10749D01*
G01X11229Y10749D01*
G37*
G36*
G01X11229Y8717D02*
G01X11229Y10078D01*
G01X12900Y10078D01*
G01X12900Y8717D01*
G01X11229Y8717D01*
G37*
G36*
G01X25072Y10749D02*
G01X25072Y12110D01*
G01X26743Y12110D01*
G01X26743Y10749D01*
G01X25072Y10749D01*
G37*
G36*
G01X25072Y8717D02*
G01X25072Y10078D01*
G01X26743Y10078D01*
G01X26743Y8717D01*
G01X25072Y8717D01*
G37*
G36*
G01X30368Y10787D02*
G01X30368Y12149D01*
G01X32039Y12149D01*
G01X32039Y10787D01*
G01X30368Y10787D01*
G37*
G36*
G01X30368Y8755D02*
G01X30368Y10117D01*
G01X32039Y10117D01*
G01X32039Y8755D01*
G01X30368Y8755D01*
G37*
G54D47*
G01X31879Y34529D03*
G01X31879Y36830D03*
G01X31879Y39131D03*
G54D48*
G01X25778Y36830D03*
G54D49*
G01X21590Y3810D03*
G01X26588Y3810D03*
G01X31750Y3810D03*
G36*
G01X12519Y4356D02*
G01X12519Y6558D01*
G01X13172Y6558D01*
G01X13172Y4356D01*
G01X12519Y4356D01*
G37*
G36*
G01X11869Y4356D02*
G01X11869Y6558D01*
G01X12522Y6558D01*
G01X12522Y4356D01*
G01X11869Y4356D01*
G37*
G36*
G01X11219Y4356D02*
G01X11219Y6558D01*
G01X11874Y6558D01*
G01X11874Y4356D01*
G01X11219Y4356D01*
G37*
G36*
G01X10569Y4356D02*
G01X10569Y6558D01*
G01X11224Y6558D01*
G01X11224Y4356D01*
G01X10569Y4356D01*
G37*
G36*
G01X9921Y4356D02*
G01X9921Y6558D01*
G01X10574Y6558D01*
G01X10574Y4356D01*
G01X9921Y4356D01*
G37*
G36*
G01X12250Y444D02*
G01X12250Y1846D01*
G01X14054Y1846D01*
G01X14054Y444D01*
G01X12250Y444D01*
G37*
G36*
G01X8971Y459D02*
G01X8971Y1864D01*
G01X10774Y1864D01*
G01X10774Y459D01*
G01X8971Y459D01*
G37*
G54D40*
G01X9146Y4673D03*
G01X13988Y4673D03*
G36*
G01X8016Y12255D02*
G01X8016Y14059D01*
G01X10020Y14059D01*
G01X10020Y12255D01*
G01X8016Y12255D01*
G37*
G36*
G01X8016Y9080D02*
G01X8016Y10884D01*
G01X10020Y10884D01*
G01X10020Y9080D01*
G01X8016Y9080D01*
G37*
G36*
G01X13731Y12128D02*
G01X13731Y13932D01*
G01X15735Y13932D01*
G01X15735Y12128D01*
G01X13731Y12128D01*
G37*
G36*
G01X13731Y8953D02*
G01X13731Y10757D01*
G01X15735Y10757D01*
G01X15735Y8953D01*
G01X13731Y8953D01*
G37*
G36*
G01X32867Y12039D02*
G01X32867Y13843D01*
G01X34871Y13843D01*
G01X34871Y12039D01*
G01X32867Y12039D01*
G37*
G36*
G01X32867Y8864D02*
G01X32867Y10668D01*
G01X34871Y10668D01*
G01X34871Y8864D01*
G01X32867Y8864D01*
G37*
G54D53*
G01X8560Y17857D03*
G01X10541Y17857D03*
G01X12547Y17857D03*
G01X14554Y17857D03*
G01X16561Y17857D03*
G01X18542Y17857D03*
G01X20548Y17857D03*
G01X22555Y17857D03*
G36*
G01X7859Y32662D02*
G01X7859Y35865D01*
G01X9261Y35865D01*
G01X9261Y32662D01*
G01X7859Y32662D01*
G37*
G36*
G01X9840Y32662D02*
G01X9840Y35865D01*
G01X11242Y35865D01*
G01X11242Y32662D01*
G01X9840Y32662D01*
G37*
G36*
G01X11846Y32662D02*
G01X11846Y35865D01*
G01X13248Y35865D01*
G01X13248Y32662D01*
G01X11846Y32662D01*
G37*
G36*
G01X13853Y32662D02*
G01X13853Y35865D01*
G01X15255Y35865D01*
G01X15255Y32662D01*
G01X13853Y32662D01*
G37*
G36*
G01X15860Y32662D02*
G01X15860Y35865D01*
G01X17262Y35865D01*
G01X17262Y32662D01*
G01X15860Y32662D01*
G37*
G36*
G01X17841Y32662D02*
G01X17841Y35865D01*
G01X19243Y35865D01*
G01X19243Y32662D01*
G01X17841Y32662D01*
G37*
G36*
G01X19847Y32662D02*
G01X19847Y35865D01*
G01X21249Y35865D01*
G01X21249Y32662D01*
G01X19847Y32662D01*
G37*
G36*
G01X21854Y32662D02*
G01X21854Y35865D01*
G01X23256Y35865D01*
G01X23256Y32662D01*
G01X21854Y32662D01*
G37*
G36*
G01X23063Y28661D02*
G01X23063Y30063D01*
G01X26266Y30063D01*
G01X26266Y28661D01*
G01X23063Y28661D01*
G37*
G36*
G01X23063Y26655D02*
G01X23063Y28057D01*
G01X26266Y28057D01*
G01X26266Y26655D01*
G01X23063Y26655D01*
G37*
G36*
G01X23063Y24673D02*
G01X23063Y26075D01*
G01X26266Y26075D01*
G01X26266Y24673D01*
G01X23063Y24673D01*
G37*
G36*
G01X23063Y22667D02*
G01X23063Y24069D01*
G01X26266Y24069D01*
G01X26266Y22667D01*
G01X23063Y22667D01*
G37*
G36*
G01X23063Y20660D02*
G01X23063Y22062D01*
G01X26266Y22062D01*
G01X26266Y20660D01*
G01X23063Y20660D01*
G37*
G36*
G01X23063Y30668D02*
G01X23063Y32070D01*
G01X26266Y32070D01*
G01X26266Y30668D01*
G01X23063Y30668D01*
G37*
G36*
G01X36482Y29774D02*
G01X36482Y32977D01*
G01X37686Y32977D01*
G01X37686Y29774D01*
G01X36482Y29774D01*
G37*
G36*
G01X36482Y24173D02*
G01X36482Y27376D01*
G01X37686Y27376D01*
G01X37686Y24173D01*
G01X36482Y24173D01*
G37*
G36*
G01X29370Y29774D02*
G01X29370Y32977D01*
G01X30574Y32977D01*
G01X30574Y29774D01*
G01X29370Y29774D01*
G37*
G36*
G01X29370Y24173D02*
G01X29370Y27376D01*
G01X30574Y27376D01*
G01X30574Y24173D01*
G01X29370Y24173D01*
G37*
G54D41*
G01X23697Y13553D03*
G01X17197Y13553D03*
G01X23697Y9053D03*
G01X17197Y9053D03*
G36*
G01X28892Y16550D02*
G01X28892Y18755D01*
G01X30696Y18755D01*
G01X30696Y16550D01*
G01X28892Y16550D01*
G37*
G36*
G01X25692Y16550D02*
G01X25692Y18755D01*
G01X27495Y18755D01*
G01X27495Y16550D01*
G01X25692Y16550D01*
G37*
G36*
G01X1435Y15153D02*
G01X1435Y17358D01*
G01X3238Y17358D01*
G01X3238Y15153D01*
G01X1435Y15153D01*
G37*
G36*
G01X4635Y15153D02*
G01X4635Y17358D01*
G01X6439Y17358D01*
G01X6439Y15153D01*
G01X4635Y15153D01*
G37*
G36*
G01X31534Y16550D02*
G01X31534Y18755D01*
G01X33337Y18755D01*
G01X33337Y16550D01*
G01X31534Y16550D01*
G37*
G36*
G01X34734Y16550D02*
G01X34734Y18755D01*
G01X36538Y18755D01*
G01X36538Y16550D01*
G01X34734Y16550D01*
G37*
G36*
G01X27574Y12001D02*
G01X27574Y13805D01*
G01X29578Y13805D01*
G01X29578Y12001D01*
G01X27574Y12001D01*
G37*
G36*
G01X27574Y8826D02*
G01X27574Y10630D01*
G01X29578Y10630D01*
G01X29578Y8826D01*
G01X27574Y8826D01*
G37*
M00*
M02*
