G04 Layer: TopSolderMaskLayer*
G04 EasyEDA v6.3.22, 2020-01-22T21:57:18+01:00*
G04 bd40d7d6537d4de99fa6425ab58450c0,9eabfb72a9474bef872f988307f0334b,10*
G04 Gerber Generator version 0.2*
G04 Scale: 100 percent, Rotated: No, Reflected: No *
G04 Dimensions in inches *
G04 leading zeros omitted , absolute positions ,2 integer and 4 decimal *
%FSLAX24Y24*%
%MOIN*%
G90*
G70D02*

%ADD37C,0.031622*%
%ADD38C,0.059181*%
%ADD40C,0.078866*%
%ADD42R,0.082800X0.045400*%
%ADD43R,0.082800X0.136000*%
%ADD44C,0.126110*%
%ADD48R,0.055200X0.126100*%
%ADD51C,0.068000*%

%LPD*%
G54D37*
G01X14606Y7950D02*
G01X14055Y7950D01*
G01X14606Y8450D02*
G01X14055Y8450D01*
G01X12244Y8450D02*
G01X11693Y8450D01*
G01X12244Y7950D02*
G01X11693Y7950D01*
G54D38*
G01X5975Y954D02*
G01X5975Y599D01*
G01X3125Y954D02*
G01X3125Y599D01*
G36*
G01X2171Y4282D02*
G01X2171Y4818D01*
G01X2829Y4818D01*
G01X2829Y4282D01*
G01X2171Y4282D01*
G37*
G36*
G01X2171Y3482D02*
G01X2171Y4018D01*
G01X2829Y4018D01*
G01X2829Y3482D01*
G01X2171Y3482D01*
G37*
G36*
G01X4421Y4232D02*
G01X4421Y4768D01*
G01X5079Y4768D01*
G01X5079Y4232D01*
G01X4421Y4232D01*
G37*
G36*
G01X4421Y3432D02*
G01X4421Y3968D01*
G01X5079Y3968D01*
G01X5079Y3432D01*
G01X4421Y3432D01*
G37*
G36*
G01X9871Y4232D02*
G01X9871Y4768D01*
G01X10529Y4768D01*
G01X10529Y4232D01*
G01X9871Y4232D01*
G37*
G36*
G01X9871Y3432D02*
G01X9871Y3968D01*
G01X10529Y3968D01*
G01X10529Y3432D01*
G01X9871Y3432D01*
G37*
G36*
G01X11956Y4247D02*
G01X11956Y4783D01*
G01X12614Y4783D01*
G01X12614Y4247D01*
G01X11956Y4247D01*
G37*
G36*
G01X11956Y3447D02*
G01X11956Y3983D01*
G01X12614Y3983D01*
G01X12614Y3447D01*
G01X11956Y3447D01*
G37*
G54D40*
G01X7350Y14900D03*
G01X6350Y14900D03*
G01X5350Y14900D03*
G01X4350Y14900D03*
G01X3350Y14900D03*
G36*
G01X1956Y14506D02*
G01X1956Y15294D01*
G01X2744Y15294D01*
G01X2744Y14506D01*
G01X1956Y14506D01*
G37*
G54D42*
G01X12551Y13594D03*
G01X12551Y14500D03*
G01X12551Y15406D03*
G54D43*
G01X10149Y14500D03*
G54D44*
G01X8500Y1500D03*
G01X10468Y1500D03*
G01X12500Y1500D03*
G36*
G01X4929Y1715D02*
G01X4929Y2582D01*
G01X5186Y2582D01*
G01X5186Y1715D01*
G01X4929Y1715D01*
G37*
G36*
G01X4673Y1715D02*
G01X4673Y2582D01*
G01X4930Y2582D01*
G01X4930Y1715D01*
G01X4673Y1715D01*
G37*
G36*
G01X4417Y1715D02*
G01X4417Y2582D01*
G01X4675Y2582D01*
G01X4675Y1715D01*
G01X4417Y1715D01*
G37*
G36*
G01X4161Y1715D02*
G01X4161Y2582D01*
G01X4419Y2582D01*
G01X4419Y1715D01*
G01X4161Y1715D01*
G37*
G36*
G01X3906Y1715D02*
G01X3906Y2582D01*
G01X4163Y2582D01*
G01X4163Y1715D01*
G01X3906Y1715D01*
G37*
G36*
G01X4823Y175D02*
G01X4823Y727D01*
G01X5533Y727D01*
G01X5533Y175D01*
G01X4823Y175D01*
G37*
G36*
G01X3532Y181D02*
G01X3532Y734D01*
G01X4242Y734D01*
G01X4242Y181D01*
G01X3532Y181D01*
G37*
G54D38*
G01X3601Y1840D03*
G01X5507Y1840D03*
G36*
G01X3156Y4825D02*
G01X3156Y5535D01*
G01X3945Y5535D01*
G01X3945Y4825D01*
G01X3156Y4825D01*
G37*
G36*
G01X3156Y3575D02*
G01X3156Y4285D01*
G01X3945Y4285D01*
G01X3945Y3575D01*
G01X3156Y3575D01*
G37*
G36*
G01X5406Y4775D02*
G01X5406Y5485D01*
G01X6195Y5485D01*
G01X6195Y4775D01*
G01X5406Y4775D01*
G37*
G36*
G01X5406Y3525D02*
G01X5406Y4235D01*
G01X6195Y4235D01*
G01X6195Y3525D01*
G01X5406Y3525D01*
G37*
G36*
G01X12940Y4740D02*
G01X12940Y5450D01*
G01X13729Y5450D01*
G01X13729Y4740D01*
G01X12940Y4740D01*
G37*
G36*
G01X12940Y3490D02*
G01X12940Y4200D01*
G01X13729Y4200D01*
G01X13729Y3490D01*
G01X12940Y3490D01*
G37*
G54D48*
G01X3370Y7030D03*
G01X4150Y7030D03*
G01X4940Y7030D03*
G01X5730Y7030D03*
G01X6520Y7030D03*
G01X7300Y7030D03*
G01X8090Y7030D03*
G01X8880Y7030D03*
G36*
G01X3094Y12859D02*
G01X3094Y14120D01*
G01X3646Y14120D01*
G01X3646Y12859D01*
G01X3094Y12859D01*
G37*
G36*
G01X3874Y12859D02*
G01X3874Y14120D01*
G01X4426Y14120D01*
G01X4426Y12859D01*
G01X3874Y12859D01*
G37*
G36*
G01X4664Y12859D02*
G01X4664Y14120D01*
G01X5216Y14120D01*
G01X5216Y12859D01*
G01X4664Y12859D01*
G37*
G36*
G01X5454Y12859D02*
G01X5454Y14120D01*
G01X6006Y14120D01*
G01X6006Y12859D01*
G01X5454Y12859D01*
G37*
G36*
G01X6244Y12859D02*
G01X6244Y14120D01*
G01X6796Y14120D01*
G01X6796Y12859D01*
G01X6244Y12859D01*
G37*
G36*
G01X7024Y12859D02*
G01X7024Y14120D01*
G01X7576Y14120D01*
G01X7576Y12859D01*
G01X7024Y12859D01*
G37*
G36*
G01X7814Y12859D02*
G01X7814Y14120D01*
G01X8366Y14120D01*
G01X8366Y12859D01*
G01X7814Y12859D01*
G37*
G36*
G01X8604Y12859D02*
G01X8604Y14120D01*
G01X9156Y14120D01*
G01X9156Y12859D01*
G01X8604Y12859D01*
G37*
G36*
G01X9080Y11284D02*
G01X9080Y11836D01*
G01X10341Y11836D01*
G01X10341Y11284D01*
G01X9080Y11284D01*
G37*
G36*
G01X9080Y10494D02*
G01X9080Y11046D01*
G01X10341Y11046D01*
G01X10341Y10494D01*
G01X9080Y10494D01*
G37*
G36*
G01X9080Y9714D02*
G01X9080Y10266D01*
G01X10341Y10266D01*
G01X10341Y9714D01*
G01X9080Y9714D01*
G37*
G36*
G01X9080Y8924D02*
G01X9080Y9476D01*
G01X10341Y9476D01*
G01X10341Y8924D01*
G01X9080Y8924D01*
G37*
G36*
G01X9080Y8134D02*
G01X9080Y8686D01*
G01X10341Y8686D01*
G01X10341Y8134D01*
G01X9080Y8134D01*
G37*
G36*
G01X9080Y12074D02*
G01X9080Y12626D01*
G01X10341Y12626D01*
G01X10341Y12074D01*
G01X9080Y12074D01*
G37*
G36*
G01X14363Y11722D02*
G01X14363Y12983D01*
G01X14837Y12983D01*
G01X14837Y11722D01*
G01X14363Y11722D01*
G37*
G36*
G01X14363Y9517D02*
G01X14363Y10778D01*
G01X14837Y10778D01*
G01X14837Y9517D01*
G01X14363Y9517D01*
G37*
G36*
G01X11563Y11722D02*
G01X11563Y12983D01*
G01X12037Y12983D01*
G01X12037Y11722D01*
G01X11563Y11722D01*
G37*
G36*
G01X11563Y9517D02*
G01X11563Y10778D01*
G01X12037Y10778D01*
G01X12037Y9517D01*
G01X11563Y9517D01*
G37*
G54D51*
G01X9329Y5335D03*
G01X6770Y5335D03*
G01X9329Y3564D03*
G01X6770Y3564D03*
G36*
G01X11375Y6516D02*
G01X11375Y7384D01*
G01X12085Y7384D01*
G01X12085Y6516D01*
G01X11375Y6516D01*
G37*
G36*
G01X10115Y6516D02*
G01X10115Y7384D01*
G01X10825Y7384D01*
G01X10825Y6516D01*
G01X10115Y6516D01*
G37*
G36*
G01X565Y5966D02*
G01X565Y6834D01*
G01X1275Y6834D01*
G01X1275Y5966D01*
G01X565Y5966D01*
G37*
G36*
G01X1825Y5966D02*
G01X1825Y6834D01*
G01X2535Y6834D01*
G01X2535Y5966D01*
G01X1825Y5966D01*
G37*
G36*
G01X12415Y6516D02*
G01X12415Y7384D01*
G01X13125Y7384D01*
G01X13125Y6516D01*
G01X12415Y6516D01*
G37*
G36*
G01X13675Y6516D02*
G01X13675Y7384D01*
G01X14385Y7384D01*
G01X14385Y6516D01*
G01X13675Y6516D01*
G37*
G36*
G01X10856Y4725D02*
G01X10856Y5435D01*
G01X11645Y5435D01*
G01X11645Y4725D01*
G01X10856Y4725D01*
G37*
G36*
G01X10856Y3475D02*
G01X10856Y4185D01*
G01X11645Y4185D01*
G01X11645Y3475D01*
G01X10856Y3475D01*
G37*
M00*
M02*
