G04 Layer: TopLayer*
G04 EasyEDA v6.3.22, 2020-02-28T15:00:48+01:00*
G04 63a5f4fbcb7f4444b97e2c31749ff225,9eabfb72a9474bef872f988307f0334b,10*
G04 Gerber Generator version 0.2*
G04 Scale: 100 percent, Rotated: No, Reflected: No *
G04 Dimensions in millimeters *
G04 leading zeros omitted , absolute positions ,3 integer and 3 decimal *
%FSLAX33Y33*%
%MOMM*%
G90*
G71D02*

%ADD10C,0.254000*%
%ADD11C,0.508000*%
%ADD12C,0.599999*%
%ADD13C,0.609600*%
%ADD14R,0.800100X1.198880*%
%ADD15R,1.469898X1.160018*%
%ADD16R,1.899920X0.949960*%
%ADD17R,1.899920X3.251200*%
%ADD18R,0.450012X1.999996*%
%ADD19R,1.599997X1.199896*%
%ADD20R,1.800860X1.600200*%
%ADD21R,1.198880X2.999740*%
%ADD22R,2.999740X1.198880*%
%ADD23R,0.999998X2.999994*%
%ADD24R,1.600200X1.999996*%
%ADD25C,1.524000*%
%ADD26C,1.799996*%
%ADD27R,1.799996X1.574800*%
%ADD28R,1.799996X1.799996*%
%ADD29C,2.999994*%
%ADD30C,1.299997*%

%LPD*%
G36*
G01X38112Y40383D02*
G01X2504Y40383D01*
G01X2436Y40381D01*
G01X2368Y40377D01*
G01X2300Y40371D01*
G01X2232Y40363D01*
G01X2164Y40352D01*
G01X2097Y40340D01*
G01X2031Y40326D01*
G01X1964Y40310D01*
G01X1898Y40292D01*
G01X1833Y40271D01*
G01X1769Y40249D01*
G01X1705Y40225D01*
G01X1641Y40199D01*
G01X1579Y40171D01*
G01X1518Y40142D01*
G01X1457Y40110D01*
G01X1397Y40077D01*
G01X1338Y40042D01*
G01X1281Y40005D01*
G01X1225Y39967D01*
G01X1169Y39927D01*
G01X1115Y39885D01*
G01X1062Y39841D01*
G01X1011Y39796D01*
G01X961Y39750D01*
G01X913Y39702D01*
G01X865Y39653D01*
G01X820Y39602D01*
G01X775Y39550D01*
G01X733Y39496D01*
G01X692Y39442D01*
G01X653Y39386D01*
G01X615Y39329D01*
G01X579Y39271D01*
G01X545Y39212D01*
G01X513Y39151D01*
G01X482Y39090D01*
G01X453Y39028D01*
G01X426Y38965D01*
G01X402Y38902D01*
G01X379Y38838D01*
G01X357Y38773D01*
G01X338Y38707D01*
G01X321Y38641D01*
G01X306Y38574D01*
G01X293Y38507D01*
G01X282Y38440D01*
G01X273Y38373D01*
G01X265Y38304D01*
G01X260Y38236D01*
G01X257Y38168D01*
G01X256Y38100D01*
G01X256Y2507D01*
G01X258Y2439D01*
G01X262Y2371D01*
G01X268Y2303D01*
G01X277Y2235D01*
G01X286Y2168D01*
G01X298Y2101D01*
G01X313Y2034D01*
G01X329Y1968D01*
G01X347Y1902D01*
G01X367Y1837D01*
G01X389Y1773D01*
G01X413Y1709D01*
G01X438Y1646D01*
G01X466Y1584D01*
G01X495Y1522D01*
G01X527Y1462D01*
G01X560Y1402D01*
G01X595Y1343D01*
G01X631Y1286D01*
G01X669Y1230D01*
G01X709Y1174D01*
G01X751Y1120D01*
G01X794Y1068D01*
G01X838Y1016D01*
G01X885Y966D01*
G01X932Y918D01*
G01X981Y870D01*
G01X1032Y825D01*
G01X1084Y781D01*
G01X1137Y738D01*
G01X1191Y697D01*
G01X1247Y657D01*
G01X1303Y620D01*
G01X1361Y583D01*
G01X1420Y549D01*
G01X1480Y517D01*
G01X1541Y486D01*
G01X1602Y457D01*
G01X1665Y430D01*
G01X1728Y405D01*
G01X1792Y382D01*
G01X1857Y360D01*
G01X1923Y341D01*
G01X1989Y324D01*
G01X2055Y308D01*
G01X2122Y295D01*
G01X2189Y283D01*
G01X2256Y274D01*
G01X2324Y266D01*
G01X2391Y261D01*
G01X2459Y257D01*
G01X2528Y256D01*
G01X8780Y256D01*
G01X8794Y257D01*
G01X8808Y260D01*
G01X8822Y265D01*
G01X8846Y281D01*
G01X8856Y291D01*
G01X8865Y303D01*
G01X8872Y316D01*
G01X8877Y329D01*
G01X8880Y344D01*
G01X8881Y358D01*
G01X8880Y373D01*
G01X8877Y388D01*
G01X8870Y403D01*
G01X8863Y416D01*
G01X8849Y438D01*
G01X8838Y461D01*
G01X8829Y485D01*
G01X8822Y511D01*
G01X8819Y536D01*
G01X8817Y562D01*
G01X8817Y883D01*
G01X8816Y897D01*
G01X8813Y912D01*
G01X8808Y925D01*
G01X8801Y938D01*
G01X8792Y949D01*
G01X8782Y959D01*
G01X8770Y968D01*
G01X8758Y975D01*
G01X8744Y980D01*
G01X8730Y983D01*
G01X8716Y984D01*
G01X8701Y983D01*
G01X8686Y980D01*
G01X8672Y975D01*
G01X8659Y967D01*
G01X8647Y958D01*
G01X8637Y947D01*
G01X8608Y914D01*
G01X8577Y882D01*
G01X8545Y851D01*
G01X8511Y822D01*
G01X8476Y795D01*
G01X8440Y769D01*
G01X8403Y745D01*
G01X8364Y724D01*
G01X8324Y704D01*
G01X8284Y686D01*
G01X8242Y670D01*
G01X8200Y656D01*
G01X8157Y644D01*
G01X8114Y634D01*
G01X8070Y627D01*
G01X8026Y622D01*
G01X7981Y618D01*
G01X7937Y617D01*
G01X7894Y618D01*
G01X7851Y621D01*
G01X7808Y626D01*
G01X7766Y633D01*
G01X7723Y642D01*
G01X7682Y654D01*
G01X7641Y667D01*
G01X7600Y682D01*
G01X7561Y699D01*
G01X7522Y718D01*
G01X7484Y738D01*
G01X7447Y761D01*
G01X7411Y785D01*
G01X7377Y811D01*
G01X7343Y838D01*
G01X7312Y867D01*
G01X7281Y898D01*
G01X7252Y930D01*
G01X7225Y963D01*
G01X7199Y998D01*
G01X7175Y1034D01*
G01X7152Y1070D01*
G01X7132Y1108D01*
G01X7113Y1147D01*
G01X7095Y1186D01*
G01X7081Y1227D01*
G01X7068Y1268D01*
G01X7056Y1310D01*
G01X7047Y1352D01*
G01X7040Y1395D01*
G01X7035Y1437D01*
G01X7031Y1481D01*
G01X7030Y1524D01*
G01X7030Y2422D01*
G01X7031Y2466D01*
G01X7035Y2509D01*
G01X7040Y2551D01*
G01X7047Y2594D01*
G01X7056Y2636D01*
G01X7068Y2678D01*
G01X7081Y2719D01*
G01X7095Y2760D01*
G01X7113Y2799D01*
G01X7132Y2838D01*
G01X7152Y2876D01*
G01X7175Y2913D01*
G01X7199Y2949D01*
G01X7225Y2983D01*
G01X7252Y3016D01*
G01X7281Y3048D01*
G01X7312Y3079D01*
G01X7343Y3108D01*
G01X7377Y3135D01*
G01X7411Y3161D01*
G01X7447Y3185D01*
G01X7484Y3208D01*
G01X7522Y3229D01*
G01X7561Y3247D01*
G01X7600Y3264D01*
G01X7641Y3279D01*
G01X7682Y3293D01*
G01X7723Y3304D01*
G01X7766Y3313D01*
G01X7808Y3320D01*
G01X7851Y3325D01*
G01X7894Y3328D01*
G01X7937Y3329D01*
G01X7980Y3328D01*
G01X8024Y3325D01*
G01X8066Y3320D01*
G01X8109Y3313D01*
G01X8151Y3304D01*
G01X8193Y3293D01*
G01X8234Y3279D01*
G01X8274Y3264D01*
G01X8314Y3247D01*
G01X8353Y3229D01*
G01X8390Y3208D01*
G01X8427Y3185D01*
G01X8463Y3161D01*
G01X8498Y3135D01*
G01X8531Y3108D01*
G01X8563Y3079D01*
G01X8594Y3048D01*
G01X8623Y3016D01*
G01X8650Y2983D01*
G01X8676Y2949D01*
G01X8700Y2913D01*
G01X8722Y2876D01*
G01X8743Y2838D01*
G01X8762Y2799D01*
G01X8779Y2760D01*
G01X8794Y2719D01*
G01X8807Y2678D01*
G01X8818Y2636D01*
G01X8827Y2594D01*
G01X8834Y2551D01*
G01X8839Y2509D01*
G01X8843Y2466D01*
G01X8844Y2422D01*
G01X8844Y2096D01*
G01X8845Y2082D01*
G01X8848Y2068D01*
G01X8853Y2054D01*
G01X8860Y2041D01*
G01X8868Y2030D01*
G01X8879Y2020D01*
G01X8890Y2011D01*
G01X8903Y2004D01*
G01X8917Y1999D01*
G01X8931Y1996D01*
G01X8946Y1995D01*
G01X8964Y1997D01*
G01X8982Y2002D01*
G01X9004Y2009D01*
G01X9027Y2014D01*
G01X9050Y2018D01*
G01X9074Y2019D01*
G01X10674Y2019D01*
G01X10698Y2018D01*
G01X10721Y2014D01*
G01X10744Y2009D01*
G01X10766Y2001D01*
G01X10788Y1992D01*
G01X10809Y1980D01*
G01X10828Y1967D01*
G01X10847Y1951D01*
G01X10863Y1935D01*
G01X10879Y1916D01*
G01X10892Y1897D01*
G01X10903Y1876D01*
G01X10913Y1854D01*
G01X10921Y1832D01*
G01X10926Y1809D01*
G01X10929Y1786D01*
G01X10930Y1762D01*
G01X10930Y562D01*
G01X10929Y536D01*
G01X10925Y511D01*
G01X10919Y485D01*
G01X10910Y461D01*
G01X10898Y438D01*
G01X10885Y416D01*
G01X10877Y403D01*
G01X10871Y388D01*
G01X10867Y373D01*
G01X10866Y358D01*
G01X10867Y344D01*
G01X10870Y329D01*
G01X10876Y316D01*
G01X10883Y303D01*
G01X10891Y291D01*
G01X10901Y281D01*
G01X10913Y273D01*
G01X10926Y265D01*
G01X10940Y260D01*
G01X10954Y257D01*
G01X10968Y256D01*
G01X12047Y256D01*
G01X12062Y257D01*
G01X12076Y260D01*
G01X12090Y265D01*
G01X12114Y281D01*
G01X12124Y291D01*
G01X12133Y303D01*
G01X12140Y316D01*
G01X12145Y329D01*
G01X12148Y344D01*
G01X12149Y358D01*
G01X12148Y377D01*
G01X12142Y394D01*
G01X12134Y411D01*
G01X12123Y432D01*
G01X12113Y453D01*
G01X12105Y476D01*
G01X12100Y499D01*
G01X12097Y522D01*
G01X12096Y546D01*
G01X12096Y1746D01*
G01X12097Y1770D01*
G01X12100Y1793D01*
G01X12105Y1816D01*
G01X12113Y1838D01*
G01X12123Y1860D01*
G01X12134Y1881D01*
G01X12148Y1900D01*
G01X12163Y1918D01*
G01X12180Y1935D01*
G01X12198Y1950D01*
G01X12217Y1964D01*
G01X12238Y1975D01*
G01X12260Y1985D01*
G01X12282Y1993D01*
G01X12305Y1998D01*
G01X12328Y2001D01*
G01X12352Y2002D01*
G01X13952Y2002D01*
G01X13976Y2001D01*
G01X14000Y1998D01*
G01X14023Y1993D01*
G01X14045Y1985D01*
G01X14067Y1975D01*
G01X14088Y1964D01*
G01X14107Y1950D01*
G01X14121Y1942D01*
G01X14136Y1935D01*
G01X14152Y1931D01*
G01X14168Y1930D01*
G01X14183Y1931D01*
G01X14197Y1934D01*
G01X14211Y1939D01*
G01X14223Y1946D01*
G01X14234Y1955D01*
G01X14245Y1965D01*
G01X14254Y1977D01*
G01X14260Y1990D01*
G01X14265Y2003D01*
G01X14268Y2017D01*
G01X14269Y2032D01*
G01X14269Y2422D01*
G01X14270Y2466D01*
G01X14274Y2509D01*
G01X14279Y2551D01*
G01X14286Y2594D01*
G01X14295Y2636D01*
G01X14307Y2678D01*
G01X14320Y2719D01*
G01X14334Y2760D01*
G01X14352Y2799D01*
G01X14371Y2838D01*
G01X14391Y2876D01*
G01X14414Y2913D01*
G01X14438Y2949D01*
G01X14464Y2983D01*
G01X14491Y3016D01*
G01X14520Y3048D01*
G01X14551Y3079D01*
G01X14582Y3108D01*
G01X14616Y3135D01*
G01X14650Y3161D01*
G01X14686Y3185D01*
G01X14723Y3208D01*
G01X14761Y3229D01*
G01X14800Y3247D01*
G01X14839Y3264D01*
G01X14880Y3279D01*
G01X14921Y3293D01*
G01X14962Y3304D01*
G01X15005Y3313D01*
G01X15047Y3320D01*
G01X15090Y3325D01*
G01X15133Y3328D01*
G01X15176Y3329D01*
G01X15219Y3328D01*
G01X15263Y3325D01*
G01X15305Y3320D01*
G01X15348Y3313D01*
G01X15390Y3304D01*
G01X15432Y3293D01*
G01X15473Y3279D01*
G01X15513Y3264D01*
G01X15553Y3247D01*
G01X15592Y3229D01*
G01X15629Y3208D01*
G01X15666Y3185D01*
G01X15702Y3161D01*
G01X15737Y3135D01*
G01X15770Y3108D01*
G01X15802Y3079D01*
G01X15833Y3048D01*
G01X15862Y3016D01*
G01X15889Y2983D01*
G01X15915Y2949D01*
G01X15939Y2913D01*
G01X15961Y2876D01*
G01X15982Y2838D01*
G01X16001Y2799D01*
G01X16018Y2760D01*
G01X16033Y2719D01*
G01X16046Y2678D01*
G01X16057Y2636D01*
G01X16066Y2594D01*
G01X16073Y2551D01*
G01X16078Y2509D01*
G01X16082Y2466D01*
G01X16083Y2422D01*
G01X16083Y1524D01*
G01X16082Y1481D01*
G01X16078Y1437D01*
G01X16073Y1395D01*
G01X16066Y1352D01*
G01X16057Y1310D01*
G01X16046Y1268D01*
G01X16033Y1227D01*
G01X16018Y1186D01*
G01X16001Y1147D01*
G01X15982Y1108D01*
G01X15961Y1070D01*
G01X15939Y1034D01*
G01X15915Y998D01*
G01X15889Y963D01*
G01X15862Y930D01*
G01X15833Y898D01*
G01X15802Y867D01*
G01X15770Y838D01*
G01X15737Y811D01*
G01X15702Y785D01*
G01X15666Y761D01*
G01X15629Y738D01*
G01X15592Y718D01*
G01X15553Y699D01*
G01X15513Y682D01*
G01X15473Y667D01*
G01X15432Y654D01*
G01X15390Y642D01*
G01X15348Y633D01*
G01X15305Y626D01*
G01X15263Y621D01*
G01X15219Y618D01*
G01X15176Y617D01*
G01X15132Y618D01*
G01X15087Y622D01*
G01X15043Y627D01*
G01X14999Y635D01*
G01X14956Y644D01*
G01X14913Y656D01*
G01X14870Y670D01*
G01X14829Y686D01*
G01X14788Y704D01*
G01X14748Y725D01*
G01X14709Y747D01*
G01X14672Y770D01*
G01X14635Y796D01*
G01X14600Y824D01*
G01X14567Y853D01*
G01X14534Y884D01*
G01X14504Y916D01*
G01X14475Y950D01*
G01X14447Y985D01*
G01X14422Y1021D01*
G01X14398Y1059D01*
G01X14389Y1071D01*
G01X14379Y1082D01*
G01X14367Y1091D01*
G01X14354Y1099D01*
G01X14340Y1104D01*
G01X14325Y1107D01*
G01X14311Y1108D01*
G01X14296Y1107D01*
G01X14282Y1104D01*
G01X14268Y1099D01*
G01X14256Y1092D01*
G01X14244Y1084D01*
G01X14234Y1073D01*
G01X14225Y1062D01*
G01X14218Y1049D01*
G01X14213Y1036D01*
G01X14210Y1021D01*
G01X14209Y1007D01*
G01X14209Y546D01*
G01X14208Y522D01*
G01X14204Y499D01*
G01X14199Y476D01*
G01X14192Y453D01*
G01X14182Y432D01*
G01X14171Y411D01*
G01X14163Y394D01*
G01X14157Y377D01*
G01X14156Y358D01*
G01X14157Y344D01*
G01X14160Y329D01*
G01X14165Y316D01*
G01X14172Y303D01*
G01X14181Y291D01*
G01X14191Y281D01*
G01X14202Y273D01*
G01X14215Y265D01*
G01X14229Y260D01*
G01X14243Y257D01*
G01X14257Y256D01*
G01X38135Y256D01*
G01X38204Y258D01*
G01X38273Y262D01*
G01X38342Y269D01*
G01X38410Y277D01*
G01X38478Y288D01*
G01X38546Y300D01*
G01X38613Y315D01*
G01X38680Y331D01*
G01X38747Y350D01*
G01X38812Y370D01*
G01X38878Y392D01*
G01X38943Y417D01*
G01X39006Y444D01*
G01X39069Y472D01*
G01X39131Y502D01*
G01X39192Y534D01*
G01X39252Y568D01*
G01X39311Y604D01*
G01X39369Y641D01*
G01X39426Y680D01*
G01X39481Y721D01*
G01X39535Y764D01*
G01X39588Y808D01*
G01X39640Y854D01*
G01X39690Y901D01*
G01X39739Y950D01*
G01X39786Y1000D01*
G01X39832Y1051D01*
G01X39876Y1105D01*
G01X39918Y1159D01*
G01X39960Y1214D01*
G01X39999Y1271D01*
G01X40036Y1329D01*
G01X40072Y1388D01*
G01X40106Y1448D01*
G01X40138Y1509D01*
G01X40168Y1571D01*
G01X40196Y1634D01*
G01X40223Y1697D01*
G01X40247Y1762D01*
G01X40269Y1828D01*
G01X40290Y1893D01*
G01X40309Y1960D01*
G01X40325Y2027D01*
G01X40340Y2094D01*
G01X40352Y2162D01*
G01X40362Y2230D01*
G01X40371Y2298D01*
G01X40377Y2367D01*
G01X40381Y2436D01*
G01X40383Y2505D01*
G01X40383Y38135D01*
G01X40381Y38204D01*
G01X40377Y38274D01*
G01X40371Y38343D01*
G01X40362Y38412D01*
G01X40352Y38480D01*
G01X40339Y38549D01*
G01X40324Y38616D01*
G01X40308Y38684D01*
G01X40289Y38751D01*
G01X40268Y38817D01*
G01X40245Y38883D01*
G01X40220Y38947D01*
G01X40194Y39012D01*
G01X40165Y39075D01*
G01X40134Y39137D01*
G01X40102Y39198D01*
G01X40068Y39259D01*
G01X40032Y39318D01*
G01X39994Y39376D01*
G01X39954Y39433D01*
G01X39913Y39489D01*
G01X39870Y39543D01*
G01X39825Y39596D01*
G01X39779Y39648D01*
G01X39731Y39698D01*
G01X39682Y39747D01*
G01X39631Y39794D01*
G01X39579Y39840D01*
G01X39525Y39884D01*
G01X39470Y39927D01*
G01X39414Y39968D01*
G01X39357Y40007D01*
G01X39298Y40044D01*
G01X39238Y40079D01*
G01X39178Y40113D01*
G01X39116Y40145D01*
G01X39053Y40175D01*
G01X38990Y40203D01*
G01X38925Y40229D01*
G01X38860Y40253D01*
G01X38795Y40275D01*
G01X38728Y40295D01*
G01X38661Y40314D01*
G01X38594Y40329D01*
G01X38525Y40344D01*
G01X38457Y40355D01*
G01X38389Y40365D01*
G01X38320Y40373D01*
G01X38251Y40379D01*
G01X38181Y40382D01*
G01X38112Y40383D01*
G37*

%LPC*%
G36*
G01X2591Y3811D02*
G01X2540Y3812D01*
G01X2488Y3811D01*
G01X2437Y3808D01*
G01X2386Y3803D01*
G01X2336Y3796D01*
G01X2285Y3786D01*
G01X2235Y3775D01*
G01X2186Y3762D01*
G01X2137Y3747D01*
G01X2041Y3711D01*
G01X1994Y3689D01*
G01X1948Y3666D01*
G01X1904Y3642D01*
G01X1860Y3615D01*
G01X1817Y3587D01*
G01X1775Y3557D01*
G01X1735Y3525D01*
G01X1696Y3492D01*
G01X1658Y3458D01*
G01X1622Y3421D01*
G01X1587Y3384D01*
G01X1554Y3344D01*
G01X1522Y3304D01*
G01X1492Y3263D01*
G01X1464Y3220D01*
G01X1438Y3176D01*
G01X1413Y3131D01*
G01X1390Y3085D01*
G01X1369Y3039D01*
G01X1350Y2991D01*
G01X1333Y2943D01*
G01X1318Y2894D01*
G01X1304Y2844D01*
G01X1293Y2794D01*
G01X1283Y2744D01*
G01X1276Y2693D01*
G01X1271Y2642D01*
G01X1268Y2591D01*
G01X1267Y2540D01*
G01X1268Y2488D01*
G01X1271Y2437D01*
G01X1276Y2386D01*
G01X1283Y2336D01*
G01X1293Y2285D01*
G01X1304Y2235D01*
G01X1318Y2186D01*
G01X1333Y2137D01*
G01X1350Y2089D01*
G01X1369Y2041D01*
G01X1390Y1994D01*
G01X1413Y1948D01*
G01X1438Y1903D01*
G01X1464Y1860D01*
G01X1492Y1817D01*
G01X1522Y1775D01*
G01X1554Y1735D01*
G01X1587Y1696D01*
G01X1622Y1658D01*
G01X1658Y1622D01*
G01X1696Y1587D01*
G01X1735Y1554D01*
G01X1775Y1522D01*
G01X1817Y1492D01*
G01X1860Y1464D01*
G01X1904Y1438D01*
G01X1948Y1413D01*
G01X1994Y1390D01*
G01X2041Y1369D01*
G01X2089Y1350D01*
G01X2137Y1333D01*
G01X2186Y1318D01*
G01X2235Y1304D01*
G01X2285Y1293D01*
G01X2336Y1283D01*
G01X2386Y1276D01*
G01X2437Y1271D01*
G01X2488Y1268D01*
G01X2540Y1267D01*
G01X2591Y1268D01*
G01X2642Y1271D01*
G01X2693Y1276D01*
G01X2744Y1283D01*
G01X2794Y1293D01*
G01X2844Y1304D01*
G01X2894Y1318D01*
G01X2943Y1333D01*
G01X2991Y1350D01*
G01X3039Y1369D01*
G01X3085Y1390D01*
G01X3131Y1413D01*
G01X3176Y1438D01*
G01X3220Y1464D01*
G01X3263Y1492D01*
G01X3304Y1522D01*
G01X3344Y1554D01*
G01X3384Y1587D01*
G01X3421Y1622D01*
G01X3458Y1658D01*
G01X3492Y1696D01*
G01X3525Y1735D01*
G01X3557Y1775D01*
G01X3587Y1817D01*
G01X3615Y1860D01*
G01X3642Y1903D01*
G01X3666Y1948D01*
G01X3689Y1994D01*
G01X3711Y2041D01*
G01X3747Y2137D01*
G01X3762Y2186D01*
G01X3775Y2235D01*
G01X3786Y2285D01*
G01X3796Y2336D01*
G01X3803Y2386D01*
G01X3808Y2437D01*
G01X3811Y2488D01*
G01X3812Y2540D01*
G01X3811Y2591D01*
G01X3808Y2642D01*
G01X3803Y2693D01*
G01X3796Y2744D01*
G01X3786Y2794D01*
G01X3775Y2844D01*
G01X3762Y2894D01*
G01X3747Y2943D01*
G01X3711Y3039D01*
G01X3689Y3085D01*
G01X3666Y3131D01*
G01X3642Y3176D01*
G01X3615Y3220D01*
G01X3587Y3263D01*
G01X3557Y3304D01*
G01X3525Y3344D01*
G01X3492Y3384D01*
G01X3458Y3421D01*
G01X3421Y3458D01*
G01X3384Y3492D01*
G01X3344Y3525D01*
G01X3304Y3557D01*
G01X3263Y3587D01*
G01X3220Y3615D01*
G01X3176Y3642D01*
G01X3131Y3666D01*
G01X3085Y3689D01*
G01X3039Y3711D01*
G01X2943Y3747D01*
G01X2894Y3762D01*
G01X2844Y3775D01*
G01X2794Y3786D01*
G01X2744Y3796D01*
G01X2693Y3803D01*
G01X2642Y3808D01*
G01X2591Y3811D01*
G37*
G36*
G01X38151Y3811D02*
G01X38100Y3812D01*
G01X38048Y3811D01*
G01X37997Y3808D01*
G01X37946Y3803D01*
G01X37896Y3796D01*
G01X37845Y3786D01*
G01X37795Y3775D01*
G01X37746Y3762D01*
G01X37697Y3747D01*
G01X37601Y3711D01*
G01X37554Y3689D01*
G01X37508Y3666D01*
G01X37464Y3642D01*
G01X37420Y3615D01*
G01X37377Y3587D01*
G01X37335Y3557D01*
G01X37295Y3525D01*
G01X37256Y3492D01*
G01X37218Y3458D01*
G01X37182Y3421D01*
G01X37147Y3384D01*
G01X37114Y3344D01*
G01X37082Y3304D01*
G01X37052Y3263D01*
G01X37024Y3220D01*
G01X36998Y3176D01*
G01X36973Y3131D01*
G01X36950Y3085D01*
G01X36929Y3039D01*
G01X36910Y2991D01*
G01X36893Y2943D01*
G01X36878Y2894D01*
G01X36864Y2844D01*
G01X36853Y2794D01*
G01X36843Y2744D01*
G01X36836Y2693D01*
G01X36831Y2642D01*
G01X36828Y2591D01*
G01X36827Y2540D01*
G01X36828Y2488D01*
G01X36831Y2437D01*
G01X36836Y2386D01*
G01X36843Y2336D01*
G01X36853Y2285D01*
G01X36864Y2235D01*
G01X36878Y2186D01*
G01X36893Y2137D01*
G01X36910Y2089D01*
G01X36929Y2041D01*
G01X36950Y1994D01*
G01X36973Y1948D01*
G01X36998Y1903D01*
G01X37024Y1860D01*
G01X37052Y1817D01*
G01X37082Y1775D01*
G01X37114Y1735D01*
G01X37147Y1696D01*
G01X37182Y1658D01*
G01X37218Y1622D01*
G01X37256Y1587D01*
G01X37295Y1554D01*
G01X37335Y1522D01*
G01X37377Y1492D01*
G01X37420Y1464D01*
G01X37464Y1438D01*
G01X37508Y1413D01*
G01X37554Y1390D01*
G01X37601Y1369D01*
G01X37649Y1350D01*
G01X37697Y1333D01*
G01X37746Y1318D01*
G01X37795Y1304D01*
G01X37845Y1293D01*
G01X37896Y1283D01*
G01X37946Y1276D01*
G01X37997Y1271D01*
G01X38048Y1268D01*
G01X38100Y1267D01*
G01X38151Y1268D01*
G01X38202Y1271D01*
G01X38253Y1276D01*
G01X38304Y1283D01*
G01X38354Y1293D01*
G01X38404Y1304D01*
G01X38454Y1318D01*
G01X38503Y1333D01*
G01X38551Y1350D01*
G01X38599Y1369D01*
G01X38645Y1390D01*
G01X38691Y1413D01*
G01X38736Y1438D01*
G01X38780Y1464D01*
G01X38823Y1492D01*
G01X38864Y1522D01*
G01X38904Y1554D01*
G01X38944Y1587D01*
G01X38981Y1622D01*
G01X39018Y1658D01*
G01X39052Y1696D01*
G01X39085Y1735D01*
G01X39117Y1775D01*
G01X39147Y1817D01*
G01X39175Y1860D01*
G01X39202Y1903D01*
G01X39226Y1948D01*
G01X39249Y1994D01*
G01X39271Y2041D01*
G01X39307Y2137D01*
G01X39322Y2186D01*
G01X39335Y2235D01*
G01X39346Y2285D01*
G01X39356Y2336D01*
G01X39363Y2386D01*
G01X39368Y2437D01*
G01X39371Y2488D01*
G01X39372Y2540D01*
G01X39371Y2591D01*
G01X39368Y2642D01*
G01X39363Y2693D01*
G01X39356Y2744D01*
G01X39346Y2794D01*
G01X39335Y2844D01*
G01X39322Y2894D01*
G01X39307Y2943D01*
G01X39271Y3039D01*
G01X39249Y3085D01*
G01X39226Y3131D01*
G01X39202Y3176D01*
G01X39175Y3220D01*
G01X39147Y3263D01*
G01X39117Y3304D01*
G01X39085Y3344D01*
G01X39052Y3384D01*
G01X39018Y3421D01*
G01X38981Y3458D01*
G01X38944Y3492D01*
G01X38904Y3525D01*
G01X38864Y3557D01*
G01X38823Y3587D01*
G01X38780Y3615D01*
G01X38736Y3642D01*
G01X38691Y3666D01*
G01X38645Y3689D01*
G01X38599Y3711D01*
G01X38503Y3747D01*
G01X38454Y3762D01*
G01X38404Y3775D01*
G01X38354Y3786D01*
G01X38304Y3796D01*
G01X38253Y3803D01*
G01X38202Y3808D01*
G01X38151Y3811D01*
G37*
G36*
G01X37227Y22909D02*
G01X35829Y22909D01*
G01X35794Y22907D01*
G01X35759Y22904D01*
G01X35724Y22898D01*
G01X35690Y22891D01*
G01X35656Y22881D01*
G01X35623Y22869D01*
G01X35591Y22855D01*
G01X35560Y22839D01*
G01X35530Y22821D01*
G01X35501Y22801D01*
G01X35473Y22780D01*
G01X35447Y22757D01*
G01X35423Y22732D01*
G01X35399Y22706D01*
G01X35378Y22678D01*
G01X35358Y22649D01*
G01X35340Y22618D01*
G01X35325Y22587D01*
G01X35311Y22555D01*
G01X35299Y22522D01*
G01X35293Y22507D01*
G01X35284Y22493D01*
G01X35274Y22481D01*
G01X34145Y21353D01*
G01X34125Y21331D01*
G01X34106Y21307D01*
G01X34090Y21282D01*
G01X34075Y21256D01*
G01X34062Y21229D01*
G01X34052Y21200D01*
G01X34044Y21171D01*
G01X34038Y21142D01*
G01X34034Y21112D01*
G01X34033Y21082D01*
G01X34033Y19431D01*
G01X34034Y19401D01*
G01X34038Y19371D01*
G01X34044Y19341D01*
G01X34052Y19312D01*
G01X34062Y19284D01*
G01X34075Y19257D01*
G01X34090Y19231D01*
G01X34106Y19205D01*
G01X34125Y19182D01*
G01X34145Y19159D01*
G01X34550Y18755D01*
G01X34561Y18742D01*
G01X34569Y18729D01*
G01X34575Y18714D01*
G01X34579Y18699D01*
G01X34580Y18683D01*
G01X34580Y18674D01*
G01X34579Y18652D01*
G01X34579Y16653D01*
G01X34580Y16629D01*
G01X34583Y16606D01*
G01X34589Y16582D01*
G01X34597Y16560D01*
G01X34606Y16538D01*
G01X34617Y16518D01*
G01X34631Y16498D01*
G01X34646Y16480D01*
G01X34663Y16463D01*
G01X34681Y16448D01*
G01X34701Y16435D01*
G01X34721Y16423D01*
G01X34743Y16414D01*
G01X34765Y16406D01*
G01X34789Y16401D01*
G01X34812Y16397D01*
G01X34835Y16396D01*
G01X36436Y16396D01*
G01X36459Y16397D01*
G01X36483Y16401D01*
G01X36506Y16406D01*
G01X36529Y16414D01*
G01X36550Y16423D01*
G01X36571Y16435D01*
G01X36590Y16448D01*
G01X36609Y16463D01*
G01X36626Y16480D01*
G01X36640Y16498D01*
G01X36654Y16518D01*
G01X36665Y16538D01*
G01X36675Y16560D01*
G01X36682Y16582D01*
G01X36688Y16606D01*
G01X36691Y16629D01*
G01X36692Y16653D01*
G01X36692Y18652D01*
G01X36691Y18676D01*
G01X36688Y18700D01*
G01X36682Y18723D01*
G01X36675Y18745D01*
G01X36665Y18767D01*
G01X36654Y18788D01*
G01X36626Y18826D01*
G01X36609Y18842D01*
G01X36590Y18857D01*
G01X36571Y18871D01*
G01X36550Y18883D01*
G01X36529Y18892D01*
G01X36506Y18899D01*
G01X36483Y18905D01*
G01X36459Y18908D01*
G01X36436Y18909D01*
G01X35523Y18909D01*
G01X35507Y18911D01*
G01X35491Y18914D01*
G01X35476Y18920D01*
G01X35463Y18929D01*
G01X35451Y18939D01*
G01X34830Y19560D01*
G01X34820Y19572D01*
G01X34811Y19586D01*
G01X34805Y19600D01*
G01X34801Y19616D01*
G01X34800Y19632D01*
G01X34800Y20881D01*
G01X34801Y20897D01*
G01X34805Y20912D01*
G01X34811Y20927D01*
G01X34820Y20941D01*
G01X34830Y20953D01*
G01X35103Y21226D01*
G01X35115Y21236D01*
G01X35128Y21244D01*
G01X35143Y21250D01*
G01X35158Y21254D01*
G01X35175Y21255D01*
G01X35189Y21254D01*
G01X35203Y21251D01*
G01X35217Y21246D01*
G01X35230Y21239D01*
G01X35241Y21230D01*
G01X35251Y21220D01*
G01X35260Y21208D01*
G01X35267Y21196D01*
G01X35272Y21182D01*
G01X35275Y21168D01*
G01X35276Y21153D01*
G01X35276Y21142D01*
G01X35272Y21082D01*
G01X35273Y21048D01*
G01X35276Y21015D01*
G01X35281Y20982D01*
G01X35288Y20949D01*
G01X35298Y20916D01*
G01X35308Y20885D01*
G01X35322Y20853D01*
G01X35336Y20823D01*
G01X35352Y20794D01*
G01X35371Y20766D01*
G01X35391Y20738D01*
G01X35412Y20713D01*
G01X35435Y20688D01*
G01X35460Y20665D01*
G01X35486Y20644D01*
G01X35513Y20624D01*
G01X35541Y20605D01*
G01X35570Y20589D01*
G01X35600Y20574D01*
G01X35631Y20562D01*
G01X35663Y20550D01*
G01X35695Y20541D01*
G01X35728Y20534D01*
G01X35762Y20529D01*
G01X35795Y20526D01*
G01X35829Y20525D01*
G01X36516Y20525D01*
G01X36532Y20524D01*
G01X36547Y20520D01*
G01X36561Y20515D01*
G01X36575Y20507D01*
G01X36586Y20498D01*
G01X37050Y20058D01*
G01X37060Y20046D01*
G01X37070Y20032D01*
G01X37076Y20016D01*
G01X37080Y20001D01*
G01X37081Y19984D01*
G01X37081Y8710D01*
G01X37080Y8694D01*
G01X37076Y8678D01*
G01X37070Y8664D01*
G01X37062Y8650D01*
G01X37051Y8638D01*
G01X34669Y6255D01*
G01X34657Y6245D01*
G01X34643Y6236D01*
G01X34628Y6230D01*
G01X34613Y6226D01*
G01X34597Y6225D01*
G01X34304Y6225D01*
G01X34290Y6226D01*
G01X34276Y6229D01*
G01X34262Y6234D01*
G01X34238Y6250D01*
G01X34228Y6260D01*
G01X34219Y6272D01*
G01X34212Y6285D01*
G01X34207Y6298D01*
G01X34204Y6313D01*
G01X34203Y6327D01*
G01X34204Y6344D01*
G01X34208Y6359D01*
G01X34215Y6375D01*
G01X34224Y6389D01*
G01X34235Y6401D01*
G01X34248Y6411D01*
G01X34279Y6434D01*
G01X34307Y6459D01*
G01X36720Y8872D01*
G01X36740Y8895D01*
G01X36759Y8918D01*
G01X36776Y8944D01*
G01X36791Y8970D01*
G01X36803Y8997D01*
G01X36813Y9025D01*
G01X36822Y9054D01*
G01X36828Y9084D01*
G01X36831Y9114D01*
G01X36832Y9144D01*
G01X36832Y14351D01*
G01X36831Y14381D01*
G01X36828Y14411D01*
G01X36822Y14440D01*
G01X36813Y14469D01*
G01X36803Y14498D01*
G01X36791Y14525D01*
G01X36776Y14551D01*
G01X36759Y14576D01*
G01X36740Y14600D01*
G01X36720Y14622D01*
G01X35450Y15892D01*
G01X35428Y15912D01*
G01X35404Y15931D01*
G01X35379Y15948D01*
G01X35353Y15963D01*
G01X35326Y15975D01*
G01X35297Y15985D01*
G01X35268Y15994D01*
G01X35239Y16000D01*
G01X35209Y16003D01*
G01X35179Y16004D01*
G01X34618Y16004D01*
G01X34602Y16005D01*
G01X34586Y16009D01*
G01X34572Y16015D01*
G01X34558Y16024D01*
G01X34546Y16034D01*
G01X33522Y17058D01*
G01X33512Y17070D01*
G01X33503Y17083D01*
G01X33497Y17098D01*
G01X33494Y17114D01*
G01X33493Y17130D01*
G01X33493Y18652D01*
G01X33491Y18676D01*
G01X33488Y18700D01*
G01X33483Y18723D01*
G01X33475Y18745D01*
G01X33466Y18767D01*
G01X33454Y18788D01*
G01X33441Y18807D01*
G01X33426Y18826D01*
G01X33409Y18842D01*
G01X33391Y18857D01*
G01X33371Y18871D01*
G01X33350Y18883D01*
G01X33329Y18892D01*
G01X33306Y18899D01*
G01X33283Y18905D01*
G01X33260Y18908D01*
G01X33236Y18909D01*
G01X31636Y18909D01*
G01X31612Y18908D01*
G01X31589Y18905D01*
G01X31565Y18899D01*
G01X31543Y18892D01*
G01X31522Y18883D01*
G01X31501Y18871D01*
G01X31481Y18857D01*
G01X31463Y18842D01*
G01X31446Y18826D01*
G01X31431Y18807D01*
G01X31418Y18788D01*
G01X31406Y18767D01*
G01X31397Y18745D01*
G01X31389Y18723D01*
G01X31383Y18700D01*
G01X31380Y18676D01*
G01X31379Y18652D01*
G01X31379Y16653D01*
G01X31380Y16629D01*
G01X31383Y16606D01*
G01X31389Y16582D01*
G01X31397Y16560D01*
G01X31406Y16538D01*
G01X31418Y16518D01*
G01X31431Y16498D01*
G01X31446Y16480D01*
G01X31463Y16463D01*
G01X31481Y16448D01*
G01X31501Y16435D01*
G01X31522Y16423D01*
G01X31543Y16414D01*
G01X31565Y16406D01*
G01X31589Y16401D01*
G01X31612Y16397D01*
G01X31636Y16396D01*
G01X33057Y16396D01*
G01X33073Y16395D01*
G01X33088Y16391D01*
G01X33103Y16385D01*
G01X33116Y16377D01*
G01X33128Y16366D01*
G01X34145Y15349D01*
G01X34168Y15329D01*
G01X34191Y15310D01*
G01X34217Y15294D01*
G01X34243Y15279D01*
G01X34270Y15266D01*
G01X34298Y15256D01*
G01X34327Y15248D01*
G01X34357Y15242D01*
G01X34387Y15238D01*
G01X34417Y15237D01*
G01X34978Y15237D01*
G01X34994Y15236D01*
G01X35009Y15232D01*
G01X35024Y15226D01*
G01X35038Y15218D01*
G01X35050Y15207D01*
G01X36035Y14222D01*
G01X36046Y14210D01*
G01X36054Y14196D01*
G01X36060Y14181D01*
G01X36064Y14166D01*
G01X36065Y14150D01*
G01X36065Y9345D01*
G01X36064Y9329D01*
G01X36060Y9313D01*
G01X36054Y9299D01*
G01X36046Y9285D01*
G01X36035Y9273D01*
G01X33907Y7144D01*
G01X33895Y7134D01*
G01X33881Y7125D01*
G01X33866Y7119D01*
G01X33851Y7115D01*
G01X33835Y7114D01*
G01X24511Y7114D01*
G01X24481Y7113D01*
G01X24451Y7110D01*
G01X24421Y7104D01*
G01X24392Y7095D01*
G01X24364Y7085D01*
G01X24337Y7073D01*
G01X24311Y7058D01*
G01X24285Y7041D01*
G01X24262Y7022D01*
G01X24239Y7002D01*
G01X22587Y5350D01*
G01X22575Y5339D01*
G01X22561Y5331D01*
G01X22546Y5325D01*
G01X22531Y5321D01*
G01X22515Y5320D01*
G01X22498Y5321D01*
G01X22480Y5326D01*
G01X22465Y5333D01*
G01X22411Y5363D01*
G01X22356Y5390D01*
G01X22301Y5416D01*
G01X22245Y5439D01*
G01X22188Y5461D01*
G01X22130Y5481D01*
G01X22072Y5499D01*
G01X22013Y5515D01*
G01X21953Y5528D01*
G01X21894Y5540D01*
G01X21833Y5549D01*
G01X21773Y5557D01*
G01X21712Y5562D01*
G01X21651Y5565D01*
G01X21590Y5566D01*
G01X21530Y5565D01*
G01X21470Y5562D01*
G01X21410Y5557D01*
G01X21350Y5550D01*
G01X21291Y5541D01*
G01X21232Y5529D01*
G01X21174Y5516D01*
G01X21116Y5501D01*
G01X21058Y5484D01*
G01X21001Y5465D01*
G01X20946Y5444D01*
G01X20890Y5421D01*
G01X20835Y5396D01*
G01X20782Y5369D01*
G01X20729Y5341D01*
G01X20677Y5310D01*
G01X20627Y5278D01*
G01X20577Y5245D01*
G01X20529Y5209D01*
G01X20481Y5172D01*
G01X20436Y5134D01*
G01X20391Y5093D01*
G01X20348Y5052D01*
G01X20306Y5009D01*
G01X20266Y4964D01*
G01X20227Y4918D01*
G01X20190Y4871D01*
G01X20155Y4823D01*
G01X20121Y4773D01*
G01X20089Y4723D01*
G01X20059Y4671D01*
G01X20030Y4618D01*
G01X20003Y4564D01*
G01X19979Y4510D01*
G01X19956Y4454D01*
G01X19935Y4398D01*
G01X19915Y4341D01*
G01X19898Y4284D01*
G01X19883Y4226D01*
G01X19870Y4167D01*
G01X19859Y4108D01*
G01X19849Y4049D01*
G01X19842Y3990D01*
G01X19837Y3930D01*
G01X19834Y3870D01*
G01X19833Y3810D01*
G01X19834Y3750D01*
G01X19837Y3690D01*
G01X19842Y3630D01*
G01X19849Y3570D01*
G01X19859Y3511D01*
G01X19870Y3452D01*
G01X19883Y3394D01*
G01X19898Y3336D01*
G01X19915Y3278D01*
G01X19935Y3221D01*
G01X19956Y3166D01*
G01X19979Y3110D01*
G01X20003Y3055D01*
G01X20030Y3002D01*
G01X20059Y2949D01*
G01X20089Y2897D01*
G01X20121Y2847D01*
G01X20155Y2797D01*
G01X20190Y2749D01*
G01X20227Y2701D01*
G01X20266Y2656D01*
G01X20306Y2611D01*
G01X20348Y2568D01*
G01X20391Y2526D01*
G01X20436Y2486D01*
G01X20481Y2447D01*
G01X20529Y2410D01*
G01X20577Y2375D01*
G01X20627Y2341D01*
G01X20677Y2309D01*
G01X20729Y2279D01*
G01X20782Y2250D01*
G01X20835Y2223D01*
G01X20890Y2199D01*
G01X20946Y2176D01*
G01X21001Y2155D01*
G01X21058Y2135D01*
G01X21116Y2118D01*
G01X21174Y2103D01*
G01X21232Y2090D01*
G01X21291Y2079D01*
G01X21350Y2069D01*
G01X21410Y2062D01*
G01X21470Y2057D01*
G01X21530Y2054D01*
G01X21590Y2053D01*
G01X21650Y2054D01*
G01X21710Y2057D01*
G01X21770Y2062D01*
G01X21829Y2069D01*
G01X21888Y2079D01*
G01X21947Y2090D01*
G01X22006Y2103D01*
G01X22064Y2118D01*
G01X22121Y2135D01*
G01X22178Y2155D01*
G01X22234Y2176D01*
G01X22290Y2199D01*
G01X22344Y2223D01*
G01X22398Y2250D01*
G01X22451Y2279D01*
G01X22503Y2309D01*
G01X22553Y2341D01*
G01X22603Y2375D01*
G01X22651Y2410D01*
G01X22698Y2447D01*
G01X22744Y2486D01*
G01X22789Y2526D01*
G01X22832Y2568D01*
G01X22873Y2611D01*
G01X22914Y2656D01*
G01X22952Y2701D01*
G01X22989Y2749D01*
G01X23025Y2797D01*
G01X23058Y2847D01*
G01X23090Y2897D01*
G01X23121Y2949D01*
G01X23149Y3002D01*
G01X23176Y3055D01*
G01X23201Y3110D01*
G01X23224Y3166D01*
G01X23245Y3221D01*
G01X23264Y3278D01*
G01X23281Y3336D01*
G01X23296Y3394D01*
G01X23309Y3452D01*
G01X23321Y3511D01*
G01X23330Y3570D01*
G01X23337Y3630D01*
G01X23342Y3690D01*
G01X23345Y3750D01*
G01X23346Y3810D01*
G01X23345Y3871D01*
G01X23342Y3932D01*
G01X23337Y3993D01*
G01X23329Y4053D01*
G01X23320Y4114D01*
G01X23308Y4173D01*
G01X23295Y4233D01*
G01X23279Y4292D01*
G01X23261Y4350D01*
G01X23241Y4408D01*
G01X23219Y4465D01*
G01X23196Y4521D01*
G01X23170Y4576D01*
G01X23143Y4631D01*
G01X23113Y4685D01*
G01X23106Y4700D01*
G01X23101Y4718D01*
G01X23100Y4735D01*
G01X23101Y4751D01*
G01X23105Y4766D01*
G01X23111Y4781D01*
G01X23119Y4795D01*
G01X23130Y4807D01*
G01X24640Y6317D01*
G01X24652Y6328D01*
G01X24666Y6336D01*
G01X24680Y6342D01*
G01X24696Y6346D01*
G01X24712Y6347D01*
G01X28052Y6347D01*
G01X28066Y6346D01*
G01X28080Y6343D01*
G01X28094Y6338D01*
G01X28107Y6331D01*
G01X28119Y6322D01*
G01X28129Y6312D01*
G01X28137Y6300D01*
G01X28144Y6288D01*
G01X28150Y6274D01*
G01X28153Y6260D01*
G01X28154Y6246D01*
G01X28152Y6229D01*
G01X28148Y6213D01*
G01X28141Y6198D01*
G01X28132Y6184D01*
G01X28121Y6171D01*
G01X28108Y6161D01*
G01X28078Y6138D01*
G01X28050Y6114D01*
G01X27384Y5449D01*
G01X27372Y5439D01*
G01X27358Y5431D01*
G01X27343Y5425D01*
G01X27328Y5421D01*
G01X27312Y5420D01*
G01X27292Y5422D01*
G01X27273Y5428D01*
G01X27213Y5452D01*
G01X27153Y5473D01*
G01X27092Y5492D01*
G01X27031Y5510D01*
G01X26969Y5525D01*
G01X26906Y5537D01*
G01X26843Y5548D01*
G01X26780Y5556D01*
G01X26716Y5562D01*
G01X26652Y5565D01*
G01X26588Y5566D01*
G01X26529Y5565D01*
G01X26469Y5562D01*
G01X26409Y5557D01*
G01X26349Y5550D01*
G01X26290Y5541D01*
G01X26231Y5529D01*
G01X26172Y5516D01*
G01X26115Y5501D01*
G01X26057Y5484D01*
G01X26000Y5465D01*
G01X25944Y5444D01*
G01X25888Y5421D01*
G01X25834Y5396D01*
G01X25780Y5369D01*
G01X25727Y5341D01*
G01X25676Y5310D01*
G01X25625Y5278D01*
G01X25576Y5245D01*
G01X25527Y5209D01*
G01X25480Y5172D01*
G01X25434Y5134D01*
G01X25346Y5052D01*
G01X25305Y5009D01*
G01X25265Y4964D01*
G01X25226Y4918D01*
G01X25189Y4871D01*
G01X25153Y4823D01*
G01X25120Y4773D01*
G01X25088Y4723D01*
G01X25057Y4671D01*
G01X25029Y4618D01*
G01X25002Y4564D01*
G01X24978Y4510D01*
G01X24954Y4454D01*
G01X24933Y4398D01*
G01X24914Y4341D01*
G01X24897Y4284D01*
G01X24882Y4226D01*
G01X24869Y4167D01*
G01X24858Y4108D01*
G01X24848Y4049D01*
G01X24841Y3990D01*
G01X24836Y3930D01*
G01X24833Y3870D01*
G01X24832Y3810D01*
G01X24833Y3750D01*
G01X24836Y3690D01*
G01X24841Y3630D01*
G01X24848Y3570D01*
G01X24858Y3511D01*
G01X24869Y3452D01*
G01X24882Y3394D01*
G01X24897Y3336D01*
G01X24914Y3278D01*
G01X24933Y3221D01*
G01X24954Y3166D01*
G01X24978Y3110D01*
G01X25002Y3055D01*
G01X25029Y3002D01*
G01X25057Y2949D01*
G01X25088Y2897D01*
G01X25120Y2847D01*
G01X25153Y2797D01*
G01X25189Y2749D01*
G01X25226Y2701D01*
G01X25265Y2656D01*
G01X25305Y2611D01*
G01X25346Y2568D01*
G01X25390Y2526D01*
G01X25434Y2486D01*
G01X25480Y2447D01*
G01X25527Y2410D01*
G01X25576Y2375D01*
G01X25625Y2341D01*
G01X25676Y2309D01*
G01X25727Y2279D01*
G01X25780Y2250D01*
G01X25834Y2223D01*
G01X25888Y2199D01*
G01X25944Y2176D01*
G01X26000Y2155D01*
G01X26057Y2135D01*
G01X26115Y2118D01*
G01X26172Y2103D01*
G01X26231Y2090D01*
G01X26290Y2079D01*
G01X26349Y2069D01*
G01X26409Y2062D01*
G01X26469Y2057D01*
G01X26529Y2054D01*
G01X26588Y2053D01*
G01X26648Y2054D01*
G01X26708Y2057D01*
G01X26768Y2062D01*
G01X26828Y2069D01*
G01X26887Y2079D01*
G01X26946Y2090D01*
G01X27005Y2103D01*
G01X27062Y2118D01*
G01X27120Y2135D01*
G01X27177Y2155D01*
G01X27233Y2176D01*
G01X27288Y2199D01*
G01X27343Y2223D01*
G01X27397Y2250D01*
G01X27450Y2279D01*
G01X27501Y2309D01*
G01X27552Y2341D01*
G01X27601Y2375D01*
G01X27650Y2410D01*
G01X27697Y2447D01*
G01X27743Y2486D01*
G01X27787Y2526D01*
G01X27831Y2568D01*
G01X27872Y2611D01*
G01X27912Y2656D01*
G01X27951Y2701D01*
G01X27988Y2749D01*
G01X28024Y2797D01*
G01X28057Y2847D01*
G01X28089Y2897D01*
G01X28120Y2949D01*
G01X28148Y3002D01*
G01X28175Y3055D01*
G01X28199Y3110D01*
G01X28223Y3166D01*
G01X28244Y3221D01*
G01X28263Y3278D01*
G01X28280Y3336D01*
G01X28295Y3394D01*
G01X28308Y3452D01*
G01X28319Y3511D01*
G01X28329Y3570D01*
G01X28336Y3630D01*
G01X28341Y3690D01*
G01X28344Y3750D01*
G01X28345Y3810D01*
G01X28344Y3872D01*
G01X28341Y3934D01*
G01X28335Y3996D01*
G01X28327Y4058D01*
G01X28318Y4120D01*
G01X28306Y4181D01*
G01X28291Y4242D01*
G01X28275Y4301D01*
G01X28256Y4361D01*
G01X28235Y4420D01*
G01X28213Y4478D01*
G01X28188Y4535D01*
G01X28162Y4592D01*
G01X28133Y4646D01*
G01X28102Y4701D01*
G01X28070Y4754D01*
G01X28035Y4806D01*
G01X27999Y4857D01*
G01X27991Y4870D01*
G01X27984Y4885D01*
G01X27980Y4901D01*
G01X27979Y4917D01*
G01X27980Y4933D01*
G01X27984Y4949D01*
G01X27990Y4963D01*
G01X27999Y4977D01*
G01X28009Y4989D01*
G01X28450Y5429D01*
G01X28461Y5439D01*
G01X28475Y5447D01*
G01X28490Y5453D01*
G01X28506Y5457D01*
G01X28521Y5458D01*
G01X30720Y5458D01*
G01X30735Y5457D01*
G01X30749Y5454D01*
G01X30762Y5449D01*
G01X30775Y5442D01*
G01X30787Y5433D01*
G01X30797Y5423D01*
G01X30806Y5411D01*
G01X30812Y5399D01*
G01X30818Y5385D01*
G01X30821Y5371D01*
G01X30822Y5357D01*
G01X30821Y5340D01*
G01X30817Y5324D01*
G01X30810Y5309D01*
G01X30801Y5295D01*
G01X30790Y5282D01*
G01X30776Y5272D01*
G01X30726Y5237D01*
G01X30676Y5200D01*
G01X30628Y5162D01*
G01X30581Y5121D01*
G01X30536Y5079D01*
G01X30492Y5036D01*
G01X30450Y4991D01*
G01X30409Y4945D01*
G01X30370Y4897D01*
G01X30333Y4848D01*
G01X30297Y4797D01*
G01X30263Y4746D01*
G01X30231Y4693D01*
G01X30201Y4639D01*
G01X30173Y4584D01*
G01X30147Y4529D01*
G01X30123Y4472D01*
G01X30100Y4414D01*
G01X30080Y4356D01*
G01X30062Y4297D01*
G01X30046Y4237D01*
G01X30032Y4177D01*
G01X30020Y4117D01*
G01X30010Y4056D01*
G01X30003Y3995D01*
G01X29998Y3933D01*
G01X29994Y3871D01*
G01X29993Y3810D01*
G01X29994Y3750D01*
G01X29997Y3690D01*
G01X30002Y3630D01*
G01X30009Y3570D01*
G01X30019Y3511D01*
G01X30030Y3452D01*
G01X30043Y3394D01*
G01X30058Y3336D01*
G01X30075Y3278D01*
G01X30095Y3221D01*
G01X30116Y3166D01*
G01X30139Y3110D01*
G01X30163Y3055D01*
G01X30190Y3002D01*
G01X30219Y2949D01*
G01X30249Y2897D01*
G01X30281Y2847D01*
G01X30315Y2797D01*
G01X30350Y2749D01*
G01X30387Y2701D01*
G01X30426Y2656D01*
G01X30466Y2611D01*
G01X30508Y2568D01*
G01X30551Y2526D01*
G01X30596Y2486D01*
G01X30641Y2447D01*
G01X30689Y2410D01*
G01X30737Y2375D01*
G01X30787Y2341D01*
G01X30837Y2309D01*
G01X30889Y2279D01*
G01X30942Y2250D01*
G01X30995Y2223D01*
G01X31050Y2199D01*
G01X31106Y2176D01*
G01X31161Y2155D01*
G01X31218Y2135D01*
G01X31276Y2118D01*
G01X31334Y2103D01*
G01X31392Y2090D01*
G01X31451Y2079D01*
G01X31510Y2069D01*
G01X31570Y2062D01*
G01X31630Y2057D01*
G01X31690Y2054D01*
G01X31750Y2053D01*
G01X31810Y2054D01*
G01X31870Y2057D01*
G01X31930Y2062D01*
G01X31989Y2069D01*
G01X32048Y2079D01*
G01X32107Y2090D01*
G01X32166Y2103D01*
G01X32224Y2118D01*
G01X32281Y2135D01*
G01X32338Y2155D01*
G01X32394Y2176D01*
G01X32450Y2199D01*
G01X32504Y2223D01*
G01X32558Y2250D01*
G01X32611Y2279D01*
G01X32663Y2309D01*
G01X32713Y2341D01*
G01X32763Y2375D01*
G01X32811Y2410D01*
G01X32858Y2447D01*
G01X32904Y2486D01*
G01X32949Y2526D01*
G01X32992Y2568D01*
G01X33033Y2611D01*
G01X33074Y2656D01*
G01X33112Y2701D01*
G01X33149Y2749D01*
G01X33185Y2797D01*
G01X33218Y2847D01*
G01X33250Y2897D01*
G01X33281Y2949D01*
G01X33309Y3002D01*
G01X33336Y3055D01*
G01X33361Y3110D01*
G01X33384Y3166D01*
G01X33405Y3221D01*
G01X33424Y3278D01*
G01X33441Y3336D01*
G01X33456Y3394D01*
G01X33469Y3452D01*
G01X33481Y3511D01*
G01X33490Y3570D01*
G01X33497Y3630D01*
G01X33502Y3690D01*
G01X33505Y3750D01*
G01X33506Y3810D01*
G01X33505Y3871D01*
G01X33502Y3933D01*
G01X33497Y3995D01*
G01X33489Y4056D01*
G01X33479Y4117D01*
G01X33467Y4177D01*
G01X33454Y4237D01*
G01X33437Y4297D01*
G01X33419Y4356D01*
G01X33399Y4414D01*
G01X33377Y4472D01*
G01X33352Y4529D01*
G01X33326Y4584D01*
G01X33298Y4639D01*
G01X33268Y4693D01*
G01X33236Y4746D01*
G01X33202Y4797D01*
G01X33167Y4848D01*
G01X33129Y4897D01*
G01X33090Y4945D01*
G01X33050Y4991D01*
G01X33008Y5036D01*
G01X32963Y5079D01*
G01X32918Y5121D01*
G01X32871Y5162D01*
G01X32823Y5200D01*
G01X32774Y5237D01*
G01X32723Y5272D01*
G01X32710Y5282D01*
G01X32699Y5295D01*
G01X32690Y5309D01*
G01X32683Y5324D01*
G01X32679Y5340D01*
G01X32678Y5357D01*
G01X32679Y5371D01*
G01X32682Y5385D01*
G01X32687Y5399D01*
G01X32694Y5411D01*
G01X32702Y5423D01*
G01X32713Y5433D01*
G01X32724Y5442D01*
G01X32737Y5449D01*
G01X32751Y5454D01*
G01X32765Y5457D01*
G01X32779Y5458D01*
G01X34798Y5458D01*
G01X34828Y5459D01*
G01X34858Y5463D01*
G01X34887Y5469D01*
G01X34916Y5477D01*
G01X34945Y5487D01*
G01X34972Y5500D01*
G01X34998Y5515D01*
G01X35023Y5531D01*
G01X35047Y5550D01*
G01X35069Y5570D01*
G01X37736Y8237D01*
G01X37756Y8260D01*
G01X37775Y8283D01*
G01X37792Y8309D01*
G01X37807Y8335D01*
G01X37819Y8362D01*
G01X37829Y8390D01*
G01X37838Y8419D01*
G01X37844Y8449D01*
G01X37847Y8479D01*
G01X37848Y8509D01*
G01X37848Y20193D01*
G01X37847Y20221D01*
G01X37844Y20249D01*
G01X37839Y20277D01*
G01X37832Y20305D01*
G01X37822Y20331D01*
G01X37811Y20357D01*
G01X37799Y20382D01*
G01X37783Y20406D01*
G01X37767Y20429D01*
G01X37749Y20451D01*
G01X37729Y20471D01*
G01X37637Y20558D01*
G01X37626Y20570D01*
G01X37617Y20584D01*
G01X37611Y20599D01*
G01X37606Y20615D01*
G01X37605Y20632D01*
G01X37606Y20647D01*
G01X37610Y20662D01*
G01X37616Y20676D01*
G01X37623Y20689D01*
G01X37633Y20701D01*
G01X37656Y20727D01*
G01X37677Y20755D01*
G01X37697Y20784D01*
G01X37715Y20814D01*
G01X37730Y20845D01*
G01X37744Y20877D01*
G01X37756Y20910D01*
G01X37766Y20944D01*
G01X37774Y20978D01*
G01X37779Y21012D01*
G01X37782Y21047D01*
G01X37783Y21082D01*
G01X37782Y21116D01*
G01X37779Y21151D01*
G01X37774Y21185D01*
G01X37766Y21218D01*
G01X37757Y21252D01*
G01X37745Y21284D01*
G01X37731Y21316D01*
G01X37716Y21347D01*
G01X37698Y21377D01*
G01X37679Y21406D01*
G01X37658Y21433D01*
G01X37635Y21459D01*
G01X37612Y21484D01*
G01X37586Y21507D01*
G01X37559Y21529D01*
G01X37530Y21548D01*
G01X37501Y21566D01*
G01X37470Y21582D01*
G01X37438Y21596D01*
G01X37406Y21609D01*
G01X37373Y21619D01*
G01X37359Y21624D01*
G01X37346Y21630D01*
G01X37334Y21639D01*
G01X37324Y21649D01*
G01X37315Y21661D01*
G01X37308Y21674D01*
G01X37302Y21688D01*
G01X37299Y21702D01*
G01X37298Y21717D01*
G01X37299Y21731D01*
G01X37302Y21746D01*
G01X37308Y21759D01*
G01X37315Y21773D01*
G01X37324Y21784D01*
G01X37334Y21794D01*
G01X37346Y21803D01*
G01X37359Y21810D01*
G01X37373Y21815D01*
G01X37406Y21825D01*
G01X37438Y21837D01*
G01X37470Y21851D01*
G01X37501Y21867D01*
G01X37530Y21885D01*
G01X37559Y21905D01*
G01X37586Y21927D01*
G01X37612Y21949D01*
G01X37635Y21974D01*
G01X37658Y22000D01*
G01X37679Y22028D01*
G01X37698Y22057D01*
G01X37716Y22087D01*
G01X37731Y22117D01*
G01X37745Y22149D01*
G01X37757Y22182D01*
G01X37766Y22215D01*
G01X37774Y22249D01*
G01X37779Y22283D01*
G01X37782Y22317D01*
G01X37783Y22352D01*
G01X37782Y22385D01*
G01X37779Y22419D01*
G01X37774Y22452D01*
G01X37767Y22485D01*
G01X37758Y22517D01*
G01X37747Y22549D01*
G01X37734Y22580D01*
G01X37719Y22610D01*
G01X37703Y22640D01*
G01X37685Y22668D01*
G01X37665Y22695D01*
G01X37643Y22721D01*
G01X37620Y22745D01*
G01X37596Y22768D01*
G01X37570Y22790D01*
G01X37543Y22810D01*
G01X37515Y22828D01*
G01X37486Y22845D01*
G01X37455Y22859D01*
G01X37424Y22872D01*
G01X37392Y22883D01*
G01X37360Y22892D01*
G01X37327Y22899D01*
G01X37294Y22904D01*
G01X37261Y22908D01*
G01X37227Y22909D01*
G37*
G36*
G01X14031Y5579D02*
G01X13988Y5580D01*
G01X13943Y5579D01*
G01X13899Y5576D01*
G01X13855Y5570D01*
G01X13811Y5562D01*
G01X13768Y5553D01*
G01X13725Y5541D01*
G01X13683Y5527D01*
G01X13642Y5511D01*
G01X13601Y5493D01*
G01X13562Y5473D01*
G01X13523Y5452D01*
G01X13486Y5428D01*
G01X13448Y5402D01*
G01X13412Y5373D01*
G01X13377Y5343D01*
G01X13344Y5312D01*
G01X13312Y5278D01*
G01X13283Y5243D01*
G01X13255Y5207D01*
G01X13229Y5169D01*
G01X13205Y5130D01*
G01X13182Y5090D01*
G01X13163Y5049D01*
G01X13144Y5007D01*
G01X13129Y4963D01*
G01X13122Y4949D01*
G01X13114Y4935D01*
G01X13104Y4923D01*
G01X13092Y4913D01*
G01X13078Y4905D01*
G01X13063Y4899D01*
G01X13048Y4895D01*
G01X13032Y4894D01*
G01X13022Y4894D01*
G01X13022Y4201D01*
G01X13072Y4201D01*
G01X13101Y4203D01*
G01X13129Y4208D01*
G01X13152Y4211D01*
G01X13169Y4209D01*
G01X13184Y4205D01*
G01X13200Y4198D01*
G01X13214Y4190D01*
G01X13226Y4179D01*
G01X13236Y4166D01*
G01X13262Y4130D01*
G01X13290Y4095D01*
G01X13318Y4061D01*
G01X13349Y4030D01*
G01X13381Y3999D01*
G01X13415Y3970D01*
G01X13450Y3943D01*
G01X13486Y3918D01*
G01X13524Y3894D01*
G01X13562Y3873D01*
G01X13602Y3853D01*
G01X13642Y3835D01*
G01X13684Y3819D01*
G01X13726Y3805D01*
G01X13769Y3793D01*
G01X13812Y3784D01*
G01X13855Y3776D01*
G01X13899Y3771D01*
G01X13943Y3768D01*
G01X13988Y3767D01*
G01X14031Y3768D01*
G01X14074Y3771D01*
G01X14117Y3776D01*
G01X14159Y3783D01*
G01X14201Y3792D01*
G01X14243Y3803D01*
G01X14284Y3816D01*
G01X14364Y3848D01*
G01X14403Y3867D01*
G01X14441Y3888D01*
G01X14478Y3910D01*
G01X14513Y3935D01*
G01X14548Y3961D01*
G01X14581Y3988D01*
G01X14613Y4017D01*
G01X14644Y4047D01*
G01X14673Y4080D01*
G01X14700Y4113D01*
G01X14726Y4147D01*
G01X14750Y4183D01*
G01X14772Y4220D01*
G01X14793Y4258D01*
G01X14812Y4296D01*
G01X14829Y4336D01*
G01X14844Y4377D01*
G01X14857Y4418D01*
G01X14868Y4459D01*
G01X14878Y4502D01*
G01X14885Y4544D01*
G01X14890Y4587D01*
G01X14893Y4630D01*
G01X14894Y4673D01*
G01X14893Y4716D01*
G01X14890Y4759D01*
G01X14885Y4802D01*
G01X14878Y4845D01*
G01X14868Y4887D01*
G01X14857Y4928D01*
G01X14844Y4970D01*
G01X14829Y5010D01*
G01X14812Y5050D01*
G01X14793Y5088D01*
G01X14772Y5126D01*
G01X14750Y5163D01*
G01X14726Y5199D01*
G01X14700Y5234D01*
G01X14673Y5267D01*
G01X14644Y5299D01*
G01X14613Y5329D01*
G01X14581Y5358D01*
G01X14548Y5386D01*
G01X14478Y5436D01*
G01X14441Y5458D01*
G01X14403Y5479D01*
G01X14364Y5498D01*
G01X14324Y5515D01*
G01X14284Y5530D01*
G01X14243Y5543D01*
G01X14201Y5554D01*
G01X14159Y5563D01*
G01X14117Y5570D01*
G01X14074Y5576D01*
G01X14031Y5579D01*
G37*
G36*
G01X10472Y6714D02*
G01X10021Y6714D01*
G01X9998Y6713D01*
G01X9974Y6710D01*
G01X9951Y6704D01*
G01X9929Y6697D01*
G01X9907Y6688D01*
G01X9886Y6676D01*
G01X9867Y6662D01*
G01X9848Y6647D01*
G01X9832Y6631D01*
G01X9817Y6612D01*
G01X9803Y6593D01*
G01X9791Y6572D01*
G01X9782Y6550D01*
G01X9775Y6528D01*
G01X9769Y6505D01*
G01X9766Y6481D01*
G01X9765Y6458D01*
G01X9765Y5773D01*
G01X9764Y5756D01*
G01X9759Y5740D01*
G01X9752Y5724D01*
G01X9737Y5693D01*
G01X9723Y5660D01*
G01X9711Y5627D01*
G01X9702Y5593D01*
G01X9694Y5558D01*
G01X9690Y5543D01*
G01X9684Y5529D01*
G01X9676Y5515D01*
G01X9665Y5503D01*
G01X9653Y5493D01*
G01X9640Y5486D01*
G01X9625Y5480D01*
G01X9610Y5476D01*
G01X9594Y5474D01*
G01X9579Y5476D01*
G01X9563Y5480D01*
G01X9549Y5485D01*
G01X9507Y5505D01*
G01X9464Y5522D01*
G01X9420Y5537D01*
G01X9375Y5550D01*
G01X9331Y5561D01*
G01X9285Y5569D01*
G01X9239Y5575D01*
G01X9193Y5579D01*
G01X9146Y5580D01*
G01X9103Y5579D01*
G01X9060Y5576D01*
G01X9017Y5570D01*
G01X8975Y5563D01*
G01X8932Y5554D01*
G01X8891Y5543D01*
G01X8850Y5530D01*
G01X8809Y5515D01*
G01X8770Y5498D01*
G01X8731Y5479D01*
G01X8693Y5458D01*
G01X8656Y5436D01*
G01X8586Y5386D01*
G01X8552Y5358D01*
G01X8521Y5329D01*
G01X8490Y5299D01*
G01X8461Y5267D01*
G01X8434Y5234D01*
G01X8408Y5199D01*
G01X8384Y5163D01*
G01X8361Y5126D01*
G01X8341Y5088D01*
G01X8322Y5050D01*
G01X8305Y5010D01*
G01X8290Y4970D01*
G01X8277Y4928D01*
G01X8265Y4887D01*
G01X8256Y4845D01*
G01X8249Y4802D01*
G01X8244Y4759D01*
G01X8241Y4716D01*
G01X8240Y4673D01*
G01X8241Y4630D01*
G01X8244Y4587D01*
G01X8249Y4544D01*
G01X8256Y4502D01*
G01X8265Y4459D01*
G01X8277Y4418D01*
G01X8290Y4377D01*
G01X8305Y4336D01*
G01X8322Y4296D01*
G01X8341Y4258D01*
G01X8361Y4220D01*
G01X8384Y4183D01*
G01X8408Y4147D01*
G01X8434Y4113D01*
G01X8461Y4080D01*
G01X8490Y4047D01*
G01X8521Y4017D01*
G01X8552Y3988D01*
G01X8586Y3961D01*
G01X8621Y3935D01*
G01X8656Y3910D01*
G01X8693Y3888D01*
G01X8731Y3867D01*
G01X8770Y3848D01*
G01X8809Y3832D01*
G01X8850Y3816D01*
G01X8891Y3803D01*
G01X8932Y3792D01*
G01X8975Y3783D01*
G01X9017Y3776D01*
G01X9060Y3771D01*
G01X9103Y3768D01*
G01X9146Y3767D01*
G01X9190Y3768D01*
G01X9234Y3771D01*
G01X9277Y3776D01*
G01X9321Y3783D01*
G01X9364Y3793D01*
G01X9406Y3805D01*
G01X9448Y3818D01*
G01X9489Y3834D01*
G01X9529Y3851D01*
G01X9568Y3871D01*
G01X9607Y3892D01*
G01X9644Y3915D01*
G01X9680Y3940D01*
G01X9715Y3967D01*
G01X9749Y3996D01*
G01X9781Y4026D01*
G01X9811Y4057D01*
G01X9840Y4090D01*
G01X9868Y4124D01*
G01X9894Y4160D01*
G01X9904Y4172D01*
G01X9916Y4184D01*
G01X9930Y4192D01*
G01X9945Y4199D01*
G01X9961Y4202D01*
G01X9977Y4204D01*
G01X9990Y4203D01*
G01X10022Y4201D01*
G01X10472Y4201D01*
G01X10496Y4202D01*
G01X10519Y4205D01*
G01X10543Y4212D01*
G01X10557Y4215D01*
G01X10571Y4216D01*
G01X10585Y4215D01*
G01X10600Y4212D01*
G01X10623Y4205D01*
G01X10647Y4202D01*
G01X10671Y4201D01*
G01X11121Y4201D01*
G01X11146Y4202D01*
G01X11170Y4205D01*
G01X11193Y4212D01*
G01X11207Y4215D01*
G01X11221Y4216D01*
G01X11236Y4215D01*
G01X11250Y4212D01*
G01X11273Y4205D01*
G01X11297Y4202D01*
G01X11322Y4201D01*
G01X11771Y4201D01*
G01X11796Y4202D01*
G01X11819Y4205D01*
G01X11843Y4212D01*
G01X11857Y4215D01*
G01X11871Y4216D01*
G01X11885Y4215D01*
G01X11900Y4212D01*
G01X11923Y4205D01*
G01X11947Y4202D01*
G01X11971Y4201D01*
G01X12421Y4201D01*
G01X12446Y4202D01*
G01X12470Y4205D01*
G01X12493Y4212D01*
G01X12507Y4215D01*
G01X12521Y4216D01*
G01X12536Y4215D01*
G01X12550Y4212D01*
G01X12573Y4205D01*
G01X12597Y4202D01*
G01X12622Y4201D01*
G01X12670Y4201D01*
G01X12670Y4384D01*
G01X12672Y4405D01*
G01X12676Y4431D01*
G01X12678Y4457D01*
G01X12678Y6458D01*
G01X12676Y6484D01*
G01X12672Y6510D01*
G01X12670Y6531D01*
G01X12670Y6714D01*
G01X12622Y6714D01*
G01X12597Y6713D01*
G01X12573Y6710D01*
G01X12550Y6704D01*
G01X12536Y6701D01*
G01X12521Y6700D01*
G01X12507Y6701D01*
G01X12493Y6704D01*
G01X12470Y6710D01*
G01X12446Y6713D01*
G01X12421Y6714D01*
G01X11971Y6714D01*
G01X11947Y6713D01*
G01X11923Y6710D01*
G01X11900Y6704D01*
G01X11885Y6701D01*
G01X11871Y6700D01*
G01X11857Y6701D01*
G01X11843Y6704D01*
G01X11819Y6710D01*
G01X11796Y6713D01*
G01X11771Y6714D01*
G01X11322Y6714D01*
G01X11297Y6713D01*
G01X11273Y6710D01*
G01X11250Y6704D01*
G01X11236Y6701D01*
G01X11221Y6700D01*
G01X11207Y6701D01*
G01X11193Y6704D01*
G01X11170Y6710D01*
G01X11146Y6713D01*
G01X11121Y6714D01*
G01X10671Y6714D01*
G01X10647Y6713D01*
G01X10623Y6710D01*
G01X10600Y6704D01*
G01X10585Y6701D01*
G01X10571Y6700D01*
G01X10557Y6701D01*
G01X10543Y6704D01*
G01X10519Y6710D01*
G01X10496Y6713D01*
G01X10472Y6714D01*
G37*
G36*
G01X13072Y6714D02*
G01X13022Y6714D01*
G01X13022Y6021D01*
G01X13328Y6021D01*
G01X13328Y6457D01*
G01X13327Y6481D01*
G01X13324Y6505D01*
G01X13318Y6528D01*
G01X13310Y6550D01*
G01X13301Y6572D01*
G01X13290Y6593D01*
G01X13276Y6612D01*
G01X13261Y6631D01*
G01X13244Y6647D01*
G01X13226Y6662D01*
G01X13206Y6676D01*
G01X13186Y6688D01*
G01X13164Y6697D01*
G01X13142Y6704D01*
G01X13118Y6710D01*
G01X13095Y6713D01*
G01X13072Y6714D01*
G37*
G36*
G01X23252Y8608D02*
G01X22781Y8608D01*
G01X22802Y8565D01*
G01X22827Y8523D01*
G01X22853Y8482D01*
G01X22881Y8443D01*
G01X22911Y8405D01*
G01X22943Y8368D01*
G01X22977Y8332D01*
G01X23012Y8299D01*
G01X23048Y8267D01*
G01X23087Y8237D01*
G01X23126Y8209D01*
G01X23167Y8183D01*
G01X23209Y8159D01*
G01X23252Y8136D01*
G01X23252Y8608D01*
G37*
G36*
G01X24613Y8608D02*
G01X24141Y8608D01*
G01X24141Y8136D01*
G01X24185Y8159D01*
G01X24226Y8183D01*
G01X24267Y8209D01*
G01X24307Y8237D01*
G01X24345Y8267D01*
G01X24382Y8299D01*
G01X24417Y8332D01*
G01X24450Y8368D01*
G01X24482Y8405D01*
G01X24512Y8443D01*
G01X24540Y8482D01*
G01X24567Y8523D01*
G01X24591Y8565D01*
G01X24613Y8608D01*
G37*
G36*
G01X16752Y8608D02*
G01X16280Y8608D01*
G01X16302Y8565D01*
G01X16327Y8523D01*
G01X16353Y8482D01*
G01X16381Y8443D01*
G01X16411Y8405D01*
G01X16443Y8368D01*
G01X16477Y8332D01*
G01X16512Y8299D01*
G01X16548Y8267D01*
G01X16586Y8237D01*
G01X16626Y8209D01*
G01X16667Y8183D01*
G01X16709Y8159D01*
G01X16752Y8136D01*
G01X16752Y8608D01*
G37*
G36*
G01X18113Y8608D02*
G01X17641Y8608D01*
G01X17641Y8136D01*
G01X17684Y8159D01*
G01X17726Y8183D01*
G01X17768Y8209D01*
G01X17807Y8237D01*
G01X17845Y8267D01*
G01X17882Y8299D01*
G01X17917Y8332D01*
G01X17950Y8368D01*
G01X17982Y8405D01*
G01X18012Y8443D01*
G01X18040Y8482D01*
G01X18067Y8523D01*
G01X18091Y8565D01*
G01X18113Y8608D01*
G37*
G36*
G01X29475Y10785D02*
G01X27675Y10785D01*
G01X27651Y10784D01*
G01X27627Y10780D01*
G01X27604Y10775D01*
G01X27582Y10767D01*
G01X27560Y10758D01*
G01X27539Y10746D01*
G01X27520Y10733D01*
G01X27501Y10718D01*
G01X27485Y10701D01*
G01X27470Y10682D01*
G01X27456Y10663D01*
G01X27444Y10642D01*
G01X27435Y10621D01*
G01X27428Y10598D01*
G01X27422Y10575D01*
G01X27419Y10552D01*
G01X27418Y10528D01*
G01X27418Y9882D01*
G01X27417Y9868D01*
G01X27413Y9854D01*
G01X27408Y9840D01*
G01X27402Y9828D01*
G01X27393Y9816D01*
G01X27382Y9806D01*
G01X27371Y9797D01*
G01X27359Y9790D01*
G01X27345Y9785D01*
G01X27331Y9782D01*
G01X27316Y9781D01*
G01X27001Y9781D01*
G01X26986Y9782D01*
G01X26972Y9785D01*
G01X26958Y9790D01*
G01X26946Y9797D01*
G01X26934Y9806D01*
G01X26924Y9816D01*
G01X26915Y9828D01*
G01X26909Y9840D01*
G01X26903Y9854D01*
G01X26900Y9868D01*
G01X26899Y9882D01*
G01X26899Y9977D01*
G01X26898Y10001D01*
G01X26895Y10025D01*
G01X26889Y10047D01*
G01X26882Y10070D01*
G01X26872Y10092D01*
G01X26861Y10113D01*
G01X26848Y10132D01*
G01X26832Y10150D01*
G01X26816Y10167D01*
G01X26797Y10182D01*
G01X26777Y10195D01*
G01X26757Y10207D01*
G01X26735Y10217D01*
G01X26713Y10224D01*
G01X26690Y10229D01*
G01X26666Y10233D01*
G01X26643Y10234D01*
G01X25173Y10234D01*
G01X25149Y10233D01*
G01X25125Y10229D01*
G01X25103Y10224D01*
G01X25080Y10217D01*
G01X25058Y10207D01*
G01X25038Y10195D01*
G01X25018Y10182D01*
G01X25000Y10167D01*
G01X24983Y10150D01*
G01X24968Y10132D01*
G01X24955Y10113D01*
G01X24943Y10092D01*
G01X24933Y10070D01*
G01X24926Y10047D01*
G01X24921Y10025D01*
G01X24917Y10001D01*
G01X24916Y9977D01*
G01X24916Y8817D01*
G01X24917Y8794D01*
G01X24921Y8770D01*
G01X24926Y8747D01*
G01X24933Y8725D01*
G01X24943Y8703D01*
G01X24955Y8682D01*
G01X24968Y8663D01*
G01X24983Y8644D01*
G01X25000Y8628D01*
G01X25018Y8612D01*
G01X25038Y8599D01*
G01X25058Y8587D01*
G01X25080Y8578D01*
G01X25103Y8571D01*
G01X25125Y8565D01*
G01X25149Y8562D01*
G01X25173Y8561D01*
G01X26643Y8561D01*
G01X26666Y8562D01*
G01X26690Y8565D01*
G01X26713Y8571D01*
G01X26735Y8578D01*
G01X26757Y8587D01*
G01X26777Y8599D01*
G01X26797Y8612D01*
G01X26816Y8628D01*
G01X26832Y8644D01*
G01X26848Y8663D01*
G01X26861Y8682D01*
G01X26872Y8703D01*
G01X26882Y8725D01*
G01X26889Y8747D01*
G01X26895Y8770D01*
G01X26898Y8794D01*
G01X26899Y8817D01*
G01X26899Y8912D01*
G01X26900Y8927D01*
G01X26903Y8941D01*
G01X26909Y8955D01*
G01X26915Y8967D01*
G01X26924Y8979D01*
G01X26934Y8989D01*
G01X26946Y8998D01*
G01X26958Y9005D01*
G01X26972Y9010D01*
G01X26986Y9013D01*
G01X27001Y9014D01*
G01X27316Y9014D01*
G01X27332Y9013D01*
G01X27347Y9009D01*
G01X27362Y9004D01*
G01X27375Y8995D01*
G01X27387Y8986D01*
G01X27397Y8974D01*
G01X27406Y8961D01*
G01X27412Y8947D01*
G01X27416Y8932D01*
G01X27418Y8917D01*
G01X27420Y8894D01*
G01X27424Y8871D01*
G01X27430Y8849D01*
G01X27438Y8827D01*
G01X27449Y8806D01*
G01X27460Y8787D01*
G01X27473Y8768D01*
G01X27489Y8751D01*
G01X27505Y8735D01*
G01X27523Y8721D01*
G01X27542Y8708D01*
G01X27563Y8697D01*
G01X27584Y8688D01*
G01X27606Y8680D01*
G01X27628Y8675D01*
G01X27651Y8672D01*
G01X27674Y8671D01*
G01X29475Y8671D01*
G01X29499Y8672D01*
G01X29522Y8676D01*
G01X29546Y8681D01*
G01X29568Y8689D01*
G01X29590Y8698D01*
G01X29610Y8710D01*
G01X29630Y8723D01*
G01X29648Y8738D01*
G01X29665Y8755D01*
G01X29680Y8773D01*
G01X29693Y8793D01*
G01X29705Y8814D01*
G01X29714Y8835D01*
G01X29722Y8858D01*
G01X29727Y8881D01*
G01X29730Y8904D01*
G01X29732Y8928D01*
G01X29732Y10528D01*
G01X29730Y10552D01*
G01X29727Y10575D01*
G01X29722Y10598D01*
G01X29714Y10621D01*
G01X29705Y10642D01*
G01X29693Y10663D01*
G01X29680Y10682D01*
G01X29665Y10701D01*
G01X29648Y10718D01*
G01X29630Y10733D01*
G01X29610Y10746D01*
G01X29590Y10758D01*
G01X29568Y10767D01*
G01X29546Y10775D01*
G01X29522Y10780D01*
G01X29499Y10784D01*
G01X29475Y10785D01*
G37*
G36*
G01X15632Y10912D02*
G01X13831Y10912D01*
G01X13808Y10911D01*
G01X13784Y10907D01*
G01X13761Y10902D01*
G01X13739Y10894D01*
G01X13717Y10885D01*
G01X13696Y10873D01*
G01X13677Y10860D01*
G01X13658Y10845D01*
G01X13642Y10828D01*
G01X13627Y10809D01*
G01X13613Y10790D01*
G01X13601Y10769D01*
G01X13592Y10748D01*
G01X13585Y10725D01*
G01X13579Y10702D01*
G01X13576Y10679D01*
G01X13575Y10655D01*
G01X13575Y9882D01*
G01X13574Y9868D01*
G01X13570Y9854D01*
G01X13565Y9840D01*
G01X13559Y9828D01*
G01X13550Y9816D01*
G01X13539Y9806D01*
G01X13528Y9797D01*
G01X13516Y9790D01*
G01X13502Y9785D01*
G01X13488Y9782D01*
G01X13473Y9781D01*
G01X13158Y9781D01*
G01X13143Y9782D01*
G01X13129Y9785D01*
G01X13115Y9790D01*
G01X13103Y9797D01*
G01X13091Y9806D01*
G01X13081Y9816D01*
G01X13072Y9828D01*
G01X13066Y9840D01*
G01X13060Y9854D01*
G01X13057Y9868D01*
G01X13056Y9882D01*
G01X13056Y9977D01*
G01X13055Y10001D01*
G01X13052Y10025D01*
G01X13046Y10047D01*
G01X13039Y10070D01*
G01X13029Y10092D01*
G01X13018Y10113D01*
G01X13004Y10132D01*
G01X12989Y10150D01*
G01X12973Y10167D01*
G01X12954Y10182D01*
G01X12934Y10195D01*
G01X12914Y10207D01*
G01X12892Y10217D01*
G01X12870Y10224D01*
G01X12847Y10229D01*
G01X12823Y10233D01*
G01X12800Y10234D01*
G01X11330Y10234D01*
G01X11306Y10233D01*
G01X11282Y10229D01*
G01X11260Y10224D01*
G01X11237Y10217D01*
G01X11215Y10207D01*
G01X11195Y10195D01*
G01X11175Y10182D01*
G01X11157Y10167D01*
G01X11140Y10150D01*
G01X11125Y10132D01*
G01X11112Y10113D01*
G01X11100Y10092D01*
G01X11090Y10070D01*
G01X11083Y10047D01*
G01X11078Y10025D01*
G01X11074Y10001D01*
G01X11073Y9977D01*
G01X11073Y8817D01*
G01X11074Y8794D01*
G01X11078Y8770D01*
G01X11083Y8747D01*
G01X11090Y8725D01*
G01X11100Y8703D01*
G01X11112Y8682D01*
G01X11125Y8663D01*
G01X11140Y8644D01*
G01X11157Y8628D01*
G01X11175Y8613D01*
G01X11195Y8599D01*
G01X11215Y8587D01*
G01X11237Y8578D01*
G01X11260Y8571D01*
G01X11282Y8565D01*
G01X11306Y8562D01*
G01X11330Y8561D01*
G01X12800Y8561D01*
G01X12823Y8562D01*
G01X12847Y8565D01*
G01X12870Y8571D01*
G01X12892Y8578D01*
G01X12914Y8587D01*
G01X12934Y8599D01*
G01X12954Y8613D01*
G01X12973Y8628D01*
G01X12989Y8644D01*
G01X13004Y8663D01*
G01X13018Y8682D01*
G01X13029Y8703D01*
G01X13039Y8725D01*
G01X13046Y8747D01*
G01X13052Y8770D01*
G01X13055Y8794D01*
G01X13056Y8817D01*
G01X13056Y8912D01*
G01X13057Y8927D01*
G01X13060Y8941D01*
G01X13066Y8955D01*
G01X13072Y8967D01*
G01X13081Y8979D01*
G01X13091Y8989D01*
G01X13103Y8998D01*
G01X13115Y9005D01*
G01X13129Y9010D01*
G01X13143Y9013D01*
G01X13158Y9014D01*
G01X13503Y9014D01*
G01X13518Y9013D01*
G01X13532Y9010D01*
G01X13546Y9005D01*
G01X13558Y8997D01*
G01X13570Y8988D01*
G01X13581Y8978D01*
G01X13589Y8966D01*
G01X13606Y8932D01*
G01X13618Y8913D01*
G01X13631Y8894D01*
G01X13647Y8877D01*
G01X13663Y8861D01*
G01X13681Y8847D01*
G01X13701Y8834D01*
G01X13720Y8824D01*
G01X13742Y8815D01*
G01X13764Y8807D01*
G01X13786Y8802D01*
G01X13808Y8799D01*
G01X13831Y8798D01*
G01X15632Y8798D01*
G01X15656Y8799D01*
G01X15679Y8803D01*
G01X15703Y8808D01*
G01X15725Y8816D01*
G01X15747Y8825D01*
G01X15767Y8837D01*
G01X15787Y8850D01*
G01X15805Y8865D01*
G01X15822Y8882D01*
G01X15837Y8900D01*
G01X15850Y8920D01*
G01X15862Y8941D01*
G01X15871Y8962D01*
G01X15879Y8985D01*
G01X15884Y9008D01*
G01X15887Y9031D01*
G01X15889Y9055D01*
G01X15889Y10655D01*
G01X15887Y10679D01*
G01X15884Y10702D01*
G01X15879Y10725D01*
G01X15871Y10748D01*
G01X15862Y10769D01*
G01X15850Y10790D01*
G01X15837Y10809D01*
G01X15822Y10828D01*
G01X15805Y10845D01*
G01X15787Y10860D01*
G01X15767Y10873D01*
G01X15747Y10885D01*
G01X15725Y10894D01*
G01X15703Y10902D01*
G01X15679Y10907D01*
G01X15656Y10911D01*
G01X15632Y10912D01*
G37*
G36*
G01X34771Y10823D02*
G01X32970Y10823D01*
G01X32947Y10822D01*
G01X32923Y10818D01*
G01X32900Y10813D01*
G01X32878Y10805D01*
G01X32856Y10796D01*
G01X32835Y10784D01*
G01X32816Y10771D01*
G01X32797Y10756D01*
G01X32780Y10739D01*
G01X32765Y10721D01*
G01X32752Y10701D01*
G01X32740Y10680D01*
G01X32731Y10659D01*
G01X32724Y10636D01*
G01X32718Y10613D01*
G01X32714Y10590D01*
G01X32713Y10566D01*
G01X32713Y9920D01*
G01X32712Y9906D01*
G01X32709Y9892D01*
G01X32704Y9878D01*
G01X32698Y9866D01*
G01X32689Y9854D01*
G01X32678Y9844D01*
G01X32667Y9835D01*
G01X32654Y9828D01*
G01X32641Y9823D01*
G01X32627Y9820D01*
G01X32612Y9819D01*
G01X32296Y9819D01*
G01X32282Y9820D01*
G01X32268Y9823D01*
G01X32254Y9828D01*
G01X32241Y9835D01*
G01X32230Y9844D01*
G01X32220Y9854D01*
G01X32211Y9866D01*
G01X32204Y9878D01*
G01X32199Y9892D01*
G01X32196Y9906D01*
G01X32195Y9920D01*
G01X32195Y10015D01*
G01X32194Y10039D01*
G01X32191Y10063D01*
G01X32185Y10086D01*
G01X32177Y10108D01*
G01X32168Y10130D01*
G01X32157Y10151D01*
G01X32143Y10170D01*
G01X32128Y10188D01*
G01X32111Y10205D01*
G01X32093Y10220D01*
G01X32073Y10233D01*
G01X32053Y10245D01*
G01X32031Y10255D01*
G01X32008Y10262D01*
G01X31985Y10267D01*
G01X31962Y10271D01*
G01X31938Y10272D01*
G01X30469Y10272D01*
G01X30445Y10271D01*
G01X30421Y10267D01*
G01X30398Y10262D01*
G01X30376Y10255D01*
G01X30354Y10245D01*
G01X30333Y10233D01*
G01X30314Y10220D01*
G01X30296Y10205D01*
G01X30279Y10188D01*
G01X30264Y10170D01*
G01X30250Y10151D01*
G01X30239Y10130D01*
G01X30229Y10108D01*
G01X30222Y10086D01*
G01X30216Y10063D01*
G01X30213Y10039D01*
G01X30212Y10015D01*
G01X30212Y8855D01*
G01X30213Y8832D01*
G01X30216Y8808D01*
G01X30222Y8785D01*
G01X30229Y8763D01*
G01X30239Y8741D01*
G01X30250Y8720D01*
G01X30264Y8701D01*
G01X30279Y8682D01*
G01X30296Y8666D01*
G01X30314Y8650D01*
G01X30333Y8637D01*
G01X30354Y8626D01*
G01X30376Y8616D01*
G01X30398Y8609D01*
G01X30421Y8603D01*
G01X30445Y8600D01*
G01X30469Y8599D01*
G01X31938Y8599D01*
G01X31962Y8600D01*
G01X31985Y8603D01*
G01X32008Y8609D01*
G01X32031Y8616D01*
G01X32053Y8626D01*
G01X32073Y8637D01*
G01X32093Y8650D01*
G01X32111Y8666D01*
G01X32128Y8682D01*
G01X32143Y8701D01*
G01X32157Y8720D01*
G01X32168Y8741D01*
G01X32177Y8763D01*
G01X32185Y8785D01*
G01X32191Y8808D01*
G01X32194Y8832D01*
G01X32195Y8855D01*
G01X32195Y8950D01*
G01X32196Y8965D01*
G01X32199Y8979D01*
G01X32204Y8992D01*
G01X32211Y9005D01*
G01X32220Y9017D01*
G01X32230Y9027D01*
G01X32241Y9036D01*
G01X32254Y9043D01*
G01X32268Y9048D01*
G01X32282Y9051D01*
G01X32296Y9052D01*
G01X32612Y9052D01*
G01X32628Y9051D01*
G01X32643Y9047D01*
G01X32657Y9042D01*
G01X32671Y9034D01*
G01X32682Y9024D01*
G01X32693Y9012D01*
G01X32701Y8999D01*
G01X32708Y8985D01*
G01X32712Y8970D01*
G01X32714Y8955D01*
G01X32716Y8932D01*
G01X32720Y8909D01*
G01X32726Y8887D01*
G01X32734Y8865D01*
G01X32744Y8845D01*
G01X32756Y8825D01*
G01X32769Y8806D01*
G01X32785Y8789D01*
G01X32801Y8773D01*
G01X32819Y8758D01*
G01X32838Y8745D01*
G01X32859Y8735D01*
G01X32880Y8726D01*
G01X32902Y8719D01*
G01X32924Y8713D01*
G01X32947Y8710D01*
G01X32970Y8709D01*
G01X34771Y8709D01*
G01X34795Y8710D01*
G01X34818Y8713D01*
G01X34841Y8719D01*
G01X34864Y8727D01*
G01X34885Y8736D01*
G01X34906Y8748D01*
G01X34926Y8761D01*
G01X34944Y8776D01*
G01X34960Y8793D01*
G01X34976Y8811D01*
G01X34989Y8831D01*
G01X35000Y8852D01*
G01X35010Y8873D01*
G01X35018Y8896D01*
G01X35023Y8919D01*
G01X35026Y8942D01*
G01X35027Y8966D01*
G01X35027Y10566D01*
G01X35026Y10590D01*
G01X35023Y10613D01*
G01X35018Y10636D01*
G01X35010Y10659D01*
G01X35000Y10680D01*
G01X34989Y10701D01*
G01X34976Y10721D01*
G01X34960Y10739D01*
G01X34944Y10756D01*
G01X34926Y10771D01*
G01X34906Y10784D01*
G01X34885Y10796D01*
G01X34864Y10805D01*
G01X34841Y10813D01*
G01X34818Y10818D01*
G01X34795Y10822D01*
G01X34771Y10823D01*
G37*
G36*
G01X9917Y11039D02*
G01X8116Y11039D01*
G01X8093Y11038D01*
G01X8069Y11034D01*
G01X8046Y11029D01*
G01X8024Y11021D01*
G01X8002Y11012D01*
G01X7981Y11000D01*
G01X7962Y10987D01*
G01X7943Y10972D01*
G01X7927Y10955D01*
G01X7912Y10936D01*
G01X7898Y10917D01*
G01X7886Y10896D01*
G01X7877Y10875D01*
G01X7870Y10852D01*
G01X7864Y10829D01*
G01X7861Y10806D01*
G01X7860Y10782D01*
G01X7860Y10009D01*
G01X7859Y9995D01*
G01X7855Y9981D01*
G01X7850Y9967D01*
G01X7844Y9955D01*
G01X7835Y9943D01*
G01X7824Y9933D01*
G01X7813Y9924D01*
G01X7801Y9917D01*
G01X7787Y9912D01*
G01X7773Y9909D01*
G01X7758Y9908D01*
G01X7443Y9908D01*
G01X7428Y9909D01*
G01X7414Y9912D01*
G01X7400Y9917D01*
G01X7388Y9924D01*
G01X7376Y9933D01*
G01X7366Y9943D01*
G01X7357Y9955D01*
G01X7351Y9967D01*
G01X7345Y9981D01*
G01X7342Y9995D01*
G01X7341Y10009D01*
G01X7341Y10104D01*
G01X7340Y10128D01*
G01X7337Y10152D01*
G01X7331Y10174D01*
G01X7324Y10197D01*
G01X7314Y10219D01*
G01X7303Y10240D01*
G01X7289Y10259D01*
G01X7274Y10277D01*
G01X7258Y10294D01*
G01X7239Y10309D01*
G01X7219Y10322D01*
G01X7199Y10334D01*
G01X7177Y10344D01*
G01X7155Y10351D01*
G01X7132Y10356D01*
G01X7108Y10360D01*
G01X7085Y10361D01*
G01X5615Y10361D01*
G01X5591Y10360D01*
G01X5567Y10356D01*
G01X5545Y10351D01*
G01X5522Y10344D01*
G01X5500Y10334D01*
G01X5480Y10322D01*
G01X5460Y10309D01*
G01X5442Y10294D01*
G01X5425Y10277D01*
G01X5410Y10259D01*
G01X5397Y10240D01*
G01X5385Y10219D01*
G01X5375Y10197D01*
G01X5368Y10174D01*
G01X5363Y10152D01*
G01X5359Y10128D01*
G01X5358Y10104D01*
G01X5358Y8944D01*
G01X5359Y8921D01*
G01X5363Y8897D01*
G01X5368Y8874D01*
G01X5375Y8852D01*
G01X5385Y8830D01*
G01X5397Y8809D01*
G01X5410Y8790D01*
G01X5425Y8771D01*
G01X5442Y8755D01*
G01X5460Y8740D01*
G01X5480Y8726D01*
G01X5500Y8714D01*
G01X5522Y8705D01*
G01X5545Y8698D01*
G01X5567Y8692D01*
G01X5591Y8689D01*
G01X5615Y8688D01*
G01X7085Y8688D01*
G01X7108Y8689D01*
G01X7132Y8692D01*
G01X7155Y8698D01*
G01X7177Y8705D01*
G01X7199Y8714D01*
G01X7219Y8726D01*
G01X7239Y8740D01*
G01X7258Y8755D01*
G01X7274Y8771D01*
G01X7289Y8790D01*
G01X7303Y8809D01*
G01X7314Y8830D01*
G01X7324Y8852D01*
G01X7331Y8874D01*
G01X7337Y8897D01*
G01X7340Y8921D01*
G01X7341Y8944D01*
G01X7341Y9039D01*
G01X7342Y9054D01*
G01X7345Y9068D01*
G01X7351Y9082D01*
G01X7357Y9094D01*
G01X7366Y9106D01*
G01X7376Y9116D01*
G01X7388Y9125D01*
G01X7400Y9132D01*
G01X7414Y9137D01*
G01X7428Y9140D01*
G01X7443Y9141D01*
G01X7788Y9141D01*
G01X7803Y9140D01*
G01X7817Y9137D01*
G01X7831Y9132D01*
G01X7843Y9124D01*
G01X7855Y9115D01*
G01X7866Y9105D01*
G01X7874Y9093D01*
G01X7891Y9059D01*
G01X7903Y9040D01*
G01X7916Y9021D01*
G01X7932Y9004D01*
G01X7948Y8988D01*
G01X7966Y8974D01*
G01X7986Y8961D01*
G01X8005Y8951D01*
G01X8027Y8942D01*
G01X8049Y8934D01*
G01X8071Y8929D01*
G01X8093Y8926D01*
G01X8116Y8925D01*
G01X9917Y8925D01*
G01X9941Y8926D01*
G01X9964Y8930D01*
G01X9988Y8935D01*
G01X10010Y8943D01*
G01X10032Y8952D01*
G01X10052Y8964D01*
G01X10072Y8977D01*
G01X10090Y8992D01*
G01X10107Y9009D01*
G01X10122Y9027D01*
G01X10135Y9047D01*
G01X10147Y9068D01*
G01X10156Y9089D01*
G01X10164Y9112D01*
G01X10169Y9135D01*
G01X10172Y9158D01*
G01X10174Y9182D01*
G01X10174Y10782D01*
G01X10172Y10806D01*
G01X10169Y10829D01*
G01X10164Y10852D01*
G01X10156Y10875D01*
G01X10147Y10896D01*
G01X10135Y10917D01*
G01X10122Y10936D01*
G01X10107Y10955D01*
G01X10090Y10972D01*
G01X10072Y10987D01*
G01X10052Y11000D01*
G01X10032Y11012D01*
G01X10010Y11021D01*
G01X9988Y11029D01*
G01X9964Y11034D01*
G01X9941Y11038D01*
G01X9917Y11039D01*
G37*
G36*
G01X24185Y9947D02*
G01X24141Y9969D01*
G01X24141Y9497D01*
G01X24613Y9497D01*
G01X24591Y9541D01*
G01X24567Y9583D01*
G01X24540Y9623D01*
G01X24512Y9663D01*
G01X24482Y9701D01*
G01X24450Y9738D01*
G01X24417Y9773D01*
G01X24382Y9807D01*
G01X24345Y9838D01*
G01X24307Y9868D01*
G01X24267Y9897D01*
G01X24226Y9923D01*
G01X24185Y9947D01*
G37*
G36*
G01X23252Y9497D02*
G01X23252Y9969D01*
G01X23209Y9947D01*
G01X23167Y9923D01*
G01X23126Y9897D01*
G01X23087Y9868D01*
G01X23048Y9838D01*
G01X23012Y9807D01*
G01X22977Y9773D01*
G01X22943Y9738D01*
G01X22911Y9701D01*
G01X22881Y9663D01*
G01X22853Y9623D01*
G01X22827Y9583D01*
G01X22802Y9541D01*
G01X22781Y9497D01*
G01X23252Y9497D01*
G37*
G36*
G01X17684Y9947D02*
G01X17641Y9969D01*
G01X17641Y9497D01*
G01X18113Y9497D01*
G01X18091Y9541D01*
G01X18067Y9583D01*
G01X18040Y9623D01*
G01X18012Y9663D01*
G01X17982Y9701D01*
G01X17950Y9738D01*
G01X17917Y9773D01*
G01X17882Y9807D01*
G01X17845Y9838D01*
G01X17807Y9868D01*
G01X17768Y9897D01*
G01X17726Y9923D01*
G01X17684Y9947D01*
G37*
G36*
G01X16752Y9497D02*
G01X16752Y9969D01*
G01X16709Y9947D01*
G01X16667Y9923D01*
G01X16626Y9897D01*
G01X16586Y9868D01*
G01X16548Y9838D01*
G01X16512Y9807D01*
G01X16477Y9773D01*
G01X16443Y9738D01*
G01X16411Y9701D01*
G01X16381Y9663D01*
G01X16353Y9623D01*
G01X16327Y9583D01*
G01X16302Y9541D01*
G01X16280Y9497D01*
G01X16752Y9497D01*
G37*
G36*
G01X2432Y11397D02*
G01X1632Y11397D01*
G01X1608Y11396D01*
G01X1585Y11392D01*
G01X1561Y11387D01*
G01X1539Y11379D01*
G01X1517Y11370D01*
G01X1497Y11358D01*
G01X1477Y11345D01*
G01X1459Y11330D01*
G01X1442Y11313D01*
G01X1427Y11295D01*
G01X1414Y11275D01*
G01X1402Y11254D01*
G01X1393Y11233D01*
G01X1385Y11210D01*
G01X1379Y11187D01*
G01X1376Y11164D01*
G01X1375Y11140D01*
G01X1375Y9941D01*
G01X1376Y9917D01*
G01X1379Y9894D01*
G01X1385Y9871D01*
G01X1393Y9849D01*
G01X1402Y9827D01*
G01X1414Y9806D01*
G01X1427Y9787D01*
G01X1442Y9769D01*
G01X1459Y9752D01*
G01X1477Y9737D01*
G01X1497Y9723D01*
G01X1517Y9712D01*
G01X1539Y9702D01*
G01X1561Y9694D01*
G01X1585Y9689D01*
G01X1608Y9686D01*
G01X1632Y9685D01*
G01X2432Y9685D01*
G01X2455Y9686D01*
G01X2479Y9689D01*
G01X2502Y9694D01*
G01X2525Y9702D01*
G01X2546Y9712D01*
G01X2567Y9723D01*
G01X2586Y9737D01*
G01X2605Y9752D01*
G01X2622Y9769D01*
G01X2636Y9787D01*
G01X2650Y9806D01*
G01X2662Y9827D01*
G01X2671Y9849D01*
G01X2678Y9871D01*
G01X2684Y9894D01*
G01X2687Y9917D01*
G01X2689Y9941D01*
G01X2689Y11140D01*
G01X2687Y11164D01*
G01X2684Y11187D01*
G01X2678Y11210D01*
G01X2671Y11233D01*
G01X2662Y11254D01*
G01X2650Y11275D01*
G01X2636Y11295D01*
G01X2622Y11313D01*
G01X2605Y11330D01*
G01X2586Y11345D01*
G01X2567Y11358D01*
G01X2546Y11370D01*
G01X2525Y11379D01*
G01X2502Y11387D01*
G01X2479Y11392D01*
G01X2455Y11396D01*
G01X2432Y11397D01*
G37*
G36*
G01X20320Y40007D02*
G01X7620Y40007D01*
G01X7586Y40006D01*
G01X7553Y40003D01*
G01X7520Y39998D01*
G01X7488Y39990D01*
G01X7456Y39980D01*
G01X7424Y39968D01*
G01X7394Y39954D01*
G01X7365Y39939D01*
G01X7336Y39921D01*
G01X7309Y39902D01*
G01X7283Y39881D01*
G01X7259Y39858D01*
G01X6433Y39032D01*
G01X6421Y39022D01*
G01X6407Y39013D01*
G01X6392Y39007D01*
G01X6377Y39003D01*
G01X6361Y39002D01*
G01X5069Y39002D01*
G01X5045Y39001D01*
G01X5022Y38998D01*
G01X4998Y38992D01*
G01X4976Y38985D01*
G01X4954Y38976D01*
G01X4934Y38964D01*
G01X4914Y38951D01*
G01X4896Y38935D01*
G01X4879Y38919D01*
G01X4864Y38900D01*
G01X4851Y38881D01*
G01X4839Y38860D01*
G01X4829Y38838D01*
G01X4822Y38816D01*
G01X4817Y38793D01*
G01X4814Y38769D01*
G01X4812Y38746D01*
G01X4812Y36946D01*
G01X4814Y36922D01*
G01X4817Y36899D01*
G01X4822Y36875D01*
G01X4829Y36853D01*
G01X4839Y36831D01*
G01X4851Y36811D01*
G01X4864Y36791D01*
G01X4879Y36773D01*
G01X4896Y36756D01*
G01X4914Y36741D01*
G01X4934Y36728D01*
G01X4954Y36716D01*
G01X4976Y36706D01*
G01X4998Y36699D01*
G01X5022Y36694D01*
G01X5045Y36691D01*
G01X5069Y36689D01*
G01X6869Y36689D01*
G01X6892Y36691D01*
G01X6916Y36694D01*
G01X6939Y36699D01*
G01X6961Y36706D01*
G01X6983Y36716D01*
G01X7004Y36728D01*
G01X7023Y36741D01*
G01X7042Y36756D01*
G01X7058Y36773D01*
G01X7074Y36791D01*
G01X7087Y36811D01*
G01X7099Y36831D01*
G01X7108Y36853D01*
G01X7115Y36875D01*
G01X7121Y36899D01*
G01X7124Y36922D01*
G01X7125Y36946D01*
G01X7125Y38238D01*
G01X7126Y38254D01*
G01X7130Y38269D01*
G01X7136Y38284D01*
G01X7145Y38298D01*
G01X7155Y38310D01*
G01X7299Y38454D01*
G01X7311Y38464D01*
G01X7325Y38473D01*
G01X7339Y38479D01*
G01X7355Y38482D01*
G01X7370Y38483D01*
G01X7385Y38482D01*
G01X7399Y38479D01*
G01X7413Y38474D01*
G01X7426Y38468D01*
G01X7448Y38448D01*
G01X7456Y38437D01*
G01X7463Y38424D01*
G01X7468Y38411D01*
G01X7471Y38396D01*
G01X7472Y38382D01*
G01X7471Y38367D01*
G01X7468Y38352D01*
G01X7462Y38339D01*
G01X7442Y38292D01*
G01X7423Y38245D01*
G01X7407Y38196D01*
G01X7392Y38148D01*
G01X7380Y38098D01*
G01X7370Y38048D01*
G01X7362Y37998D01*
G01X7357Y37947D01*
G01X7354Y37897D01*
G01X7352Y37846D01*
G01X7353Y37797D01*
G01X7356Y37749D01*
G01X7361Y37700D01*
G01X7368Y37653D01*
G01X7377Y37605D01*
G01X7389Y37558D01*
G01X7402Y37511D01*
G01X7417Y37465D01*
G01X7434Y37419D01*
G01X7453Y37374D01*
G01X7473Y37331D01*
G01X7496Y37287D01*
G01X7520Y37246D01*
G01X7546Y37205D01*
G01X7574Y37165D01*
G01X7603Y37126D01*
G01X7634Y37089D01*
G01X7666Y37053D01*
G01X7701Y37018D01*
G01X7736Y36985D01*
G01X7773Y36954D01*
G01X7811Y36923D01*
G01X7850Y36895D01*
G01X7891Y36868D01*
G01X7932Y36843D01*
G01X7975Y36820D01*
G01X8019Y36798D01*
G01X8063Y36778D01*
G01X8076Y36772D01*
G01X8088Y36763D01*
G01X8099Y36753D01*
G01X8108Y36741D01*
G01X8116Y36728D01*
G01X8121Y36714D01*
G01X8124Y36700D01*
G01X8125Y36685D01*
G01X8125Y36122D01*
G01X8124Y36108D01*
G01X8121Y36094D01*
G01X8116Y36080D01*
G01X8109Y36067D01*
G01X8100Y36056D01*
G01X8090Y36045D01*
G01X8078Y36037D01*
G01X8066Y36030D01*
G01X8052Y36025D01*
G01X8038Y36022D01*
G01X8024Y36021D01*
G01X7960Y36021D01*
G01X7936Y36019D01*
G01X7913Y36016D01*
G01X7890Y36011D01*
G01X7868Y36003D01*
G01X7846Y35994D01*
G01X7825Y35982D01*
G01X7806Y35969D01*
G01X7787Y35954D01*
G01X7771Y35937D01*
G01X7755Y35919D01*
G01X7742Y35899D01*
G01X7730Y35879D01*
G01X7721Y35857D01*
G01X7713Y35835D01*
G01X7708Y35811D01*
G01X7705Y35788D01*
G01X7704Y35764D01*
G01X7704Y32764D01*
G01X7705Y32741D01*
G01X7708Y32717D01*
G01X7713Y32694D01*
G01X7721Y32672D01*
G01X7730Y32650D01*
G01X7742Y32630D01*
G01X7755Y32610D01*
G01X7771Y32592D01*
G01X7787Y32575D01*
G01X7806Y32560D01*
G01X7825Y32546D01*
G01X7846Y32535D01*
G01X7868Y32525D01*
G01X7890Y32518D01*
G01X7913Y32512D01*
G01X7936Y32509D01*
G01X7960Y32508D01*
G01X9159Y32508D01*
G01X9183Y32509D01*
G01X9206Y32512D01*
G01X9229Y32518D01*
G01X9251Y32525D01*
G01X9273Y32535D01*
G01X9294Y32546D01*
G01X9313Y32560D01*
G01X9332Y32575D01*
G01X9348Y32592D01*
G01X9364Y32610D01*
G01X9377Y32630D01*
G01X9389Y32650D01*
G01X9398Y32672D01*
G01X9406Y32694D01*
G01X9411Y32717D01*
G01X9415Y32741D01*
G01X9416Y32764D01*
G01X9416Y35764D01*
G01X9415Y35788D01*
G01X9411Y35811D01*
G01X9406Y35835D01*
G01X9398Y35857D01*
G01X9389Y35879D01*
G01X9377Y35899D01*
G01X9364Y35919D01*
G01X9348Y35937D01*
G01X9332Y35954D01*
G01X9313Y35969D01*
G01X9294Y35982D01*
G01X9273Y35994D01*
G01X9251Y36003D01*
G01X9229Y36011D01*
G01X9206Y36016D01*
G01X9183Y36019D01*
G01X9159Y36021D01*
G01X8994Y36021D01*
G01X8980Y36022D01*
G01X8965Y36025D01*
G01X8952Y36030D01*
G01X8939Y36037D01*
G01X8927Y36045D01*
G01X8917Y36056D01*
G01X8909Y36067D01*
G01X8901Y36080D01*
G01X8896Y36094D01*
G01X8893Y36108D01*
G01X8892Y36122D01*
G01X8892Y36685D01*
G01X8893Y36700D01*
G01X8897Y36714D01*
G01X8902Y36728D01*
G01X8910Y36741D01*
G01X8919Y36753D01*
G01X8929Y36763D01*
G01X8942Y36772D01*
G01X8955Y36778D01*
G01X8999Y36798D01*
G01X9043Y36820D01*
G01X9085Y36843D01*
G01X9126Y36868D01*
G01X9167Y36895D01*
G01X9207Y36923D01*
G01X9281Y36985D01*
G01X9317Y37018D01*
G01X9351Y37053D01*
G01X9384Y37089D01*
G01X9415Y37126D01*
G01X9443Y37165D01*
G01X9471Y37205D01*
G01X9497Y37246D01*
G01X9522Y37287D01*
G01X9544Y37331D01*
G01X9565Y37374D01*
G01X9584Y37419D01*
G01X9601Y37465D01*
G01X9616Y37511D01*
G01X9629Y37558D01*
G01X9640Y37605D01*
G01X9649Y37653D01*
G01X9656Y37700D01*
G01X9661Y37749D01*
G01X9664Y37797D01*
G01X9665Y37846D01*
G01X9664Y37895D01*
G01X9661Y37943D01*
G01X9656Y37992D01*
G01X9649Y38040D01*
G01X9640Y38088D01*
G01X9628Y38136D01*
G01X9615Y38183D01*
G01X9600Y38229D01*
G01X9583Y38275D01*
G01X9564Y38320D01*
G01X9543Y38364D01*
G01X9520Y38407D01*
G01X9495Y38449D01*
G01X9469Y38490D01*
G01X9441Y38531D01*
G01X9411Y38569D01*
G01X9380Y38607D01*
G01X9347Y38643D01*
G01X9312Y38677D01*
G01X9277Y38710D01*
G01X9239Y38742D01*
G01X9201Y38772D01*
G01X9161Y38801D01*
G01X9148Y38811D01*
G01X9138Y38823D01*
G01X9129Y38837D01*
G01X9122Y38852D01*
G01X9118Y38868D01*
G01X9117Y38885D01*
G01X9118Y38899D01*
G01X9121Y38913D01*
G01X9126Y38927D01*
G01X9133Y38939D01*
G01X9142Y38951D01*
G01X9152Y38961D01*
G01X9164Y38970D01*
G01X9176Y38977D01*
G01X9190Y38982D01*
G01X9204Y38985D01*
G01X9218Y38986D01*
G01X10339Y38986D01*
G01X10353Y38985D01*
G01X10368Y38982D01*
G01X10381Y38977D01*
G01X10394Y38970D01*
G01X10406Y38961D01*
G01X10416Y38951D01*
G01X10432Y38927D01*
G01X10437Y38913D01*
G01X10440Y38899D01*
G01X10441Y38885D01*
G01X10439Y38868D01*
G01X10436Y38852D01*
G01X10429Y38837D01*
G01X10420Y38823D01*
G01X10409Y38811D01*
G01X10396Y38801D01*
G01X10357Y38772D01*
G01X10318Y38742D01*
G01X10281Y38710D01*
G01X10245Y38677D01*
G01X10211Y38643D01*
G01X10178Y38607D01*
G01X10147Y38569D01*
G01X10117Y38531D01*
G01X10089Y38490D01*
G01X10062Y38449D01*
G01X10038Y38407D01*
G01X10015Y38364D01*
G01X9994Y38320D01*
G01X9975Y38275D01*
G01X9958Y38229D01*
G01X9942Y38183D01*
G01X9929Y38136D01*
G01X9918Y38088D01*
G01X9909Y38040D01*
G01X9902Y37992D01*
G01X9896Y37943D01*
G01X9893Y37895D01*
G01X9892Y37846D01*
G01X9893Y37796D01*
G01X9897Y37747D01*
G01X9902Y37698D01*
G01X9909Y37649D01*
G01X9918Y37601D01*
G01X9930Y37553D01*
G01X9943Y37505D01*
G01X9959Y37458D01*
G01X9976Y37412D01*
G01X9996Y37367D01*
G01X10018Y37322D01*
G01X10041Y37279D01*
G01X10066Y37236D01*
G01X10093Y37194D01*
G01X10122Y37154D01*
G01X10152Y37116D01*
G01X10184Y37078D01*
G01X10218Y37042D01*
G01X10253Y37007D01*
G01X10263Y36995D01*
G01X10273Y36981D01*
G01X10279Y36965D01*
G01X10283Y36950D01*
G01X10284Y36933D01*
G01X10284Y36122D01*
G01X10283Y36108D01*
G01X10280Y36094D01*
G01X10275Y36080D01*
G01X10268Y36067D01*
G01X10259Y36056D01*
G01X10249Y36045D01*
G01X10237Y36037D01*
G01X10225Y36030D01*
G01X10211Y36025D01*
G01X10197Y36022D01*
G01X10183Y36021D01*
G01X9941Y36021D01*
G01X9917Y36019D01*
G01X9894Y36016D01*
G01X9871Y36011D01*
G01X9849Y36003D01*
G01X9827Y35994D01*
G01X9806Y35982D01*
G01X9787Y35969D01*
G01X9769Y35954D01*
G01X9752Y35937D01*
G01X9737Y35919D01*
G01X9723Y35899D01*
G01X9712Y35879D01*
G01X9702Y35857D01*
G01X9694Y35835D01*
G01X9689Y35811D01*
G01X9686Y35788D01*
G01X9685Y35764D01*
G01X9685Y32764D01*
G01X9686Y32741D01*
G01X9689Y32717D01*
G01X9694Y32694D01*
G01X9702Y32672D01*
G01X9712Y32650D01*
G01X9723Y32630D01*
G01X9737Y32610D01*
G01X9752Y32592D01*
G01X9769Y32575D01*
G01X9787Y32560D01*
G01X9806Y32546D01*
G01X9827Y32535D01*
G01X9849Y32525D01*
G01X9871Y32518D01*
G01X9894Y32512D01*
G01X9917Y32509D01*
G01X9941Y32508D01*
G01X11072Y32508D01*
G01X11086Y32507D01*
G01X11100Y32504D01*
G01X11114Y32499D01*
G01X11126Y32492D01*
G01X11138Y32483D01*
G01X11148Y32473D01*
G01X11157Y32461D01*
G01X11164Y32449D01*
G01X11169Y32435D01*
G01X11172Y32421D01*
G01X11173Y32406D01*
G01X11173Y29665D01*
G01X11172Y29649D01*
G01X11168Y29633D01*
G01X11162Y29619D01*
G01X11154Y29605D01*
G01X11143Y29593D01*
G01X8288Y26738D01*
G01X8268Y26715D01*
G01X8249Y26692D01*
G01X8232Y26667D01*
G01X8218Y26641D01*
G01X8205Y26613D01*
G01X8195Y26585D01*
G01X8187Y26556D01*
G01X8181Y26526D01*
G01X8177Y26497D01*
G01X8176Y26467D01*
G01X8176Y19715D01*
G01X8175Y19701D01*
G01X8172Y19687D01*
G01X8167Y19673D01*
G01X8160Y19660D01*
G01X8151Y19649D01*
G01X8141Y19639D01*
G01X8129Y19630D01*
G01X8117Y19623D01*
G01X8103Y19618D01*
G01X8089Y19615D01*
G01X8074Y19614D01*
G01X7960Y19614D01*
G01X7937Y19613D01*
G01X7914Y19610D01*
G01X7892Y19604D01*
G01X7870Y19597D01*
G01X7849Y19589D01*
G01X7829Y19578D01*
G01X7810Y19565D01*
G01X7792Y19551D01*
G01X7775Y19535D01*
G01X7760Y19518D01*
G01X7747Y19499D01*
G01X7735Y19480D01*
G01X7725Y19459D01*
G01X7717Y19438D01*
G01X7710Y19416D01*
G01X7706Y19394D01*
G01X7703Y19379D01*
G01X7698Y19366D01*
G01X7691Y19353D01*
G01X7682Y19341D01*
G01X7672Y19331D01*
G01X7648Y19315D01*
G01X7634Y19310D01*
G01X7620Y19307D01*
G01X7606Y19306D01*
G01X3175Y19306D01*
G01X3145Y19305D01*
G01X3115Y19302D01*
G01X3085Y19296D01*
G01X3056Y19287D01*
G01X3028Y19277D01*
G01X3001Y19265D01*
G01X2975Y19250D01*
G01X2949Y19233D01*
G01X2926Y19214D01*
G01X2903Y19194D01*
G01X2066Y18356D01*
G01X2045Y18334D01*
G01X2027Y18310D01*
G01X2010Y18285D01*
G01X1995Y18259D01*
G01X1982Y18231D01*
G01X1972Y18203D01*
G01X1964Y18174D01*
G01X1958Y18145D01*
G01X1955Y18115D01*
G01X1954Y18085D01*
G01X1954Y17614D01*
G01X1952Y17599D01*
G01X1949Y17585D01*
G01X1944Y17571D01*
G01X1937Y17559D01*
G01X1929Y17548D01*
G01X1918Y17537D01*
G01X1907Y17528D01*
G01X1894Y17522D01*
G01X1880Y17517D01*
G01X1866Y17514D01*
G01X1852Y17512D01*
G01X1537Y17512D01*
G01X1513Y17511D01*
G01X1490Y17508D01*
G01X1466Y17502D01*
G01X1444Y17495D01*
G01X1423Y17486D01*
G01X1402Y17474D01*
G01X1382Y17460D01*
G01X1364Y17445D01*
G01X1347Y17429D01*
G01X1332Y17410D01*
G01X1319Y17391D01*
G01X1307Y17370D01*
G01X1298Y17348D01*
G01X1290Y17326D01*
G01X1284Y17303D01*
G01X1281Y17279D01*
G01X1280Y17255D01*
G01X1280Y15256D01*
G01X1281Y15232D01*
G01X1284Y15209D01*
G01X1290Y15185D01*
G01X1298Y15163D01*
G01X1307Y15141D01*
G01X1319Y15121D01*
G01X1332Y15101D01*
G01X1347Y15083D01*
G01X1364Y15066D01*
G01X1382Y15051D01*
G01X1402Y15038D01*
G01X1423Y15026D01*
G01X1444Y15017D01*
G01X1466Y15009D01*
G01X1490Y15004D01*
G01X1513Y15000D01*
G01X1537Y14999D01*
G01X3009Y14999D01*
G01X3025Y14998D01*
G01X3040Y14994D01*
G01X3055Y14988D01*
G01X3069Y14980D01*
G01X3081Y14969D01*
G01X3396Y14654D01*
G01X3407Y14641D01*
G01X3415Y14628D01*
G01X3421Y14613D01*
G01X3425Y14598D01*
G01X3426Y14582D01*
G01X3426Y11488D01*
G01X3425Y11473D01*
G01X3422Y11459D01*
G01X3417Y11444D01*
G01X3409Y11431D01*
G01X3400Y11420D01*
G01X3389Y11409D01*
G01X3376Y11401D01*
G01X3363Y11394D01*
G01X3349Y11390D01*
G01X3325Y11383D01*
G01X3303Y11373D01*
G01X3281Y11362D01*
G01X3261Y11349D01*
G01X3241Y11334D01*
G01X3224Y11317D01*
G01X3208Y11299D01*
G01X3194Y11279D01*
G01X3181Y11258D01*
G01X3172Y11235D01*
G01X3164Y11212D01*
G01X3158Y11188D01*
G01X3154Y11165D01*
G01X3153Y11140D01*
G01X3153Y9941D01*
G01X3154Y9917D01*
G01X3157Y9894D01*
G01X3163Y9871D01*
G01X3171Y9849D01*
G01X3180Y9827D01*
G01X3192Y9806D01*
G01X3205Y9787D01*
G01X3220Y9769D01*
G01X3237Y9752D01*
G01X3255Y9737D01*
G01X3275Y9723D01*
G01X3295Y9712D01*
G01X3317Y9702D01*
G01X3339Y9694D01*
G01X3363Y9689D01*
G01X3386Y9686D01*
G01X3410Y9685D01*
G01X4210Y9685D01*
G01X4233Y9686D01*
G01X4257Y9689D01*
G01X4280Y9694D01*
G01X4303Y9702D01*
G01X4324Y9712D01*
G01X4345Y9723D01*
G01X4364Y9737D01*
G01X4383Y9752D01*
G01X4400Y9769D01*
G01X4414Y9787D01*
G01X4428Y9806D01*
G01X4440Y9827D01*
G01X4449Y9849D01*
G01X4456Y9871D01*
G01X4462Y9894D01*
G01X4465Y9917D01*
G01X4467Y9941D01*
G01X4467Y11140D01*
G01X4465Y11165D01*
G01X4462Y11188D01*
G01X4456Y11212D01*
G01X4448Y11235D01*
G01X4438Y11258D01*
G01X4426Y11279D01*
G01X4412Y11299D01*
G01X4395Y11317D01*
G01X4378Y11334D01*
G01X4359Y11349D01*
G01X4339Y11362D01*
G01X4317Y11373D01*
G01X4294Y11383D01*
G01X4271Y11390D01*
G01X4256Y11394D01*
G01X4243Y11401D01*
G01X4231Y11409D01*
G01X4220Y11420D01*
G01X4211Y11431D01*
G01X4203Y11444D01*
G01X4198Y11459D01*
G01X4194Y11473D01*
G01X4193Y11488D01*
G01X4193Y14783D01*
G01X4192Y14813D01*
G01X4189Y14843D01*
G01X4183Y14872D01*
G01X4174Y14901D01*
G01X4164Y14929D01*
G01X4152Y14957D01*
G01X4137Y14983D01*
G01X4120Y15008D01*
G01X4101Y15032D01*
G01X4081Y15054D01*
G01X3423Y15712D01*
G01X3413Y15724D01*
G01X3404Y15738D01*
G01X3398Y15752D01*
G01X3395Y15768D01*
G01X3394Y15783D01*
G01X3394Y17255D01*
G01X3392Y17279D01*
G01X3389Y17303D01*
G01X3384Y17326D01*
G01X3376Y17348D01*
G01X3367Y17370D01*
G01X3355Y17391D01*
G01X3342Y17410D01*
G01X3327Y17429D01*
G01X3310Y17445D01*
G01X3292Y17460D01*
G01X3272Y17474D01*
G01X3251Y17486D01*
G01X3230Y17495D01*
G01X3207Y17502D01*
G01X3184Y17508D01*
G01X3161Y17511D01*
G01X3137Y17512D01*
G01X2822Y17512D01*
G01X2807Y17514D01*
G01X2793Y17517D01*
G01X2780Y17522D01*
G01X2767Y17528D01*
G01X2756Y17537D01*
G01X2745Y17548D01*
G01X2736Y17559D01*
G01X2730Y17571D01*
G01X2725Y17585D01*
G01X2722Y17599D01*
G01X2721Y17614D01*
G01X2721Y17884D01*
G01X2722Y17900D01*
G01X2725Y17915D01*
G01X2731Y17930D01*
G01X2740Y17943D01*
G01X2750Y17956D01*
G01X3304Y18509D01*
G01X3316Y18520D01*
G01X3330Y18528D01*
G01X3344Y18534D01*
G01X3360Y18538D01*
G01X3376Y18539D01*
G01X7602Y18539D01*
G01X7616Y18538D01*
G01X7630Y18535D01*
G01X7644Y18530D01*
G01X7657Y18523D01*
G01X7669Y18514D01*
G01X7679Y18504D01*
G01X7687Y18492D01*
G01X7694Y18480D01*
G01X7700Y18466D01*
G01X7703Y18452D01*
G01X7704Y18438D01*
G01X7704Y16357D01*
G01X7705Y16333D01*
G01X7708Y16310D01*
G01X7713Y16287D01*
G01X7721Y16265D01*
G01X7730Y16243D01*
G01X7742Y16222D01*
G01X7755Y16203D01*
G01X7771Y16185D01*
G01X7787Y16168D01*
G01X7806Y16153D01*
G01X7825Y16139D01*
G01X7846Y16128D01*
G01X7868Y16118D01*
G01X7890Y16110D01*
G01X7913Y16105D01*
G01X7936Y16102D01*
G01X7960Y16101D01*
G01X8930Y16101D01*
G01X8945Y16100D01*
G01X8959Y16097D01*
G01X8973Y16091D01*
G01X8986Y16085D01*
G01X9008Y16065D01*
G01X9016Y16053D01*
G01X9023Y16040D01*
G01X9028Y16026D01*
G01X9037Y15999D01*
G01X9047Y15973D01*
G01X9059Y15948D01*
G01X9074Y15924D01*
G01X9090Y15900D01*
G01X9107Y15878D01*
G01X9126Y15857D01*
G01X10269Y14714D01*
G01X10292Y14694D01*
G01X10315Y14675D01*
G01X10341Y14659D01*
G01X10367Y14644D01*
G01X10394Y14631D01*
G01X10422Y14621D01*
G01X10451Y14613D01*
G01X10481Y14607D01*
G01X10511Y14603D01*
G01X10541Y14602D01*
G01X15420Y14602D01*
G01X15436Y14601D01*
G01X15451Y14597D01*
G01X15466Y14591D01*
G01X15480Y14583D01*
G01X15492Y14572D01*
G01X15825Y14239D01*
G01X15836Y14227D01*
G01X15844Y14213D01*
G01X15850Y14198D01*
G01X15854Y14183D01*
G01X15855Y14167D01*
G01X15854Y14153D01*
G01X15851Y14138D01*
G01X15846Y14125D01*
G01X15839Y14112D01*
G01X15830Y14100D01*
G01X15820Y14090D01*
G01X15808Y14082D01*
G01X15796Y14075D01*
G01X15782Y14070D01*
G01X15768Y14066D01*
G01X15753Y14065D01*
G01X15736Y14067D01*
G01X15719Y14071D01*
G01X15691Y14080D01*
G01X15661Y14085D01*
G01X15632Y14087D01*
G01X13831Y14087D01*
G01X13808Y14086D01*
G01X13784Y14082D01*
G01X13761Y14077D01*
G01X13739Y14069D01*
G01X13717Y14060D01*
G01X13696Y14048D01*
G01X13677Y14035D01*
G01X13658Y14020D01*
G01X13642Y14003D01*
G01X13627Y13984D01*
G01X13613Y13965D01*
G01X13601Y13944D01*
G01X13592Y13923D01*
G01X13585Y13900D01*
G01X13579Y13877D01*
G01X13576Y13854D01*
G01X13575Y13830D01*
G01X13575Y12230D01*
G01X13576Y12206D01*
G01X13579Y12183D01*
G01X13585Y12160D01*
G01X13592Y12137D01*
G01X13601Y12116D01*
G01X13613Y12095D01*
G01X13627Y12075D01*
G01X13642Y12057D01*
G01X13658Y12040D01*
G01X13677Y12025D01*
G01X13696Y12012D01*
G01X13717Y12000D01*
G01X13739Y11991D01*
G01X13761Y11983D01*
G01X13784Y11978D01*
G01X13808Y11974D01*
G01X13832Y11973D01*
G01X15632Y11973D01*
G01X15656Y11974D01*
G01X15679Y11978D01*
G01X15703Y11983D01*
G01X15725Y11991D01*
G01X15747Y12000D01*
G01X15767Y12012D01*
G01X15787Y12025D01*
G01X15805Y12040D01*
G01X15822Y12057D01*
G01X15837Y12075D01*
G01X15850Y12095D01*
G01X15862Y12116D01*
G01X15871Y12137D01*
G01X15879Y12160D01*
G01X15884Y12183D01*
G01X15887Y12206D01*
G01X15889Y12230D01*
G01X15889Y13830D01*
G01X15887Y13860D01*
G01X15882Y13888D01*
G01X15874Y13917D01*
G01X15869Y13934D01*
G01X15868Y13951D01*
G01X15869Y13966D01*
G01X15872Y13980D01*
G01X15877Y13994D01*
G01X15884Y14006D01*
G01X15893Y14018D01*
G01X15903Y14028D01*
G01X15914Y14037D01*
G01X15927Y14043D01*
G01X15941Y14048D01*
G01X15955Y14052D01*
G01X15969Y14053D01*
G01X15985Y14052D01*
G01X16001Y14048D01*
G01X16015Y14042D01*
G01X16029Y14033D01*
G01X16041Y14023D01*
G01X16179Y13885D01*
G01X16190Y13873D01*
G01X16198Y13859D01*
G01X16204Y13844D01*
G01X16207Y13829D01*
G01X16209Y13813D01*
G01X16206Y13789D01*
G01X16196Y13743D01*
G01X16188Y13695D01*
G01X16183Y13648D01*
G01X16180Y13600D01*
G01X16178Y13553D01*
G01X16179Y13507D01*
G01X16182Y13461D01*
G01X16187Y13416D01*
G01X16195Y13371D01*
G01X16204Y13326D01*
G01X16215Y13282D01*
G01X16228Y13238D01*
G01X16243Y13195D01*
G01X16260Y13152D01*
G01X16279Y13111D01*
G01X16300Y13070D01*
G01X16322Y13030D01*
G01X16347Y12992D01*
G01X16373Y12954D01*
G01X16401Y12918D01*
G01X16429Y12883D01*
G01X16460Y12849D01*
G01X16493Y12817D01*
G01X16527Y12786D01*
G01X16562Y12757D01*
G01X16598Y12729D01*
G01X16636Y12703D01*
G01X16674Y12678D01*
G01X16714Y12656D01*
G01X16755Y12635D01*
G01X16796Y12616D01*
G01X16839Y12599D01*
G01X16882Y12584D01*
G01X16926Y12571D01*
G01X16970Y12560D01*
G01X17015Y12550D01*
G01X17060Y12543D01*
G01X17106Y12538D01*
G01X17151Y12535D01*
G01X17197Y12534D01*
G01X17242Y12535D01*
G01X17288Y12538D01*
G01X17334Y12543D01*
G01X17379Y12550D01*
G01X17424Y12560D01*
G01X17468Y12571D01*
G01X17512Y12584D01*
G01X17555Y12599D01*
G01X17597Y12616D01*
G01X17639Y12635D01*
G01X17680Y12656D01*
G01X17719Y12678D01*
G01X17758Y12703D01*
G01X17796Y12729D01*
G01X17832Y12757D01*
G01X17867Y12786D01*
G01X17901Y12817D01*
G01X17933Y12849D01*
G01X17964Y12883D01*
G01X17994Y12918D01*
G01X18021Y12955D01*
G01X18047Y12992D01*
G01X18071Y13031D01*
G01X18094Y13071D01*
G01X18115Y13112D01*
G01X18123Y13125D01*
G01X18133Y13138D01*
G01X18146Y13149D01*
G01X18159Y13157D01*
G01X18174Y13164D01*
G01X18190Y13168D01*
G01X18206Y13169D01*
G01X22687Y13169D01*
G01X22703Y13168D01*
G01X22719Y13164D01*
G01X22734Y13157D01*
G01X22748Y13149D01*
G01X22760Y13138D01*
G01X22770Y13125D01*
G01X22779Y13112D01*
G01X22799Y13071D01*
G01X22822Y13031D01*
G01X22847Y12992D01*
G01X22872Y12955D01*
G01X22900Y12918D01*
G01X22929Y12883D01*
G01X22960Y12849D01*
G01X22992Y12817D01*
G01X23026Y12786D01*
G01X23061Y12757D01*
G01X23097Y12729D01*
G01X23135Y12703D01*
G01X23174Y12678D01*
G01X23214Y12656D01*
G01X23254Y12635D01*
G01X23296Y12616D01*
G01X23339Y12599D01*
G01X23382Y12584D01*
G01X23426Y12571D01*
G01X23470Y12560D01*
G01X23515Y12550D01*
G01X23560Y12543D01*
G01X23605Y12538D01*
G01X23651Y12535D01*
G01X23697Y12534D01*
G01X23743Y12535D01*
G01X23788Y12538D01*
G01X23834Y12543D01*
G01X23879Y12550D01*
G01X23924Y12560D01*
G01X23968Y12571D01*
G01X24011Y12584D01*
G01X24055Y12599D01*
G01X24097Y12616D01*
G01X24139Y12635D01*
G01X24180Y12656D01*
G01X24219Y12678D01*
G01X24258Y12703D01*
G01X24295Y12729D01*
G01X24332Y12757D01*
G01X24367Y12786D01*
G01X24401Y12817D01*
G01X24433Y12849D01*
G01X24464Y12883D01*
G01X24493Y12918D01*
G01X24521Y12954D01*
G01X24547Y12992D01*
G01X24571Y13030D01*
G01X24594Y13070D01*
G01X24614Y13111D01*
G01X24633Y13152D01*
G01X24650Y13195D01*
G01X24666Y13238D01*
G01X24690Y13326D01*
G01X24699Y13371D01*
G01X24706Y13416D01*
G01X24711Y13461D01*
G01X24714Y13507D01*
G01X24715Y13553D01*
G01X24714Y13599D01*
G01X24711Y13646D01*
G01X24706Y13692D01*
G01X24698Y13738D01*
G01X24689Y13783D01*
G01X24677Y13829D01*
G01X24664Y13873D01*
G01X24648Y13917D01*
G01X24630Y13960D01*
G01X24611Y14002D01*
G01X24589Y14043D01*
G01X24566Y14084D01*
G01X24541Y14123D01*
G01X24514Y14161D01*
G01X24485Y14197D01*
G01X24455Y14233D01*
G01X24423Y14267D01*
G01X24390Y14299D01*
G01X24379Y14312D01*
G01X24370Y14325D01*
G01X24363Y14341D01*
G01X24359Y14357D01*
G01X24357Y14374D01*
G01X24358Y14388D01*
G01X24361Y14402D01*
G01X24366Y14416D01*
G01X24382Y14440D01*
G01X24392Y14450D01*
G01X24404Y14459D01*
G01X24417Y14466D01*
G01X24430Y14471D01*
G01X24445Y14474D01*
G01X24459Y14475D01*
G01X28090Y14475D01*
G01X28104Y14474D01*
G01X28118Y14471D01*
G01X28132Y14466D01*
G01X28144Y14459D01*
G01X28156Y14450D01*
G01X28166Y14440D01*
G01X28175Y14428D01*
G01X28182Y14416D01*
G01X28187Y14402D01*
G01X28190Y14388D01*
G01X28191Y14374D01*
G01X28191Y14061D01*
G01X28190Y14047D01*
G01X28187Y14033D01*
G01X28182Y14019D01*
G01X28175Y14006D01*
G01X28166Y13995D01*
G01X28156Y13984D01*
G01X28144Y13976D01*
G01X28132Y13969D01*
G01X28118Y13964D01*
G01X28104Y13961D01*
G01X28090Y13960D01*
G01X27675Y13960D01*
G01X27651Y13959D01*
G01X27627Y13955D01*
G01X27604Y13950D01*
G01X27582Y13942D01*
G01X27560Y13933D01*
G01X27539Y13921D01*
G01X27520Y13908D01*
G01X27501Y13893D01*
G01X27485Y13876D01*
G01X27470Y13857D01*
G01X27456Y13838D01*
G01X27444Y13817D01*
G01X27435Y13796D01*
G01X27428Y13773D01*
G01X27422Y13750D01*
G01X27419Y13727D01*
G01X27418Y13703D01*
G01X27418Y12103D01*
G01X27419Y12079D01*
G01X27422Y12056D01*
G01X27428Y12033D01*
G01X27435Y12010D01*
G01X27444Y11989D01*
G01X27456Y11968D01*
G01X27470Y11948D01*
G01X27485Y11930D01*
G01X27501Y11913D01*
G01X27520Y11898D01*
G01X27539Y11885D01*
G01X27560Y11873D01*
G01X27582Y11864D01*
G01X27604Y11856D01*
G01X27627Y11851D01*
G01X27651Y11847D01*
G01X27675Y11846D01*
G01X29475Y11846D01*
G01X29499Y11847D01*
G01X29522Y11851D01*
G01X29546Y11856D01*
G01X29568Y11864D01*
G01X29590Y11873D01*
G01X29610Y11885D01*
G01X29630Y11898D01*
G01X29648Y11913D01*
G01X29665Y11930D01*
G01X29680Y11948D01*
G01X29693Y11968D01*
G01X29705Y11989D01*
G01X29714Y12010D01*
G01X29722Y12033D01*
G01X29727Y12056D01*
G01X29730Y12079D01*
G01X29732Y12103D01*
G01X29732Y13703D01*
G01X29730Y13727D01*
G01X29727Y13750D01*
G01X29722Y13773D01*
G01X29714Y13796D01*
G01X29705Y13817D01*
G01X29693Y13838D01*
G01X29680Y13857D01*
G01X29665Y13876D01*
G01X29648Y13893D01*
G01X29630Y13908D01*
G01X29610Y13921D01*
G01X29590Y13933D01*
G01X29568Y13942D01*
G01X29546Y13950D01*
G01X29522Y13955D01*
G01X29499Y13959D01*
G01X29475Y13960D01*
G01X29060Y13960D01*
G01X29046Y13961D01*
G01X29031Y13964D01*
G01X29018Y13969D01*
G01X29005Y13976D01*
G01X28993Y13984D01*
G01X28983Y13995D01*
G01X28975Y14006D01*
G01X28967Y14019D01*
G01X28962Y14033D01*
G01X28959Y14047D01*
G01X28958Y14061D01*
G01X28958Y14605D01*
G01X28957Y14635D01*
G01X28954Y14665D01*
G01X28948Y14694D01*
G01X28939Y14723D01*
G01X28929Y14752D01*
G01X28917Y14779D01*
G01X28902Y14805D01*
G01X28885Y14830D01*
G01X28866Y14854D01*
G01X28846Y14876D01*
G01X28785Y14937D01*
G01X28775Y14949D01*
G01X28766Y14962D01*
G01X28760Y14977D01*
G01X28757Y14993D01*
G01X28756Y15009D01*
G01X28757Y15023D01*
G01X28760Y15037D01*
G01X28765Y15051D01*
G01X28771Y15063D01*
G01X28780Y15075D01*
G01X28791Y15085D01*
G01X28802Y15094D01*
G01X28815Y15101D01*
G01X28828Y15106D01*
G01X28842Y15109D01*
G01X28857Y15110D01*
G01X32565Y15110D01*
G01X32581Y15109D01*
G01X32596Y15105D01*
G01X32611Y15099D01*
G01X32625Y15091D01*
G01X32637Y15080D01*
G01X33457Y14260D01*
G01X33468Y14248D01*
G01X33476Y14234D01*
G01X33482Y14219D01*
G01X33486Y14204D01*
G01X33487Y14188D01*
G01X33487Y14099D01*
G01X33486Y14085D01*
G01X33483Y14070D01*
G01X33478Y14057D01*
G01X33471Y14044D01*
G01X33462Y14033D01*
G01X33452Y14023D01*
G01X33440Y14013D01*
G01X33428Y14007D01*
G01X33414Y14002D01*
G01X33400Y13999D01*
G01X33386Y13998D01*
G01X32970Y13998D01*
G01X32947Y13997D01*
G01X32923Y13993D01*
G01X32900Y13988D01*
G01X32878Y13980D01*
G01X32856Y13971D01*
G01X32835Y13959D01*
G01X32816Y13946D01*
G01X32797Y13931D01*
G01X32780Y13914D01*
G01X32765Y13896D01*
G01X32752Y13876D01*
G01X32740Y13855D01*
G01X32731Y13834D01*
G01X32724Y13811D01*
G01X32718Y13788D01*
G01X32714Y13765D01*
G01X32713Y13741D01*
G01X32713Y12141D01*
G01X32714Y12117D01*
G01X32718Y12094D01*
G01X32724Y12071D01*
G01X32731Y12048D01*
G01X32740Y12027D01*
G01X32752Y12006D01*
G01X32765Y11986D01*
G01X32780Y11968D01*
G01X32797Y11951D01*
G01X32816Y11936D01*
G01X32835Y11923D01*
G01X32856Y11911D01*
G01X32878Y11902D01*
G01X32900Y11894D01*
G01X32923Y11888D01*
G01X32947Y11885D01*
G01X32970Y11884D01*
G01X34771Y11884D01*
G01X34795Y11885D01*
G01X34818Y11888D01*
G01X34841Y11894D01*
G01X34864Y11902D01*
G01X34885Y11911D01*
G01X34906Y11923D01*
G01X34926Y11936D01*
G01X34944Y11951D01*
G01X34960Y11968D01*
G01X34976Y11986D01*
G01X34989Y12006D01*
G01X35000Y12027D01*
G01X35010Y12048D01*
G01X35018Y12071D01*
G01X35023Y12094D01*
G01X35026Y12117D01*
G01X35027Y12141D01*
G01X35027Y13741D01*
G01X35026Y13765D01*
G01X35023Y13788D01*
G01X35018Y13811D01*
G01X35010Y13834D01*
G01X35000Y13855D01*
G01X34989Y13876D01*
G01X34976Y13896D01*
G01X34960Y13914D01*
G01X34944Y13931D01*
G01X34926Y13946D01*
G01X34906Y13959D01*
G01X34885Y13971D01*
G01X34864Y13980D01*
G01X34841Y13988D01*
G01X34818Y13993D01*
G01X34795Y13997D01*
G01X34771Y13998D01*
G01X34356Y13998D01*
G01X34342Y13999D01*
G01X34327Y14002D01*
G01X34314Y14007D01*
G01X34301Y14013D01*
G01X34289Y14023D01*
G01X34279Y14033D01*
G01X34270Y14044D01*
G01X34263Y14057D01*
G01X34258Y14070D01*
G01X34255Y14085D01*
G01X34254Y14099D01*
G01X34254Y14389D01*
G01X34253Y14419D01*
G01X34250Y14449D01*
G01X34244Y14478D01*
G01X34235Y14507D01*
G01X34225Y14536D01*
G01X34213Y14563D01*
G01X34198Y14589D01*
G01X34181Y14614D01*
G01X34162Y14638D01*
G01X34142Y14660D01*
G01X33037Y15765D01*
G01X33015Y15785D01*
G01X32991Y15804D01*
G01X32966Y15821D01*
G01X32940Y15836D01*
G01X32913Y15848D01*
G01X32884Y15858D01*
G01X32855Y15867D01*
G01X32826Y15873D01*
G01X32796Y15876D01*
G01X32766Y15877D01*
G01X17854Y15877D01*
G01X17838Y15878D01*
G01X17822Y15882D01*
G01X17808Y15888D01*
G01X17794Y15897D01*
G01X17782Y15907D01*
G01X17735Y15954D01*
G01X17724Y15966D01*
G01X17716Y15980D01*
G01X17710Y15995D01*
G01X17707Y16010D01*
G01X17705Y16026D01*
G01X17706Y16040D01*
G01X17709Y16055D01*
G01X17714Y16068D01*
G01X17721Y16081D01*
G01X17730Y16092D01*
G01X17740Y16103D01*
G01X17752Y16111D01*
G01X17765Y16118D01*
G01X17778Y16123D01*
G01X17792Y16126D01*
G01X17807Y16127D01*
G01X17826Y16126D01*
G01X17845Y16120D01*
G01X17869Y16111D01*
G01X17893Y16105D01*
G01X17917Y16102D01*
G01X17942Y16101D01*
G01X19141Y16101D01*
G01X19165Y16102D01*
G01X19188Y16105D01*
G01X19211Y16110D01*
G01X19234Y16118D01*
G01X19255Y16128D01*
G01X19276Y16139D01*
G01X19296Y16153D01*
G01X19314Y16168D01*
G01X19331Y16185D01*
G01X19346Y16203D01*
G01X19359Y16222D01*
G01X19371Y16243D01*
G01X19380Y16265D01*
G01X19388Y16287D01*
G01X19393Y16310D01*
G01X19397Y16333D01*
G01X19398Y16357D01*
G01X19398Y19067D01*
G01X19399Y19083D01*
G01X19403Y19099D01*
G01X19409Y19113D01*
G01X19417Y19127D01*
G01X19428Y19139D01*
G01X19519Y19231D01*
G01X19531Y19241D01*
G01X19545Y19249D01*
G01X19559Y19255D01*
G01X19575Y19259D01*
G01X19591Y19260D01*
G01X19605Y19259D01*
G01X19619Y19256D01*
G01X19633Y19251D01*
G01X19646Y19244D01*
G01X19657Y19236D01*
G01X19667Y19225D01*
G01X19676Y19214D01*
G01X19683Y19201D01*
G01X19688Y19187D01*
G01X19691Y19173D01*
G01X19692Y19158D01*
G01X19692Y16357D01*
G01X19693Y16333D01*
G01X19697Y16310D01*
G01X19702Y16287D01*
G01X19710Y16265D01*
G01X19719Y16243D01*
G01X19731Y16222D01*
G01X19744Y16203D01*
G01X19759Y16185D01*
G01X19776Y16168D01*
G01X19794Y16153D01*
G01X19814Y16139D01*
G01X19835Y16128D01*
G01X19856Y16118D01*
G01X19879Y16110D01*
G01X19902Y16105D01*
G01X19925Y16102D01*
G01X19949Y16101D01*
G01X21148Y16101D01*
G01X21172Y16102D01*
G01X21195Y16105D01*
G01X21218Y16110D01*
G01X21240Y16118D01*
G01X21262Y16128D01*
G01X21283Y16139D01*
G01X21302Y16153D01*
G01X21321Y16168D01*
G01X21337Y16185D01*
G01X21353Y16203D01*
G01X21366Y16222D01*
G01X21377Y16243D01*
G01X21387Y16265D01*
G01X21395Y16287D01*
G01X21400Y16310D01*
G01X21403Y16333D01*
G01X21404Y16357D01*
G01X21404Y18915D01*
G01X21405Y18931D01*
G01X21409Y18946D01*
G01X21416Y18961D01*
G01X21424Y18975D01*
G01X21434Y18987D01*
G01X21526Y19078D01*
G01X21537Y19088D01*
G01X21551Y19097D01*
G01X21566Y19103D01*
G01X21582Y19107D01*
G01X21597Y19108D01*
G01X21612Y19107D01*
G01X21626Y19104D01*
G01X21640Y19099D01*
G01X21652Y19092D01*
G01X21664Y19083D01*
G01X21674Y19073D01*
G01X21683Y19061D01*
G01X21690Y19049D01*
G01X21695Y19035D01*
G01X21698Y19021D01*
G01X21699Y19006D01*
G01X21699Y16357D01*
G01X21700Y16333D01*
G01X21704Y16310D01*
G01X21709Y16287D01*
G01X21716Y16265D01*
G01X21726Y16243D01*
G01X21738Y16222D01*
G01X21751Y16203D01*
G01X21766Y16185D01*
G01X21783Y16168D01*
G01X21801Y16153D01*
G01X21820Y16139D01*
G01X21841Y16128D01*
G01X21863Y16118D01*
G01X21885Y16110D01*
G01X21908Y16105D01*
G01X21932Y16102D01*
G01X21956Y16101D01*
G01X23154Y16101D01*
G01X23178Y16102D01*
G01X23202Y16105D01*
G01X23224Y16110D01*
G01X23247Y16118D01*
G01X23269Y16128D01*
G01X23290Y16139D01*
G01X23309Y16153D01*
G01X23327Y16168D01*
G01X23344Y16185D01*
G01X23359Y16203D01*
G01X23372Y16222D01*
G01X23384Y16243D01*
G01X23394Y16265D01*
G01X23401Y16287D01*
G01X23406Y16310D01*
G01X23410Y16333D01*
G01X23411Y16357D01*
G01X23411Y19327D01*
G01X23412Y19341D01*
G01X23415Y19355D01*
G01X23420Y19369D01*
G01X23427Y19381D01*
G01X23436Y19393D01*
G01X23446Y19403D01*
G01X23458Y19412D01*
G01X23470Y19419D01*
G01X23484Y19424D01*
G01X23498Y19427D01*
G01X23513Y19428D01*
G01X28956Y19428D01*
G01X28986Y19429D01*
G01X29016Y19433D01*
G01X29045Y19439D01*
G01X29074Y19447D01*
G01X29103Y19457D01*
G01X29130Y19470D01*
G01X29156Y19485D01*
G01X29181Y19501D01*
G01X29205Y19520D01*
G01X29227Y19540D01*
G01X29669Y19982D01*
G01X29681Y19993D01*
G01X29694Y20001D01*
G01X29709Y20007D01*
G01X29725Y20011D01*
G01X29741Y20012D01*
G01X29755Y20011D01*
G01X29769Y20008D01*
G01X29783Y20003D01*
G01X29795Y19996D01*
G01X29807Y19988D01*
G01X29817Y19977D01*
G01X29826Y19966D01*
G01X29833Y19953D01*
G01X29838Y19939D01*
G01X29841Y19925D01*
G01X29842Y19910D01*
G01X29842Y19011D01*
G01X29841Y18996D01*
G01X29838Y18982D01*
G01X29833Y18968D01*
G01X29826Y18956D01*
G01X29817Y18945D01*
G01X29807Y18934D01*
G01X29795Y18925D01*
G01X29783Y18919D01*
G01X29769Y18914D01*
G01X29755Y18911D01*
G01X29741Y18909D01*
G01X28994Y18909D01*
G01X28970Y18908D01*
G01X28947Y18905D01*
G01X28923Y18899D01*
G01X28901Y18892D01*
G01X28880Y18883D01*
G01X28859Y18871D01*
G01X28839Y18857D01*
G01X28821Y18842D01*
G01X28804Y18826D01*
G01X28789Y18807D01*
G01X28775Y18788D01*
G01X28764Y18767D01*
G01X28755Y18745D01*
G01X28747Y18723D01*
G01X28741Y18700D01*
G01X28738Y18676D01*
G01X28737Y18652D01*
G01X28737Y16653D01*
G01X28738Y16629D01*
G01X28741Y16606D01*
G01X28747Y16582D01*
G01X28755Y16560D01*
G01X28764Y16538D01*
G01X28775Y16518D01*
G01X28789Y16498D01*
G01X28804Y16480D01*
G01X28821Y16463D01*
G01X28839Y16448D01*
G01X28859Y16435D01*
G01X28880Y16423D01*
G01X28901Y16414D01*
G01X28923Y16406D01*
G01X28947Y16401D01*
G01X28970Y16397D01*
G01X28994Y16396D01*
G01X30594Y16396D01*
G01X30617Y16397D01*
G01X30641Y16401D01*
G01X30664Y16406D01*
G01X30687Y16414D01*
G01X30708Y16423D01*
G01X30729Y16435D01*
G01X30748Y16448D01*
G01X30767Y16463D01*
G01X30784Y16480D01*
G01X30799Y16498D01*
G01X30812Y16518D01*
G01X30824Y16538D01*
G01X30833Y16560D01*
G01X30840Y16582D01*
G01X30846Y16606D01*
G01X30849Y16629D01*
G01X30851Y16653D01*
G01X30851Y18652D01*
G01X30849Y18677D01*
G01X30846Y18701D01*
G01X30840Y18725D01*
G01X30832Y18748D01*
G01X30822Y18770D01*
G01X30809Y18792D01*
G01X30796Y18812D01*
G01X30779Y18830D01*
G01X30762Y18847D01*
G01X30742Y18862D01*
G01X30722Y18875D01*
G01X30700Y18886D01*
G01X30678Y18895D01*
G01X30663Y18901D01*
G01X30650Y18910D01*
G01X30638Y18920D01*
G01X30628Y18932D01*
G01X30620Y18946D01*
G01X30614Y18960D01*
G01X30610Y18976D01*
G01X30609Y18991D01*
G01X30609Y20423D01*
G01X30610Y20438D01*
G01X30613Y20452D01*
G01X30618Y20466D01*
G01X30626Y20479D01*
G01X30634Y20490D01*
G01X30644Y20501D01*
G01X30656Y20509D01*
G01X30669Y20516D01*
G01X30682Y20521D01*
G01X30697Y20524D01*
G01X30711Y20525D01*
G01X31227Y20525D01*
G01X31261Y20526D01*
G01X31294Y20529D01*
G01X31327Y20534D01*
G01X31360Y20541D01*
G01X31392Y20550D01*
G01X31424Y20562D01*
G01X31455Y20574D01*
G01X31486Y20589D01*
G01X31515Y20605D01*
G01X31543Y20624D01*
G01X31570Y20644D01*
G01X31596Y20665D01*
G01X31620Y20688D01*
G01X31643Y20713D01*
G01X31665Y20738D01*
G01X31685Y20766D01*
G01X31703Y20794D01*
G01X31719Y20823D01*
G01X31734Y20853D01*
G01X31747Y20885D01*
G01X31758Y20916D01*
G01X31767Y20949D01*
G01X31774Y20982D01*
G01X31779Y21015D01*
G01X31782Y21048D01*
G01X31783Y21082D01*
G01X31782Y21116D01*
G01X31779Y21151D01*
G01X31774Y21185D01*
G01X31766Y21218D01*
G01X31757Y21252D01*
G01X31745Y21284D01*
G01X31731Y21316D01*
G01X31716Y21347D01*
G01X31698Y21377D01*
G01X31679Y21406D01*
G01X31658Y21433D01*
G01X31635Y21459D01*
G01X31612Y21484D01*
G01X31586Y21507D01*
G01X31559Y21529D01*
G01X31530Y21548D01*
G01X31501Y21566D01*
G01X31470Y21582D01*
G01X31438Y21596D01*
G01X31406Y21609D01*
G01X31373Y21619D01*
G01X31359Y21624D01*
G01X31346Y21630D01*
G01X31334Y21639D01*
G01X31324Y21649D01*
G01X31315Y21661D01*
G01X31308Y21674D01*
G01X31302Y21688D01*
G01X31299Y21702D01*
G01X31298Y21717D01*
G01X31299Y21731D01*
G01X31302Y21746D01*
G01X31308Y21759D01*
G01X31315Y21773D01*
G01X31324Y21784D01*
G01X31334Y21794D01*
G01X31346Y21803D01*
G01X31359Y21810D01*
G01X31373Y21815D01*
G01X31406Y21825D01*
G01X31438Y21837D01*
G01X31470Y21851D01*
G01X31501Y21867D01*
G01X31530Y21885D01*
G01X31559Y21905D01*
G01X31586Y21927D01*
G01X31612Y21949D01*
G01X31635Y21974D01*
G01X31658Y22000D01*
G01X31679Y22028D01*
G01X31698Y22057D01*
G01X31716Y22087D01*
G01X31731Y22117D01*
G01X31745Y22149D01*
G01X31757Y22182D01*
G01X31766Y22215D01*
G01X31774Y22249D01*
G01X31779Y22283D01*
G01X31782Y22317D01*
G01X31783Y22352D01*
G01X31782Y22385D01*
G01X31779Y22419D01*
G01X31774Y22452D01*
G01X31767Y22485D01*
G01X31758Y22517D01*
G01X31747Y22549D01*
G01X31734Y22580D01*
G01X31719Y22610D01*
G01X31703Y22640D01*
G01X31685Y22668D01*
G01X31665Y22695D01*
G01X31643Y22721D01*
G01X31620Y22745D01*
G01X31596Y22768D01*
G01X31570Y22790D01*
G01X31543Y22810D01*
G01X31515Y22828D01*
G01X31486Y22845D01*
G01X31455Y22859D01*
G01X31424Y22872D01*
G01X31392Y22883D01*
G01X31360Y22892D01*
G01X31327Y22899D01*
G01X31294Y22904D01*
G01X31261Y22908D01*
G01X31227Y22909D01*
G01X29829Y22909D01*
G01X29795Y22908D01*
G01X29762Y22904D01*
G01X29728Y22899D01*
G01X29695Y22892D01*
G01X29663Y22883D01*
G01X29631Y22872D01*
G01X29600Y22859D01*
G01X29570Y22845D01*
G01X29541Y22828D01*
G01X29513Y22810D01*
G01X29486Y22790D01*
G01X29460Y22768D01*
G01X29435Y22745D01*
G01X29412Y22721D01*
G01X29391Y22695D01*
G01X29371Y22668D01*
G01X29353Y22640D01*
G01X29336Y22610D01*
G01X29322Y22580D01*
G01X29308Y22549D01*
G01X29288Y22485D01*
G01X29281Y22452D01*
G01X29276Y22419D01*
G01X29273Y22385D01*
G01X29272Y22352D01*
G01X29273Y22318D01*
G01X29276Y22284D01*
G01X29281Y22251D01*
G01X29288Y22217D01*
G01X29298Y22185D01*
G01X29309Y22153D01*
G01X29322Y22121D01*
G01X29337Y22091D01*
G01X29354Y22061D01*
G01X29373Y22033D01*
G01X29380Y22020D01*
G01X29387Y22005D01*
G01X29390Y21990D01*
G01X29391Y21974D01*
G01X29390Y21959D01*
G01X29386Y21943D01*
G01X29380Y21929D01*
G01X29372Y21915D01*
G01X29361Y21903D01*
G01X28192Y20733D01*
G01X28180Y20723D01*
G01X28166Y20714D01*
G01X28151Y20708D01*
G01X28136Y20704D01*
G01X28120Y20703D01*
G01X26521Y20703D01*
G01X26507Y20704D01*
G01X26492Y20707D01*
G01X26479Y20712D01*
G01X26466Y20720D01*
G01X26455Y20728D01*
G01X26444Y20738D01*
G01X26436Y20750D01*
G01X26429Y20763D01*
G01X26424Y20776D01*
G01X26421Y20791D01*
G01X26420Y20805D01*
G01X26420Y21961D01*
G01X26418Y21984D01*
G01X26415Y22008D01*
G01X26410Y22031D01*
G01X26402Y22053D01*
G01X26393Y22075D01*
G01X26381Y22096D01*
G01X26367Y22115D01*
G01X26353Y22133D01*
G01X26336Y22150D01*
G01X26318Y22165D01*
G01X26298Y22179D01*
G01X26278Y22190D01*
G01X26256Y22200D01*
G01X26233Y22207D01*
G01X26210Y22213D01*
G01X26187Y22216D01*
G01X26163Y22217D01*
G01X23163Y22217D01*
G01X23140Y22216D01*
G01X23116Y22213D01*
G01X23093Y22207D01*
G01X23071Y22200D01*
G01X23049Y22190D01*
G01X23028Y22179D01*
G01X23009Y22165D01*
G01X22990Y22150D01*
G01X22974Y22133D01*
G01X22959Y22115D01*
G01X22945Y22096D01*
G01X22933Y22075D01*
G01X22924Y22053D01*
G01X22917Y22031D01*
G01X22911Y22008D01*
G01X22908Y21984D01*
G01X22907Y21961D01*
G01X22907Y20805D01*
G01X22905Y20791D01*
G01X22902Y20776D01*
G01X22897Y20763D01*
G01X22891Y20750D01*
G01X22882Y20738D01*
G01X22871Y20728D01*
G01X22860Y20720D01*
G01X22848Y20712D01*
G01X22834Y20707D01*
G01X22820Y20704D01*
G01X22805Y20703D01*
G01X20066Y20703D01*
G01X20036Y20702D01*
G01X20006Y20699D01*
G01X19976Y20693D01*
G01X19947Y20684D01*
G01X19919Y20674D01*
G01X19892Y20662D01*
G01X19866Y20647D01*
G01X19840Y20630D01*
G01X19817Y20611D01*
G01X19794Y20591D01*
G01X18847Y19644D01*
G01X18835Y19633D01*
G01X18821Y19625D01*
G01X18806Y19619D01*
G01X18791Y19615D01*
G01X18775Y19614D01*
G01X17942Y19614D01*
G01X17918Y19613D01*
G01X17895Y19609D01*
G01X17872Y19604D01*
G01X17850Y19596D01*
G01X17828Y19587D01*
G01X17807Y19575D01*
G01X17788Y19562D01*
G01X17770Y19547D01*
G01X17753Y19530D01*
G01X17738Y19512D01*
G01X17724Y19492D01*
G01X17713Y19471D01*
G01X17703Y19450D01*
G01X17695Y19427D01*
G01X17690Y19404D01*
G01X17687Y19381D01*
G01X17686Y19357D01*
G01X17686Y16357D01*
G01X17687Y16332D01*
G01X17690Y16308D01*
G01X17696Y16284D01*
G01X17705Y16260D01*
G01X17711Y16242D01*
G01X17712Y16222D01*
G01X17711Y16207D01*
G01X17708Y16193D01*
G01X17703Y16180D01*
G01X17696Y16167D01*
G01X17688Y16155D01*
G01X17677Y16145D01*
G01X17666Y16136D01*
G01X17653Y16129D01*
G01X17640Y16124D01*
G01X17625Y16121D01*
G01X17611Y16120D01*
G01X17595Y16122D01*
G01X17580Y16125D01*
G01X17565Y16131D01*
G01X17551Y16139D01*
G01X17539Y16150D01*
G01X17444Y16245D01*
G01X17434Y16257D01*
G01X17425Y16270D01*
G01X17419Y16285D01*
G01X17416Y16301D01*
G01X17414Y16317D01*
G01X17415Y16328D01*
G01X17417Y16357D01*
G01X17417Y19357D01*
G01X17416Y19381D01*
G01X17412Y19404D01*
G01X17407Y19427D01*
G01X17399Y19450D01*
G01X17390Y19471D01*
G01X17378Y19492D01*
G01X17365Y19512D01*
G01X17349Y19530D01*
G01X17333Y19547D01*
G01X17314Y19562D01*
G01X17295Y19575D01*
G01X17274Y19587D01*
G01X17252Y19596D01*
G01X17230Y19604D01*
G01X17207Y19609D01*
G01X17184Y19613D01*
G01X17160Y19614D01*
G01X16106Y19614D01*
G01X16092Y19615D01*
G01X16077Y19618D01*
G01X16064Y19623D01*
G01X16051Y19630D01*
G01X16039Y19639D01*
G01X16029Y19649D01*
G01X16021Y19660D01*
G01X16013Y19673D01*
G01X16008Y19687D01*
G01X16005Y19701D01*
G01X16004Y19715D01*
G01X16004Y29009D01*
G01X16005Y29025D01*
G01X16009Y29040D01*
G01X16015Y29055D01*
G01X16024Y29069D01*
G01X16034Y29081D01*
G01X16832Y29878D01*
G01X16852Y29901D01*
G01X16871Y29924D01*
G01X16888Y29949D01*
G01X16902Y29975D01*
G01X16915Y30003D01*
G01X16925Y30031D01*
G01X16933Y30060D01*
G01X16940Y30090D01*
G01X16943Y30120D01*
G01X16944Y30150D01*
G01X16944Y32406D01*
G01X16945Y32421D01*
G01X16948Y32435D01*
G01X16953Y32449D01*
G01X16960Y32461D01*
G01X16969Y32473D01*
G01X16979Y32483D01*
G01X16991Y32492D01*
G01X17004Y32499D01*
G01X17017Y32504D01*
G01X17031Y32507D01*
G01X17046Y32508D01*
G01X17160Y32508D01*
G01X17184Y32509D01*
G01X17207Y32512D01*
G01X17230Y32518D01*
G01X17252Y32525D01*
G01X17274Y32535D01*
G01X17295Y32546D01*
G01X17314Y32560D01*
G01X17333Y32575D01*
G01X17349Y32592D01*
G01X17365Y32610D01*
G01X17378Y32630D01*
G01X17390Y32650D01*
G01X17399Y32672D01*
G01X17407Y32694D01*
G01X17412Y32717D01*
G01X17416Y32741D01*
G01X17417Y32764D01*
G01X17417Y35764D01*
G01X17416Y35788D01*
G01X17412Y35811D01*
G01X17407Y35835D01*
G01X17399Y35857D01*
G01X17390Y35879D01*
G01X17378Y35899D01*
G01X17365Y35919D01*
G01X17349Y35937D01*
G01X17333Y35954D01*
G01X17314Y35969D01*
G01X17295Y35982D01*
G01X17274Y35994D01*
G01X17252Y36003D01*
G01X17230Y36011D01*
G01X17207Y36016D01*
G01X17184Y36019D01*
G01X17160Y36021D01*
G01X16868Y36021D01*
G01X16854Y36022D01*
G01X16839Y36025D01*
G01X16826Y36030D01*
G01X16813Y36037D01*
G01X16801Y36045D01*
G01X16791Y36056D01*
G01X16783Y36067D01*
G01X16775Y36080D01*
G01X16770Y36094D01*
G01X16767Y36108D01*
G01X16766Y36122D01*
G01X16766Y36828D01*
G01X16767Y36843D01*
G01X16771Y36859D01*
G01X16777Y36874D01*
G01X16786Y36887D01*
G01X16796Y36899D01*
G01X16808Y36910D01*
G01X16848Y36940D01*
G01X16886Y36971D01*
G01X16923Y37005D01*
G01X16958Y37040D01*
G01X16992Y37076D01*
G01X17024Y37113D01*
G01X17054Y37152D01*
G01X17083Y37193D01*
G01X17110Y37234D01*
G01X17136Y37277D01*
G01X17159Y37320D01*
G01X17181Y37365D01*
G01X17200Y37410D01*
G01X17218Y37457D01*
G01X17234Y37504D01*
G01X17247Y37552D01*
G01X17259Y37600D01*
G01X17268Y37649D01*
G01X17276Y37697D01*
G01X17281Y37747D01*
G01X17284Y37796D01*
G01X17285Y37846D01*
G01X17284Y37895D01*
G01X17281Y37943D01*
G01X17276Y37992D01*
G01X17269Y38040D01*
G01X17260Y38088D01*
G01X17248Y38136D01*
G01X17235Y38183D01*
G01X17220Y38229D01*
G01X17203Y38275D01*
G01X17184Y38320D01*
G01X17163Y38364D01*
G01X17140Y38407D01*
G01X17115Y38449D01*
G01X17089Y38490D01*
G01X17061Y38531D01*
G01X17031Y38569D01*
G01X17000Y38607D01*
G01X16967Y38643D01*
G01X16932Y38677D01*
G01X16897Y38710D01*
G01X16859Y38742D01*
G01X16821Y38772D01*
G01X16781Y38801D01*
G01X16768Y38811D01*
G01X16758Y38823D01*
G01X16749Y38837D01*
G01X16742Y38852D01*
G01X16738Y38868D01*
G01X16737Y38885D01*
G01X16738Y38899D01*
G01X16741Y38913D01*
G01X16746Y38927D01*
G01X16753Y38939D01*
G01X16762Y38951D01*
G01X16772Y38961D01*
G01X16784Y38970D01*
G01X16796Y38977D01*
G01X16810Y38982D01*
G01X16824Y38985D01*
G01X16838Y38986D01*
G01X17959Y38986D01*
G01X17973Y38985D01*
G01X17988Y38982D01*
G01X18001Y38977D01*
G01X18014Y38970D01*
G01X18026Y38961D01*
G01X18036Y38951D01*
G01X18052Y38927D01*
G01X18057Y38913D01*
G01X18060Y38899D01*
G01X18061Y38885D01*
G01X18059Y38868D01*
G01X18056Y38852D01*
G01X18049Y38837D01*
G01X18040Y38823D01*
G01X18029Y38811D01*
G01X18016Y38801D01*
G01X17976Y38772D01*
G01X17937Y38742D01*
G01X17900Y38710D01*
G01X17864Y38676D01*
G01X17829Y38641D01*
G01X17796Y38605D01*
G01X17765Y38567D01*
G01X17735Y38527D01*
G01X17707Y38487D01*
G01X17680Y38446D01*
G01X17655Y38403D01*
G01X17632Y38359D01*
G01X18155Y38359D01*
G01X18155Y38885D01*
G01X18156Y38899D01*
G01X18159Y38913D01*
G01X18164Y38927D01*
G01X18171Y38939D01*
G01X18180Y38951D01*
G01X18190Y38961D01*
G01X18202Y38970D01*
G01X18215Y38977D01*
G01X18228Y38982D01*
G01X18243Y38985D01*
G01X18257Y38986D01*
G01X19081Y38986D01*
G01X19095Y38985D01*
G01X19109Y38982D01*
G01X19123Y38977D01*
G01X19136Y38970D01*
G01X19147Y38961D01*
G01X19157Y38951D01*
G01X19166Y38939D01*
G01X19173Y38927D01*
G01X19178Y38913D01*
G01X19181Y38899D01*
G01X19182Y38885D01*
G01X19182Y38359D01*
G01X19705Y38359D01*
G01X19682Y38403D01*
G01X19657Y38446D01*
G01X19631Y38487D01*
G01X19603Y38527D01*
G01X19573Y38567D01*
G01X19541Y38605D01*
G01X19508Y38641D01*
G01X19474Y38676D01*
G01X19437Y38710D01*
G01X19400Y38742D01*
G01X19361Y38772D01*
G01X19321Y38801D01*
G01X19308Y38811D01*
G01X19298Y38823D01*
G01X19289Y38837D01*
G01X19282Y38852D01*
G01X19278Y38868D01*
G01X19277Y38885D01*
G01X19278Y38899D01*
G01X19281Y38913D01*
G01X19286Y38927D01*
G01X19293Y38939D01*
G01X19302Y38951D01*
G01X19312Y38961D01*
G01X19324Y38970D01*
G01X19336Y38977D01*
G01X19350Y38982D01*
G01X19364Y38985D01*
G01X19378Y38986D01*
G01X20066Y38986D01*
G01X20082Y38985D01*
G01X20098Y38981D01*
G01X20112Y38975D01*
G01X20126Y38967D01*
G01X20138Y38956D01*
G01X22626Y36469D01*
G01X22650Y36446D01*
G01X22676Y36425D01*
G01X22703Y36405D01*
G01X22732Y36388D01*
G01X22761Y36372D01*
G01X22791Y36358D01*
G01X22823Y36346D01*
G01X22855Y36336D01*
G01X22887Y36329D01*
G01X22920Y36324D01*
G01X22953Y36320D01*
G01X22987Y36319D01*
G01X24470Y36319D01*
G01X24484Y36318D01*
G01X24499Y36315D01*
G01X24512Y36310D01*
G01X24525Y36303D01*
G01X24537Y36294D01*
G01X24547Y36284D01*
G01X24563Y36260D01*
G01X24568Y36246D01*
G01X24571Y36232D01*
G01X24572Y36218D01*
G01X24572Y35204D01*
G01X24573Y35180D01*
G01X24576Y35157D01*
G01X24581Y35134D01*
G01X24589Y35112D01*
G01X24599Y35090D01*
G01X24610Y35069D01*
G01X24624Y35050D01*
G01X24639Y35031D01*
G01X24656Y35015D01*
G01X24674Y34999D01*
G01X24693Y34986D01*
G01X24714Y34975D01*
G01X24736Y34965D01*
G01X24758Y34957D01*
G01X24781Y34952D01*
G01X24804Y34949D01*
G01X24828Y34948D01*
G01X26728Y34948D01*
G01X26752Y34949D01*
G01X26775Y34952D01*
G01X26798Y34957D01*
G01X26821Y34965D01*
G01X26842Y34975D01*
G01X26863Y34986D01*
G01X26883Y34999D01*
G01X26901Y35015D01*
G01X26918Y35031D01*
G01X26933Y35050D01*
G01X26946Y35069D01*
G01X26958Y35090D01*
G01X26967Y35112D01*
G01X26975Y35134D01*
G01X26980Y35157D01*
G01X26984Y35180D01*
G01X26985Y35204D01*
G01X26985Y36218D01*
G01X26986Y36232D01*
G01X26989Y36246D01*
G01X26994Y36260D01*
G01X27001Y36272D01*
G01X27010Y36284D01*
G01X27020Y36294D01*
G01X27031Y36303D01*
G01X27044Y36310D01*
G01X27058Y36315D01*
G01X27072Y36318D01*
G01X27086Y36319D01*
G01X30402Y36319D01*
G01X30416Y36318D01*
G01X30430Y36315D01*
G01X30444Y36310D01*
G01X30456Y36303D01*
G01X30468Y36294D01*
G01X30478Y36284D01*
G01X30487Y36272D01*
G01X30494Y36260D01*
G01X30499Y36246D01*
G01X30502Y36232D01*
G01X30503Y36218D01*
G01X30502Y36202D01*
G01X30498Y36186D01*
G01X30492Y36171D01*
G01X30484Y36158D01*
G01X30473Y36146D01*
G01X29795Y35467D01*
G01X29779Y35455D01*
G01X29761Y35445D01*
G01X29729Y35431D01*
G01X29698Y35415D01*
G01X29668Y35397D01*
G01X29639Y35377D01*
G01X29612Y35356D01*
G01X29586Y35332D01*
G01X29561Y35307D01*
G01X29538Y35281D01*
G01X29517Y35253D01*
G01X29497Y35224D01*
G01X29479Y35193D01*
G01X29463Y35162D01*
G01X29450Y35130D01*
G01X29437Y35097D01*
G01X29428Y35063D01*
G01X29420Y35029D01*
G01X29415Y34995D01*
G01X29411Y34960D01*
G01X29410Y34925D01*
G01X29411Y34888D01*
G01X29415Y34851D01*
G01X29421Y34815D01*
G01X29430Y34779D01*
G01X29440Y34744D01*
G01X29454Y34709D01*
G01X29459Y34690D01*
G01X29461Y34670D01*
G01X29461Y33215D01*
G01X29460Y33199D01*
G01X29456Y33184D01*
G01X29450Y33169D01*
G01X29442Y33155D01*
G01X29432Y33143D01*
G01X29420Y33133D01*
G01X29406Y33124D01*
G01X29392Y33118D01*
G01X29370Y33110D01*
G01X29349Y33100D01*
G01X29330Y33088D01*
G01X29311Y33075D01*
G01X29294Y33060D01*
G01X29278Y33043D01*
G01X29264Y33025D01*
G01X29251Y33006D01*
G01X29240Y32986D01*
G01X29232Y32964D01*
G01X29224Y32943D01*
G01X29219Y32920D01*
G01X29216Y32898D01*
G01X29215Y32875D01*
G01X29215Y29875D01*
G01X29216Y29851D01*
G01X29219Y29827D01*
G01X29225Y29805D01*
G01X29233Y29782D01*
G01X29242Y29760D01*
G01X29253Y29740D01*
G01X29267Y29720D01*
G01X29282Y29702D01*
G01X29299Y29685D01*
G01X29317Y29670D01*
G01X29337Y29657D01*
G01X29358Y29645D01*
G01X29379Y29635D01*
G01X29402Y29628D01*
G01X29425Y29623D01*
G01X29448Y29619D01*
G01X29472Y29618D01*
G01X30472Y29618D01*
G01X30496Y29619D01*
G01X30519Y29623D01*
G01X30542Y29628D01*
G01X30565Y29635D01*
G01X30586Y29645D01*
G01X30607Y29657D01*
G01X30627Y29670D01*
G01X30644Y29685D01*
G01X30661Y29702D01*
G01X30676Y29720D01*
G01X30690Y29740D01*
G01X30701Y29760D01*
G01X30711Y29782D01*
G01X30719Y29805D01*
G01X30724Y29827D01*
G01X30727Y29851D01*
G01X30728Y29875D01*
G01X30728Y31011D01*
G01X30729Y31025D01*
G01X30732Y31039D01*
G01X30737Y31053D01*
G01X30744Y31065D01*
G01X30753Y31077D01*
G01X30763Y31087D01*
G01X30775Y31096D01*
G01X30788Y31103D01*
G01X30801Y31108D01*
G01X30816Y31111D01*
G01X30830Y31112D01*
G01X32512Y31112D01*
G01X32545Y31113D01*
G01X32578Y31117D01*
G01X32611Y31122D01*
G01X32644Y31129D01*
G01X32676Y31139D01*
G01X32707Y31151D01*
G01X32737Y31165D01*
G01X32767Y31181D01*
G01X32795Y31198D01*
G01X32823Y31218D01*
G01X32849Y31239D01*
G01X32873Y31262D01*
G01X34319Y32708D01*
G01X34331Y32719D01*
G01X34345Y32727D01*
G01X34359Y32733D01*
G01X34375Y32737D01*
G01X34391Y32738D01*
G01X35571Y32738D01*
G01X35594Y32739D01*
G01X35618Y32742D01*
G01X35641Y32747D01*
G01X35663Y32755D01*
G01X35685Y32765D01*
G01X35706Y32776D01*
G01X35725Y32790D01*
G01X35744Y32805D01*
G01X35760Y32822D01*
G01X35776Y32840D01*
G01X35789Y32859D01*
G01X35801Y32880D01*
G01X35810Y32902D01*
G01X35817Y32924D01*
G01X35823Y32947D01*
G01X35826Y32970D01*
G01X35827Y32994D01*
G01X35827Y34569D01*
G01X35826Y34593D01*
G01X35823Y34616D01*
G01X35817Y34639D01*
G01X35810Y34662D01*
G01X35801Y34683D01*
G01X35789Y34704D01*
G01X35776Y34724D01*
G01X35760Y34742D01*
G01X35744Y34759D01*
G01X35725Y34774D01*
G01X35706Y34787D01*
G01X35685Y34799D01*
G01X35663Y34808D01*
G01X35641Y34816D01*
G01X35618Y34821D01*
G01X35594Y34825D01*
G01X35571Y34826D01*
G01X33771Y34826D01*
G01X33747Y34825D01*
G01X33724Y34821D01*
G01X33700Y34816D01*
G01X33678Y34808D01*
G01X33656Y34799D01*
G01X33636Y34787D01*
G01X33616Y34774D01*
G01X33598Y34759D01*
G01X33581Y34742D01*
G01X33566Y34724D01*
G01X33553Y34704D01*
G01X33541Y34683D01*
G01X33531Y34662D01*
G01X33524Y34639D01*
G01X33519Y34616D01*
G01X33516Y34593D01*
G01X33514Y34569D01*
G01X33514Y33389D01*
G01X33513Y33373D01*
G01X33509Y33358D01*
G01X33503Y33343D01*
G01X33495Y33330D01*
G01X33485Y33317D01*
G01X32330Y32163D01*
G01X32318Y32153D01*
G01X32304Y32144D01*
G01X32290Y32138D01*
G01X32274Y32134D01*
G01X32258Y32133D01*
G01X30830Y32133D01*
G01X30816Y32134D01*
G01X30801Y32137D01*
G01X30788Y32142D01*
G01X30775Y32150D01*
G01X30763Y32158D01*
G01X30753Y32168D01*
G01X30744Y32180D01*
G01X30737Y32193D01*
G01X30732Y32206D01*
G01X30729Y32221D01*
G01X30728Y32235D01*
G01X30728Y32875D01*
G01X30727Y32898D01*
G01X30724Y32920D01*
G01X30719Y32943D01*
G01X30712Y32964D01*
G01X30703Y32986D01*
G01X30692Y33006D01*
G01X30679Y33025D01*
G01X30665Y33043D01*
G01X30649Y33060D01*
G01X30632Y33075D01*
G01X30614Y33088D01*
G01X30594Y33100D01*
G01X30574Y33110D01*
G01X30552Y33118D01*
G01X30538Y33124D01*
G01X30524Y33133D01*
G01X30512Y33143D01*
G01X30502Y33155D01*
G01X30493Y33169D01*
G01X30487Y33184D01*
G01X30483Y33199D01*
G01X30482Y33215D01*
G01X30482Y33959D01*
G01X30483Y33973D01*
G01X30486Y33987D01*
G01X30491Y34001D01*
G01X30499Y34014D01*
G01X30507Y34026D01*
G01X30517Y34036D01*
G01X30529Y34044D01*
G01X30542Y34052D01*
G01X30555Y34057D01*
G01X30570Y34060D01*
G01X30584Y34061D01*
G01X30599Y34060D01*
G01X30613Y34057D01*
G01X30627Y34051D01*
G01X30640Y34044D01*
G01X30651Y34035D01*
G01X30662Y34025D01*
G01X30670Y34013D01*
G01X30677Y34000D01*
G01X30682Y33986D01*
G01X30689Y33963D01*
G01X30699Y33941D01*
G01X30710Y33920D01*
G01X30724Y33901D01*
G01X30739Y33882D01*
G01X30756Y33865D01*
G01X30774Y33850D01*
G01X30793Y33836D01*
G01X30814Y33824D01*
G01X30836Y33815D01*
G01X30859Y33807D01*
G01X30882Y33802D01*
G01X30905Y33798D01*
G01X30929Y33797D01*
G01X31341Y33797D01*
G01X31341Y34227D01*
G01X30584Y34227D01*
G01X30570Y34229D01*
G01X30555Y34232D01*
G01X30542Y34237D01*
G01X30529Y34244D01*
G01X30517Y34252D01*
G01X30507Y34263D01*
G01X30499Y34274D01*
G01X30491Y34287D01*
G01X30486Y34300D01*
G01X30483Y34315D01*
G01X30482Y34329D01*
G01X30482Y34669D01*
G01X30483Y34684D01*
G01X30487Y34700D01*
G01X30493Y34715D01*
G01X30502Y34728D01*
G01X30512Y34740D01*
G01X30571Y34800D01*
G01X30583Y34810D01*
G01X30597Y34819D01*
G01X30612Y34825D01*
G01X30627Y34828D01*
G01X30643Y34829D01*
G01X31341Y34829D01*
G01X31341Y35260D01*
G01X31277Y35260D01*
G01X31263Y35261D01*
G01X31248Y35264D01*
G01X31235Y35269D01*
G01X31222Y35276D01*
G01X31210Y35285D01*
G01X31200Y35295D01*
G01X31191Y35307D01*
G01X31184Y35319D01*
G01X31179Y35333D01*
G01X31176Y35347D01*
G01X31175Y35362D01*
G01X31177Y35377D01*
G01X31180Y35393D01*
G01X31186Y35408D01*
G01X31195Y35422D01*
G01X31205Y35433D01*
G01X31840Y36068D01*
G01X31852Y36079D01*
G01X31866Y36087D01*
G01X31880Y36093D01*
G01X31896Y36097D01*
G01X31912Y36098D01*
G01X32829Y36098D01*
G01X32853Y36099D01*
G01X32876Y36103D01*
G01X32899Y36108D01*
G01X32922Y36116D01*
G01X32944Y36125D01*
G01X32964Y36137D01*
G01X32984Y36150D01*
G01X33002Y36165D01*
G01X33019Y36182D01*
G01X33034Y36200D01*
G01X33047Y36220D01*
G01X33059Y36240D01*
G01X33069Y36262D01*
G01X33076Y36285D01*
G01X33081Y36308D01*
G01X33085Y36331D01*
G01X33086Y36355D01*
G01X33086Y37305D01*
G01X33085Y37329D01*
G01X33081Y37352D01*
G01X33076Y37375D01*
G01X33069Y37397D01*
G01X33059Y37419D01*
G01X33047Y37440D01*
G01X33034Y37459D01*
G01X33019Y37477D01*
G01X33002Y37494D01*
G01X32984Y37509D01*
G01X32964Y37523D01*
G01X32944Y37534D01*
G01X32922Y37544D01*
G01X32899Y37552D01*
G01X32876Y37557D01*
G01X32853Y37560D01*
G01X32829Y37561D01*
G01X30929Y37561D01*
G01X30906Y37560D01*
G01X30883Y37557D01*
G01X30860Y37552D01*
G01X30838Y37545D01*
G01X30817Y37535D01*
G01X30797Y37524D01*
G01X30777Y37511D01*
G01X30759Y37497D01*
G01X30742Y37481D01*
G01X30728Y37463D01*
G01X30714Y37444D01*
G01X30702Y37424D01*
G01X30693Y37403D01*
G01X30677Y37377D01*
G01X30667Y37367D01*
G01X30655Y37358D01*
G01X30642Y37350D01*
G01X30628Y37345D01*
G01X30613Y37341D01*
G01X30599Y37340D01*
G01X27086Y37340D01*
G01X27072Y37341D01*
G01X27058Y37344D01*
G01X27044Y37349D01*
G01X27031Y37357D01*
G01X27020Y37365D01*
G01X27010Y37375D01*
G01X27001Y37387D01*
G01X26994Y37400D01*
G01X26989Y37413D01*
G01X26986Y37428D01*
G01X26985Y37442D01*
G01X26985Y38455D01*
G01X26984Y38479D01*
G01X26980Y38503D01*
G01X26975Y38525D01*
G01X26967Y38548D01*
G01X26958Y38570D01*
G01X26946Y38590D01*
G01X26933Y38610D01*
G01X26918Y38628D01*
G01X26901Y38645D01*
G01X26883Y38660D01*
G01X26863Y38673D01*
G01X26842Y38685D01*
G01X26821Y38695D01*
G01X26798Y38702D01*
G01X26775Y38707D01*
G01X26752Y38711D01*
G01X26728Y38712D01*
G01X24828Y38712D01*
G01X24804Y38711D01*
G01X24781Y38707D01*
G01X24758Y38702D01*
G01X24736Y38695D01*
G01X24714Y38685D01*
G01X24693Y38673D01*
G01X24674Y38660D01*
G01X24656Y38645D01*
G01X24639Y38628D01*
G01X24624Y38610D01*
G01X24610Y38590D01*
G01X24599Y38570D01*
G01X24589Y38548D01*
G01X24581Y38525D01*
G01X24576Y38503D01*
G01X24573Y38479D01*
G01X24572Y38455D01*
G01X24572Y37442D01*
G01X24571Y37428D01*
G01X24568Y37413D01*
G01X24563Y37400D01*
G01X24555Y37387D01*
G01X24547Y37375D01*
G01X24537Y37365D01*
G01X24525Y37357D01*
G01X24512Y37349D01*
G01X24499Y37344D01*
G01X24484Y37341D01*
G01X24470Y37340D01*
G01X23240Y37340D01*
G01X23224Y37341D01*
G01X23209Y37345D01*
G01X23194Y37351D01*
G01X23181Y37360D01*
G01X23169Y37370D01*
G01X20681Y39858D01*
G01X20657Y39881D01*
G01X20631Y39902D01*
G01X20603Y39921D01*
G01X20575Y39939D01*
G01X20545Y39954D01*
G01X20515Y39968D01*
G01X20484Y39980D01*
G01X20452Y39990D01*
G01X20419Y39998D01*
G01X20386Y40003D01*
G01X20353Y40006D01*
G01X20320Y40007D01*
G37*
G36*
G01X25476Y11076D02*
G01X24916Y11076D01*
G01X24916Y10849D01*
G01X24917Y10826D01*
G01X24921Y10802D01*
G01X24926Y10779D01*
G01X24933Y10757D01*
G01X24943Y10735D01*
G01X24955Y10714D01*
G01X24968Y10695D01*
G01X24983Y10676D01*
G01X25000Y10660D01*
G01X25018Y10644D01*
G01X25038Y10631D01*
G01X25058Y10619D01*
G01X25080Y10610D01*
G01X25103Y10603D01*
G01X25125Y10597D01*
G01X25149Y10594D01*
G01X25173Y10593D01*
G01X25476Y10593D01*
G01X25476Y11076D01*
G37*
G36*
G01X13056Y11076D02*
G01X12496Y11076D01*
G01X12496Y10593D01*
G01X12800Y10593D01*
G01X12823Y10594D01*
G01X12847Y10597D01*
G01X12870Y10603D01*
G01X12892Y10610D01*
G01X12914Y10619D01*
G01X12934Y10631D01*
G01X12954Y10645D01*
G01X12973Y10660D01*
G01X12989Y10676D01*
G01X13004Y10695D01*
G01X13018Y10714D01*
G01X13029Y10735D01*
G01X13039Y10757D01*
G01X13046Y10779D01*
G01X13052Y10802D01*
G01X13055Y10826D01*
G01X13056Y10849D01*
G01X13056Y11076D01*
G37*
G36*
G01X11633Y11076D02*
G01X11073Y11076D01*
G01X11073Y10849D01*
G01X11074Y10826D01*
G01X11078Y10802D01*
G01X11083Y10779D01*
G01X11090Y10757D01*
G01X11100Y10735D01*
G01X11112Y10714D01*
G01X11125Y10695D01*
G01X11140Y10676D01*
G01X11157Y10660D01*
G01X11175Y10645D01*
G01X11195Y10631D01*
G01X11215Y10619D01*
G01X11237Y10610D01*
G01X11260Y10603D01*
G01X11282Y10597D01*
G01X11306Y10594D01*
G01X11330Y10593D01*
G01X11633Y10593D01*
G01X11633Y11076D01*
G37*
G36*
G01X26899Y11076D02*
G01X26339Y11076D01*
G01X26339Y10593D01*
G01X26643Y10593D01*
G01X26666Y10594D01*
G01X26690Y10597D01*
G01X26713Y10603D01*
G01X26735Y10610D01*
G01X26757Y10619D01*
G01X26777Y10631D01*
G01X26797Y10644D01*
G01X26816Y10660D01*
G01X26832Y10676D01*
G01X26848Y10695D01*
G01X26861Y10714D01*
G01X26872Y10735D01*
G01X26882Y10757D01*
G01X26889Y10779D01*
G01X26895Y10802D01*
G01X26898Y10826D01*
G01X26899Y10849D01*
G01X26899Y11076D01*
G37*
G36*
G01X32195Y11114D02*
G01X31634Y11114D01*
G01X31634Y10631D01*
G01X31938Y10631D01*
G01X31962Y10632D01*
G01X31985Y10635D01*
G01X32008Y10641D01*
G01X32031Y10648D01*
G01X32053Y10658D01*
G01X32073Y10669D01*
G01X32093Y10682D01*
G01X32111Y10698D01*
G01X32128Y10714D01*
G01X32143Y10733D01*
G01X32157Y10752D01*
G01X32168Y10773D01*
G01X32177Y10795D01*
G01X32185Y10817D01*
G01X32191Y10840D01*
G01X32194Y10864D01*
G01X32195Y10887D01*
G01X32195Y11114D01*
G37*
G36*
G01X30772Y11114D02*
G01X30212Y11114D01*
G01X30212Y10887D01*
G01X30213Y10864D01*
G01X30216Y10840D01*
G01X30222Y10817D01*
G01X30229Y10795D01*
G01X30239Y10773D01*
G01X30250Y10752D01*
G01X30264Y10733D01*
G01X30279Y10714D01*
G01X30296Y10698D01*
G01X30314Y10682D01*
G01X30333Y10669D01*
G01X30354Y10658D01*
G01X30376Y10648D01*
G01X30398Y10641D01*
G01X30421Y10635D01*
G01X30445Y10632D01*
G01X30469Y10631D01*
G01X30772Y10631D01*
G01X30772Y11114D01*
G37*
G36*
G01X7341Y11203D02*
G01X6781Y11203D01*
G01X6781Y10720D01*
G01X7085Y10720D01*
G01X7108Y10721D01*
G01X7132Y10724D01*
G01X7155Y10730D01*
G01X7177Y10737D01*
G01X7199Y10746D01*
G01X7219Y10758D01*
G01X7239Y10772D01*
G01X7258Y10787D01*
G01X7274Y10803D01*
G01X7289Y10822D01*
G01X7303Y10841D01*
G01X7314Y10862D01*
G01X7324Y10884D01*
G01X7331Y10906D01*
G01X7337Y10929D01*
G01X7340Y10953D01*
G01X7341Y10976D01*
G01X7341Y11203D01*
G37*
G36*
G01X5918Y11203D02*
G01X5358Y11203D01*
G01X5358Y10976D01*
G01X5359Y10953D01*
G01X5363Y10929D01*
G01X5368Y10906D01*
G01X5375Y10884D01*
G01X5385Y10862D01*
G01X5397Y10841D01*
G01X5410Y10822D01*
G01X5425Y10803D01*
G01X5442Y10787D01*
G01X5460Y10772D01*
G01X5480Y10758D01*
G01X5500Y10746D01*
G01X5522Y10737D01*
G01X5545Y10730D01*
G01X5567Y10724D01*
G01X5591Y10721D01*
G01X5615Y10720D01*
G01X5918Y10720D01*
G01X5918Y11203D01*
G37*
G36*
G01X11633Y12266D02*
G01X11330Y12266D01*
G01X11306Y12265D01*
G01X11282Y12261D01*
G01X11260Y12256D01*
G01X11237Y12249D01*
G01X11215Y12239D01*
G01X11195Y12227D01*
G01X11175Y12214D01*
G01X11157Y12199D01*
G01X11140Y12182D01*
G01X11125Y12164D01*
G01X11112Y12145D01*
G01X11100Y12124D01*
G01X11090Y12102D01*
G01X11083Y12079D01*
G01X11078Y12057D01*
G01X11074Y12033D01*
G01X11073Y12009D01*
G01X11073Y11783D01*
G01X11633Y11783D01*
G01X11633Y12266D01*
G37*
G36*
G01X26643Y12266D02*
G01X26339Y12266D01*
G01X26339Y11783D01*
G01X26899Y11783D01*
G01X26899Y12009D01*
G01X26898Y12033D01*
G01X26895Y12057D01*
G01X26889Y12079D01*
G01X26882Y12102D01*
G01X26872Y12124D01*
G01X26861Y12145D01*
G01X26848Y12164D01*
G01X26832Y12182D01*
G01X26816Y12199D01*
G01X26797Y12214D01*
G01X26777Y12227D01*
G01X26757Y12239D01*
G01X26735Y12249D01*
G01X26713Y12256D01*
G01X26690Y12261D01*
G01X26666Y12265D01*
G01X26643Y12266D01*
G37*
G36*
G01X12800Y12266D02*
G01X12496Y12266D01*
G01X12496Y11783D01*
G01X13056Y11783D01*
G01X13056Y12009D01*
G01X13055Y12033D01*
G01X13052Y12057D01*
G01X13046Y12079D01*
G01X13039Y12102D01*
G01X13029Y12124D01*
G01X13018Y12145D01*
G01X13004Y12164D01*
G01X12989Y12182D01*
G01X12973Y12199D01*
G01X12954Y12214D01*
G01X12934Y12227D01*
G01X12914Y12239D01*
G01X12892Y12249D01*
G01X12870Y12256D01*
G01X12847Y12261D01*
G01X12823Y12265D01*
G01X12800Y12266D01*
G37*
G36*
G01X25476Y12266D02*
G01X25173Y12266D01*
G01X25149Y12265D01*
G01X25125Y12261D01*
G01X25103Y12256D01*
G01X25080Y12249D01*
G01X25058Y12239D01*
G01X25038Y12227D01*
G01X25018Y12214D01*
G01X25000Y12199D01*
G01X24983Y12182D01*
G01X24968Y12164D01*
G01X24955Y12145D01*
G01X24943Y12124D01*
G01X24933Y12102D01*
G01X24926Y12079D01*
G01X24921Y12057D01*
G01X24917Y12033D01*
G01X24916Y12009D01*
G01X24916Y11783D01*
G01X25476Y11783D01*
G01X25476Y12266D01*
G37*
G36*
G01X30772Y12304D02*
G01X30469Y12304D01*
G01X30445Y12303D01*
G01X30421Y12299D01*
G01X30398Y12294D01*
G01X30376Y12287D01*
G01X30354Y12277D01*
G01X30333Y12265D01*
G01X30314Y12252D01*
G01X30296Y12237D01*
G01X30279Y12220D01*
G01X30264Y12202D01*
G01X30250Y12183D01*
G01X30239Y12162D01*
G01X30229Y12140D01*
G01X30222Y12118D01*
G01X30216Y12095D01*
G01X30213Y12071D01*
G01X30212Y12047D01*
G01X30212Y11821D01*
G01X30772Y11821D01*
G01X30772Y12304D01*
G37*
G36*
G01X31938Y12304D02*
G01X31634Y12304D01*
G01X31634Y11821D01*
G01X32195Y11821D01*
G01X32195Y12047D01*
G01X32194Y12071D01*
G01X32191Y12095D01*
G01X32185Y12118D01*
G01X32177Y12140D01*
G01X32168Y12162D01*
G01X32157Y12183D01*
G01X32143Y12202D01*
G01X32128Y12220D01*
G01X32111Y12237D01*
G01X32093Y12252D01*
G01X32073Y12265D01*
G01X32053Y12277D01*
G01X32031Y12287D01*
G01X32008Y12294D01*
G01X31985Y12299D01*
G01X31962Y12303D01*
G01X31938Y12304D01*
G37*
G36*
G01X5918Y12393D02*
G01X5615Y12393D01*
G01X5591Y12392D01*
G01X5567Y12388D01*
G01X5545Y12383D01*
G01X5522Y12376D01*
G01X5500Y12366D01*
G01X5480Y12354D01*
G01X5460Y12341D01*
G01X5442Y12326D01*
G01X5425Y12309D01*
G01X5410Y12291D01*
G01X5397Y12272D01*
G01X5385Y12251D01*
G01X5375Y12229D01*
G01X5368Y12206D01*
G01X5363Y12184D01*
G01X5359Y12160D01*
G01X5358Y12136D01*
G01X5358Y11910D01*
G01X5918Y11910D01*
G01X5918Y12393D01*
G37*
G36*
G01X7085Y12393D02*
G01X6781Y12393D01*
G01X6781Y11910D01*
G01X7341Y11910D01*
G01X7341Y12136D01*
G01X7340Y12160D01*
G01X7337Y12184D01*
G01X7331Y12206D01*
G01X7324Y12229D01*
G01X7314Y12251D01*
G01X7303Y12272D01*
G01X7289Y12291D01*
G01X7274Y12309D01*
G01X7258Y12326D01*
G01X7239Y12341D01*
G01X7219Y12354D01*
G01X7199Y12366D01*
G01X7177Y12376D01*
G01X7155Y12383D01*
G01X7132Y12388D01*
G01X7108Y12392D01*
G01X7085Y12393D01*
G37*
G36*
G01X6337Y17512D02*
G01X4736Y17512D01*
G01X4713Y17511D01*
G01X4690Y17508D01*
G01X4666Y17502D01*
G01X4644Y17495D01*
G01X4622Y17486D01*
G01X4602Y17474D01*
G01X4582Y17460D01*
G01X4564Y17445D01*
G01X4547Y17429D01*
G01X4532Y17410D01*
G01X4518Y17391D01*
G01X4507Y17370D01*
G01X4498Y17348D01*
G01X4490Y17326D01*
G01X4484Y17303D01*
G01X4481Y17279D01*
G01X4480Y17255D01*
G01X4480Y15256D01*
G01X4481Y15232D01*
G01X4484Y15209D01*
G01X4490Y15185D01*
G01X4498Y15163D01*
G01X4507Y15141D01*
G01X4518Y15121D01*
G01X4532Y15101D01*
G01X4547Y15083D01*
G01X4564Y15066D01*
G01X4582Y15051D01*
G01X4602Y15038D01*
G01X4622Y15026D01*
G01X4644Y15017D01*
G01X4666Y15009D01*
G01X4690Y15004D01*
G01X4713Y15000D01*
G01X4736Y14999D01*
G01X6209Y14999D01*
G01X6225Y14998D01*
G01X6240Y14994D01*
G01X6255Y14988D01*
G01X6268Y14980D01*
G01X6281Y14969D01*
G01X7830Y13420D01*
G01X7840Y13408D01*
G01X7849Y13394D01*
G01X7855Y13379D01*
G01X7859Y13364D01*
G01X7860Y13348D01*
G01X7860Y12357D01*
G01X7861Y12333D01*
G01X7864Y12310D01*
G01X7870Y12287D01*
G01X7877Y12264D01*
G01X7886Y12243D01*
G01X7898Y12222D01*
G01X7912Y12202D01*
G01X7927Y12184D01*
G01X7943Y12167D01*
G01X7962Y12152D01*
G01X7981Y12139D01*
G01X8002Y12127D01*
G01X8024Y12118D01*
G01X8046Y12110D01*
G01X8069Y12105D01*
G01X8093Y12101D01*
G01X8117Y12100D01*
G01X9917Y12100D01*
G01X9941Y12101D01*
G01X9964Y12105D01*
G01X9988Y12110D01*
G01X10010Y12118D01*
G01X10032Y12127D01*
G01X10052Y12139D01*
G01X10072Y12152D01*
G01X10090Y12167D01*
G01X10107Y12184D01*
G01X10122Y12202D01*
G01X10135Y12222D01*
G01X10147Y12243D01*
G01X10156Y12264D01*
G01X10164Y12287D01*
G01X10169Y12310D01*
G01X10172Y12333D01*
G01X10174Y12357D01*
G01X10174Y13957D01*
G01X10172Y13981D01*
G01X10169Y14004D01*
G01X10164Y14027D01*
G01X10156Y14050D01*
G01X10147Y14071D01*
G01X10135Y14092D01*
G01X10122Y14111D01*
G01X10107Y14130D01*
G01X10090Y14147D01*
G01X10072Y14162D01*
G01X10052Y14175D01*
G01X10032Y14187D01*
G01X10010Y14196D01*
G01X9988Y14204D01*
G01X9964Y14209D01*
G01X9941Y14213D01*
G01X9917Y14214D01*
G01X8163Y14214D01*
G01X8148Y14215D01*
G01X8132Y14219D01*
G01X8117Y14225D01*
G01X8104Y14233D01*
G01X8092Y14244D01*
G01X6623Y15712D01*
G01X6613Y15724D01*
G01X6604Y15738D01*
G01X6598Y15752D01*
G01X6595Y15768D01*
G01X6593Y15784D01*
G01X6593Y17255D01*
G01X6592Y17279D01*
G01X6589Y17303D01*
G01X6583Y17326D01*
G01X6576Y17348D01*
G01X6566Y17370D01*
G01X6555Y17391D01*
G01X6527Y17429D01*
G01X6510Y17445D01*
G01X6491Y17460D01*
G01X6472Y17474D01*
G01X6451Y17486D01*
G01X6430Y17495D01*
G01X6407Y17502D01*
G01X6384Y17508D01*
G01X6360Y17511D01*
G01X6337Y17512D01*
G37*
G36*
G01X27394Y18909D02*
G01X25793Y18909D01*
G01X25770Y18908D01*
G01X25747Y18905D01*
G01X25723Y18899D01*
G01X25701Y18892D01*
G01X25679Y18883D01*
G01X25659Y18871D01*
G01X25639Y18857D01*
G01X25621Y18842D01*
G01X25604Y18826D01*
G01X25589Y18807D01*
G01X25576Y18788D01*
G01X25564Y18767D01*
G01X25555Y18745D01*
G01X25547Y18723D01*
G01X25541Y18700D01*
G01X25538Y18676D01*
G01X25537Y18652D01*
G01X25537Y16653D01*
G01X25538Y16629D01*
G01X25541Y16606D01*
G01X25547Y16582D01*
G01X25555Y16560D01*
G01X25564Y16538D01*
G01X25576Y16518D01*
G01X25589Y16498D01*
G01X25604Y16480D01*
G01X25621Y16463D01*
G01X25639Y16448D01*
G01X25659Y16435D01*
G01X25679Y16423D01*
G01X25701Y16414D01*
G01X25723Y16406D01*
G01X25747Y16401D01*
G01X25770Y16397D01*
G01X25793Y16396D01*
G01X27394Y16396D01*
G01X27418Y16397D01*
G01X27441Y16401D01*
G01X27464Y16406D01*
G01X27487Y16414D01*
G01X27508Y16423D01*
G01X27529Y16435D01*
G01X27549Y16448D01*
G01X27567Y16463D01*
G01X27584Y16480D01*
G01X27598Y16498D01*
G01X27612Y16518D01*
G01X27623Y16538D01*
G01X27633Y16560D01*
G01X27641Y16582D01*
G01X27646Y16606D01*
G01X27649Y16629D01*
G01X27650Y16653D01*
G01X27650Y18652D01*
G01X27649Y18676D01*
G01X27646Y18700D01*
G01X27641Y18723D01*
G01X27633Y18745D01*
G01X27623Y18767D01*
G01X27612Y18788D01*
G01X27584Y18826D01*
G01X27567Y18842D01*
G01X27549Y18857D01*
G01X27529Y18871D01*
G01X27508Y18883D01*
G01X27487Y18892D01*
G01X27464Y18899D01*
G01X27441Y18905D01*
G01X27418Y18908D01*
G01X27394Y18909D01*
G37*
G36*
G01X26163Y24224D02*
G01X23163Y24224D01*
G01X23140Y24223D01*
G01X23116Y24219D01*
G01X23093Y24214D01*
G01X23071Y24206D01*
G01X23049Y24197D01*
G01X23028Y24185D01*
G01X23009Y24172D01*
G01X22990Y24157D01*
G01X22974Y24140D01*
G01X22959Y24122D01*
G01X22945Y24102D01*
G01X22933Y24081D01*
G01X22924Y24060D01*
G01X22917Y24037D01*
G01X22911Y24014D01*
G01X22908Y23991D01*
G01X22907Y23967D01*
G01X22907Y22768D01*
G01X22908Y22744D01*
G01X22911Y22721D01*
G01X22917Y22698D01*
G01X22924Y22676D01*
G01X22933Y22654D01*
G01X22945Y22633D01*
G01X22959Y22614D01*
G01X22974Y22596D01*
G01X22990Y22579D01*
G01X23009Y22564D01*
G01X23028Y22550D01*
G01X23049Y22539D01*
G01X23071Y22529D01*
G01X23093Y22521D01*
G01X23116Y22516D01*
G01X23140Y22513D01*
G01X23163Y22512D01*
G01X26163Y22512D01*
G01X26187Y22513D01*
G01X26210Y22516D01*
G01X26233Y22521D01*
G01X26256Y22529D01*
G01X26278Y22539D01*
G01X26298Y22550D01*
G01X26318Y22564D01*
G01X26336Y22579D01*
G01X26353Y22596D01*
G01X26367Y22614D01*
G01X26381Y22633D01*
G01X26393Y22654D01*
G01X26402Y22676D01*
G01X26410Y22698D01*
G01X26415Y22721D01*
G01X26418Y22744D01*
G01X26420Y22768D01*
G01X26420Y23967D01*
G01X26418Y23991D01*
G01X26415Y24014D01*
G01X26410Y24037D01*
G01X26402Y24060D01*
G01X26393Y24081D01*
G01X26381Y24102D01*
G01X26367Y24122D01*
G01X26353Y24140D01*
G01X26336Y24157D01*
G01X26318Y24172D01*
G01X26298Y24185D01*
G01X26278Y24197D01*
G01X26256Y24206D01*
G01X26233Y24214D01*
G01X26210Y24219D01*
G01X26187Y24223D01*
G01X26163Y24224D01*
G37*
G36*
G01X26163Y26230D02*
G01X23163Y26230D01*
G01X23140Y26229D01*
G01X23116Y26226D01*
G01X23093Y26221D01*
G01X23071Y26213D01*
G01X23049Y26203D01*
G01X23028Y26192D01*
G01X23009Y26179D01*
G01X22990Y26163D01*
G01X22974Y26147D01*
G01X22959Y26128D01*
G01X22945Y26109D01*
G01X22933Y26088D01*
G01X22924Y26066D01*
G01X22917Y26044D01*
G01X22911Y26021D01*
G01X22908Y25998D01*
G01X22907Y25974D01*
G01X22907Y25504D01*
G01X22905Y25490D01*
G01X22902Y25475D01*
G01X22897Y25462D01*
G01X22891Y25449D01*
G01X22882Y25437D01*
G01X22871Y25427D01*
G01X22860Y25419D01*
G01X22848Y25411D01*
G01X22834Y25406D01*
G01X22820Y25403D01*
G01X22805Y25402D01*
G01X22472Y25402D01*
G01X22456Y25404D01*
G01X22440Y25407D01*
G01X22425Y25414D01*
G01X22412Y25423D01*
G01X22400Y25433D01*
G01X22389Y25446D01*
G01X22381Y25460D01*
G01X22360Y25501D01*
G01X22338Y25540D01*
G01X22313Y25579D01*
G01X22287Y25617D01*
G01X22259Y25653D01*
G01X22230Y25688D01*
G01X22199Y25722D01*
G01X22167Y25754D01*
G01X22133Y25785D01*
G01X22098Y25815D01*
G01X22062Y25843D01*
G01X22024Y25869D01*
G01X21985Y25893D01*
G01X21946Y25915D01*
G01X21905Y25936D01*
G01X21864Y25955D01*
G01X21821Y25972D01*
G01X21778Y25988D01*
G01X21734Y26001D01*
G01X21689Y26012D01*
G01X21645Y26021D01*
G01X21599Y26028D01*
G01X21554Y26033D01*
G01X21508Y26036D01*
G01X21463Y26037D01*
G01X21417Y26036D01*
G01X21371Y26033D01*
G01X21326Y26028D01*
G01X21281Y26021D01*
G01X21236Y26012D01*
G01X21192Y26001D01*
G01X21148Y25988D01*
G01X21062Y25956D01*
G01X20980Y25916D01*
G01X20941Y25893D01*
G01X20901Y25869D01*
G01X20864Y25843D01*
G01X20828Y25815D01*
G01X20793Y25786D01*
G01X20759Y25755D01*
G01X20727Y25723D01*
G01X20696Y25689D01*
G01X20666Y25654D01*
G01X20639Y25618D01*
G01X20613Y25580D01*
G01X20588Y25541D01*
G01X20566Y25501D01*
G01X20545Y25461D01*
G01X20526Y25419D01*
G01X20509Y25377D01*
G01X20494Y25334D01*
G01X20481Y25290D01*
G01X20470Y25245D01*
G01X20460Y25201D01*
G01X20453Y25155D01*
G01X20448Y25110D01*
G01X20445Y25064D01*
G01X20444Y25019D01*
G01X20445Y24973D01*
G01X20448Y24927D01*
G01X20453Y24882D01*
G01X20460Y24837D01*
G01X20470Y24792D01*
G01X20481Y24748D01*
G01X20494Y24704D01*
G01X20509Y24661D01*
G01X20526Y24618D01*
G01X20545Y24577D01*
G01X20566Y24536D01*
G01X20588Y24497D01*
G01X20613Y24457D01*
G01X20639Y24420D01*
G01X20666Y24384D01*
G01X20696Y24349D01*
G01X20727Y24315D01*
G01X20759Y24283D01*
G01X20793Y24252D01*
G01X20828Y24222D01*
G01X20864Y24195D01*
G01X20901Y24169D01*
G01X20941Y24144D01*
G01X20980Y24122D01*
G01X21021Y24101D01*
G01X21062Y24082D01*
G01X21105Y24065D01*
G01X21148Y24050D01*
G01X21192Y24037D01*
G01X21236Y24026D01*
G01X21281Y24016D01*
G01X21326Y24009D01*
G01X21371Y24004D01*
G01X21417Y24001D01*
G01X21463Y24000D01*
G01X21508Y24001D01*
G01X21554Y24004D01*
G01X21599Y24009D01*
G01X21645Y24016D01*
G01X21689Y24026D01*
G01X21734Y24037D01*
G01X21778Y24050D01*
G01X21821Y24065D01*
G01X21864Y24083D01*
G01X21905Y24101D01*
G01X21946Y24122D01*
G01X21985Y24144D01*
G01X22024Y24169D01*
G01X22062Y24195D01*
G01X22098Y24223D01*
G01X22133Y24252D01*
G01X22167Y24283D01*
G01X22199Y24315D01*
G01X22230Y24349D01*
G01X22259Y24384D01*
G01X22287Y24421D01*
G01X22313Y24458D01*
G01X22338Y24497D01*
G01X22360Y24537D01*
G01X22381Y24578D01*
G01X22389Y24592D01*
G01X22400Y24604D01*
G01X22412Y24615D01*
G01X22425Y24624D01*
G01X22440Y24630D01*
G01X22456Y24634D01*
G01X22472Y24635D01*
G01X22899Y24635D01*
G01X22916Y24634D01*
G01X22932Y24630D01*
G01X22947Y24623D01*
G01X22961Y24613D01*
G01X22974Y24602D01*
G01X22990Y24585D01*
G01X23009Y24570D01*
G01X23028Y24557D01*
G01X23049Y24545D01*
G01X23071Y24536D01*
G01X23093Y24528D01*
G01X23116Y24523D01*
G01X23140Y24519D01*
G01X23163Y24518D01*
G01X26163Y24518D01*
G01X26187Y24519D01*
G01X26210Y24523D01*
G01X26233Y24528D01*
G01X26256Y24536D01*
G01X26278Y24545D01*
G01X26298Y24557D01*
G01X26318Y24570D01*
G01X26336Y24585D01*
G01X26353Y24602D01*
G01X26367Y24620D01*
G01X26381Y24640D01*
G01X26393Y24661D01*
G01X26402Y24682D01*
G01X26410Y24705D01*
G01X26415Y24728D01*
G01X26418Y24751D01*
G01X26420Y24775D01*
G01X26420Y25974D01*
G01X26418Y25998D01*
G01X26415Y26021D01*
G01X26410Y26044D01*
G01X26402Y26066D01*
G01X26393Y26088D01*
G01X26381Y26109D01*
G01X26353Y26147D01*
G01X26336Y26163D01*
G01X26318Y26179D01*
G01X26298Y26192D01*
G01X26278Y26203D01*
G01X26256Y26213D01*
G01X26233Y26221D01*
G01X26210Y26226D01*
G01X26187Y26229D01*
G01X26163Y26230D01*
G37*
G36*
G01X36770Y24961D02*
G01X36327Y24961D01*
G01X36327Y24275D01*
G01X36328Y24251D01*
G01X36331Y24228D01*
G01X36337Y24204D01*
G01X36345Y24182D01*
G01X36354Y24160D01*
G01X36365Y24140D01*
G01X36379Y24120D01*
G01X36394Y24102D01*
G01X36411Y24085D01*
G01X36429Y24070D01*
G01X36449Y24057D01*
G01X36470Y24045D01*
G01X36491Y24036D01*
G01X36514Y24028D01*
G01X36537Y24023D01*
G01X36560Y24020D01*
G01X36584Y24018D01*
G01X36770Y24018D01*
G01X36770Y24961D01*
G37*
G36*
G01X29658Y24961D02*
G01X29215Y24961D01*
G01X29215Y24275D01*
G01X29216Y24251D01*
G01X29219Y24228D01*
G01X29225Y24204D01*
G01X29233Y24182D01*
G01X29242Y24160D01*
G01X29253Y24140D01*
G01X29267Y24120D01*
G01X29282Y24102D01*
G01X29299Y24085D01*
G01X29317Y24070D01*
G01X29337Y24057D01*
G01X29358Y24045D01*
G01X29379Y24036D01*
G01X29402Y24028D01*
G01X29425Y24023D01*
G01X29448Y24020D01*
G01X29472Y24018D01*
G01X29658Y24018D01*
G01X29658Y24961D01*
G37*
G36*
G01X37840Y24961D02*
G01X37397Y24961D01*
G01X37397Y24018D01*
G01X37584Y24018D01*
G01X37608Y24020D01*
G01X37631Y24023D01*
G01X37654Y24028D01*
G01X37677Y24036D01*
G01X37698Y24045D01*
G01X37719Y24057D01*
G01X37739Y24070D01*
G01X37756Y24085D01*
G01X37773Y24102D01*
G01X37788Y24120D01*
G01X37802Y24140D01*
G01X37813Y24160D01*
G01X37823Y24182D01*
G01X37831Y24204D01*
G01X37836Y24228D01*
G01X37839Y24251D01*
G01X37840Y24275D01*
G01X37840Y24961D01*
G37*
G36*
G01X30728Y24961D02*
G01X30285Y24961D01*
G01X30285Y24018D01*
G01X30472Y24018D01*
G01X30496Y24020D01*
G01X30519Y24023D01*
G01X30542Y24028D01*
G01X30565Y24036D01*
G01X30586Y24045D01*
G01X30607Y24057D01*
G01X30627Y24070D01*
G01X30644Y24085D01*
G01X30661Y24102D01*
G01X30676Y24120D01*
G01X30690Y24140D01*
G01X30701Y24160D01*
G01X30711Y24182D01*
G01X30719Y24204D01*
G01X30724Y24228D01*
G01X30727Y24251D01*
G01X30728Y24275D01*
G01X30728Y24961D01*
G37*
G36*
G01X21508Y28576D02*
G01X21463Y28577D01*
G01X21417Y28576D01*
G01X21371Y28573D01*
G01X21326Y28568D01*
G01X21281Y28561D01*
G01X21236Y28552D01*
G01X21192Y28541D01*
G01X21148Y28528D01*
G01X21062Y28496D01*
G01X20980Y28456D01*
G01X20941Y28433D01*
G01X20901Y28409D01*
G01X20864Y28383D01*
G01X20828Y28355D01*
G01X20793Y28326D01*
G01X20759Y28295D01*
G01X20727Y28263D01*
G01X20696Y28229D01*
G01X20666Y28194D01*
G01X20639Y28158D01*
G01X20613Y28120D01*
G01X20588Y28081D01*
G01X20566Y28041D01*
G01X20545Y28001D01*
G01X20526Y27959D01*
G01X20509Y27917D01*
G01X20494Y27874D01*
G01X20481Y27830D01*
G01X20470Y27785D01*
G01X20460Y27741D01*
G01X20453Y27695D01*
G01X20448Y27650D01*
G01X20445Y27604D01*
G01X20444Y27559D01*
G01X20445Y27513D01*
G01X20448Y27467D01*
G01X20453Y27422D01*
G01X20460Y27377D01*
G01X20470Y27332D01*
G01X20481Y27288D01*
G01X20494Y27244D01*
G01X20509Y27201D01*
G01X20526Y27158D01*
G01X20545Y27117D01*
G01X20566Y27076D01*
G01X20588Y27037D01*
G01X20613Y26997D01*
G01X20639Y26960D01*
G01X20666Y26924D01*
G01X20696Y26889D01*
G01X20727Y26855D01*
G01X20759Y26823D01*
G01X20793Y26792D01*
G01X20828Y26762D01*
G01X20864Y26735D01*
G01X20901Y26709D01*
G01X20941Y26684D01*
G01X20980Y26662D01*
G01X21021Y26641D01*
G01X21062Y26622D01*
G01X21105Y26605D01*
G01X21148Y26590D01*
G01X21192Y26577D01*
G01X21236Y26566D01*
G01X21281Y26556D01*
G01X21326Y26549D01*
G01X21371Y26544D01*
G01X21417Y26541D01*
G01X21463Y26540D01*
G01X21508Y26541D01*
G01X21554Y26544D01*
G01X21599Y26549D01*
G01X21645Y26556D01*
G01X21689Y26566D01*
G01X21734Y26577D01*
G01X21778Y26590D01*
G01X21821Y26605D01*
G01X21864Y26623D01*
G01X21905Y26641D01*
G01X21946Y26662D01*
G01X21985Y26684D01*
G01X22024Y26709D01*
G01X22062Y26735D01*
G01X22098Y26763D01*
G01X22133Y26792D01*
G01X22167Y26823D01*
G01X22199Y26855D01*
G01X22230Y26889D01*
G01X22259Y26924D01*
G01X22287Y26961D01*
G01X22313Y26998D01*
G01X22338Y27037D01*
G01X22360Y27077D01*
G01X22381Y27118D01*
G01X22389Y27132D01*
G01X22400Y27144D01*
G01X22412Y27155D01*
G01X22425Y27164D01*
G01X22440Y27170D01*
G01X22456Y27174D01*
G01X22472Y27175D01*
G01X22805Y27175D01*
G01X22820Y27174D01*
G01X22834Y27171D01*
G01X22848Y27166D01*
G01X22860Y27159D01*
G01X22871Y27150D01*
G01X22882Y27140D01*
G01X22891Y27128D01*
G01X22897Y27116D01*
G01X22902Y27102D01*
G01X22905Y27088D01*
G01X22907Y27074D01*
G01X22907Y26756D01*
G01X22908Y26732D01*
G01X22911Y26709D01*
G01X22917Y26686D01*
G01X22924Y26664D01*
G01X22933Y26642D01*
G01X22945Y26621D01*
G01X22959Y26602D01*
G01X22974Y26583D01*
G01X22990Y26567D01*
G01X23009Y26551D01*
G01X23028Y26538D01*
G01X23049Y26526D01*
G01X23071Y26517D01*
G01X23093Y26509D01*
G01X23116Y26504D01*
G01X23140Y26501D01*
G01X23163Y26500D01*
G01X26163Y26500D01*
G01X26187Y26501D01*
G01X26210Y26504D01*
G01X26233Y26509D01*
G01X26256Y26517D01*
G01X26278Y26526D01*
G01X26298Y26538D01*
G01X26318Y26551D01*
G01X26336Y26567D01*
G01X26353Y26583D01*
G01X26381Y26621D01*
G01X26393Y26642D01*
G01X26402Y26664D01*
G01X26410Y26686D01*
G01X26415Y26709D01*
G01X26418Y26732D01*
G01X26420Y26756D01*
G01X26420Y27955D01*
G01X26418Y27979D01*
G01X26415Y28002D01*
G01X26410Y28025D01*
G01X26402Y28047D01*
G01X26393Y28069D01*
G01X26381Y28090D01*
G01X26353Y28128D01*
G01X26336Y28144D01*
G01X26318Y28160D01*
G01X26298Y28173D01*
G01X26278Y28185D01*
G01X26256Y28194D01*
G01X26233Y28202D01*
G01X26210Y28207D01*
G01X26187Y28211D01*
G01X26163Y28212D01*
G01X23163Y28212D01*
G01X23139Y28211D01*
G01X23115Y28207D01*
G01X23092Y28201D01*
G01X23069Y28194D01*
G01X23047Y28184D01*
G01X23026Y28171D01*
G01X23006Y28158D01*
G01X22988Y28142D01*
G01X22971Y28125D01*
G01X22956Y28106D01*
G01X22943Y28086D01*
G01X22931Y28064D01*
G01X22922Y28042D01*
G01X22915Y28018D01*
G01X22910Y28005D01*
G01X22903Y27991D01*
G01X22895Y27979D01*
G01X22884Y27968D01*
G01X22872Y27959D01*
G01X22860Y27952D01*
G01X22846Y27947D01*
G01X22831Y27943D01*
G01X22817Y27942D01*
G01X22472Y27942D01*
G01X22456Y27944D01*
G01X22440Y27947D01*
G01X22425Y27954D01*
G01X22412Y27963D01*
G01X22400Y27973D01*
G01X22389Y27986D01*
G01X22381Y28000D01*
G01X22360Y28041D01*
G01X22338Y28080D01*
G01X22313Y28119D01*
G01X22287Y28157D01*
G01X22259Y28193D01*
G01X22230Y28228D01*
G01X22199Y28262D01*
G01X22167Y28294D01*
G01X22133Y28325D01*
G01X22098Y28355D01*
G01X22062Y28383D01*
G01X22024Y28409D01*
G01X21985Y28433D01*
G01X21946Y28455D01*
G01X21905Y28476D01*
G01X21864Y28495D01*
G01X21821Y28512D01*
G01X21778Y28528D01*
G01X21734Y28541D01*
G01X21689Y28552D01*
G01X21645Y28561D01*
G01X21599Y28568D01*
G01X21554Y28573D01*
G01X21508Y28576D01*
G37*
G36*
G01X36770Y27531D02*
G01X36584Y27531D01*
G01X36560Y27530D01*
G01X36537Y27527D01*
G01X36514Y27522D01*
G01X36491Y27514D01*
G01X36470Y27504D01*
G01X36449Y27493D01*
G01X36429Y27480D01*
G01X36411Y27464D01*
G01X36394Y27448D01*
G01X36379Y27429D01*
G01X36365Y27410D01*
G01X36354Y27389D01*
G01X36345Y27367D01*
G01X36337Y27345D01*
G01X36331Y27322D01*
G01X36328Y27299D01*
G01X36327Y27275D01*
G01X36327Y26588D01*
G01X36770Y26588D01*
G01X36770Y27531D01*
G37*
G36*
G01X29658Y27531D02*
G01X29472Y27531D01*
G01X29448Y27530D01*
G01X29425Y27527D01*
G01X29402Y27522D01*
G01X29379Y27514D01*
G01X29358Y27504D01*
G01X29337Y27493D01*
G01X29317Y27480D01*
G01X29299Y27464D01*
G01X29282Y27448D01*
G01X29267Y27429D01*
G01X29253Y27410D01*
G01X29242Y27389D01*
G01X29233Y27367D01*
G01X29225Y27345D01*
G01X29219Y27322D01*
G01X29216Y27299D01*
G01X29215Y27275D01*
G01X29215Y26588D01*
G01X29658Y26588D01*
G01X29658Y27531D01*
G37*
G36*
G01X30472Y27531D02*
G01X30285Y27531D01*
G01X30285Y26588D01*
G01X30728Y26588D01*
G01X30728Y27275D01*
G01X30727Y27299D01*
G01X30724Y27322D01*
G01X30719Y27345D01*
G01X30711Y27367D01*
G01X30701Y27389D01*
G01X30690Y27410D01*
G01X30676Y27429D01*
G01X30661Y27448D01*
G01X30627Y27480D01*
G01X30607Y27493D01*
G01X30586Y27504D01*
G01X30565Y27514D01*
G01X30542Y27522D01*
G01X30519Y27527D01*
G01X30496Y27530D01*
G01X30472Y27531D01*
G37*
G36*
G01X37584Y27531D02*
G01X37397Y27531D01*
G01X37397Y26588D01*
G01X37840Y26588D01*
G01X37840Y27275D01*
G01X37839Y27299D01*
G01X37836Y27322D01*
G01X37831Y27345D01*
G01X37823Y27367D01*
G01X37813Y27389D01*
G01X37802Y27410D01*
G01X37788Y27429D01*
G01X37773Y27448D01*
G01X37739Y27480D01*
G01X37719Y27493D01*
G01X37698Y27504D01*
G01X37677Y27514D01*
G01X37654Y27522D01*
G01X37631Y27527D01*
G01X37608Y27530D01*
G01X37584Y27531D01*
G37*
G36*
G01X26163Y30218D02*
G01X23163Y30218D01*
G01X23140Y30217D01*
G01X23116Y30214D01*
G01X23093Y30208D01*
G01X23071Y30201D01*
G01X23049Y30191D01*
G01X23028Y30180D01*
G01X23009Y30166D01*
G01X22990Y30151D01*
G01X22974Y30134D01*
G01X22959Y30116D01*
G01X22945Y30097D01*
G01X22933Y30076D01*
G01X22924Y30054D01*
G01X22917Y30032D01*
G01X22911Y30009D01*
G01X22908Y29985D01*
G01X22907Y29962D01*
G01X22907Y28763D01*
G01X22908Y28739D01*
G01X22911Y28715D01*
G01X22917Y28693D01*
G01X22924Y28670D01*
G01X22933Y28648D01*
G01X22945Y28628D01*
G01X22959Y28608D01*
G01X22974Y28590D01*
G01X22990Y28573D01*
G01X23009Y28558D01*
G01X23028Y28545D01*
G01X23049Y28533D01*
G01X23071Y28523D01*
G01X23093Y28516D01*
G01X23116Y28511D01*
G01X23140Y28507D01*
G01X23163Y28506D01*
G01X26163Y28506D01*
G01X26187Y28507D01*
G01X26210Y28511D01*
G01X26233Y28516D01*
G01X26256Y28523D01*
G01X26278Y28533D01*
G01X26298Y28545D01*
G01X26318Y28558D01*
G01X26336Y28573D01*
G01X26353Y28590D01*
G01X26367Y28608D01*
G01X26381Y28628D01*
G01X26393Y28648D01*
G01X26402Y28670D01*
G01X26410Y28693D01*
G01X26415Y28715D01*
G01X26418Y28739D01*
G01X26420Y28763D01*
G01X26420Y29962D01*
G01X26418Y29985D01*
G01X26415Y30009D01*
G01X26410Y30032D01*
G01X26402Y30054D01*
G01X26393Y30076D01*
G01X26381Y30097D01*
G01X26367Y30116D01*
G01X26353Y30134D01*
G01X26336Y30151D01*
G01X26318Y30166D01*
G01X26298Y30180D01*
G01X26278Y30191D01*
G01X26256Y30201D01*
G01X26233Y30208D01*
G01X26210Y30214D01*
G01X26187Y30217D01*
G01X26163Y30218D01*
G37*
G36*
G01X34720Y40017D02*
G01X34671Y40018D01*
G01X34620Y40017D01*
G01X34569Y40014D01*
G01X34518Y40008D01*
G01X34468Y40000D01*
G01X34418Y39990D01*
G01X34368Y39978D01*
G01X34319Y39964D01*
G01X34271Y39947D01*
G01X34223Y39928D01*
G01X34176Y39907D01*
G01X34131Y39884D01*
G01X34087Y39860D01*
G01X34043Y39833D01*
G01X34001Y39804D01*
G01X33960Y39774D01*
G01X33920Y39742D01*
G01X33882Y39708D01*
G01X33845Y39672D01*
G01X33833Y39661D01*
G01X33819Y39653D01*
G01X33805Y39647D01*
G01X33789Y39643D01*
G01X33773Y39642D01*
G01X33160Y39642D01*
G01X33145Y39643D01*
G01X33130Y39646D01*
G01X33117Y39651D01*
G01X33104Y39659D01*
G01X33092Y39668D01*
G01X33082Y39679D01*
G01X33073Y39691D01*
G01X33066Y39704D01*
G01X33056Y39725D01*
G01X33045Y39745D01*
G01X33031Y39764D01*
G01X33016Y39782D01*
G01X32999Y39798D01*
G01X32981Y39813D01*
G01X32962Y39825D01*
G01X32942Y39837D01*
G01X32920Y39846D01*
G01X32898Y39853D01*
G01X32875Y39858D01*
G01X32853Y39861D01*
G01X32829Y39863D01*
G01X30929Y39863D01*
G01X30905Y39861D01*
G01X30882Y39858D01*
G01X30859Y39853D01*
G01X30837Y39845D01*
G01X30815Y39836D01*
G01X30794Y39824D01*
G01X30775Y39811D01*
G01X30757Y39795D01*
G01X30740Y39779D01*
G01X30725Y39760D01*
G01X30711Y39741D01*
G01X30700Y39720D01*
G01X30690Y39698D01*
G01X30682Y39676D01*
G01X30677Y39653D01*
G01X30674Y39630D01*
G01X30673Y39606D01*
G01X30673Y38656D01*
G01X30674Y38632D01*
G01X30677Y38609D01*
G01X30682Y38586D01*
G01X30690Y38564D01*
G01X30700Y38542D01*
G01X30711Y38521D01*
G01X30725Y38502D01*
G01X30740Y38483D01*
G01X30757Y38467D01*
G01X30775Y38451D01*
G01X30794Y38438D01*
G01X30815Y38426D01*
G01X30837Y38417D01*
G01X30859Y38409D01*
G01X30882Y38404D01*
G01X30905Y38400D01*
G01X30929Y38399D01*
G01X32829Y38399D01*
G01X32853Y38400D01*
G01X32875Y38404D01*
G01X32898Y38409D01*
G01X32920Y38416D01*
G01X32942Y38425D01*
G01X32962Y38437D01*
G01X32981Y38449D01*
G01X32999Y38464D01*
G01X33016Y38480D01*
G01X33031Y38498D01*
G01X33045Y38517D01*
G01X33056Y38537D01*
G01X33066Y38558D01*
G01X33073Y38571D01*
G01X33082Y38583D01*
G01X33092Y38594D01*
G01X33104Y38603D01*
G01X33117Y38611D01*
G01X33130Y38616D01*
G01X33145Y38619D01*
G01X33160Y38620D01*
G01X33460Y38620D01*
G01X33475Y38619D01*
G01X33489Y38616D01*
G01X33503Y38611D01*
G01X33516Y38604D01*
G01X33527Y38595D01*
G01X33537Y38585D01*
G01X33546Y38573D01*
G01X33553Y38561D01*
G01X33558Y38547D01*
G01X33572Y38499D01*
G01X33589Y38452D01*
G01X33608Y38406D01*
G01X33629Y38360D01*
G01X33651Y38316D01*
G01X33676Y38272D01*
G01X33702Y38230D01*
G01X33730Y38189D01*
G01X33760Y38149D01*
G01X33792Y38110D01*
G01X33825Y38073D01*
G01X33860Y38037D01*
G01X33897Y38003D01*
G01X33934Y37970D01*
G01X33973Y37939D01*
G01X34014Y37910D01*
G01X34056Y37882D01*
G01X34098Y37857D01*
G01X34142Y37833D01*
G01X34187Y37811D01*
G01X34233Y37791D01*
G01X34279Y37774D01*
G01X34327Y37757D01*
G01X34375Y37744D01*
G01X34423Y37732D01*
G01X34472Y37722D01*
G01X34521Y37715D01*
G01X34571Y37710D01*
G01X34621Y37706D01*
G01X34671Y37705D01*
G01X34731Y37707D01*
G01X34792Y37712D01*
G01X34802Y37712D01*
G01X34818Y37711D01*
G01X34834Y37707D01*
G01X34849Y37701D01*
G01X34862Y37693D01*
G01X34874Y37682D01*
G01X34917Y37640D01*
G01X35154Y37402D01*
G01X35165Y37390D01*
G01X35173Y37376D01*
G01X35179Y37362D01*
G01X35183Y37346D01*
G01X35184Y37330D01*
G01X35184Y36835D01*
G01X35679Y36835D01*
G01X35695Y36834D01*
G01X35711Y36830D01*
G01X35725Y36824D01*
G01X35739Y36816D01*
G01X35751Y36805D01*
G01X35989Y36568D01*
G01X36543Y36013D01*
G01X36554Y36001D01*
G01X36562Y35987D01*
G01X36568Y35973D01*
G01X36572Y35957D01*
G01X36573Y35941D01*
G01X36573Y33215D01*
G01X36572Y33199D01*
G01X36568Y33184D01*
G01X36562Y33169D01*
G01X36554Y33155D01*
G01X36544Y33143D01*
G01X36532Y33133D01*
G01X36518Y33124D01*
G01X36504Y33118D01*
G01X36482Y33110D01*
G01X36461Y33100D01*
G01X36442Y33088D01*
G01X36423Y33075D01*
G01X36406Y33060D01*
G01X36390Y33043D01*
G01X36376Y33025D01*
G01X36363Y33006D01*
G01X36352Y32986D01*
G01X36344Y32964D01*
G01X36336Y32943D01*
G01X36331Y32920D01*
G01X36328Y32898D01*
G01X36327Y32875D01*
G01X36327Y29875D01*
G01X36328Y29851D01*
G01X36331Y29827D01*
G01X36337Y29805D01*
G01X36345Y29782D01*
G01X36354Y29760D01*
G01X36365Y29740D01*
G01X36379Y29720D01*
G01X36394Y29702D01*
G01X36411Y29685D01*
G01X36429Y29670D01*
G01X36449Y29657D01*
G01X36470Y29645D01*
G01X36491Y29635D01*
G01X36514Y29628D01*
G01X36537Y29623D01*
G01X36560Y29619D01*
G01X36584Y29618D01*
G01X37584Y29618D01*
G01X37608Y29619D01*
G01X37631Y29623D01*
G01X37654Y29628D01*
G01X37677Y29635D01*
G01X37698Y29645D01*
G01X37719Y29657D01*
G01X37739Y29670D01*
G01X37756Y29685D01*
G01X37773Y29702D01*
G01X37788Y29720D01*
G01X37802Y29740D01*
G01X37813Y29760D01*
G01X37823Y29782D01*
G01X37831Y29805D01*
G01X37836Y29827D01*
G01X37839Y29851D01*
G01X37840Y29875D01*
G01X37840Y32875D01*
G01X37839Y32898D01*
G01X37836Y32920D01*
G01X37831Y32943D01*
G01X37824Y32964D01*
G01X37815Y32986D01*
G01X37804Y33006D01*
G01X37791Y33025D01*
G01X37777Y33043D01*
G01X37761Y33060D01*
G01X37744Y33075D01*
G01X37726Y33088D01*
G01X37706Y33100D01*
G01X37686Y33110D01*
G01X37664Y33118D01*
G01X37650Y33124D01*
G01X37636Y33133D01*
G01X37624Y33143D01*
G01X37614Y33155D01*
G01X37605Y33169D01*
G01X37599Y33184D01*
G01X37595Y33199D01*
G01X37594Y33215D01*
G01X37594Y36195D01*
G01X37593Y36228D01*
G01X37590Y36261D01*
G01X37585Y36294D01*
G01X37577Y36327D01*
G01X37567Y36359D01*
G01X37555Y36390D01*
G01X37541Y36420D01*
G01X37526Y36450D01*
G01X37508Y36478D01*
G01X37489Y36506D01*
G01X37468Y36532D01*
G01X37445Y36556D01*
G01X35740Y38260D01*
G01X35730Y38272D01*
G01X35721Y38286D01*
G01X35715Y38301D01*
G01X35712Y38316D01*
G01X35711Y38332D01*
G01X35712Y38347D01*
G01X35715Y38361D01*
G01X35720Y38375D01*
G01X35740Y38421D01*
G01X35758Y38468D01*
G01X35774Y38515D01*
G01X35788Y38564D01*
G01X35800Y38612D01*
G01X35810Y38662D01*
G01X35817Y38711D01*
G01X35823Y38761D01*
G01X35826Y38811D01*
G01X35827Y38862D01*
G01X35826Y38911D01*
G01X35823Y38960D01*
G01X35818Y39009D01*
G01X35811Y39057D01*
G01X35802Y39106D01*
G01X35790Y39153D01*
G01X35777Y39201D01*
G01X35761Y39247D01*
G01X35744Y39293D01*
G01X35725Y39338D01*
G01X35704Y39382D01*
G01X35681Y39426D01*
G01X35656Y39468D01*
G01X35629Y39509D01*
G01X35600Y39550D01*
G01X35570Y39588D01*
G01X35539Y39626D01*
G01X35506Y39662D01*
G01X35471Y39697D01*
G01X35435Y39730D01*
G01X35397Y39761D01*
G01X35359Y39791D01*
G01X35318Y39820D01*
G01X35277Y39847D01*
G01X35235Y39872D01*
G01X35191Y39895D01*
G01X35147Y39916D01*
G01X35102Y39935D01*
G01X35056Y39952D01*
G01X35010Y39968D01*
G01X34962Y39981D01*
G01X34915Y39993D01*
G01X34866Y40002D01*
G01X34818Y40009D01*
G01X34769Y40014D01*
G01X34720Y40017D01*
G37*
G36*
G01X26163Y32225D02*
G01X23163Y32225D01*
G01X23140Y32224D01*
G01X23116Y32220D01*
G01X23093Y32215D01*
G01X23071Y32207D01*
G01X23049Y32198D01*
G01X23028Y32186D01*
G01X23009Y32173D01*
G01X22990Y32158D01*
G01X22974Y32141D01*
G01X22959Y32123D01*
G01X22945Y32103D01*
G01X22933Y32082D01*
G01X22924Y32061D01*
G01X22917Y32038D01*
G01X22911Y32015D01*
G01X22908Y31992D01*
G01X22907Y31968D01*
G01X22907Y30769D01*
G01X22908Y30745D01*
G01X22911Y30722D01*
G01X22917Y30699D01*
G01X22924Y30677D01*
G01X22933Y30655D01*
G01X22945Y30634D01*
G01X22959Y30615D01*
G01X22974Y30597D01*
G01X22990Y30580D01*
G01X23009Y30565D01*
G01X23028Y30551D01*
G01X23049Y30540D01*
G01X23071Y30530D01*
G01X23093Y30522D01*
G01X23116Y30517D01*
G01X23140Y30514D01*
G01X23163Y30513D01*
G01X26163Y30513D01*
G01X26187Y30514D01*
G01X26210Y30517D01*
G01X26233Y30522D01*
G01X26256Y30530D01*
G01X26278Y30540D01*
G01X26298Y30551D01*
G01X26318Y30565D01*
G01X26336Y30580D01*
G01X26353Y30597D01*
G01X26367Y30615D01*
G01X26381Y30634D01*
G01X26393Y30655D01*
G01X26402Y30677D01*
G01X26410Y30699D01*
G01X26415Y30722D01*
G01X26418Y30745D01*
G01X26420Y30769D01*
G01X26420Y31968D01*
G01X26418Y31992D01*
G01X26415Y32015D01*
G01X26410Y32038D01*
G01X26402Y32061D01*
G01X26393Y32082D01*
G01X26381Y32103D01*
G01X26367Y32123D01*
G01X26353Y32141D01*
G01X26336Y32158D01*
G01X26318Y32173D01*
G01X26298Y32186D01*
G01X26278Y32198D01*
G01X26256Y32207D01*
G01X26233Y32215D01*
G01X26210Y32220D01*
G01X26187Y32224D01*
G01X26163Y32225D01*
G37*
G36*
G01X20185Y33451D02*
G01X19692Y33451D01*
G01X19692Y32764D01*
G01X19693Y32741D01*
G01X19697Y32717D01*
G01X19702Y32694D01*
G01X19710Y32672D01*
G01X19719Y32650D01*
G01X19731Y32630D01*
G01X19744Y32610D01*
G01X19759Y32592D01*
G01X19776Y32575D01*
G01X19794Y32560D01*
G01X19814Y32546D01*
G01X19835Y32535D01*
G01X19856Y32525D01*
G01X19879Y32518D01*
G01X19902Y32512D01*
G01X19925Y32509D01*
G01X19949Y32508D01*
G01X20185Y32508D01*
G01X20185Y33451D01*
G37*
G36*
G01X21404Y33451D02*
G01X20912Y33451D01*
G01X20912Y32508D01*
G01X21148Y32508D01*
G01X21172Y32509D01*
G01X21195Y32512D01*
G01X21218Y32518D01*
G01X21240Y32525D01*
G01X21262Y32535D01*
G01X21283Y32546D01*
G01X21302Y32560D01*
G01X21321Y32575D01*
G01X21337Y32592D01*
G01X21353Y32610D01*
G01X21366Y32630D01*
G01X21377Y32650D01*
G01X21387Y32672D01*
G01X21395Y32694D01*
G01X21400Y32717D01*
G01X21403Y32741D01*
G01X21404Y32764D01*
G01X21404Y33451D01*
G37*
G36*
G01X23411Y33451D02*
G01X22918Y33451D01*
G01X22918Y32508D01*
G01X23154Y32508D01*
G01X23178Y32509D01*
G01X23202Y32512D01*
G01X23224Y32518D01*
G01X23247Y32525D01*
G01X23269Y32535D01*
G01X23290Y32546D01*
G01X23309Y32560D01*
G01X23327Y32575D01*
G01X23344Y32592D01*
G01X23359Y32610D01*
G01X23372Y32630D01*
G01X23384Y32650D01*
G01X23394Y32672D01*
G01X23401Y32694D01*
G01X23406Y32717D01*
G01X23410Y32741D01*
G01X23411Y32764D01*
G01X23411Y33451D01*
G37*
G36*
G01X22192Y33451D02*
G01X21699Y33451D01*
G01X21699Y32764D01*
G01X21700Y32741D01*
G01X21704Y32717D01*
G01X21709Y32694D01*
G01X21716Y32672D01*
G01X21726Y32650D01*
G01X21738Y32630D01*
G01X21751Y32610D01*
G01X21766Y32592D01*
G01X21783Y32575D01*
G01X21801Y32560D01*
G01X21820Y32546D01*
G01X21841Y32535D01*
G01X21863Y32525D01*
G01X21885Y32518D01*
G01X21908Y32512D01*
G01X21932Y32509D01*
G01X21956Y32508D01*
G01X22192Y32508D01*
G01X22192Y33451D01*
G37*
G36*
G01X19141Y36021D02*
G01X17942Y36021D01*
G01X17918Y36019D01*
G01X17895Y36016D01*
G01X17872Y36011D01*
G01X17850Y36003D01*
G01X17828Y35994D01*
G01X17807Y35982D01*
G01X17788Y35969D01*
G01X17770Y35954D01*
G01X17753Y35937D01*
G01X17738Y35919D01*
G01X17724Y35899D01*
G01X17713Y35879D01*
G01X17703Y35857D01*
G01X17695Y35835D01*
G01X17690Y35811D01*
G01X17687Y35788D01*
G01X17686Y35764D01*
G01X17686Y32764D01*
G01X17687Y32741D01*
G01X17690Y32717D01*
G01X17695Y32694D01*
G01X17703Y32672D01*
G01X17713Y32650D01*
G01X17724Y32630D01*
G01X17738Y32610D01*
G01X17753Y32592D01*
G01X17770Y32575D01*
G01X17788Y32560D01*
G01X17807Y32546D01*
G01X17828Y32535D01*
G01X17850Y32525D01*
G01X17872Y32518D01*
G01X17895Y32512D01*
G01X17918Y32509D01*
G01X17942Y32508D01*
G01X19141Y32508D01*
G01X19165Y32509D01*
G01X19188Y32512D01*
G01X19211Y32518D01*
G01X19234Y32525D01*
G01X19255Y32535D01*
G01X19276Y32546D01*
G01X19296Y32560D01*
G01X19314Y32575D01*
G01X19331Y32592D01*
G01X19346Y32610D01*
G01X19359Y32630D01*
G01X19371Y32650D01*
G01X19380Y32672D01*
G01X19388Y32694D01*
G01X19393Y32717D01*
G01X19397Y32741D01*
G01X19398Y32764D01*
G01X19398Y35764D01*
G01X19397Y35788D01*
G01X19393Y35811D01*
G01X19388Y35835D01*
G01X19380Y35857D01*
G01X19371Y35879D01*
G01X19359Y35899D01*
G01X19346Y35919D01*
G01X19331Y35937D01*
G01X19314Y35954D01*
G01X19296Y35969D01*
G01X19276Y35982D01*
G01X19255Y35994D01*
G01X19234Y36003D01*
G01X19211Y36011D01*
G01X19188Y36016D01*
G01X19165Y36019D01*
G01X19141Y36021D01*
G37*
G36*
G01X33086Y34227D02*
G01X32418Y34227D01*
G01X32418Y33797D01*
G01X32829Y33797D01*
G01X32853Y33798D01*
G01X32876Y33802D01*
G01X32899Y33807D01*
G01X32922Y33814D01*
G01X32944Y33824D01*
G01X32964Y33836D01*
G01X32984Y33849D01*
G01X33002Y33864D01*
G01X33019Y33881D01*
G01X33034Y33899D01*
G01X33047Y33918D01*
G01X33059Y33939D01*
G01X33069Y33961D01*
G01X33076Y33983D01*
G01X33081Y34006D01*
G01X33085Y34030D01*
G01X33086Y34054D01*
G01X33086Y34227D01*
G37*
G36*
G01X32829Y35260D02*
G01X32418Y35260D01*
G01X32418Y34829D01*
G01X33086Y34829D01*
G01X33086Y35003D01*
G01X33085Y35027D01*
G01X33081Y35051D01*
G01X33076Y35074D01*
G01X33069Y35096D01*
G01X33059Y35118D01*
G01X33047Y35139D01*
G01X33034Y35158D01*
G01X33019Y35176D01*
G01X33002Y35193D01*
G01X32984Y35208D01*
G01X32964Y35221D01*
G01X32944Y35233D01*
G01X32922Y35243D01*
G01X32899Y35250D01*
G01X32876Y35255D01*
G01X32853Y35259D01*
G01X32829Y35260D01*
G37*
G36*
G01X23154Y36021D02*
G01X22918Y36021D01*
G01X22918Y35078D01*
G01X23411Y35078D01*
G01X23411Y35764D01*
G01X23410Y35788D01*
G01X23406Y35811D01*
G01X23401Y35835D01*
G01X23394Y35857D01*
G01X23384Y35879D01*
G01X23372Y35899D01*
G01X23359Y35919D01*
G01X23344Y35937D01*
G01X23327Y35954D01*
G01X23309Y35969D01*
G01X23290Y35982D01*
G01X23269Y35994D01*
G01X23247Y36003D01*
G01X23224Y36011D01*
G01X23202Y36016D01*
G01X23178Y36019D01*
G01X23154Y36021D01*
G37*
G36*
G01X20185Y36021D02*
G01X19949Y36021D01*
G01X19925Y36019D01*
G01X19902Y36016D01*
G01X19879Y36011D01*
G01X19856Y36003D01*
G01X19835Y35994D01*
G01X19814Y35982D01*
G01X19794Y35969D01*
G01X19776Y35954D01*
G01X19759Y35937D01*
G01X19744Y35919D01*
G01X19731Y35899D01*
G01X19719Y35879D01*
G01X19710Y35857D01*
G01X19702Y35835D01*
G01X19697Y35811D01*
G01X19693Y35788D01*
G01X19692Y35764D01*
G01X19692Y35078D01*
G01X20185Y35078D01*
G01X20185Y36021D01*
G37*
G36*
G01X22192Y36021D02*
G01X21956Y36021D01*
G01X21932Y36019D01*
G01X21908Y36016D01*
G01X21885Y36011D01*
G01X21863Y36003D01*
G01X21841Y35994D01*
G01X21820Y35982D01*
G01X21801Y35969D01*
G01X21783Y35954D01*
G01X21766Y35937D01*
G01X21751Y35919D01*
G01X21738Y35899D01*
G01X21726Y35879D01*
G01X21716Y35857D01*
G01X21709Y35835D01*
G01X21704Y35811D01*
G01X21700Y35788D01*
G01X21699Y35764D01*
G01X21699Y35078D01*
G01X22192Y35078D01*
G01X22192Y36021D01*
G37*
G36*
G01X21148Y36021D02*
G01X20912Y36021D01*
G01X20912Y35078D01*
G01X21404Y35078D01*
G01X21404Y35764D01*
G01X21403Y35788D01*
G01X21400Y35811D01*
G01X21395Y35835D01*
G01X21387Y35857D01*
G01X21377Y35879D01*
G01X21366Y35899D01*
G01X21353Y35919D01*
G01X21337Y35937D01*
G01X21321Y35954D01*
G01X21302Y35969D01*
G01X21283Y35982D01*
G01X21262Y35994D01*
G01X21240Y36003D01*
G01X21218Y36011D01*
G01X21195Y36016D01*
G01X21172Y36019D01*
G01X21148Y36021D01*
G37*
G36*
G01X34157Y35808D02*
G01X33634Y35808D01*
G01X33658Y35764D01*
G01X33683Y35720D01*
G01X33710Y35678D01*
G01X33739Y35637D01*
G01X33769Y35597D01*
G01X33802Y35559D01*
G01X33836Y35522D01*
G01X33871Y35487D01*
G01X33908Y35453D01*
G01X33946Y35420D01*
G01X33986Y35390D01*
G01X34027Y35361D01*
G01X34069Y35334D01*
G01X34113Y35309D01*
G01X34157Y35285D01*
G01X34157Y35808D01*
G37*
G36*
G01X35707Y35808D02*
G01X35184Y35808D01*
G01X35184Y35285D01*
G01X35229Y35309D01*
G01X35272Y35334D01*
G01X35314Y35361D01*
G01X35356Y35390D01*
G01X35395Y35420D01*
G01X35434Y35453D01*
G01X35471Y35487D01*
G01X35506Y35522D01*
G01X35540Y35559D01*
G01X35572Y35597D01*
G01X35603Y35637D01*
G01X35632Y35678D01*
G01X35659Y35720D01*
G01X35684Y35764D01*
G01X35707Y35808D01*
G37*
G36*
G01X18155Y37332D02*
G01X17632Y37332D01*
G01X17656Y37288D01*
G01X17681Y37244D01*
G01X17708Y37202D01*
G01X17737Y37161D01*
G01X17767Y37121D01*
G01X17800Y37083D01*
G01X17834Y37046D01*
G01X17869Y37011D01*
G01X17906Y36977D01*
G01X17944Y36944D01*
G01X17984Y36914D01*
G01X18025Y36885D01*
G01X18067Y36858D01*
G01X18111Y36833D01*
G01X18155Y36809D01*
G01X18155Y37332D01*
G37*
G36*
G01X19705Y37332D02*
G01X19182Y37332D01*
G01X19182Y36809D01*
G01X19227Y36833D01*
G01X19270Y36858D01*
G01X19312Y36885D01*
G01X19354Y36914D01*
G01X19393Y36944D01*
G01X19432Y36977D01*
G01X19469Y37011D01*
G01X19504Y37046D01*
G01X19538Y37083D01*
G01X19570Y37121D01*
G01X19601Y37161D01*
G01X19630Y37202D01*
G01X19657Y37244D01*
G01X19682Y37288D01*
G01X19705Y37332D01*
G37*
G36*
G01X38151Y39371D02*
G01X38100Y39372D01*
G01X38048Y39371D01*
G01X37997Y39368D01*
G01X37946Y39363D01*
G01X37896Y39356D01*
G01X37845Y39346D01*
G01X37795Y39335D01*
G01X37746Y39322D01*
G01X37697Y39307D01*
G01X37601Y39271D01*
G01X37554Y39249D01*
G01X37508Y39226D01*
G01X37464Y39202D01*
G01X37420Y39175D01*
G01X37377Y39147D01*
G01X37335Y39117D01*
G01X37295Y39085D01*
G01X37256Y39052D01*
G01X37218Y39018D01*
G01X37182Y38981D01*
G01X37147Y38944D01*
G01X37114Y38904D01*
G01X37082Y38864D01*
G01X37052Y38823D01*
G01X37024Y38780D01*
G01X36998Y38736D01*
G01X36973Y38691D01*
G01X36950Y38645D01*
G01X36929Y38599D01*
G01X36910Y38551D01*
G01X36893Y38503D01*
G01X36878Y38454D01*
G01X36864Y38404D01*
G01X36853Y38354D01*
G01X36843Y38304D01*
G01X36836Y38253D01*
G01X36831Y38202D01*
G01X36828Y38151D01*
G01X36827Y38100D01*
G01X36828Y38048D01*
G01X36831Y37997D01*
G01X36836Y37946D01*
G01X36843Y37896D01*
G01X36853Y37845D01*
G01X36864Y37795D01*
G01X36878Y37746D01*
G01X36893Y37697D01*
G01X36910Y37649D01*
G01X36929Y37601D01*
G01X36950Y37554D01*
G01X36973Y37508D01*
G01X36998Y37463D01*
G01X37024Y37420D01*
G01X37052Y37377D01*
G01X37082Y37335D01*
G01X37114Y37295D01*
G01X37147Y37256D01*
G01X37182Y37218D01*
G01X37218Y37182D01*
G01X37256Y37147D01*
G01X37295Y37114D01*
G01X37335Y37082D01*
G01X37377Y37052D01*
G01X37420Y37024D01*
G01X37464Y36998D01*
G01X37508Y36973D01*
G01X37554Y36950D01*
G01X37601Y36929D01*
G01X37649Y36910D01*
G01X37697Y36893D01*
G01X37746Y36878D01*
G01X37795Y36864D01*
G01X37845Y36853D01*
G01X37896Y36843D01*
G01X37946Y36836D01*
G01X37997Y36831D01*
G01X38048Y36828D01*
G01X38100Y36827D01*
G01X38151Y36828D01*
G01X38202Y36831D01*
G01X38253Y36836D01*
G01X38304Y36843D01*
G01X38354Y36853D01*
G01X38404Y36864D01*
G01X38454Y36878D01*
G01X38503Y36893D01*
G01X38551Y36910D01*
G01X38599Y36929D01*
G01X38645Y36950D01*
G01X38691Y36973D01*
G01X38736Y36998D01*
G01X38780Y37024D01*
G01X38823Y37052D01*
G01X38864Y37082D01*
G01X38904Y37114D01*
G01X38944Y37147D01*
G01X38981Y37182D01*
G01X39018Y37218D01*
G01X39052Y37256D01*
G01X39085Y37295D01*
G01X39117Y37335D01*
G01X39147Y37377D01*
G01X39175Y37420D01*
G01X39202Y37463D01*
G01X39226Y37508D01*
G01X39249Y37554D01*
G01X39271Y37601D01*
G01X39307Y37697D01*
G01X39322Y37746D01*
G01X39335Y37795D01*
G01X39346Y37845D01*
G01X39356Y37896D01*
G01X39363Y37946D01*
G01X39368Y37997D01*
G01X39371Y38048D01*
G01X39372Y38100D01*
G01X39371Y38151D01*
G01X39368Y38202D01*
G01X39363Y38253D01*
G01X39356Y38304D01*
G01X39346Y38354D01*
G01X39335Y38404D01*
G01X39322Y38454D01*
G01X39307Y38503D01*
G01X39271Y38599D01*
G01X39249Y38645D01*
G01X39226Y38691D01*
G01X39202Y38736D01*
G01X39175Y38780D01*
G01X39147Y38823D01*
G01X39117Y38864D01*
G01X39085Y38904D01*
G01X39052Y38944D01*
G01X39018Y38981D01*
G01X38981Y39018D01*
G01X38944Y39052D01*
G01X38904Y39085D01*
G01X38864Y39117D01*
G01X38823Y39147D01*
G01X38780Y39175D01*
G01X38736Y39202D01*
G01X38691Y39226D01*
G01X38645Y39249D01*
G01X38599Y39271D01*
G01X38503Y39307D01*
G01X38454Y39322D01*
G01X38404Y39335D01*
G01X38354Y39346D01*
G01X38304Y39356D01*
G01X38253Y39363D01*
G01X38202Y39368D01*
G01X38151Y39371D01*
G37*
G36*
G01X2591Y39371D02*
G01X2540Y39372D01*
G01X2488Y39371D01*
G01X2437Y39368D01*
G01X2386Y39363D01*
G01X2336Y39356D01*
G01X2285Y39346D01*
G01X2235Y39335D01*
G01X2186Y39322D01*
G01X2137Y39307D01*
G01X2041Y39271D01*
G01X1994Y39249D01*
G01X1948Y39226D01*
G01X1904Y39202D01*
G01X1860Y39175D01*
G01X1817Y39147D01*
G01X1775Y39117D01*
G01X1735Y39085D01*
G01X1696Y39052D01*
G01X1658Y39018D01*
G01X1622Y38981D01*
G01X1587Y38944D01*
G01X1554Y38904D01*
G01X1522Y38864D01*
G01X1492Y38823D01*
G01X1464Y38780D01*
G01X1438Y38736D01*
G01X1413Y38691D01*
G01X1390Y38645D01*
G01X1369Y38599D01*
G01X1350Y38551D01*
G01X1333Y38503D01*
G01X1318Y38454D01*
G01X1304Y38404D01*
G01X1293Y38354D01*
G01X1283Y38304D01*
G01X1276Y38253D01*
G01X1271Y38202D01*
G01X1268Y38151D01*
G01X1267Y38100D01*
G01X1268Y38048D01*
G01X1271Y37997D01*
G01X1276Y37946D01*
G01X1283Y37896D01*
G01X1293Y37845D01*
G01X1304Y37795D01*
G01X1318Y37746D01*
G01X1333Y37697D01*
G01X1350Y37649D01*
G01X1369Y37601D01*
G01X1390Y37554D01*
G01X1413Y37508D01*
G01X1438Y37463D01*
G01X1464Y37420D01*
G01X1492Y37377D01*
G01X1522Y37335D01*
G01X1554Y37295D01*
G01X1587Y37256D01*
G01X1622Y37218D01*
G01X1658Y37182D01*
G01X1696Y37147D01*
G01X1735Y37114D01*
G01X1775Y37082D01*
G01X1817Y37052D01*
G01X1860Y37024D01*
G01X1904Y36998D01*
G01X1948Y36973D01*
G01X1994Y36950D01*
G01X2041Y36929D01*
G01X2089Y36910D01*
G01X2137Y36893D01*
G01X2186Y36878D01*
G01X2235Y36864D01*
G01X2285Y36853D01*
G01X2336Y36843D01*
G01X2386Y36836D01*
G01X2437Y36831D01*
G01X2488Y36828D01*
G01X2540Y36827D01*
G01X2591Y36828D01*
G01X2642Y36831D01*
G01X2693Y36836D01*
G01X2744Y36843D01*
G01X2794Y36853D01*
G01X2844Y36864D01*
G01X2894Y36878D01*
G01X2943Y36893D01*
G01X2991Y36910D01*
G01X3039Y36929D01*
G01X3085Y36950D01*
G01X3131Y36973D01*
G01X3176Y36998D01*
G01X3220Y37024D01*
G01X3263Y37052D01*
G01X3304Y37082D01*
G01X3344Y37114D01*
G01X3384Y37147D01*
G01X3421Y37182D01*
G01X3458Y37218D01*
G01X3492Y37256D01*
G01X3525Y37295D01*
G01X3557Y37335D01*
G01X3587Y37377D01*
G01X3615Y37420D01*
G01X3642Y37463D01*
G01X3666Y37508D01*
G01X3689Y37554D01*
G01X3711Y37601D01*
G01X3747Y37697D01*
G01X3762Y37746D01*
G01X3775Y37795D01*
G01X3786Y37845D01*
G01X3796Y37896D01*
G01X3803Y37946D01*
G01X3808Y37997D01*
G01X3811Y38048D01*
G01X3812Y38100D01*
G01X3811Y38151D01*
G01X3808Y38202D01*
G01X3803Y38253D01*
G01X3796Y38304D01*
G01X3786Y38354D01*
G01X3775Y38404D01*
G01X3762Y38454D01*
G01X3747Y38503D01*
G01X3711Y38599D01*
G01X3689Y38645D01*
G01X3666Y38691D01*
G01X3642Y38736D01*
G01X3615Y38780D01*
G01X3587Y38823D01*
G01X3557Y38864D01*
G01X3525Y38904D01*
G01X3492Y38944D01*
G01X3458Y38981D01*
G01X3421Y39018D01*
G01X3384Y39052D01*
G01X3344Y39085D01*
G01X3304Y39117D01*
G01X3263Y39147D01*
G01X3220Y39175D01*
G01X3176Y39202D01*
G01X3131Y39226D01*
G01X3085Y39249D01*
G01X3039Y39271D01*
G01X2943Y39307D01*
G01X2894Y39322D01*
G01X2844Y39335D01*
G01X2794Y39346D01*
G01X2744Y39356D01*
G01X2693Y39363D01*
G01X2642Y39368D01*
G01X2591Y39371D01*
G37*
G36*
G01X34157Y36835D02*
G01X34157Y37358D01*
G01X34113Y37335D01*
G01X34069Y37310D01*
G01X34027Y37283D01*
G01X33986Y37254D01*
G01X33946Y37223D01*
G01X33908Y37191D01*
G01X33871Y37157D01*
G01X33836Y37122D01*
G01X33802Y37085D01*
G01X33769Y37046D01*
G01X33739Y37007D01*
G01X33710Y36965D01*
G01X33683Y36923D01*
G01X33658Y36880D01*
G01X33634Y36835D01*
G01X34157Y36835D01*
G37*

%LPD*%
G54D11*
G01X31879Y39131D02*
G01X34148Y39131D01*
G01X37084Y36195D01*
G01X37084Y31374D01*
G01X29972Y33134D02*
G01X29972Y31623D01*
G01X32512Y31623D01*
G01X34671Y33782D01*
G54D10*
G01X23697Y13553D02*
G01X17197Y13553D01*
G01X16561Y31496D02*
G01X16561Y34264D01*
G01X13589Y15621D02*
G01X13589Y20828D01*
G01X5537Y16256D02*
G01X8636Y13157D01*
G01X9017Y13157D01*
G54D11*
G01X31879Y36830D02*
G01X25778Y36830D01*
G01X5969Y37846D02*
G01X7620Y39497D01*
G01X20320Y39497D01*
G01X22987Y36830D01*
G01X25778Y36830D01*
G54D10*
G01X13589Y37846D02*
G01X11557Y35814D01*
G01X11557Y29464D01*
G01X8560Y26467D01*
G01X8560Y17856D01*
G01X2337Y16256D02*
G01X2337Y18085D01*
G01X3175Y18923D01*
G01X8560Y18923D01*
G01X8560Y17857D01*
G54D11*
G01X31879Y36830D02*
G01X29972Y34922D01*
G01X29972Y31375D01*
G54D10*
G01X36528Y22352D02*
G01X35687Y22352D01*
G01X34417Y21082D01*
G01X34417Y19431D01*
G01X35636Y18212D01*
G01X35636Y17653D01*
G01X21590Y3810D02*
G01X24511Y6731D01*
G01X34036Y6731D01*
G01X36449Y9144D01*
G01X36449Y14351D01*
G01X35179Y15621D01*
G01X34417Y15621D01*
G01X32436Y17602D01*
G01X32436Y17653D01*
G01X8560Y17856D02*
G01X9398Y17018D01*
G01X9398Y16129D01*
G01X10541Y14986D01*
G01X15621Y14986D01*
G01X17053Y13553D01*
G01X17198Y13553D01*
G01X28575Y12903D02*
G01X28575Y14605D01*
G01X28321Y14859D01*
G01X16637Y14859D01*
G01X15621Y15875D01*
G01X15621Y29210D01*
G01X16561Y30150D01*
G01X16561Y31496D01*
G01X16561Y17856D02*
G01X16561Y16586D01*
G01X17653Y15494D01*
G01X32766Y15494D01*
G01X33871Y14389D01*
G01X33871Y12941D01*
G01X26589Y3810D02*
G01X26589Y4115D01*
G01X28321Y5842D01*
G01X34798Y5842D01*
G01X37465Y8509D01*
G01X37465Y20193D01*
G01X36528Y21082D01*
G01X30528Y21082D02*
G01X30226Y21082D01*
G01X30226Y17653D01*
G01X29794Y17653D01*
G01X30528Y21082D02*
G01X30226Y21082D01*
G01X28956Y19812D01*
G01X21717Y19812D01*
G01X20548Y18643D01*
G01X20548Y17856D01*
G01X30528Y22352D02*
G01X30353Y22352D01*
G01X28321Y20320D01*
G01X20066Y20320D01*
G01X18542Y18796D01*
G01X18542Y17856D01*
G01X14732Y9855D02*
G01X14274Y9398D01*
G01X12065Y9398D01*
G01X9017Y9982D02*
G01X8559Y9525D01*
G01X6350Y9525D01*
G01X33871Y9766D02*
G01X33540Y9435D01*
G01X31203Y9435D01*
G01X28575Y9728D02*
G01X28244Y9398D01*
G01X25908Y9398D01*
G01X16129Y37846D02*
G01X16383Y37846D01*
G01X16383Y35280D01*
G01X16561Y35103D01*
G01X16561Y34264D01*
G01X10541Y34264D02*
G01X10541Y34544D01*
G01X10668Y34671D01*
G01X10668Y37846D01*
G01X11049Y37846D01*
G01X8560Y34264D02*
G01X8560Y35103D01*
G01X8509Y35153D01*
G01X8509Y37846D01*
G01X2337Y16256D02*
G01X3810Y14783D01*
G01X3810Y10541D01*
G01X14554Y17857D02*
G01X14478Y17933D01*
G01X14478Y19685D01*
G01X12547Y34264D02*
G01X12700Y34112D01*
G01X12700Y31623D01*
G01X14554Y34264D02*
G01X14986Y34264D01*
G01X14986Y31623D01*
G01X15240Y31623D01*
G01X24663Y27356D02*
G01X24460Y27559D01*
G01X21463Y27559D01*
G01X24663Y25374D02*
G01X24308Y25019D01*
G01X21463Y25019D01*
G01X10541Y21082D02*
G01X10541Y17857D01*
G54D12*
G01X37228Y21082D02*
G01X35828Y21082D01*
G01X37228Y22352D02*
G01X35828Y22352D01*
G01X31228Y22352D02*
G01X29828Y22352D01*
G01X31228Y21082D02*
G01X29828Y21082D01*
G54D14*
G01X2032Y10541D03*
G01X3810Y10541D03*
G54D15*
G01X6350Y11557D03*
G01X6350Y9525D03*
G01X12065Y11430D03*
G01X12065Y9398D03*
G01X25908Y11430D03*
G01X25908Y9398D03*
G01X31203Y11468D03*
G01X31203Y9436D03*
G54D16*
G01X31879Y34529D03*
G01X31879Y36830D03*
G01X31879Y39131D03*
G54D17*
G01X25778Y36830D03*
G54D18*
G01X12846Y5458D03*
G01X12196Y5458D03*
G01X11546Y5458D03*
G01X10896Y5458D03*
G01X10246Y5458D03*
G54D19*
G01X13152Y1146D03*
G01X9874Y1162D03*
G54D20*
G01X9017Y13157D03*
G01X9017Y9982D03*
G01X14732Y13030D03*
G01X14732Y9855D03*
G01X33871Y12941D03*
G01X33871Y9766D03*
G54D21*
G01X8560Y17857D03*
G01X10541Y17857D03*
G01X12547Y17857D03*
G01X14554Y17857D03*
G01X16561Y17857D03*
G01X18542Y17857D03*
G01X20548Y17857D03*
G01X22555Y17857D03*
G01X8560Y34264D03*
G01X10541Y34264D03*
G01X12547Y34264D03*
G01X14554Y34264D03*
G01X16561Y34264D03*
G01X18542Y34264D03*
G01X20548Y34264D03*
G01X22555Y34264D03*
G54D22*
G01X24663Y29362D03*
G01X24663Y27356D03*
G01X24663Y25374D03*
G01X24663Y23368D03*
G01X24663Y21361D03*
G01X24663Y31369D03*
G54D23*
G01X37084Y31375D03*
G01X37084Y25775D03*
G01X29972Y31375D03*
G01X29972Y25775D03*
G54D24*
G01X29794Y17653D03*
G01X26594Y17653D03*
G01X2337Y16256D03*
G01X5537Y16256D03*
G01X32436Y17653D03*
G01X35636Y17653D03*
G54D20*
G01X28575Y12903D03*
G01X28575Y9728D03*
G54D25*
G01X12700Y31623D03*
G01X15240Y31623D03*
G01X21463Y27559D03*
G01X21463Y25019D03*
G01X10541Y21082D03*
G54D26*
G01X34671Y38862D03*
G01X34671Y36322D03*
G54D27*
G01X34671Y33782D03*
G54D26*
G01X18669Y37846D03*
G01X16129Y37846D03*
G01X13589Y37846D03*
G01X11049Y37846D03*
G01X8509Y37846D03*
G54D28*
G01X5969Y37846D03*
G54D29*
G01X21590Y3810D03*
G01X26588Y3810D03*
G01X31750Y3810D03*
G54D30*
G01X9146Y4673D03*
G01X13988Y4673D03*
G54D25*
G01X23697Y13553D03*
G01X17197Y13553D03*
G01X23697Y9053D03*
G01X17197Y9053D03*
G54D13*
G01X5537Y16256D03*
G01X29972Y34925D03*
G01X26416Y17780D03*
G01X12573Y17780D03*
G01X22606Y17780D03*
G01X10246Y5458D03*
G01X31877Y39116D03*
G01X14732Y13030D03*
G01X13589Y15621D03*
G01X13589Y20828D03*
G01X18542Y34290D03*
G01X2032Y10541D03*
G01X14478Y19685D03*
G54D30*
G01X15176Y2423D02*
G01X15176Y1523D01*
G01X7937Y2423D02*
G01X7937Y1523D01*
M00*
M02*
