;Layer: Drill PTH
;EasyEDA v6.3.22, 2020-01-22T21:57:18+01:00
;bd40d7d6537d4de99fa6425ab58450c0,9eabfb72a9474bef872f988307f0334b,10
;Gerber Generator version 0.2
M48
INCH,LZ,00.0000
;Holesize 1 = 0.012 INCH
T01C0.012
;Holesize 2 = 0.028 INCH
T02C0.028
;Holesize 3 = 0.035 INCH
T03C0.035
;Holesize 4 = 0.039 INCH
T04C0.039
;Holesize 5 = 0.047 INCH
T05C0.047
;Holesize 6 = 0.067 INCH
T06C0.067
%
G05
G90
T01
X+002180Y+006400
X+011800Y+013750
X+010400Y+007000
X+004950Y+007000
X+008900Y+007000
X+004034Y+002148
X+012550Y+015400
X+005800Y+005130
X+005350Y+006150
X+005350Y+007900
X+007300Y+013500
T02
X+005975Y+000619G85X+005975Y+000934
X+003125Y+000619G85X+003125Y+000934
T03
X+003601Y+001840
X+005507Y+001840
T04
X+009329Y+005335
X+006770Y+005335
X+009329Y+003564
X+006770Y+003564
T05
X+007350Y+014900
X+006350Y+014900
X+005350Y+014900
X+004350Y+014900
X+003350Y+014900
X+002350Y+014900
T06
X+008500Y+001500
X+010468Y+001500
X+012500Y+001500
M30
