<?xml version="1.0" encoding="iso-8859-1"?>
<svg version="1.1" id="Capa_1" xmlns="http://www.w3.org/2000/svg" xmlns:xlink="http://www.w3.org/1999/xlink" x="0px" y="0px"
	 viewBox="0 0 391.399 391.399" style="enable-background:new 0 0 391.399 391.399;" xml:space="preserve">
<path style="fill:#ffee58;" d="M144.299,377.699l50.4-143.6l-132.4-0.4c-5.6,0-10-4.4-10-10c0-2.4,0.8-4.4,2.4-6.4l0,0
	c38.8-47.6,77.6-95.2,116.4-142.8c19.2-23.2,38.4-46.8,58-70.8c3.6-4.4,9.6-4.8,14-1.6c3.2,2.8,4.4,7.2,3.2,11.2l-50.8,144
	l132.4,0.4c5.6,0,10,4.4,10,10c0,2.4-0.8,4.4-2,6l0,0c-37.2,48-76.4,95.2-115.6,142.8c-19.2,23.2-38.4,46.4-58.8,71.2
	c-3.6,4.4-9.6,4.8-14,1.6C143.899,386.099,142.699,381.699,144.299,377.699"/>
<g>
	<path style="fill:#c9bc1f;" d="M119.499,332.899c4.8,2.8,6.8,8.8,4,13.6c-2.8,4.8-8.8,6.8-13.6,4c-28.8-15.6-52.4-38.4-68.8-66
		c-16-27.2-25.2-58.4-25.2-91.6c0-41.6,14.4-80.4,38.8-111.2s59.2-53.6,99.6-63.2c5.2-1.2,10.8,2,12,7.6c1.2,5.2-2,10.8-7.6,12
		c-36,8.4-66.8,28.8-88.4,56s-34.4,62-34.4,98.8c0,29.2,8,57.2,22.4,81.6C73.099,298.899,93.899,319.299,119.499,332.899"/>
	<path style="fill:#c9bc1f;" d="M273.099,53.699c-4.8-2.8-6.8-8.8-4-13.6c2.8-4.8,8.8-6.8,13.6-4c28.8,15.6,52,38.8,68,65.6
		c16,27.2,24.8,58.4,24.8,91.2c0,42-14.8,81.2-39.6,112c-24.8,30.8-60,53.6-100.8,62.8c-5.2,1.2-10.8-2.4-12-7.6s2.4-10.8,7.6-12
		c36.4-8,67.6-28.4,89.6-55.6c22-27.6,35.2-62.4,35.2-99.6c0-29.2-8-56.8-22-80.8C319.099,88.099,298.699,67.699,273.099,53.699"/>
</g>

</svg>
